<?xml version="1.0" standalone="no"?>
<!DOCTYPE svg PUBLIC "-//W3C//DTD SVG 20010904//EN"
 "http://www.w3.org/TR/2001/REC-SVG-20010904/DTD/svg10.dtd">
<svg version="1.0" xmlns="http://www.w3.org/2000/svg"
 width="600.000000pt" height="600.000000pt" viewBox="0 0 600.000000 600.000000"
 preserveAspectRatio="xMidYMid meet">
<metadata>
Created by potrace 1.11, written by Peter Selinger 2001-2013
</metadata>
<g transform="translate(0.000000,600.000000) scale(0.100000,-0.100000)"
fill="#000000" stroke="none">
<path d="M2770 5349 c-886 -89 -1469 -728 -1630 -1786 -65 -433 -48 -960 46
-1380 66 -298 207 -631 351 -832 230 -320 551 -539 929 -635 369 -93 820 -83
1164 26 52 16 98 33 102 37 4 4 -79 94 -186 200 l-193 193 -104 -17 c-208 -36
-484 -18 -666 41 -499 163 -820 632 -917 1341 -74 539 -18 1100 153 1514 212
512 592 792 1111 816 826 37 1343 -541 1429 -1600 26 -311 2 -673 -63 -965
l-23 -103 212 -217 212 -216 32 89 c109 301 166 639 178 1045 30 1092 -354
1922 -1051 2272 -301 151 -698 216 -1086 177z"/>
<path d="M3504 2180 c-56 -17 -127 -73 -158 -124 -24 -38 -31 -63 -34 -117 -7
-123 -19 -109 577 -711 381 -385 543 -542 575 -557 106 -52 225 -33 306 48 81
81 102 199 52 298 -29 56 -1064 1119 -1116 1145 -46 24 -153 33 -202 18z"/>
</g>
</svg>
