<svg width="85" height="43" viewBox="0 0 85 43" version="1.1" xmlns="http://www.w3.org/2000/svg" xmlns:xlink="http://www.w3.org/1999/xlink">
<title>noun_130996_cc</title>
<desc>Created using Figma</desc>
<g id="Canvas" transform="translate(5642 -10859)">
<g id="noun_130996_cc">
<g id="Group">
<g id="Vector">
<mask id="mask0_outline_ins">
<use xlink:href="#path0_fill" fill="white" transform="translate(-5642 10859)"/>
</mask>
<g mask="url(#mask0_outline_ins)">
<use xlink:href="#path1_stroke_2x" transform="translate(-5642 10859)" fill="#5D2FCD"/>
</g>
</g>
</g>
</g>
</g>
<defs>
<path id="path0_fill" d="M 83.8702 12.1552C 70.7944 4.08959 56.8703 -5.17431e-07 42.5 -5.17431e-07C 28.1244 -5.17431e-07 14.2039 4.08959 1.12625 12.1552L 0 12.852L 0.405521 14.0779C 2.17104 19.4204 3.95781 23.7338 5.68792 27.9065C 7.38969 32.0181 9.15167 36.2688 10.8782 41.4893L 11.3794 43L 12.982 42.6117C 23.6601 40.0481 33.3466 38.8019 42.6009 38.8019C 51.8411 38.8019 61.1876 40.0142 72.0198 42.6134L 73.6224 43L 74.12 41.4893C 75.8466 36.2654 77.6121 32.008 79.3174 27.8929C 81.0475 23.7271 82.8325 19.4154 84.5963 14.0779L 85 12.852L 83.8702 12.1552ZM 51.2727 22.2537L 45.135 22.2537L 45.135 28.132L 39.8632 28.132L 39.8632 22.2537L 33.7273 22.2537L 33.7273 17.2061L 39.8632 17.2061L 39.8632 11.3311L 45.135 11.3311L 45.135 17.2061L 51.2727 17.2061L 51.2727 22.2537Z"/>
<path id="path1_stroke_2x" d="M 83.8702 12.1552L 83.3452 13.0063L 83.3452 13.0063L 83.8702 12.1552ZM 1.12625 12.1552L 0.601311 11.304L 0.600084 11.3048L 1.12625 12.1552ZM 0 12.852L -0.526166 12.0016L -1.19725 12.4169L -0.949401 13.1661L 0 12.852ZM 0.405521 14.0779L 1.35502 13.7641L 1.35492 13.7638L 0.405521 14.0779ZM 5.68792 27.9065L 6.6119 27.5241L 6.61166 27.5235L 5.68792 27.9065ZM 10.8782 41.4893L 9.92881 41.8033L 9.92909 41.8042L 10.8782 41.4893ZM 11.3794 43L 10.4302 43.3149L 10.7201 44.1887L 11.6148 43.9719L 11.3794 43ZM 12.982 42.6117L 12.7485 41.6394L 12.7465 41.6398L 12.982 42.6117ZM 72.0198 42.6134L 72.2543 41.6413L 72.2531 41.641L 72.0198 42.6134ZM 73.6224 43L 73.3879 43.9721L 74.2839 44.1882L 74.5722 43.3129L 73.6224 43ZM 74.12 41.4893L 73.1705 41.1755L 73.1702 41.1764L 74.12 41.4893ZM 79.3174 27.8929L 78.3939 27.5094L 78.3936 27.5101L 79.3174 27.8929ZM 84.5963 14.0779L 85.5458 14.3916L 85.5461 14.3907L 84.5963 14.0779ZM 85 12.852L 85.9498 13.1648L 86.1967 12.4152L 85.525 12.0009L 85 12.852ZM 51.2727 22.2537L 51.2727 23.2537L 52.2727 23.2537L 52.2727 22.2537L 51.2727 22.2537ZM 45.135 22.2537L 45.135 21.2537L 44.135 21.2537L 44.135 22.2537L 45.135 22.2537ZM 45.135 28.132L 45.135 29.132L 46.135 29.132L 46.135 28.132L 45.135 28.132ZM 39.8632 28.132L 38.8632 28.132L 38.8632 29.132L 39.8632 29.132L 39.8632 28.132ZM 39.8632 22.2537L 40.8632 22.2537L 40.8632 21.2537L 39.8632 21.2537L 39.8632 22.2537ZM 33.7273 22.2537L 32.7273 22.2537L 32.7273 23.2537L 33.7273 23.2537L 33.7273 22.2537ZM 33.7273 17.2061L 33.7273 16.2061L 32.7273 16.2061L 32.7273 17.2061L 33.7273 17.2061ZM 39.8632 17.2061L 39.8632 18.2061L 40.8632 18.2061L 40.8632 17.2061L 39.8632 17.2061ZM 39.8632 11.3311L 39.8632 10.3311L 38.8632 10.3311L 38.8632 11.3311L 39.8632 11.3311ZM 45.135 11.3311L 46.135 11.3311L 46.135 10.3311L 45.135 10.3311L 45.135 11.3311ZM 45.135 17.2061L 44.135 17.2061L 44.135 18.2061L 45.135 18.2061L 45.135 17.2061ZM 51.2727 17.2061L 52.2727 17.2061L 52.2727 16.2061L 51.2727 16.2061L 51.2727 17.2061ZM 84.3952 11.3041C 71.2014 3.17617 57.0127 -0.989817 42.5 -1L 42.5 0.999999C 56.728 0.989816 70.3874 5.00301 83.3452 13.0063L 84.3952 11.3041ZM 42.5 -1C 27.982 -0.989812 13.7968 3.17617 0.601312 11.304L 1.65119 13.0063C 14.6109 5.003 28.2668 0.989811 42.5 0.999999L 42.5 -1ZM 0.600084 11.3048L -0.526166 12.0016L 0.526166 13.7024L 1.65242 13.0055L 0.600084 11.3048ZM -0.949401 13.1661L -0.54388 14.3919L 1.35492 13.7638L 0.949401 12.5379L -0.949401 13.1661ZM -0.543977 14.3916C 1.23372 19.7689 3.034 24.1167 4.76417 28.2895L 6.61166 27.5235C 4.88162 23.351 3.10836 19.072 1.35502 13.7641L -0.543977 14.3916ZM 4.76393 28.2889C 6.46581 32.4008 8.21443 36.6175 9.92881 41.8033L 11.8277 41.1753C 10.0889 35.9201 8.31357 31.6355 6.6119 27.5241L 4.76393 28.2889ZM 9.92909 41.8042L 10.4302 43.3149L 12.3285 42.6851L 11.8274 41.1744L 9.92909 41.8042ZM 11.6148 43.9719L 13.2174 43.5836L 12.7465 41.6398L 11.1439 42.0281L 11.6148 43.9719ZM 13.2154 43.5841C 23.8409 41.0316 33.4105 39.7999 42.6009 39.8019L 42.6009 37.8019C 33.2826 37.804 23.4793 39.0646 12.7485 41.6394L 13.2154 43.5841ZM 42.6009 39.8019C 51.7767 39.7998 61.0064 40.9976 71.7865 43.5858L 72.2531 41.641C 61.3688 39.0308 51.9056 37.804 42.6009 37.8019L 42.6009 39.8019ZM 71.7853 43.5855L 73.3879 43.9721L 73.8569 42.0279L 72.2543 41.6413L 71.7853 43.5855ZM 74.5722 43.3129L 75.0698 41.8021L 73.1702 41.1764L 72.6726 42.6871L 74.5722 43.3129ZM 75.0695 41.8031C 76.7838 36.6141 78.5359 32.3909 80.2412 28.2758L 78.3936 27.5101C 76.6883 31.625 74.9093 35.9167 73.1705 41.1755L 75.0695 41.8031ZM 80.2409 28.2765C 81.9712 24.1101 83.7699 19.7637 85.5458 14.3916L 83.6467 13.7641C 81.8951 19.067 80.1238 23.344 78.3939 27.5094L 80.2409 28.2765ZM 85.5461 14.3907L 85.9498 13.1648L 84.0502 12.5392L 83.6464 13.765L 85.5461 14.3907ZM 85.525 12.0009L 84.3952 11.304L 83.3452 13.0063L 84.475 13.7031L 85.525 12.0009ZM 51.2727 21.2537L 45.135 21.2537L 45.135 23.2537L 51.2727 23.2537L 51.2727 21.2537ZM 44.135 22.2537L 44.135 28.132L 46.135 28.132L 46.135 22.2537L 44.135 22.2537ZM 45.135 27.132L 39.8632 27.132L 39.8632 29.132L 45.135 29.132L 45.135 27.132ZM 40.8632 28.132L 40.8632 22.2537L 38.8632 22.2537L 38.8632 28.132L 40.8632 28.132ZM 39.8632 21.2537L 33.7273 21.2537L 33.7273 23.2537L 39.8632 23.2537L 39.8632 21.2537ZM 34.7273 22.2537L 34.7273 17.2061L 32.7273 17.2061L 32.7273 22.2537L 34.7273 22.2537ZM 33.7273 18.2061L 39.8632 18.2061L 39.8632 16.2061L 33.7273 16.2061L 33.7273 18.2061ZM 40.8632 17.2061L 40.8632 11.3311L 38.8632 11.3311L 38.8632 17.2061L 40.8632 17.2061ZM 39.8632 12.3311L 45.135 12.3311L 45.135 10.3311L 39.8632 10.3311L 39.8632 12.3311ZM 44.135 11.3311L 44.135 17.2061L 46.135 17.2061L 46.135 11.3311L 44.135 11.3311ZM 45.135 18.2061L 51.2727 18.2061L 51.2727 16.2061L 45.135 16.2061L 45.135 18.2061ZM 50.2727 17.2061L 50.2727 22.2537L 52.2727 22.2537L 52.2727 17.2061L 50.2727 17.2061Z"/>
</defs>
</svg>
