<svg width="39" height="66" viewBox="0 0 39 66" version="1.1" xmlns="http://www.w3.org/2000/svg" xmlns:xlink="http://www.w3.org/1999/xlink">
<title>noun_90409_cc (1)</title>
<desc>Created using Figma</desc>
<g id="Canvas" transform="translate(5815 -10854)">
<g id="noun_90409_cc (1)">
<g id="Vector">
<use xlink:href="#path0_fill" transform="translate(-5815 10854)" fill="#5D2FCD"/>
</g>
<g id="Vector">
<use xlink:href="#path1_fill" transform="translate(-5808.36 10889.6)" fill="#5D2FCD"/>
</g>
<g id="Vector">
<use xlink:href="#path2_fill" transform="translate(-5808.36 10885.5)" fill="#5D2FCD"/>
</g>
<g id="Vector">
<use xlink:href="#path3_fill" transform="translate(-5808.36 10877.3)" fill="#5D2FCD"/>
</g>
<g id="Vector">
<use xlink:href="#path4_fill" transform="translate(-5808.36 10881.4)" fill="#5D2FCD"/>
</g>
<g id="Vector">
<use xlink:href="#path5_fill" transform="translate(-5808.36 10873.2)" fill="#5D2FCD"/>
</g>
<g id="Vector">
<use xlink:href="#path6_fill" transform="translate(-5783.7 10877.3)" fill="#5D2FCD"/>
</g>
<g id="Vector">
<use xlink:href="#path7_fill" transform="translate(-5783.7 10873.2)" fill="#5D2FCD"/>
</g>
<g id="Vector">
<use xlink:href="#path8_fill" transform="translate(-5783.7 10881.4)" fill="#5D2FCD"/>
</g>
<g id="Vector">
<use xlink:href="#path9_fill" transform="translate(-5783.7 10885.5)" fill="#5D2FCD"/>
</g>
<g id="Vector">
<use xlink:href="#path10_fill" transform="translate(-5783.7 10889.6)" fill="#5D2FCD"/>
</g>
<g id="Vector">
<use xlink:href="#path11_fill" transform="translate(-5803.92 10858.4)" fill="#5D2FCD"/>
</g>
<g id="Vector">
<use xlink:href="#path12_fill" transform="translate(-5801.32 10865)" fill="#5D2FCD"/>
</g>
<g id="Vector">
<use xlink:href="#path13_fill" transform="translate(-5799.35 10864.1)" fill="#5D2FCD"/>
</g>
<g id="Vector">
<use xlink:href="#path14_fill" transform="translate(-5791.48 10865)" fill="#5D2FCD"/>
</g>
<g id="Vector">
<use xlink:href="#path15_fill" transform="translate(-5796.66 10863.9)" fill="#5D2FCD"/>
</g>
<g id="Vector">
<use xlink:href="#path16_fill" transform="translate(-5794.04 10864.1)" fill="#5D2FCD"/>
</g>
<g id="Vector">
<use xlink:href="#path17_fill" transform="translate(-5801.32 10862.8)" fill="#5D2FCD"/>
</g>
<g id="Vector">
<use xlink:href="#path18_fill" transform="translate(-5799.35 10862)" fill="#5D2FCD"/>
</g>
<g id="Vector">
<use xlink:href="#path19_fill" transform="translate(-5794.04 10862)" fill="#5D2FCD"/>
</g>
<g id="Vector">
<use xlink:href="#path20_fill" transform="translate(-5791.48 10862.8)" fill="#5D2FCD"/>
</g>
<g id="Vector">
<use xlink:href="#path21_fill" transform="translate(-5796.66 10861.8)" fill="#5D2FCD"/>
</g>
<g id="Vector">
<use xlink:href="#path22_fill" transform="translate(-5791.48 10907.9)" fill="#5D2FCD"/>
</g>
<g id="Vector">
<use xlink:href="#path23_fill" transform="translate(-5794.04 10909.6)" fill="#5D2FCD"/>
</g>
<g id="Vector">
<use xlink:href="#path24_fill" transform="translate(-5796.66 10910)" fill="#5D2FCD"/>
</g>
<g id="Vector">
<use xlink:href="#path25_fill" transform="translate(-5801.32 10907.9)" fill="#5D2FCD"/>
</g>
<g id="Vector">
<use xlink:href="#path26_fill" transform="translate(-5799.35 10909.6)" fill="#5D2FCD"/>
</g>
<g id="Vector">
<use xlink:href="#path27_fill" transform="translate(-5796.66 10912.1)" fill="#5D2FCD"/>
</g>
<g id="Vector">
<use xlink:href="#path28_fill" transform="translate(-5791.48 10910.1)" fill="#5D2FCD"/>
</g>
<g id="Vector">
<use xlink:href="#path29_fill" transform="translate(-5794.04 10911.7)" fill="#5D2FCD"/>
</g>
<g id="Vector">
<use xlink:href="#path30_fill" transform="translate(-5799.35 10911.7)" fill="#5D2FCD"/>
</g>
<g id="Vector">
<use xlink:href="#path31_fill" transform="translate(-5801.32 10910.1)" fill="#5D2FCD"/>
</g>
</g>
</g>
<defs>
<path id="path0_fill" d="M 38.5978 20.2684C 38.7819 18.523 37.7848 17.8001 37.2724 17.6735C 32.9033 16.299 32.8662 15.5732 32.8043 14.3703C 32.5525 9.42842 30.9964 5.65678 28.179 3.16078C 24.5363 -0.0661393 20.0638 -0.0254125 19.3113 0.0065876C 18.5638 -0.0246852 14.0877 -0.0683214 10.442 3.16078C 7.62465 5.65678 6.06784 9.4277 5.81674 14.3703C 5.75561 15.5724 5.71776 16.2983 1.38795 17.6619C 0.835538 17.8001 -0.160848 18.5223 0.0232903 20.2677C 0.155026 21.5164 0.0655042 32.4059 2.99853e-07 38.0081C 0.0123733 38.7761 0.583713 39.9514 2.10995 40.0408L 2.20384 40.0467C 3.05685 40.0954 4.34436 40.1688 5.15443 41.1114C 5.81383 41.8801 6.06639 43.131 5.90335 44.8328C 5.62751 47.7289 5.09984 50.8874 4.67479 53.4249C 4.29778 55.6772 4.02558 57.3049 4.02558 58.0991C 4.02558 61.4409 6.19958 65.4234 16.5557 65.4234L 18.7123 65.4234L 19.9095 65.4234L 22.0661 65.4234C 32.4222 65.4234 34.5962 61.4402 34.5962 58.0991C 34.5962 57.3049 34.324 55.6772 33.947 53.4249C 33.522 50.8874 32.9928 47.7289 32.7177 44.8328C 32.5562 43.131 32.8073 41.8794 33.4674 41.1114C 34.2767 40.1688 35.565 40.0961 36.4172 40.0467L 36.5119 40.0408C 38.0388 39.9514 38.6102 38.7761 38.6218 37.9907C 38.5549 32.4066 38.4661 21.5172 38.5978 20.2684ZM 36.4303 38.6808L 36.3386 38.6867C 35.3874 38.7397 33.6188 38.8416 32.4317 40.2234C 31.5212 41.283 31.1609 42.8779 31.3589 44.9623C 31.6398 47.9078 32.1719 51.0918 32.6006 53.6503C 32.939 55.6729 33.2308 57.4191 33.2308 58.0991C 33.2308 63.0271 27.1586 64.0605 22.0646 64.0605L 19.9081 64.0605L 18.7108 64.0605L 16.5543 64.0605C 11.4603 64.0605 5.38733 63.0271 5.38733 58.0991C 5.38733 57.4183 5.67991 55.6729 6.01835 53.6503C 6.44631 51.091 6.97907 47.9078 7.26001 44.9623C 7.45798 42.8787 7.09771 41.283 6.18793 40.2234C 4.9994 38.8416 3.2308 38.7397 2.28026 38.6867L 2.18856 38.6808C 1.49858 38.6401 1.37413 38.2227 1.36175 38.0059C 1.36976 37.3441 1.54953 21.7644 1.37704 20.1259C 1.27587 19.1703 1.6951 18.9935 1.75623 18.9732C 6.23306 17.5652 7.06859 16.5615 7.17631 14.4401C 7.40849 9.88515 8.80663 6.43787 11.3314 4.1935C 14.7107 1.19059 19.0354 1.36004 19.2967 1.37168L 19.2967 1.37241C 19.2967 1.37241 19.3062 1.37241 19.3084 1.37241C 19.3105 1.37241 19.32 1.37241 19.32 1.37241L 19.32 1.37095C 19.582 1.36004 23.906 1.18986 27.2845 4.19278C 29.8101 6.43714 31.2082 9.88515 31.4404 14.4393C 31.5481 16.5608 32.3851 17.5644 36.8736 18.9761C 36.9209 18.9928 37.3409 19.1695 37.2397 20.1252C 37.0665 21.7637 37.2477 37.3434 37.255 37.9761C 37.2455 38.2227 37.121 38.6408 36.4303 38.6808Z"/>
<path id="path1_fill" d="M 0.341347 3.10725e-07C 0.152114 3.10725e-07 5.10861e-07 0.152726 5.10861e-07 0.34109L 5.10861e-07 2.38619C 5.10861e-07 2.57455 0.152114 2.72655 0.341347 2.72655C 0.529853 2.72655 0.681969 2.57455 0.681969 2.38619L 0.681969 0.34109C 0.681241 0.152726 0.529125 3.10725e-07 0.341347 3.10725e-07Z"/>
<path id="path2_fill" d="M 0.341347 -1.28729e-06C 0.152114 -1.28729e-06 5.10861e-07 0.152001 5.10861e-07 0.340365L 5.10861e-07 2.38473C 5.10861e-07 2.57382 0.152114 2.72582 0.341347 2.72582C 0.529853 2.72582 0.681969 2.57382 0.681969 2.38473L 0.681969 0.340365C 0.681241 0.152001 0.529125 -1.28729e-06 0.341347 -1.28729e-06Z"/>
<path id="path3_fill" d="M 0.341347 -1.30948e-06C 0.152114 -1.30948e-06 5.10861e-07 0.152001 5.10861e-07 0.340365L 5.10861e-07 2.38473C 5.10861e-07 2.5731 0.152114 2.72582 0.341347 2.72582C 0.529853 2.72582 0.681969 2.57382 0.681969 2.38473L 0.681969 0.340365C 0.681241 0.152728 0.529125 -1.30948e-06 0.341347 -1.30948e-06Z"/>
<path id="path4_fill" d="M 0.341347 2.8853e-07C 0.152114 2.8853e-07 5.10861e-07 0.152726 5.10861e-07 0.34109L 5.10861e-07 2.38546C 5.10861e-07 2.57382 0.152114 2.72655 0.341347 2.72655C 0.529853 2.72655 0.681969 2.57382 0.681969 2.38546L 0.681969 0.34109C 0.681241 0.152726 0.529125 2.8853e-07 0.341347 2.8853e-07Z"/>
<path id="path5_fill" d="M 0.341347 -1.33168e-07C 0.152114 -1.33168e-07 5.10861e-07 0.152 5.10861e-07 0.340364L 5.10861e-07 2.38473C 5.10861e-07 2.5731 0.152114 2.7251 0.341347 2.7251C 0.529853 2.7251 0.681969 2.5731 0.681969 2.38473L 0.681969 0.340364C 0.681241 0.152 0.529125 -1.33168e-07 0.341347 -1.33168e-07Z"/>
<path id="path6_fill" d="M 0.341349 -1.30948e-06C 0.152843 -1.30948e-06 -3.10959e-07 0.152001 -3.10959e-07 0.340365L -3.10959e-07 2.38473C -3.10959e-07 2.5731 0.152843 2.72582 0.341349 2.72582C 0.529855 2.72582 0.681971 2.57382 0.681971 2.38473L 0.681971 0.340365C 0.681971 0.152728 0.529855 -1.30948e-06 0.341349 -1.30948e-06Z"/>
<path id="path7_fill" d="M 0.341349 -1.33168e-07C 0.152843 -1.33168e-07 -3.10959e-07 0.152 -3.10959e-07 0.340364L -3.10959e-07 2.38473C -3.10959e-07 2.5731 0.152843 2.7251 0.341349 2.7251C 0.529855 2.7251 0.681971 2.5731 0.681971 2.38473L 0.681971 0.340364C 0.681971 0.152 0.529855 -1.33168e-07 0.341349 -1.33168e-07Z"/>
<path id="path8_fill" d="M 0.341349 2.8853e-07C 0.152843 2.8853e-07 -3.10959e-07 0.152726 -3.10959e-07 0.34109L -3.10959e-07 2.38546C -3.10959e-07 2.57382 0.152843 2.72655 0.341349 2.72655C 0.529855 2.72655 0.681971 2.57382 0.681971 2.38546L 0.681971 0.34109C 0.681971 0.152726 0.529855 2.8853e-07 0.341349 2.8853e-07Z"/>
<path id="path9_fill" d="M 0.341349 -1.28729e-06C 0.152843 -1.28729e-06 -3.10959e-07 0.152001 -3.10959e-07 0.340365L -3.10959e-07 2.38473C -3.10959e-07 2.57382 0.152843 2.72582 0.341349 2.72582C 0.529855 2.72582 0.681971 2.57382 0.681971 2.38473L 0.681971 0.340365C 0.681971 0.152001 0.529855 -1.28729e-06 0.341349 -1.28729e-06Z"/>
<path id="path10_fill" d="M 0.341349 3.10725e-07C 0.152843 3.10725e-07 -3.10959e-07 0.152726 -3.10959e-07 0.34109L -3.10959e-07 2.38619C -3.10959e-07 2.57455 0.152843 2.72655 0.341349 2.72655C 0.529855 2.72655 0.681971 2.57455 0.681971 2.38619L 0.681971 0.34109C 0.681971 0.152726 0.529855 3.10725e-07 0.341349 3.10725e-07Z"/>
<path id="path11_fill" d="M 16.4691 5.28146C 16.4691 2.36946 12.7754 -2.71884e-07 8.23456 -2.71884e-07C 3.69442 -2.71884e-07 5.99706e-07 2.36946 5.99706e-07 5.28146L 5.99706e-07 52.1128C 5.99706e-07 52.1485 0.01019 52.1819 0.0203795 52.2146C 0.232903 55.0059 3.82979 57.2372 8.23456 57.2372C 12.7754 57.2372 16.4691 54.8677 16.4691 51.9543C 16.4691 51.8917 16.4473 51.8357 16.4175 51.7855L 16.4175 5.45092C 16.4473 5.40074 16.4691 5.34474 16.4691 5.28146ZM 8.23456 56.555C 4.06925 56.555 0.681242 54.4917 0.681242 51.9543L 0.681242 5.28146C 0.681242 2.74473 4.06925 0.681456 8.23456 0.681456C 12.2383 0.681456 15.515 2.58982 15.7639 4.99055C 15.7464 5.03201 15.7355 5.0771 15.7355 5.1251L 15.7355 51.955C 15.7355 52.0103 15.7508 52.0612 15.7748 52.1063C 15.6416 54.5717 12.3155 56.555 8.23456 56.555Z"/>
<path id="path12_fill" d="M 0.890854 0.0586288C 0.155027 0.552448 -1.22162e-06 1.07099 -1.22162e-06 1.41936C -1.22162e-06 1.60772 0.152842 1.75972 0.341348 1.75972C 0.529854 1.75972 0.682697 1.60772 0.682697 1.41936C 0.682697 1.08845 1.00221 0.804812 1.2715 0.624448C 1.42798 0.518993 1.46874 0.307357 1.36394 0.15172C 1.2584 -0.00537108 1.04661 -0.0475532 0.890854 0.0586288Z"/>
<path id="path13_fill" d="M 1.61392 0.00470581C 1.12119 0.0839787 0.658293 0.19307 0.236884 0.327616C 0.0578404 0.38507 -0.0411443 0.577071 0.0163536 0.755981C 0.0629341 0.900708 0.197583 0.993072 0.340964 0.993072C 0.375899 0.993072 0.410833 0.987253 0.445768 0.976344C 0.833697 0.85198 1.26311 0.75089 1.72237 0.677435C 1.90869 0.64689 2.0346 0.472343 2.00476 0.286889C 1.97492 0.101434 1.79806 -0.026567 1.61392 0.00470581Z"/>
<path id="path14_fill" d="M 0.531602 0.0575165C 0.376576 -0.0464837 0.164054 -0.00575575 0.0585204 0.149881C -0.0477414 0.305518 -0.00480078 0.517881 0.150953 0.622609C 0.418791 0.802973 0.739761 1.08661 0.739761 1.41752C 0.739761 1.60588 0.891875 1.75788 1.08038 1.75788C 1.26889 1.75788 1.42173 1.60588 1.42173 1.41752C 1.42027 1.06988 1.2667 0.551336 0.531602 0.0575165Z"/>
<path id="path15_fill" d="M 1.62573 0.0152728C 1.41248 0.00509093 1.19413 7.76813e-08 0.974331 7.76813e-08C 0.754529 7.76813e-08 0.536182 0.00509093 0.323658 0.0152728C 0.135152 0.0240001 -0.00968408 0.184 0.000505412 0.371637C 0.00851144 0.554183 0.159172 0.696002 0.3404 0.696002C 0.345495 0.696002 0.351316 0.696002 0.357139 0.696002C 0.558745 0.686547 0.765446 0.681456 0.974331 0.681456C 1.18322 0.681456 1.38919 0.686547 1.59152 0.696002C 1.59807 0.696002 1.60389 0.696002 1.60826 0.696002C 1.78949 0.696002 1.94015 0.554183 1.94816 0.371637C 1.95835 0.184 1.81278 0.0240001 1.62573 0.0152728Z"/>
<path id="path16_fill" d="M 0.28677 0.677435C 0.746025 0.751617 1.17544 0.85198 1.56337 0.976344C 1.5983 0.987253 1.63324 0.993072 1.66817 0.993072C 1.81228 0.993072 1.9462 0.900708 1.99205 0.75598C 2.05028 0.577071 1.9513 0.385071 1.77225 0.327617C 1.35157 0.192344 0.887949 0.0839797 0.395214 0.0047068C 0.211803 -0.026566 0.0342158 0.101433 0.00437512 0.286888C -0.0254655 0.472343 0.100448 0.646889 0.28677 0.677435Z"/>
<path id="path17_fill" d="M 0.890854 0.0581185C 0.155027 0.551938 -1.22162e-06 1.07048 -1.22162e-06 1.41885C -1.22162e-06 1.60721 0.152842 1.75921 0.341348 1.75921C 0.529854 1.75921 0.682697 1.60721 0.682697 1.41885C 0.682697 1.08794 1.00221 0.804302 1.2715 0.623938C 1.42798 0.518483 1.46874 0.306846 1.36394 0.15121C 1.2584 -0.00515411 1.04661 -0.0473362 0.890854 0.0581185Z"/>
<path id="path18_fill" d="M 1.61392 0.00472675C 1.12119 0.0839996 0.658293 0.193091 0.236884 0.327637C 0.0578404 0.385091 -0.0411443 0.577092 0.0163536 0.756728C 0.0629341 0.900729 0.197583 0.993092 0.340964 0.993092C 0.375899 0.993092 0.410833 0.987274 0.445768 0.976365C 0.833697 0.852729 1.26311 0.750909 1.72237 0.677455C 1.90869 0.647637 2.0346 0.472364 2.00476 0.286909C 1.97565 0.100727 1.79806 -0.026546 1.61392 0.00472675Z"/>
<path id="path19_fill" d="M 0.28677 0.677455C 0.746025 0.751637 1.17544 0.852728 1.56337 0.976364C 1.5983 0.987273 1.63324 0.993092 1.66817 0.993092C 1.81228 0.993092 1.9462 0.900728 1.99205 0.756727C 2.05028 0.577091 1.9513 0.385092 1.77225 0.327637C 1.35157 0.193091 0.887949 0.0847266 0.395214 0.00472646C 0.211803 -0.0265463 0.0342158 0.100726 0.00437512 0.286908C -0.0254655 0.473091 0.100448 0.647637 0.28677 0.677455Z"/>
<path id="path20_fill" d="M 0.531602 0.0574787C 0.376576 -0.0465215 0.164054 -0.00579395 0.0585204 0.15057C -0.0477414 0.306207 -0.00480078 0.517843 0.150953 0.623298C 0.418791 0.803662 0.739761 1.0873 0.739761 1.41821C 0.739761 1.60657 0.891875 1.75857 1.08038 1.75857C 1.26889 1.75857 1.42173 1.60657 1.42173 1.41821C 1.42027 1.06984 1.2667 0.551298 0.531602 0.0574787Z"/>
<path id="path21_fill" d="M 1.62573 0.0152729C 1.41248 0.00509102 1.19413 1.6646e-07 0.974331 1.6646e-07C 0.754529 1.6646e-07 0.536182 0.00509102 0.323658 0.0152729C 0.135152 0.0240001 -0.00968408 0.184 0.000505412 0.371637C 0.00851144 0.554183 0.159172 0.696001 0.3404 0.696001C 0.345495 0.696001 0.351316 0.696001 0.357139 0.696001C 0.558745 0.686546 0.765446 0.681456 0.974331 0.681456C 1.18322 0.681456 1.38919 0.686546 1.59152 0.696001C 1.59807 0.696001 1.60389 0.696001 1.60826 0.696001C 1.78949 0.696001 1.94015 0.554183 1.94816 0.371637C 1.95835 0.184 1.81278 0.0240001 1.62573 0.0152729Z"/>
<path id="path22_fill" d="M 1.08002 -1.37607e-06C 0.891517 -1.37607e-06 0.739401 0.152 0.739401 0.341091C 0.739401 0.672001 0.419889 0.95564 0.151323 1.13528C -0.00515872 1.24073 -0.0473711 1.45164 0.0581629 1.608C 0.123667 1.70691 0.231384 1.75855 0.341285 1.75855C 0.406789 1.75855 0.473747 1.74037 0.531245 1.7011C 1.2678 1.20728 1.42137 0.688729 1.42137 0.341091C 1.42064 0.152 1.2678 -1.37607e-06 1.08002 -1.37607e-06Z"/>
<path id="path23_fill" d="M 1.56429 0.0155195C 1.17855 0.139883 0.749133 0.240243 0.286239 0.31588C 0.0999172 0.346425 -0.0259965 0.520245 0.00457198 0.707155C 0.0322292 0.874428 0.176339 0.992972 0.340099 0.992972C 0.359022 0.992972 0.377946 0.991519 0.396141 0.98861C 0.891787 0.907883 1.35468 0.798792 1.77172 0.6657C 1.95149 0.608246 2.05048 0.416248 1.99298 0.236611C 1.93548 0.0569747 1.74334 -0.0397534 1.56429 0.0155195Z"/>
<path id="path24_fill" d="M 1.59006 0.00277769C 1.38846 0.0129595 1.16866 0.0144116 0.975055 0.0173207L 0.974328 0.0173207L 0.973601 0.0173207C 0.973601 0.0173207 0.972874 0.0173207 0.972146 0.0173207C 0.776362 0.0151389 0.55947 0.0129595 0.357136 0.00277769C 0.144612 -0.0212224 0.00850874 0.139505 0.000502714 0.326414C -0.00968678 0.514778 0.135878 0.67405 0.322928 0.682777C 0.525262 0.692232 0.730509 0.698053 0.93721 0.698053C 0.950311 0.698053 0.961955 0.692232 0.974328 0.692232C 0.985973 0.692232 0.99689 0.698053 1.00999 0.698053C 1.21669 0.698053 1.42121 0.692232 1.62427 0.682777C 1.81205 0.673323 1.95689 0.514778 1.9467 0.326414C 1.93869 0.139505 1.79749 -0.0234042 1.59006 0.00277769Z"/>
<path id="path25_fill" d="M 0.682697 0.341092C 0.682697 0.152001 0.529854 -9.76564e-07 0.341348 -9.76564e-07C 0.152842 -9.76564e-07 -1.22162e-06 0.152001 -1.22162e-06 0.341092C -1.22162e-06 0.689456 0.155027 1.20728 0.890854 1.7011C 0.949079 1.74037 1.01531 1.75855 1.08081 1.75855C 1.18999 1.75855 1.29843 1.70691 1.36394 1.608C 1.46947 1.45091 1.42726 1.24 1.2715 1.13528C 1.00294 0.955641 0.682697 0.672002 0.682697 0.341092Z"/>
<path id="path26_fill" d="M 1.72309 0.315482C 1.2602 0.239846 0.830785 0.139486 0.44504 0.0151221C 0.265996 -0.0394234 0.073851 0.0580319 0.0163532 0.236214C -0.0411447 0.415851 0.05784 0.607848 0.236884 0.665303C 0.653925 0.799122 1.11755 0.907486 1.61319 0.988213C 1.63139 0.991122 1.65104 0.992574 1.66923 0.992574C 1.83299 0.992574 1.9771 0.874757 2.00476 0.706757C 2.03533 0.519848 1.90942 0.346028 1.72309 0.315482Z"/>
<path id="path27_fill" d="M 1.59006 0.00335806C 1.38846 0.0135399 1.16866 0.014992 0.975055 0.0179011L 0.974328 0.0179011L 0.973601 0.0179011C 0.973601 0.0179011 0.972874 0.0179011 0.972146 0.0179011C 0.776362 0.0157193 0.55947 0.0135399 0.357136 0.00335806C 0.144612 -0.0235511 0.00850874 0.139358 0.000502714 0.326995C -0.00968678 0.515359 0.135878 0.67463 0.322928 0.683358C 0.525262 0.692812 0.730509 0.698633 0.93721 0.698633C 0.950311 0.698633 0.961955 0.692813 0.974328 0.692086C 0.985973 0.692813 0.997618 0.698633 1.00999 0.698633C 1.21669 0.698633 1.42121 0.692812 1.62427 0.683358C 1.81205 0.673903 1.95689 0.515359 1.9467 0.326995C 1.93869 0.138631 1.79749 -0.0257329 1.59006 0.00335806Z"/>
<path id="path28_fill" d="M 1.08002 -1.06534e-06C 0.891517 -1.06534e-06 0.739401 0.152001 0.739401 0.340365C 0.739401 0.672002 0.419889 0.955641 0.151323 1.13528C -0.00515872 1.24073 -0.0473711 1.45164 0.0581629 1.608C 0.123667 1.70618 0.231384 1.75855 0.341285 1.75855C 0.406789 1.75855 0.473747 1.74037 0.531245 1.7011C 1.2678 1.20728 1.42137 0.688729 1.42137 0.340365C 1.42064 0.152001 1.2678 -1.06534e-06 1.08002 -1.06534e-06Z"/>
<path id="path29_fill" d="M 1.56429 0.0151851C 1.17855 0.139549 0.749133 0.239909 0.286239 0.315545C 0.0999172 0.346091 -0.0259965 0.519911 0.00457198 0.706093C 0.0322292 0.873366 0.176339 0.992637 0.340099 0.992637C 0.359022 0.992637 0.377946 0.991185 0.396141 0.988276C 0.891787 0.907549 1.35468 0.798457 1.77172 0.665366C 1.95149 0.607911 2.05048 0.415914 1.99298 0.236277C 1.93548 0.0573676 1.74334 -0.0393605 1.56429 0.0151851Z"/>
<path id="path30_fill" d="M 1.72309 0.315545C 1.2602 0.239909 0.830785 0.139549 0.44504 0.0151851C 0.265996 -0.0393605 0.073851 0.0573676 0.0163532 0.236277C -0.0411447 0.415914 0.05784 0.607911 0.236884 0.665366C 0.653925 0.799185 1.11755 0.907549 1.61319 0.988276C 1.63139 0.991185 1.65104 0.992637 1.66923 0.992637C 1.83299 0.992637 1.9771 0.874094 2.00476 0.706093C 2.03533 0.519911 1.90942 0.346091 1.72309 0.315545Z"/>
<path id="path31_fill" d="M 0.682697 0.340365C 0.682697 0.152001 0.529854 -1.06534e-06 0.341348 -1.06534e-06C 0.152842 -1.06534e-06 -1.22162e-06 0.152001 -1.22162e-06 0.340365C -1.22162e-06 0.688729 0.155027 1.20728 0.890854 1.7011C 0.949079 1.74037 1.01531 1.75855 1.08081 1.75855C 1.18999 1.75855 1.29843 1.70618 1.36394 1.608C 1.46947 1.45091 1.42726 1.24 1.2715 1.13528C 1.00294 0.954913 0.682697 0.672002 0.682697 0.340365Z"/>
</defs>
</svg>
