<svg width="59" height="59" viewBox="0 0 59 59" version="1.1" xmlns="http://www.w3.org/2000/svg" xmlns:xlink="http://www.w3.org/1999/xlink">
<title>noun_1118611_cc</title>
<desc>Created using Figma</desc>
<g id="Canvas" transform="translate(6415 -10860)">
<g id="noun_1118611_cc">
<g id="Vector">
<use xlink:href="#path0_fill" transform="translate(-6415 10860)" fill="#5D2FCD"/>
<mask id="mask0_outline_ins">
<use xlink:href="#path0_fill" fill="white" transform="translate(-6415 10860)"/>
</mask>
<g mask="url(#mask0_outline_ins)">
<use xlink:href="#path1_stroke_2x" transform="translate(-6415 10860)" fill="#FDF9F3"/>
</g>
</g>
</g>
</g>
<defs>
<path id="path0_fill" d="M 57.6921 25.9873L 52.2335 20.5328C 51.522 19.8219 50.3721 19.8219 49.6606 20.5328L 43.6689 26.52L 43.6689 1.81819C 43.6689 0.814547 42.8556 0 41.8494 0L 1.81954 0C 0.815153 0 0 0.814547 0 1.81819L 0 56.3637C 0 57.3674 0.815153 58.1819 1.81954 58.1819L 41.8494 58.1819C 42.8556 58.1819 43.6689 57.3674 43.6689 56.3637L 43.6689 42.571L 57.6921 28.5582C 58.4035 27.8473 58.4035 26.6982 57.6921 25.9873ZM 40.0298 54.5456L 3.63908 54.5456L 3.63908 3.63637L 40.0298 3.63637L 40.0298 30.1564L 26.0067 44.1692C 25.6646 44.5092 25.4735 44.9728 25.4735 45.4546L 25.4735 50.9092C 25.4735 51.9128 26.2869 52.7274 27.2931 52.7274L 32.7517 52.7274C 33.2357 52.7274 33.6978 52.5365 34.0381 52.1946L 40.0298 46.2074L 40.0298 54.5456ZM 31.9984 49.091L 29.1126 49.091L 29.1126 46.2074L 50.9471 24.3891L 53.8328 27.2728L 31.9984 49.091ZM 9.09769 16.3637L 34.5712 16.3637C 35.5774 16.3637 36.3908 15.5491 36.3908 14.5455L 36.3908 9.09093C 36.3908 8.08729 35.5774 7.27274 34.5712 7.27274L 9.09769 7.27274C 8.0933 7.27274 7.27815 8.08729 7.27815 9.09093L 7.27815 14.5455C 7.27815 15.5491 8.0933 16.3637 9.09769 16.3637ZM 10.9172 10.9091L 32.7517 10.9091L 32.7517 12.7273L 10.9172 12.7273L 10.9172 10.9091ZM 9.09769 27.2728L 34.5712 27.2728C 35.5774 27.2728 36.3908 26.4582 36.3908 25.4546L 36.3908 20C 36.3908 18.9964 35.5774 18.1819 34.5712 18.1819L 9.09769 18.1819C 8.0933 18.1819 7.27815 18.9964 7.27815 20L 7.27815 25.4546C 7.27815 26.4582 8.0933 27.2728 9.09769 27.2728ZM 10.9172 21.8182L 32.7517 21.8182L 32.7517 23.6364L 10.9172 23.6364L 10.9172 21.8182ZM 30.9321 36.3637L 30.9321 30.9091C 30.9321 29.9055 30.1188 29.091 29.1126 29.091L 9.09769 29.091C 8.0933 29.091 7.27815 29.9055 7.27815 30.9091L 7.27815 36.3637C 7.27815 37.3673 8.0933 38.1819 9.09769 38.1819L 29.1126 38.1819C 30.1188 38.1819 30.9321 37.3673 30.9321 36.3637ZM 27.2931 34.5455L 10.9172 34.5455L 10.9172 32.7273L 27.2931 32.7273L 27.2931 34.5455Z"/>
<path id="path1_stroke_2x" d="M 57.6921 25.9873L 56.9852 26.6947L 57.6921 25.9873ZM 52.2335 20.5328L 52.9403 19.8254L 52.2335 20.5328ZM 49.6606 20.5328L 48.9538 19.8254L 49.6606 20.5328ZM 43.6689 26.52L 42.6689 26.52L 42.6689 28.933L 44.3758 27.2274L 43.6689 26.52ZM 43.6689 42.571L 42.9621 41.8636L 42.6689 42.1566L 42.6689 42.571L 43.6689 42.571ZM 57.6921 28.5582L 56.9852 27.8509L 57.6921 28.5582ZM 40.0298 54.5456L 40.0298 55.5456L 41.0298 55.5456L 41.0298 54.5456L 40.0298 54.5456ZM 3.63908 54.5456L 2.63908 54.5456L 2.63908 55.5456L 3.63908 55.5456L 3.63908 54.5456ZM 3.63908 3.63637L 3.63908 2.63637L 2.63908 2.63637L 2.63908 3.63637L 3.63908 3.63637ZM 40.0298 3.63637L 41.0298 3.63637L 41.0298 2.63637L 40.0298 2.63637L 40.0298 3.63637ZM 40.0298 30.1564L 40.7367 30.8638L 41.0298 30.5708L 41.0298 30.1564L 40.0298 30.1564ZM 26.0067 44.1692L 26.7116 44.8784L 26.7135 44.8765L 26.0067 44.1692ZM 34.0381 52.1946L 33.3312 51.4873L 33.3294 51.4892L 34.0381 52.1946ZM 40.0298 46.2074L 41.0298 46.2074L 41.0298 43.7944L 39.323 45.5L 40.0298 46.2074ZM 31.9984 49.091L 31.9984 50.091L 32.4124 50.091L 32.7052 49.7984L 31.9984 49.091ZM 29.1126 49.091L 28.1126 49.091L 28.1126 50.091L 29.1126 50.091L 29.1126 49.091ZM 29.1126 46.2074L 28.4058 45.5L 28.1126 45.7929L 28.1126 46.2074L 29.1126 46.2074ZM 50.9471 24.3891L 51.6539 23.6818L 50.9471 22.9755L 50.2402 23.6818L 50.9471 24.3891ZM 53.8328 27.2728L 54.5397 27.9801L 55.2476 27.2728L 54.5397 26.5654L 53.8328 27.2728ZM 10.9172 10.9091L 10.9172 9.90911L 9.91723 9.90911L 9.91723 10.9091L 10.9172 10.9091ZM 32.7517 10.9091L 33.7517 10.9091L 33.7517 9.90911L 32.7517 9.90911L 32.7517 10.9091ZM 32.7517 12.7273L 32.7517 13.7273L 33.7517 13.7273L 33.7517 12.7273L 32.7517 12.7273ZM 10.9172 12.7273L 9.91723 12.7273L 9.91723 13.7273L 10.9172 13.7273L 10.9172 12.7273ZM 10.9172 21.8182L 10.9172 20.8182L 9.91723 20.8182L 9.91723 21.8182L 10.9172 21.8182ZM 32.7517 21.8182L 33.7517 21.8182L 33.7517 20.8182L 32.7517 20.8182L 32.7517 21.8182ZM 32.7517 23.6364L 32.7517 24.6364L 33.7517 24.6364L 33.7517 23.6364L 32.7517 23.6364ZM 10.9172 23.6364L 9.91723 23.6364L 9.91723 24.6364L 10.9172 24.6364L 10.9172 23.6364ZM 27.2931 34.5455L 27.2931 35.5455L 28.2931 35.5455L 28.2931 34.5455L 27.2931 34.5455ZM 10.9172 34.5455L 9.91723 34.5455L 9.91723 35.5455L 10.9172 35.5455L 10.9172 34.5455ZM 10.9172 32.7273L 10.9172 31.7273L 9.91723 31.7273L 9.91723 32.7273L 10.9172 32.7273ZM 27.2931 32.7273L 28.2931 32.7273L 28.2931 31.7273L 27.2931 31.7273L 27.2931 32.7273ZM 58.3989 25.28L 52.9403 19.8254L 51.5266 21.2401L 56.9852 26.6947L 58.3989 25.28ZM 52.9403 19.8254C 51.8384 18.7243 50.0557 18.7243 48.9538 19.8254L 50.3675 21.2401C 50.6885 20.9194 51.2057 20.9194 51.5266 21.2401L 52.9403 19.8254ZM 48.9538 19.8254L 42.9621 25.8127L 44.3758 27.2274L 50.3675 21.2401L 48.9538 19.8254ZM 44.6689 26.52L 44.6689 1.81819L 42.6689 1.81819L 42.6689 26.52L 44.6689 26.52ZM 44.6689 1.81819C 44.6689 0.262212 43.4078 -1 41.8494 -1L 41.8494 1C 42.3033 1 42.6689 1.36688 42.6689 1.81819L 44.6689 1.81819ZM 41.8494 -1L 1.81954 -1L 1.81954 1L 41.8494 1L 41.8494 -1ZM 1.81954 -1C 0.263569 -1 -1 0.261561 -1 1.81819L 1 1.81819C 1 1.36753 1.36674 1 1.81954 1L 1.81954 -1ZM -1 1.81819L -1 56.3637L 1 56.3637L 1 1.81819L -1 1.81819ZM -1 56.3637C -1 57.9204 0.263569 59.1819 1.81954 59.1819L 1.81954 57.1819C 1.36674 57.1819 1 56.8144 1 56.3637L -1 56.3637ZM 1.81954 59.1819L 41.8494 59.1819L 41.8494 57.1819L 1.81954 57.1819L 1.81954 59.1819ZM 41.8494 59.1819C 43.4078 59.1819 44.6689 57.9197 44.6689 56.3637L 42.6689 56.3637C 42.6689 56.815 42.3033 57.1819 41.8494 57.1819L 41.8494 59.1819ZM 44.6689 56.3637L 44.6689 42.571L 42.6689 42.571L 42.6689 56.3637L 44.6689 56.3637ZM 44.3758 43.2784L 58.3989 29.2656L 56.9852 27.8509L 42.9621 41.8636L 44.3758 43.2784ZM 58.3989 29.2656C 59.5012 28.1641 59.5012 26.3814 58.3989 25.28L 56.9852 26.6947C 57.3058 27.015 57.3058 27.5305 56.9852 27.8509L 58.3989 29.2656ZM 40.0298 53.5456L 3.63908 53.5456L 3.63908 55.5456L 40.0298 55.5456L 40.0298 53.5456ZM 4.63908 54.5456L 4.63908 3.63637L 2.63908 3.63637L 2.63908 54.5456L 4.63908 54.5456ZM 3.63908 4.63637L 40.0298 4.63637L 40.0298 2.63637L 3.63908 2.63637L 3.63908 4.63637ZM 39.0298 3.63637L 39.0298 30.1564L 41.0298 30.1564L 41.0298 3.63637L 39.0298 3.63637ZM 39.323 29.449L 25.2998 43.4618L 26.7135 44.8765L 40.7367 30.8638L 39.323 29.449ZM 25.3017 43.4599C 24.7691 43.9893 24.4735 44.709 24.4735 45.4546L 26.4735 45.4546C 26.4735 45.2367 26.5601 45.029 26.7116 44.8784L 25.3017 43.4599ZM 24.4735 45.4546L 24.4735 50.9092L 26.4735 50.9092L 26.4735 45.4546L 24.4735 45.4546ZM 24.4735 50.9092C 24.4735 52.4652 25.7346 53.7274 27.2931 53.7274L 27.2931 51.7274C 26.8391 51.7274 26.4735 51.3605 26.4735 50.9092L 24.4735 50.9092ZM 27.2931 53.7274L 32.7517 53.7274L 32.7517 51.7274L 27.2931 51.7274L 27.2931 53.7274ZM 32.7517 53.7274C 33.4996 53.7274 34.2174 53.432 34.7468 52.9001L 33.3294 51.4892C 33.1783 51.641 32.9718 51.7274 32.7517 51.7274L 32.7517 53.7274ZM 34.7449 52.902L 40.7367 46.9147L 39.323 45.5L 33.3312 51.4873L 34.7449 52.902ZM 39.0298 46.2074L 39.0298 54.5456L 41.0298 54.5456L 41.0298 46.2074L 39.0298 46.2074ZM 31.9984 48.091L 29.1126 48.091L 29.1126 50.091L 31.9984 50.091L 31.9984 48.091ZM 30.1126 49.091L 30.1126 46.2074L 28.1126 46.2074L 28.1126 49.091L 30.1126 49.091ZM 29.8194 46.9147L 51.6539 25.0965L 50.2402 23.6818L 28.4058 45.5L 29.8194 46.9147ZM 50.2402 25.0965L 53.126 27.9801L 54.5397 26.5654L 51.6539 23.6818L 50.2402 25.0965ZM 53.126 26.5654L 31.2915 48.3836L 32.7052 49.7984L 54.5397 27.9801L 53.126 26.5654ZM 9.09769 17.3637L 34.5712 17.3637L 34.5712 15.3637L 9.09769 15.3637L 9.09769 17.3637ZM 34.5712 17.3637C 36.1297 17.3637 37.3908 16.1015 37.3908 14.5455L 35.3908 14.5455C 35.3908 14.9968 35.0252 15.3637 34.5712 15.3637L 34.5712 17.3637ZM 37.3908 14.5455L 37.3908 9.09093L 35.3908 9.09093L 35.3908 14.5455L 37.3908 14.5455ZM 37.3908 9.09093C 37.3908 7.53495 36.1297 6.27274 34.5712 6.27274L 34.5712 8.27274C 35.0252 8.27274 35.3908 8.63962 35.3908 9.09093L 37.3908 9.09093ZM 34.5712 6.27274L 9.09769 6.27274L 9.09769 8.27274L 34.5712 8.27274L 34.5712 6.27274ZM 9.09769 6.27274C 7.54172 6.27274 6.27815 7.5343 6.27815 9.09093L 8.27815 9.09093C 8.27815 8.64027 8.64489 8.27274 9.09769 8.27274L 9.09769 6.27274ZM 6.27815 9.09093L 6.27815 14.5455L 8.27815 14.5455L 8.27815 9.09093L 6.27815 9.09093ZM 6.27815 14.5455C 6.27815 16.1021 7.54172 17.3637 9.09769 17.3637L 9.09769 15.3637C 8.64489 15.3637 8.27815 14.9961 8.27815 14.5455L 6.27815 14.5455ZM 10.9172 11.9091L 32.7517 11.9091L 32.7517 9.90911L 10.9172 9.90911L 10.9172 11.9091ZM 31.7517 10.9091L 31.7517 12.7273L 33.7517 12.7273L 33.7517 10.9091L 31.7517 10.9091ZM 32.7517 11.7273L 10.9172 11.7273L 10.9172 13.7273L 32.7517 13.7273L 32.7517 11.7273ZM 11.9172 12.7273L 11.9172 10.9091L 9.91723 10.9091L 9.91723 12.7273L 11.9172 12.7273ZM 9.09769 28.2728L 34.5712 28.2728L 34.5712 26.2728L 9.09769 26.2728L 9.09769 28.2728ZM 34.5712 28.2728C 36.1297 28.2728 37.3908 27.0106 37.3908 25.4546L 35.3908 25.4546C 35.3908 25.9059 35.0252 26.2728 34.5712 26.2728L 34.5712 28.2728ZM 37.3908 25.4546L 37.3908 20L 35.3908 20L 35.3908 25.4546L 37.3908 25.4546ZM 37.3908 20C 37.3908 18.4441 36.1297 17.1819 34.5712 17.1819L 34.5712 19.1819C 35.0252 19.1819 35.3908 19.5487 35.3908 20L 37.3908 20ZM 34.5712 17.1819L 9.09769 17.1819L 9.09769 19.1819L 34.5712 19.1819L 34.5712 17.1819ZM 9.09769 17.1819C 7.54172 17.1819 6.27815 18.4434 6.27815 20L 8.27815 20C 8.27815 19.5494 8.64489 19.1819 9.09769 19.1819L 9.09769 17.1819ZM 6.27815 20L 6.27815 25.4546L 8.27815 25.4546L 8.27815 20L 6.27815 20ZM 6.27815 25.4546C 6.27815 27.0112 7.54172 28.2728 9.09769 28.2728L 9.09769 26.2728C 8.64489 26.2728 8.27815 25.9052 8.27815 25.4546L 6.27815 25.4546ZM 10.9172 22.8182L 32.7517 22.8182L 32.7517 20.8182L 10.9172 20.8182L 10.9172 22.8182ZM 31.7517 21.8182L 31.7517 23.6364L 33.7517 23.6364L 33.7517 21.8182L 31.7517 21.8182ZM 32.7517 22.6364L 10.9172 22.6364L 10.9172 24.6364L 32.7517 24.6364L 32.7517 22.6364ZM 11.9172 23.6364L 11.9172 21.8182L 9.91723 21.8182L 9.91723 23.6364L 11.9172 23.6364ZM 31.9321 36.3637L 31.9321 30.9091L 29.9321 30.9091L 29.9321 36.3637L 31.9321 36.3637ZM 31.9321 30.9091C 31.9321 29.3532 30.671 28.091 29.1126 28.091L 29.1126 30.091C 29.5666 30.091 29.9321 30.4578 29.9321 30.9091L 31.9321 30.9091ZM 29.1126 28.091L 9.09769 28.091L 9.09769 30.091L 29.1126 30.091L 29.1126 28.091ZM 9.09769 28.091C 7.54172 28.091 6.27815 29.3525 6.27815 30.9091L 8.27815 30.9091C 8.27815 30.4585 8.64489 30.091 9.09769 30.091L 9.09769 28.091ZM 6.27815 30.9091L 6.27815 36.3637L 8.27815 36.3637L 8.27815 30.9091L 6.27815 30.9091ZM 6.27815 36.3637C 6.27815 37.9203 7.54172 39.1819 9.09769 39.1819L 9.09769 37.1819C 8.64489 37.1819 8.27815 36.8144 8.27815 36.3637L 6.27815 36.3637ZM 9.09769 39.1819L 29.1126 39.1819L 29.1126 37.1819L 9.09769 37.1819L 9.09769 39.1819ZM 29.1126 39.1819C 30.671 39.1819 31.9321 37.9197 31.9321 36.3637L 29.9321 36.3637C 29.9321 36.815 29.5666 37.1819 29.1126 37.1819L 29.1126 39.1819ZM 27.2931 33.5455L 10.9172 33.5455L 10.9172 35.5455L 27.2931 35.5455L 27.2931 33.5455ZM 11.9172 34.5455L 11.9172 32.7273L 9.91723 32.7273L 9.91723 34.5455L 11.9172 34.5455ZM 10.9172 33.7273L 27.2931 33.7273L 27.2931 31.7273L 10.9172 31.7273L 10.9172 33.7273ZM 26.2931 32.7273L 26.2931 34.5455L 28.2931 34.5455L 28.2931 32.7273L 26.2931 32.7273Z"/>
</defs>
</svg>
