<svg width="17" height="15" viewBox="0 0 17 15" version="1.1" xmlns="http://www.w3.org/2000/svg" xmlns:xlink="http://www.w3.org/1999/xlink">
    <title>Group 2</title>
    <desc>Created using Figma</desc>
    <g id="Canvas" transform="translate(4384 -8506)">
        <g id="Group 2">
            <g id="Polygon">
                <mask id="mask0_outline_ins">
                    <use xlink:href="#path0_fill" fill="white" transform="translate(-4386 8504)"/>
                </mask>
                <g mask="url(#mask0_outline_ins)">
                    <use xlink:href="#path1_stroke_2x" transform="translate(-4386 8504)" fill="#FD5755"/>
                </g>
            </g>
            <g id="!">
                <use xlink:href="#path2_fill" transform="translate(-4377 8510)" fill="#FD5755"/>
            </g>
        </g>
    </g>
    <defs>
        <path id="path0_fill" d="M 8.74839 3.17835C 9.50868 1.79879 11.4913 1.79879 12.2516 3.17835L 17.9591 13.5347C 18.6936 14.8676 17.7294 16.5 16.2074 16.5L 4.79256 16.5C 3.2706 16.5 2.30635 14.8676 3.04095 13.5347L 8.74839 3.17835Z"/>
        <path id="path1_stroke_2x" d="M 4.79256 16.5L 4.79256 17.3L 4.79256 16.5ZM 17.9591 13.5347L 17.2584 13.9208L 17.9591 13.5347ZM 16.2074 16.5L 16.2074 15.7L 16.2074 16.5ZM 11.551 3.56448L 17.2584 13.9208L 18.6597 13.1485L 12.9523 2.79222L 11.551 3.56448ZM 16.2074 15.7L 4.79256 15.7L 4.79256 17.3L 16.2074 17.3L 16.2074 15.7ZM 3.74159 13.9208L 9.44903 3.56448L 8.04774 2.79222L 2.3403 13.1485L 3.74159 13.9208ZM 4.79256 15.7C 3.87938 15.7 3.30084 14.7206 3.74159 13.9208L 2.3403 13.1485C 1.31187 15.0147 2.66182 17.3 4.79256 17.3L 4.79256 15.7ZM 17.2584 13.9208C 17.6992 14.7206 17.1206 15.7 16.2074 15.7L 16.2074 17.3C 18.3382 17.3 19.6881 15.0147 18.6597 13.1485L 17.2584 13.9208ZM 12.9523 2.79222C 11.8879 0.86083 9.11215 0.860831 8.04774 2.79222L 9.44903 3.56448C 9.90521 2.73674 11.0948 2.73674 11.551 3.56448L 12.9523 2.79222Z"/>
        <path id="path2_fill" d="M 1.44558 5.864L 1.54158 5.864C 1.69758 5.864 1.72158 5.756 1.73358 5.576L 1.99758 0.656C 2.00958 0.296 1.86558 0.188 1.64958 0.188L 1.34958 0.188C 1.13358 0.188 0.989578 0.296 1.00158 0.656L 1.26558 5.576C 1.27758 5.756 1.30158 5.864 1.44558 5.864ZM 0.905578 7.544C 0.905578 7.88 1.09758 8.072 1.43358 8.072L 1.55358 8.072C 1.90158 8.072 2.09358 7.88 2.09358 7.544L 2.09358 7.424C 2.09358 7.088 1.90158 6.884 1.55358 6.884L 1.43358 6.884C 1.09758 6.884 0.905578 7.088 0.905578 7.424L 0.905578 7.544Z"/>
    </defs>
</svg>
