<svg xmlns="http://www.w3.org/2000/svg" xmlns:xlink="http://www.w3.org/1999/xlink" viewBox="0 0 28.74 27.57"><defs><mask id="a" x="-1" y="-1" width="30" height="29" maskUnits="userSpaceOnUse"><g transform="translate(0 0)"><rect x="-1" y="-1" width="30" height="29" style="fill:#fff"/><path d="M18.88,25.2A5,5,0,0,0,25.95,25l0,0,.39-.42a5,5,0,0,0-.24-7l-4.65-4.31A4.74,4.74,0,0,0,20.1,8.55a4.82,4.82,0,0,0-4.8-1L9.88,2.35a5,5,0,0,0-7.07.22l0,0L2.4,3a5,5,0,0,0,.24,7l5.52,5.13a4.74,4.74,0,0,0,1.37,4.68,4.82,4.82,0,0,0,4.8,1Z"/></g></mask></defs><title>icon-kit</title><path d="M20.27,10.06a4.41,4.41,0,0,0-1.69-1.57l-.12.22-.06.11-.06.11a3.91,3.91,0,0,1,1.54,1.39l.11-.07h0l.21-.13h0Z" transform="translate(0 0)" style="fill:#fff"/><path d="M16.34,8.37V8.12h0V8a4.55,4.55,0,0,0-1,.17l-.58-.54L14.42,8l.68.63.11.1h.14a3.82,3.82,0,0,1,1-.18Zm-1.09.07h0v0Z" transform="translate(0 0)" style="fill:#fff"/><path d="M20.82,13.27a4.46,4.46,0,0,0,.1-1h-.5a3.74,3.74,0,0,1-.12,1v.14l.11.1L21,14l.17-.18.09-.09.09-.09Z" transform="translate(0 0)" style="fill:#fff"/><path d="M19.12,24l-.57-.53-.09.09-.17.18-.09.09.57.53a4.89,4.89,0,0,0,.74.56l.27-.42a4.17,4.17,0,0,1-.66-.51Z" transform="translate(0 0)" style="fill:#fff"/><polygon points="15.92 21.68 17.06 22.75 17.15 22.66 17.32 22.48 17.4 22.39 16.26 21.32 15.92 21.68" style="fill:#fff"/><path d="M23.07,25.28,23,25a4.21,4.21,0,0,1-1.66.06l-.08.49a4.94,4.94,0,0,0,1.86-.06v-.12Z" transform="translate(0 0)" style="fill:#fff"/><path d="M26.68,19.78l-.24.06H26.2a4.13,4.13,0,0,1,.06,1.65h.49A4.84,4.84,0,0,0,26.68,19.78Z" transform="translate(0 0)" style="fill:#fff"/><path d="M25.77,23.18l-.11-.07a4.29,4.29,0,0,1-1.14,1.21l.07.1.13.19.08.12a4.9,4.9,0,0,0,.7-.61h0a4.87,4.87,0,0,0,.57-.74L26,23.31Z" transform="translate(0 0)" style="fill:#fff"/><polygon points="22.34 14.86 22.34 14.86 22.17 15.04 22.09 15.13 23.23 16.2 23.4 16 23.49 15.91 23.57 15.82 22.43 14.77 22.34 14.86" style="fill:#fff"/><path d="M25.5,18.41l.2-.15.1-.07.1-.07a4.87,4.87,0,0,0-.62-.7h0l-.57-.53-.09.09h0l-.17.18-.09.09.57.53A4.17,4.17,0,0,1,25.5,18.41Zm-.39-.8h0l.08-.09-.09.09-.06.06Z" transform="translate(0 0)" style="fill:#fff"/><path d="M9.78,18l-.21.13-.11.07-.11.07a4.48,4.48,0,0,0,.74.9h0a4.51,4.51,0,0,0,1,.67l.06-.11.1-.18.08-.15A3.91,3.91,0,0,1,9.83,18Z" transform="translate(0 0)" style="fill:#fff"/><path d="M2.52,6H2a4.84,4.84,0,0,0,0,1.79H2.2l.24-.06h.12A4.13,4.13,0,0,1,2.52,6Z" transform="translate(0 0)" style="fill:#fff"/><path d="M3.1,4.44A4.29,4.29,0,0,1,4.24,3.23l-.07-.1L4,2.93l-.08-.15A4.79,4.79,0,0,0,2.67,4.17l.11.07L3,4.37Z" transform="translate(0 0)" style="fill:#fff"/><path d="M10.32,4.2l.34-.36L10,3.21a4.9,4.9,0,0,0-.74-.56L9,3.07a4.18,4.18,0,0,1,.66.51Z" transform="translate(0 0)" style="fill:#fff"/><path d="M3.26,9.14l-.1.07H3.1l-.22.23a4.88,4.88,0,0,0,.62.7l.68.63.09-.09h0l.23-.25-.69-.65A4.16,4.16,0,0,1,3.26,9.14Z" transform="translate(0 0)" style="fill:#fff"/><path d="M9.25,14.78l-.68-.63-.09.09h0l-.23.25.58.54a4.46,4.46,0,0,0-.1,1h.5a3.75,3.75,0,0,1,.12-1v-.14ZM9.08,15h0l.09-.09Z" transform="translate(0 0)" style="fill:#fff"/><path d="M14.44,19.63H14.3a3.82,3.82,0,0,1-1,.18v.5a4.54,4.54,0,0,0,1-.17l.47.44.17-.18.09-.09.09-.09-.57-.44Z" transform="translate(0 0)" style="fill:#fff"/><polygon points="5.68 11.85 5.59 11.94 5.51 12.03 6.87 13.29 7.04 13.11 7.12 13.02 7.21 12.93 5.85 11.65 5.68 11.85" style="fill:#fff"/><polygon points="13.38 6.37 12.02 5.11 11.85 5.29 11.76 5.38 11.68 5.46 13.04 6.72 13.21 6.54 13.29 6.46 13.38 6.37" style="fill:#fff"/><path d="M5.64,2.06l.08.33h0v.12a4.21,4.21,0,0,1,1.66-.06V2.08h0V2A4.94,4.94,0,0,0,5.64,2.06Z" transform="translate(0 0)" style="fill:#fff"/><g style="mask:url(#a)"><path d="M26.88,16.78l-.77.83.17-.18.6-.65h0l-4.24-3.94a5.73,5.73,0,0,0-1.76-5.06,5.8,5.8,0,0,0-5.2-1.41L10.52,1.61l-.92,1,.37-.4.55-.59h0A6,6,0,0,0,2,1.89l0,0H2l.49.46h0L2,1.9l-.39.42a6,6,0,0,0,.26,8.46h0L7,15.53a5.73,5.73,0,0,0,1.77,5.06A5.81,5.81,0,0,0,14,22l4.24,3.94.75-.81-.12.13-.63.68h0a6,6,0,0,0,8.48-.27l0,0-1.09-1,.46.43.63.59h0l.39-.42h0A6,6,0,0,0,26.88,16.78Zm-1.2,7.08.77.72h0l-.73-.69h0l-.39.42a4,4,0,0,1-5.65.22l0,0h0L15,20.19l-.68.73h0l.68-.73-.43-.4L14,20a3.82,3.82,0,0,1-3.8-.82,3.74,3.74,0,0,1-1.08-3.7l.15-.58-.44-.41-.68.73h0l.68-.73L3.27,9.31a4,4,0,0,1-.19-5.62h0l.39-.42a4,4,0,0,1,5.65-.22l0,0h0L14.68,8.2l.68-.73h0l-.68.73.43.4.56-.19a3.82,3.82,0,0,1,3.8.82,3.74,3.74,0,0,1,1.08,3.7l1,.25h0l-1-.25-.15.58.44.41,4.65,4.31A4,4,0,0,1,25.68,23.86Z" transform="translate(0 0)" style="fill:#fff"/></g></svg>