<svg width="22" height="22" viewBox="0 0 22 22" version="1.1" xmlns="http://www.w3.org/2000/svg" xmlns:xlink="http://www.w3.org/1999/xlink">
    <title>Component 4</title>
    <g id="Canvas" transform="translate(-3392 -7563)">
        <g id="Component 4">
            <g id="Vector">
                <use xlink:href="#path0_stroke" transform="matrix(1 -2.44929e-16 2.44929e-16 1 3397 7572)" fill="#5D2FCD"/>
            </g>
            <g id="Ellipse 4.7">
                <use xlink:href="#path1_stroke" transform="matrix(1 -2.44929e-16 2.44929e-16 1 3393 7564)" fill="#5D2FCD"/>
            </g>
        </g>
    </g>
    <defs>
        <path id="path0_stroke" d="M 6 6L 5.82322 6.17678L 6 6.35355L 6.17678 6.17678L 6 6ZM -0.176777 0.176777L 5.82322 6.17678L 6.17678 5.82322L 0.176777 -0.176777L -0.176777 0.176777ZM 6.17678 6.17678L 12.1768 0.176777L 11.8232 -0.176777L 5.82322 5.82322L 6.17678 6.17678Z"/>
        <path id="path1_stroke" d="M 19.75 10C 19.75 15.3848 15.3848 19.75 10 19.75L 10 20.25C 15.6609 20.25 20.25 15.6609 20.25 10L 19.75 10ZM 10 19.75C 4.61522 19.75 0.25 15.3848 0.25 10L -0.25 10C -0.25 15.6609 4.33908 20.25 10 20.25L 10 19.75ZM 0.25 10C 0.25 4.61522 4.61522 0.25 10 0.25L 10 -0.25C 4.33908 -0.25 -0.25 4.33908 -0.25 10L 0.25 10ZM 10 0.25C 15.3848 0.25 19.75 4.61522 19.75 10L 20.25 10C 20.25 4.33908 15.6609 -0.25 10 -0.25L 10 0.25Z"/>
    </defs>
</svg>
