<svg width="66" height="50" viewBox="0 0 66 50" version="1.1" xmlns="http://www.w3.org/2000/svg" xmlns:xlink="http://www.w3.org/1999/xlink">
    <title>Group</title>
    <desc>Created using Figma</desc>
    <g id="Canvas" transform="translate(733 -3296)">
        <g id="Group">
            <g id="Vector">
                <mask id="mask0_outline_ins">
                    <use xlink:href="#path0_fill" fill="white" transform="translate(-710.608 3316.5)"/>
                </mask>
                <g mask="url(#mask0_outline_ins)">
                    <use xlink:href="#path1_stroke_2x" transform="translate(-710.608 3316.5)" fill="#FFFFFF"/>
                </g>
            </g>
            <g id="Vector">
                <mask id="mask1_outline_ins">
                    <use xlink:href="#path2_fill" fill="white" transform="translate(-732.981 3296)"/>
                </mask>
                <g mask="url(#mask1_outline_ins)">
                    <use xlink:href="#path3_stroke_2x" transform="translate(-732.981 3296)" fill="#FFFFFF"/>
                </g>
            </g>
            <g id="Vector">
                <mask id="mask2_outline_ins">
                    <use xlink:href="#path4_fill" fill="white" transform="translate(-683.594 3310.37)"/>
                </mask>
                <g mask="url(#mask2_outline_ins)">
                    <use xlink:href="#path5_stroke_2x" transform="translate(-683.594 3310.37)" fill="#FFFFFF"/>
                </g>
            </g>
            <g id="Vector">
                <mask id="mask3_outline_ins">
                    <use xlink:href="#path6_fill" fill="white" transform="translate(-733 3310.39)"/>
                </mask>
                <g mask="url(#mask3_outline_ins)">
                    <use xlink:href="#path7_stroke_2x" transform="translate(-733 3310.39)" fill="#FFFFFF"/>
                </g>
            </g>
            <g id="Vector">
                <mask id="mask4_outline_ins">
                    <use xlink:href="#path8_fill" fill="white" transform="translate(-723.772 3304.44)"/>
                </mask>
                <g mask="url(#mask4_outline_ins)">
                    <use xlink:href="#path9_stroke_2x" transform="translate(-723.772 3304.44)" fill="#FFFFFF"/>
                </g>
            </g>
        </g>
    </g>
    <defs>
        <path id="path0_fill" d="M 12.3686 1.59055C 12.6823 0.831272 13.5528 0.469817 14.3133 0.782544C 15.0732 1.096 15.4349 1.96582 15.1212 2.72509C 14.8075 3.4851 13.937 3.84655 13.1765 3.5331C 12.4166 3.21964 12.0542 2.34982 12.3686 1.59055ZM 10.3598 0C 11.1822 0 11.8489 0.665455 11.8489 1.48727C 11.8489 2.30837 11.1822 2.97528 10.3598 2.97528C 9.53736 2.97528 8.87141 2.30909 8.87141 1.48727C 8.87141 0.665455 9.53809 0 10.3598 0ZM 6.27236 0.840001C 7.02784 0.515637 7.90341 0.864727 8.22801 1.61964C 8.5519 2.37455 8.20254 3.24946 7.44706 3.57382C 6.69159 3.89819 5.81602 3.54837 5.49141 2.79346C 5.16753 2.03855 5.51761 1.16364 6.27236 0.840001ZM 3.03501 3.03273C 3.61582 2.45091 4.55834 2.45091 5.1406 3.032C 5.72213 3.6131 5.72213 4.55491 5.1406 5.13601C 4.55907 5.7171 3.61654 5.7171 3.03501 5.13601C 2.45349 4.55491 2.45349 3.6131 3.03501 3.03273ZM 0.783863 6.40219C 1.09755 5.64292 1.96876 5.28146 2.7286 5.59492C 3.48917 5.90837 3.85017 6.77747 3.53648 7.53674C 3.22352 8.29674 2.35232 8.6582 1.59247 8.34474C 0.831899 8.03129 0.470172 7.16219 0.783863 6.40219ZM 0 10.352C 0 9.53092 0.666685 8.86402 1.4884 8.86402C 2.31156 8.86402 2.97825 9.5302 2.97825 10.352C 2.97825 11.1738 2.31156 11.84 1.4884 11.84C 0.666685 11.8393 0 11.1738 0 10.352ZM 0.840635 14.4357C 0.516755 13.6808 0.866107 12.8058 1.62159 12.4822C 2.37706 12.1578 3.25263 12.5077 3.57724 13.2626C 3.90112 14.0175 3.5525 14.8924 2.79629 15.2168C 2.04008 15.5404 1.16452 15.1913 0.840635 14.4357ZM 3.03501 17.672C 2.45349 17.0909 2.45349 16.1484 3.03501 15.568C 3.61582 14.9869 4.55834 14.9869 5.1406 15.568C 5.72213 16.1484 5.7214 17.0909 5.1406 17.6713C 4.55834 18.2531 3.61582 18.2531 3.03501 17.672ZM 8.35175 19.1135C 8.03805 19.8728 7.16758 20.2342 6.40701 19.9215C 5.64789 19.608 5.28544 18.7382 5.59913 17.9789C 5.91282 17.2189 6.78329 16.8575 7.54386 17.1717C 8.30371 17.4837 8.66544 18.3535 8.35175 19.1135ZM 10.3598 20.704C 9.53736 20.704 8.87141 20.0379 8.87141 19.216C 8.87141 18.3949 9.53809 17.728 10.3598 17.728C 11.1822 17.728 11.8489 18.3949 11.8489 19.216C 11.8497 20.0379 11.1822 20.704 10.3598 20.704ZM 14.4472 19.864C 13.6918 20.1884 12.8169 19.8386 12.4923 19.0844C 12.1684 18.3295 12.5178 17.4546 13.2725 17.1302C 14.0287 16.8059 14.9043 17.1549 15.2282 17.9099C 15.5521 18.6655 15.2027 19.5397 14.4472 19.864ZM 17.6853 17.672C 17.1045 18.2531 16.1605 18.2531 15.5797 17.6713C 14.9982 17.0902 14.9982 16.1484 15.5797 15.568C 16.1613 14.9869 17.1045 14.9869 17.6853 15.5673C 18.2668 16.1484 18.2668 17.0909 17.6853 17.672ZM 19.9365 14.3018C 19.6228 15.0611 18.7523 15.4226 17.9925 15.1091C 17.2319 14.7957 16.8702 13.9258 17.1839 13.1666C 17.4983 12.4073 18.3687 12.0458 19.1286 12.3586C 19.8877 12.672 20.2502 13.5418 19.9365 14.3018ZM 20.7196 10.352C 20.7196 11.1738 20.0529 11.84 19.2305 11.84C 18.408 11.84 17.7421 11.1746 17.7421 10.352C 17.7421 9.53092 18.4088 8.86402 19.2305 8.86402C 20.0536 8.86402 20.7196 9.5302 20.7196 10.352ZM 19.8797 6.26765C 20.2036 7.02329 19.8542 7.89819 19.0987 8.2211C 18.3433 8.54547 17.4677 8.19638 17.1431 7.44147C 16.8192 6.68656 17.1678 5.81165 17.9233 5.48801C 18.6795 5.16364 19.5558 5.51274 19.8797 6.26765ZM 17.6853 5.13601C 17.1045 5.7171 16.1605 5.7171 15.5797 5.13601C 14.9982 4.55491 14.9982 3.6131 15.5797 3.032C 16.1613 2.45091 17.1045 2.45091 17.6853 3.032C 18.2668 3.6131 18.2668 4.55491 17.6853 5.13601Z"/>
        <path id="path1_stroke_2x" d="M 12.3686 1.59055L 13.2925 1.97314L 13.2928 1.97239L 12.3686 1.59055ZM 14.3133 0.782544L 14.6947 -0.141887L 14.6936 -0.142326L 14.3133 0.782544ZM 15.1212 2.72509L 14.197 2.34325L 14.1968 2.34357L 15.1212 2.72509ZM 13.1765 3.5331L 12.7951 4.45753L 12.7954 4.45765L 13.1765 3.5331ZM 6.27236 0.840001L 6.66646 1.75907L 6.66688 1.75889L 6.27236 0.840001ZM 8.22801 1.61964L 9.14701 1.22536L 9.14669 1.22461L 8.22801 1.61964ZM 5.49141 2.79346L 4.57242 3.18774L 4.57274 3.18848L 5.49141 2.79346ZM 3.03501 3.03273L 3.74141 3.74055L 3.74274 3.73922L 3.03501 3.03273ZM 5.1406 3.032L 5.84744 2.32463L 5.847 2.32419L 5.1406 3.032ZM 0.783863 6.40219L -0.140365 6.02035L -0.140494 6.02066L 0.783863 6.40219ZM 2.7286 5.59492L 2.34725 6.51935L 2.34756 6.51948L 2.7286 5.59492ZM 3.53648 7.53674L 2.61225 7.1549L 2.61181 7.15597L 3.53648 7.53674ZM 1.59247 8.34474L 1.97382 7.42031L 1.97351 7.42018L 1.59247 8.34474ZM 1.4884 11.84L 1.48751 12.84L 1.4884 12.84L 1.4884 11.84ZM 0.840635 14.4357L 1.75976 14.0417L 1.75963 14.0414L 0.840635 14.4357ZM 1.62159 12.4822L 2.01536 13.4014L 2.01611 13.4011L 1.62159 12.4822ZM 3.57724 13.2626L 4.49623 12.8683L 4.49591 12.8675L 3.57724 13.2626ZM 2.79629 15.2168L 3.18975 16.1361L 3.19049 16.1358L 2.79629 15.2168ZM 3.03501 17.672L 3.7423 16.9651L 3.74186 16.9647L 3.03501 17.672ZM 3.03501 15.568L 3.74141 16.2758L 3.7423 16.275L 3.03501 15.568ZM 5.1406 15.568L 4.4342 16.2758L 4.4342 16.2758L 5.1406 15.568ZM 5.1406 17.6713L 4.43376 16.9639L 5.1406 17.6713ZM 8.35175 19.1135L 9.27597 19.4953L 9.2761 19.495L 8.35175 19.1135ZM 6.40701 19.9215L 6.02534 20.8458L 6.02672 20.8464L 6.40701 19.9215ZM 5.59913 17.9789L 6.52335 18.3608L 6.52348 18.3605L 5.59913 17.9789ZM 7.54386 17.1717L 7.16207 18.0959L 7.16403 18.0967L 7.54386 17.1717ZM 11.8489 19.216L 10.8489 19.216L 10.8489 19.2169L 11.8489 19.216ZM 12.4923 19.0844L 11.5733 19.4787L 11.5738 19.4797L 12.4923 19.0844ZM 13.2725 17.1302L 12.8783 16.2112L 12.8777 16.2115L 13.2725 17.1302ZM 15.2282 17.9099L 16.1473 17.5159L 16.1472 17.5156L 15.2282 17.9099ZM 17.6853 17.672L 16.9785 16.9647L 16.978 16.9651L 17.6853 17.672ZM 15.5797 17.6713L 16.2875 16.9648L 16.2866 16.9639L 15.5797 17.6713ZM 15.5797 15.568L 16.2861 16.2758L 16.2866 16.2754L 15.5797 15.568ZM 17.6853 15.5673L 18.3922 14.8599L 17.6853 15.5673ZM 19.9365 14.3018L 20.8607 14.6837L 20.8608 14.6834L 19.9365 14.3018ZM 17.9925 15.1091L 18.3738 14.1847L 18.3735 14.1846L 17.9925 15.1091ZM 17.1839 13.1666L 16.2599 12.784L 16.2596 12.7847L 17.1839 13.1666ZM 19.1286 12.3586L 19.5103 11.4343L 19.5092 11.4338L 19.1286 12.3586ZM 19.8797 6.26765L 20.7988 5.87369L 20.7987 5.87337L 19.8797 6.26765ZM 19.0987 8.2211L 18.7057 7.30158L 18.7042 7.30222L 19.0987 8.2211ZM 17.1431 7.44147L 16.2241 7.83574L 16.2244 7.83649L 17.1431 7.44147ZM 17.9233 5.48801L 18.3171 6.40722L 18.3175 6.40703L 17.9233 5.48801ZM 17.6853 5.13601L 16.9785 4.42863L 16.978 4.42908L 17.6853 5.13601ZM 15.5797 5.13601L 16.287 4.42908L 16.2866 4.42863L 15.5797 5.13601ZM 17.6853 3.032L 16.978 3.73893L 16.9785 3.73938L 17.6853 3.032ZM 13.2928 1.97239C 13.3953 1.72422 13.6814 1.60393 13.933 1.70741L 14.6936 -0.142326C 13.4241 -0.6643 11.9692 -0.0616807 11.4444 1.20871L 13.2928 1.97239ZM 13.932 1.70697C 14.1815 1.80991 14.2995 2.09503 14.197 2.34325L 16.0454 3.10694C 16.5703 1.83661 15.9648 0.382086 14.6947 -0.141886L 13.932 1.70697ZM 14.1968 2.34357C 14.0942 2.59238 13.8085 2.71199 13.5575 2.60854L 12.7954 4.45765C 14.0656 4.98112 15.5209 4.37781 16.0456 3.10662L 14.1968 2.34357ZM 13.5578 2.60867C 13.3075 2.5054 13.1902 2.22014 13.2925 1.97314L 11.4447 1.20795C 10.9181 2.4795 11.5258 3.93389 12.7951 4.45753L 13.5578 2.60867ZM 10.3598 1C 10.6313 1 10.8489 1.21909 10.8489 1.48727L 12.8489 1.48727C 12.8489 0.111822 11.7332 -1 10.3598 -1L 10.3598 1ZM 10.8489 1.48727C 10.8489 1.75569 10.6303 1.97528 10.3598 1.97528L 10.3598 3.97528C 11.7341 3.97528 12.8489 2.86104 12.8489 1.48727L 10.8489 1.48727ZM 10.3598 1.97528C 10.0896 1.97528 9.87141 1.75674 9.87141 1.48727L 7.87141 1.48727C 7.87141 2.86145 8.98515 3.97528 10.3598 3.97528L 10.3598 1.97528ZM 9.87141 1.48727C 9.87141 1.21877 10.0894 1 10.3598 1L 10.3598 -1C 8.98683 -1 7.87141 0.112144 7.87141 1.48727L 9.87141 1.48727ZM 6.66688 1.75889C 6.91544 1.65217 7.20298 1.7673 7.30934 2.01466L 9.14669 1.22461C 8.60384 -0.0378437 7.14023 -0.620894 5.87784 -0.0788852L 6.66688 1.75889ZM 7.30902 2.01391C 7.41511 2.26117 7.30083 2.54833 7.05254 2.65494L 7.84159 4.49271C 9.10425 3.95058 9.68869 2.48792 9.14701 1.22536L 7.30902 2.01391ZM 7.05254 2.65494C 6.80475 2.76133 6.51678 2.64657 6.41008 2.39844L 4.57274 3.18848C 5.11526 4.45017 6.57842 5.03505 7.84159 4.49271L 7.05254 2.65494ZM 6.4104 2.39918C 6.30445 2.15222 6.41903 1.86517 6.66646 1.75907L 5.87826 -0.0790681C 4.61619 0.462108 4.03061 1.92487 4.57242 3.18774L 6.4104 2.39918ZM 3.74274 3.73922C 3.93246 3.54917 4.24189 3.54789 4.4342 3.73982L 5.847 2.32419C 4.87479 1.35393 3.29917 1.35266 2.32729 2.32624L 3.74274 3.73922ZM 4.43376 3.73938C 4.62441 3.92988 4.62441 4.23813 4.43376 4.42863L 5.84744 5.84338C 6.81985 4.8717 6.81985 3.29631 5.84744 2.32463L 4.43376 3.73938ZM 4.43376 4.42863C 4.24269 4.61956 3.93292 4.61956 3.74186 4.42863L 2.32817 5.84338C 3.30017 6.81464 4.87545 6.81464 5.84744 5.84338L 4.43376 4.42863ZM 3.74186 4.42863C 3.55096 4.23788 3.5516 3.92998 3.74141 3.74055L 2.32862 2.32492C 1.35537 3.29621 1.35601 4.87195 2.32817 5.84338L 3.74186 4.42863ZM 1.70809 6.78403C 1.81064 6.53583 2.09694 6.41609 2.34725 6.51935L 3.10995 4.67049C 1.84057 4.14684 0.38447 4.75001 -0.140365 6.02035L 1.70809 6.78403ZM 2.34756 6.51948C 2.59727 6.62239 2.7149 6.90644 2.61225 7.1549L 4.46071 7.91858C 4.98544 6.64849 4.38108 5.19436 3.10964 4.67036L 2.34756 6.51948ZM 2.61181 7.15597C 2.50977 7.40378 2.22418 7.52359 1.97382 7.42031L 1.21112 9.26917C 2.48045 9.79281 3.93727 9.18971 4.46115 7.91751L 2.61181 7.15597ZM 1.97351 7.42018C 1.72337 7.31709 1.60548 7.03264 1.70822 6.78372L -0.140494 6.02066C -0.665134 7.29175 -0.0595685 8.74548 1.21143 9.2693L 1.97351 7.42018ZM 1 10.352C 1 10.0833 1.2189 9.86402 1.4884 9.86402L 1.4884 7.86402C 0.114476 7.86402 -1 8.97857 -1 10.352L 1 10.352ZM 1.4884 9.86402C 1.76031 9.86402 1.97825 10.0835 1.97825 10.352L 3.97825 10.352C 3.97825 8.97688 2.86282 7.86402 1.4884 7.86402L 1.4884 9.86402ZM 1.97825 10.352C 1.97825 10.6205 1.7603 10.84 1.4884 10.84L 1.4884 12.84C 2.86282 12.84 3.97825 11.7271 3.97825 10.352L 1.97825 10.352ZM 1.48928 10.84C 1.21797 10.8398 1 10.6204 1 10.352L -1 10.352C -1 11.7273 0.115404 12.8388 1.48751 12.84L 1.48928 10.84ZM 1.75963 14.0414C 1.65343 13.7939 1.76809 13.5073 2.01536 13.4014L 1.22781 11.563C -0.0358781 12.1043 -0.619924 13.5676 -0.078357 14.8299L 1.75963 14.0414ZM 2.01611 13.4011C 2.2639 13.2947 2.55187 13.4095 2.65857 13.6576L 4.49591 12.8675C 3.95339 11.6059 2.49023 11.021 1.22706 11.5633L 2.01611 13.4011ZM 2.65825 13.6568C 2.76457 13.9047 2.65022 14.1913 2.40209 14.2977L 3.19049 16.1358C 4.45477 15.5935 5.03767 14.1303 4.49623 12.8683L 2.65825 13.6568ZM 2.40283 14.2974C 2.15255 14.4045 1.86546 14.2883 1.75976 14.0417L -0.0784945 14.8296C 0.463572 16.0943 1.92762 16.6763 3.18975 16.1361L 2.40283 14.2974ZM 3.74186 16.9647C 3.55096 16.7739 3.5516 16.4653 3.74141 16.2758L 2.32862 14.8602C 1.35537 15.8315 1.35601 17.408 2.32817 18.3794L 3.74186 16.9647ZM 3.7423 16.275C 3.93205 16.0851 4.24182 16.0838 4.4342 16.2758L 5.847 14.8602C 4.87487 13.89 3.29958 13.8888 2.32773 14.8611L 3.7423 16.275ZM 4.4342 16.2758C 4.6237 16.465 4.62424 16.7736 4.43376 16.9639L 5.84744 18.3787C 6.81855 17.4083 6.82056 15.8318 5.847 14.8602L 4.4342 16.2758ZM 4.43376 16.9639C 4.2414 17.1561 3.93197 17.1549 3.7423 16.9651L 2.32773 18.379C 3.29966 19.3514 4.87528 19.3501 5.84744 18.3787L 4.43376 16.9639ZM 7.42752 18.7316C 7.32499 18.9798 7.03897 19.1001 6.78729 18.9966L 6.02672 20.8464C 7.29619 21.3683 8.75112 20.7657 9.27597 19.4953L 7.42752 18.7316ZM 6.78867 18.9972C 6.53899 18.8941 6.42103 18.6084 6.52335 18.3608L 4.6749 17.5971C 4.14984 18.868 4.75679 20.322 6.02534 20.8458L 6.78867 18.9972ZM 6.52348 18.3605C 6.6262 18.1116 6.91151 17.9924 7.16207 18.0959L 7.92566 16.2474C 6.65507 15.7226 5.19944 16.3263 4.67477 17.5974L 6.52348 18.3605ZM 7.16403 18.0967C 7.41118 18.1982 7.53056 18.482 7.42739 18.732L 9.2761 19.495C 9.80031 18.225 9.19623 16.7691 7.9237 16.2466L 7.16403 18.0967ZM 10.3598 19.704C 10.0896 19.704 9.87141 19.4855 9.87141 19.216L 7.87141 19.216C 7.87141 20.5902 8.98515 21.704 10.3598 21.704L 10.3598 19.704ZM 9.87141 19.216C 9.87141 18.9473 10.0903 18.728 10.3598 18.728L 10.3598 16.728C 8.98588 16.728 7.87141 17.8426 7.87141 19.216L 9.87141 19.216ZM 10.3598 18.728C 10.6303 18.728 10.8489 18.9476 10.8489 19.216L 12.8489 19.216C 12.8489 17.8423 11.7341 16.728 10.3598 16.728L 10.3598 18.728ZM 10.8489 19.2169C 10.8492 19.4842 10.6315 19.704 10.3598 19.704L 10.3598 21.704C 11.733 21.704 12.8501 20.5915 12.8489 19.2151L 10.8489 19.2169ZM 14.0527 18.9451C 13.805 19.0515 13.5175 18.9369 13.4109 18.6891L 11.5738 19.4797C 12.1163 20.7403 13.5785 21.3253 14.8418 20.7829L 14.0527 18.9451ZM 13.4113 18.6901C 13.3051 18.4427 13.4197 18.1554 13.6674 18.049L 12.8777 16.2115C 11.6159 16.7537 11.0317 18.2163 11.5733 19.4787L 13.4113 18.6901ZM 13.6667 18.0492C 13.9168 17.942 14.2037 18.0581 14.3092 18.3041L 16.1472 17.5156C 15.605 16.2518 14.1407 15.6697 12.8783 16.2112L 13.6667 18.0492ZM 14.3091 18.3038C 14.4154 18.552 14.301 18.8386 14.0527 18.9451L 14.8418 20.7829C 16.1045 20.2408 16.6887 18.779 16.1473 17.5159L 14.3091 18.3038ZM 16.978 16.9651C 16.7879 17.1554 16.4777 17.1554 16.2875 16.9648L 14.872 18.3778C 15.8434 19.3509 17.4212 19.3509 18.3926 18.379L 16.978 16.9651ZM 16.2866 16.9639C 16.0957 16.7732 16.0963 16.4653 16.2861 16.2758L 14.8733 14.8602C 13.9001 15.8315 13.9007 17.4072 14.8729 18.3787L 16.2866 16.9639ZM 16.2866 16.2754C 16.478 16.0842 16.7885 16.0848 16.9785 16.2747L 18.3922 14.8599C 17.4206 13.8891 15.8446 13.8897 14.8729 14.8607L 16.2866 16.2754ZM 16.9785 16.2747C 17.1691 16.4652 17.1691 16.7742 16.9785 16.9647L 18.3922 18.3794C 19.3646 17.4077 19.3646 15.8316 18.3922 14.8599L 16.9785 16.2747ZM 19.0122 13.92C 18.9096 14.1685 18.6238 14.2878 18.3738 14.1847L 17.6111 16.0336C 18.8808 16.5573 20.336 15.9537 20.8607 14.6837L 19.0122 13.92ZM 18.3735 14.1846C 18.1233 14.0815 18.0056 13.7964 18.1081 13.5484L 16.2596 12.7847C 15.7347 14.0553 16.3404 15.5099 17.6114 16.0337L 18.3735 14.1846ZM 18.1078 13.5492C 18.2111 13.2997 18.4978 13.1803 18.748 13.2833L 19.5092 11.4338C 18.2397 10.9113 16.7854 11.5149 16.2599 12.784L 18.1078 13.5492ZM 18.7469 13.2829C 18.9963 13.3858 19.1148 13.6714 19.0121 13.9203L 20.8608 14.6834C 21.3855 13.4123 20.7791 11.9582 19.5103 11.4343L 18.7469 13.2829ZM 19.7196 10.352C 19.7196 10.6208 19.5013 10.84 19.2305 10.84L 19.2305 12.84C 20.6045 12.84 21.7196 11.7268 21.7196 10.352L 19.7196 10.352ZM 19.2305 10.84C 18.9599 10.84 18.7421 10.6219 18.7421 10.352L 16.7421 10.352C 16.7421 11.7272 17.8561 12.84 19.2305 12.84L 19.2305 10.84ZM 18.7421 10.352C 18.7421 10.0833 18.961 9.86402 19.2305 9.86402L 19.2305 7.86402C 17.8566 7.86402 16.7421 8.97857 16.7421 10.352L 18.7421 10.352ZM 19.2305 9.86402C 19.5018 9.86402 19.7196 10.0829 19.7196 10.352L 21.7196 10.352C 21.7196 8.97752 20.6055 7.86402 19.2305 7.86402L 19.2305 9.86402ZM 18.9606 6.6616C 19.0673 6.91061 18.9516 7.19647 18.7057 7.30158L 19.4918 9.14063C 20.7568 8.59993 21.3399 7.13596 20.7988 5.87369L 18.9606 6.6616ZM 18.7042 7.30222C 18.4557 7.40894 18.1681 7.29381 18.0618 7.04644L 16.2244 7.83649C 16.7673 9.09895 18.2309 9.682 19.4933 9.13999L 18.7042 7.30222ZM 18.0621 7.04719C 17.9556 6.7989 18.0706 6.51281 18.3171 6.40722L 17.5295 4.5688C 16.2651 5.11048 15.6829 6.57421 16.2241 7.83574L 18.0621 7.04719ZM 18.3175 6.40703C 18.5679 6.29964 18.8553 6.41622 18.9607 6.66192L 20.7987 5.87337C 20.2563 4.60926 18.7912 4.02765 17.5291 4.56899L 18.3175 6.40703ZM 16.978 4.42908C 16.7878 4.61941 16.4773 4.61941 16.287 4.42908L 14.8725 5.84294C 15.8438 6.81479 17.4212 6.81479 18.3926 5.84294L 16.978 4.42908ZM 16.2866 4.42863C 16.0959 4.23813 16.0959 3.92988 16.2866 3.73938L 14.8729 2.32463C 13.9005 3.29631 13.9005 4.8717 14.8729 5.84338L 16.2866 4.42863ZM 16.2866 3.73938C 16.4779 3.54821 16.788 3.54885 16.978 3.73893L 18.3926 2.32508C 17.421 1.35298 15.8446 1.35361 14.8729 2.32463L 16.2866 3.73938ZM 16.9785 3.73938C 17.1691 3.92988 17.1691 4.23813 16.9785 4.42863L 18.3922 5.84338C 19.3646 4.8717 19.3646 3.29631 18.3922 2.32463L 16.9785 3.73938Z"/>
        <path id="path2_fill" d="M 15.9112 13.444C 16.1528 12.852 16.4098 12.3335 16.6893 11.8833C 16.7606 9.62002 18.4579 7.80838 20.5416 7.80838L 44.9585 7.80838C 47.0867 7.80838 48.8138 9.69856 48.8138 12.0317L 48.8138 12.1589C 48.8859 12.292 48.9528 12.4295 49.014 12.5706C 49.3466 13.3357 49.7454 13.5233 50.5089 13.5182C 55.1335 13.4884 59.7595 13.5051 64.3848 13.4993C 64.7298 13.4993 65.0741 13.4404 65.4387 13.4069C 65.5035 9.16984 64.0653 5.85492 60.4131 3.56837C 56.4654 1.09709 52.0817 0.185091 47.5794 0.116727C 37.347 -0.040364 27.108 -0.0360007 16.8756 0.112363C 12.4366 0.176363 8.21232 1.40546 4.38544 3.81055C 0.800922 6.06437 -0.179453 9.4302 0.0257928 13.444C 5.37819 13.444 10.6563 13.444 15.9112 13.444Z"/>
        <path id="path3_stroke_2x" d="M 15.9112 13.444L 15.9112 14.444L 16.5831 14.444L 16.8371 13.8219L 15.9112 13.444ZM 16.6893 11.8833L 17.5388 12.4107L 17.6803 12.1829L 17.6888 11.9148L 16.6893 11.8833ZM 48.8138 12.1589L 47.8138 12.1589L 47.8138 12.4123L 47.9344 12.635L 48.8138 12.1589ZM 49.014 12.5706L 48.0964 12.9682L 48.0969 12.9693L 49.014 12.5706ZM 50.5089 13.5182L 50.5025 12.5182L 50.5022 12.5182L 50.5089 13.5182ZM 64.3848 13.4993L 64.3848 12.4993L 64.3836 12.4993L 64.3848 13.4993ZM 65.4387 13.4069L 65.5301 14.4028L 66.4248 14.3207L 66.4386 13.4222L 65.4387 13.4069ZM 60.4131 3.56837L 60.9437 2.72078L 60.9437 2.72075L 60.4131 3.56837ZM 47.5794 0.116727L 47.5641 1.11661L 47.5642 1.11661L 47.5794 0.116727ZM 16.8756 0.112363L 16.89 1.11226L 16.8901 1.11226L 16.8756 0.112363ZM 4.38544 3.81055L 3.85333 2.96388L 3.85315 2.96399L 4.38544 3.81055ZM 0.0257928 13.444L -0.972902 13.4951L -0.924379 14.444L 0.0257928 14.444L 0.0257928 13.444ZM 16.8371 13.8219C 17.0644 13.2632 17.2836 12.8197 17.5388 12.4107L 15.8397 11.3559C 15.536 11.8472 15.2413 12.4408 14.9854 13.0661L 16.8371 13.8219ZM 17.6888 11.9148C 17.7458 10.1055 19.0798 8.80838 20.5416 8.80838L 20.5416 6.80838C 17.8359 6.80838 15.7754 9.13458 15.6897 11.8518L 17.6888 11.9148ZM 20.5416 8.80838L 44.9585 8.80838L 44.9585 6.80838L 20.5416 6.80838L 20.5416 8.80838ZM 44.9585 8.80838C 46.4508 8.80838 47.8138 10.1634 47.8138 12.0317L 49.8138 12.0317C 49.8138 9.23375 47.7226 6.80838 44.9585 6.80838L 44.9585 8.80838ZM 47.8138 12.0317L 47.8138 12.1589L 49.8138 12.1589L 49.8138 12.0317L 47.8138 12.0317ZM 47.9344 12.635C 47.9965 12.7491 48.0443 12.8473 48.0964 12.9682L 49.9315 12.173C 49.8613 12.0116 49.7753 11.8349 49.6932 11.6828L 47.9344 12.635ZM 48.0969 12.9693C 48.3061 13.4506 48.5996 13.8995 49.0857 14.1909C 49.5583 14.4742 50.0712 14.5211 50.5156 14.5182L 50.5022 12.5182C 50.1832 12.5204 50.1149 12.476 50.114 12.4755C 50.0968 12.4666 50.1205 12.4842 50.1049 12.4684C 50.0853 12.452 50.095 12.4624 50.0736 12.433C 50.0413 12.391 49.9923 12.3128 49.931 12.1719L 48.0969 12.9693ZM 50.5154 14.5182C 55.1349 14.4884 59.7583 14.5051 64.3861 14.4993L 64.3836 12.4993C 59.7607 12.5051 55.1321 12.4884 50.5025 12.5182L 50.5154 14.5182ZM 64.3848 14.4993C 64.8144 14.4957 65.2042 14.4319 65.5301 14.4028L 65.3473 12.4111C 64.9439 12.4489 64.6452 12.5029 64.3848 12.4993L 64.3848 14.4993ZM 66.4386 13.4222C 66.5077 8.90074 64.9442 5.22536 60.9437 2.72078L 59.8824 4.41596C 63.1864 6.48448 64.4992 9.43894 64.4388 13.3916L 66.4386 13.4222ZM 60.9437 2.72075C 56.8384 0.169254 52.1917 -0.808849 47.5946 -0.883157L 47.5642 1.11661C 51.9718 1.17903 56.0924 2.02493 59.8825 4.41599L 60.9437 2.72075ZM 47.5948 -0.883155C 37.3545 -1.04034 27.1005 -1.03597 16.8611 -0.887532L 16.8901 1.11226C 27.1155 0.963971 37.3395 0.959608 47.5641 1.11661L 47.5948 -0.883155ZM 16.8612 -0.887533C 12.2884 -0.812589 7.80263 0.493234 3.85333 2.96388L 4.91755 4.65723C 8.62201 2.31768 12.5848 1.16532 16.89 1.11226L 16.8612 -0.887533ZM 3.85315 2.96399C -0.145804 5.4784 -1.18905 9.26806 -0.972902 13.4951L 1.02449 13.393C 0.830145 9.59234 1.74765 6.65035 4.91773 4.65711L 3.85315 2.96399ZM 0.0257928 14.444C 5.37819 14.444 10.6563 14.444 15.9112 14.444L 15.9112 12.444C 10.6563 12.444 5.37819 12.444 0.0257928 12.444L 0.0257928 14.444Z"/>
        <path id="path4_fill" d="M 15.9089 1.02095e-06C 10.6876 1.02095e-06 5.45671 1.02095e-06 0.137791 1.02095e-06C -0.254505 3.62401 -0.00122475 3.91055 3.48649 3.91055C 6.62413 3.91128 9.76031 3.91346 12.8958 3.90983C 15.6789 3.90764 16.5196 2.8291 15.9089 1.02095e-06Z"/>
        <path id="path5_stroke_2x" d="M 15.9089 1.02095e-06L 16.8864 -0.210984L 16.7161 -0.999999L 15.9089 -0.999999L 15.9089 1.02095e-06ZM 0.137791 1.02095e-06L 0.137791 -0.999999L -0.759802 -0.999999L -0.856402 -0.107619L 0.137791 1.02095e-06ZM 3.48649 3.91055L 3.48672 2.91055L 3.48649 2.91055L 3.48649 3.91055ZM 12.8958 3.90983L 12.895 2.90983L 12.8946 2.90983L 12.8958 3.90983ZM 15.9089 -0.999999C 10.6876 -0.999999 5.45671 -0.999999 0.137791 -0.999999L 0.137791 1C 5.45671 1 10.6876 1 15.9089 1L 15.9089 -0.999999ZM -0.856402 -0.107619C -0.955755 0.81094 -1.01781 1.58361 -0.994011 2.18287C -0.967464 2.80011 -0.844679 3.44939 -0.40172 3.96554C 0.048071 4.48964 0.672308 4.69696 1.27456 4.79592C 1.85013 4.88815 2.6012 4.91046 3.48649 4.91055L 3.48649 2.91055C 2.62793 2.91064 2.03944 2.89713 1.59886 2.82239C 1.18496 2.75438 1.11645 2.66355 1.11599 2.66302C 1.1087 2.65453 1.02374 2.55267 1.00414 2.09693C 0.981795 1.62321 1.03519 1.00106 1.13198 0.107621L -0.856402 -0.107619ZM 3.48626 4.91055C 6.62366 4.91128 9.76054 4.91346 12.8969 4.90983L 12.8946 2.90983C 9.76008 2.91346 6.62459 2.91128 3.48672 2.91055L 3.48626 4.91055ZM 12.8965 4.90983C 14.3403 4.90869 15.6801 4.64411 16.4664 3.62637C 17.2408 2.62397 17.2002 1.24272 16.8864 -0.210984L 14.9314 0.210986C 15.2283 1.58638 15.0727 2.15895 14.8837 2.40364C 14.7065 2.63299 14.2344 2.90878 12.895 2.90983L 12.8965 4.90983Z"/>
        <path id="path6_fill" d="M 15.8916 -1.06534e-06C 10.6265 -1.06534e-06 5.36002 -1.06534e-06 0.101512 -1.06534e-06C -0.272588 3.21673 0.296568 3.8851 3.34541 3.88655C 6.3928 3.88801 9.44018 3.89092 12.4876 3.88583C 15.1776 3.88074 16.0794 2.85891 15.8916 -1.06534e-06Z"/>
        <path id="path7_stroke_2x" d="M 15.8916 -1.06534e-06L 16.8894 -0.0655413L 16.8281 -1L 15.8916 -1L 15.8916 -1.06534e-06ZM 0.101512 -1.06534e-06L 0.101512 -1L -0.788929 -1L -0.891793 -0.115521L 0.101512 -1.06534e-06ZM 3.34541 3.88655L 3.34589 2.88655L 3.34589 2.88655L 3.34541 3.88655ZM 12.4876 3.88583L 12.4892 4.88582L 12.4895 4.88582L 12.4876 3.88583ZM 15.8916 -1C 10.6265 -1 5.36002 -1 0.101512 -1L 0.101512 0.999999C 5.36002 0.999999 10.6265 0.999999 15.8916 0.999999L 15.8916 -1ZM -0.891793 -0.115521C -0.988431 0.719617 -1.02638 1.46915 -0.973811 2.05767C -0.914855 2.68517 -0.742952 3.29394 -0.32693 3.79091C 0.0945658 4.29441 0.663039 4.56011 1.26861 4.70395C 1.82537 4.83274 2.5484 4.88558 3.34493 4.88655L 3.34589 2.88655C 2.618 2.88679 2.12656 2.85555 1.73081 2.75809C 1.38387 2.67568 1.26178 2.57297 1.20665 2.50711C 1.14604 2.4347 1.05524 2.27315 1.01742 1.87059C 0.973215 1.42903 1.00441 0.888748 1.09482 0.115518L -0.891793 -0.115521ZM 3.34493 4.88655C 6.39208 4.88801 9.44054 4.89092 12.4892 4.88582L 12.4859 2.88583C 9.43982 2.89092 6.39351 2.88801 3.34589 2.88655L 3.34493 4.88655ZM 12.4895 4.88582C 13.9077 4.88314 15.1868 4.62277 16.0204 3.67261C 16.8369 2.74205 16.9867 1.41498 16.8894 -0.0655413L 14.8937 0.0655392C 14.9843 1.44393 14.7771 2.05723 14.5171 2.35359C 14.2742 2.63033 13.7575 2.88342 12.4857 2.88583L 12.4895 4.88582Z"/>
        <path id="path8_fill" d="M 36.752 6.17892L 37.3059 -4.66088e-07L 33.5271 -4.66088e-07L 32.2359 6.17674L 25.7437 6.17674L 21.304 6.17674L 14.8126 6.17674L 13.5215 -4.66088e-07L 9.74188 -4.66088e-07L 10.2958 6.17892L 6.56858 10.7898L 6.21917e-07 29.4182L 6.21917e-07 39.707L 1.59684 39.707L 1.59684 40.2393C 1.59684 40.6314 1.91563 40.9492 2.30719 40.9492L 6.21341 40.9492C 6.60497 40.9492 6.92376 40.6314 6.92376 40.2393L 6.92376 39.707L 40.1233 39.707L 40.1233 40.2393C 40.1233 40.6314 40.4421 40.9492 40.8344 40.9492L 44.7399 40.9492C 45.1314 40.9492 45.4502 40.6314 45.4502 40.2393L 45.4502 39.707L 47.0478 39.707L 47.0478 29.4175L 40.4792 10.7891L 36.752 6.17892Z"/>
        <path id="path9_stroke_2x" d="M 36.752 6.17892L 35.756 6.08964L 35.7199 6.49283L 35.9744 6.80762L 36.752 6.17892ZM 37.3059 -4.66088e-07L 38.3019 0.0892797L 38.3996 -1L 37.3059 -1L 37.3059 -4.66088e-07ZM 33.5271 -4.66088e-07L 33.5271 -1L 32.7145 -1L 32.5482 -0.204613L 33.5271 -4.66088e-07ZM 32.2359 6.17674L 32.2359 7.17674L 33.0485 7.17674L 33.2148 6.38135L 32.2359 6.17674ZM 14.8126 6.17674L 13.8338 6.38135L 14 7.17674L 14.8126 7.17674L 14.8126 6.17674ZM 13.5215 -4.66088e-07L 14.5003 -0.204613L 14.334 -1L 13.5215 -1L 13.5215 -4.66088e-07ZM 9.74188 -4.66088e-07L 9.74188 -1L 8.64823 -1L 8.74588 0.0892807L 9.74188 -4.66088e-07ZM 10.2958 6.17892L 11.0735 6.80756L 11.3279 6.49278L 11.2918 6.08964L 10.2958 6.17892ZM 6.56858 10.7898L 5.79089 10.1612L 5.68272 10.295L 5.6255 10.4573L 6.56858 10.7898ZM 6.21917e-07 29.4182L -0.943087 29.0857L -0.999999 29.2471L -0.999999 29.4182L 6.21917e-07 29.4182ZM 6.21917e-07 39.707L -0.999999 39.707L -0.999999 40.707L 6.21917e-07 40.707L 6.21917e-07 39.707ZM 1.59684 39.707L 2.59684 39.707L 2.59684 38.707L 1.59684 38.707L 1.59684 39.707ZM 6.92376 39.707L 6.92376 38.707L 5.92376 38.707L 5.92376 39.707L 6.92376 39.707ZM 40.1233 39.707L 41.1233 39.707L 41.1233 38.707L 40.1233 38.707L 40.1233 39.707ZM 45.4502 39.707L 45.4502 38.707L 44.4502 38.707L 44.4502 39.707L 45.4502 39.707ZM 47.0478 39.707L 47.0478 40.707L 48.0478 40.707L 48.0478 39.707L 47.0478 39.707ZM 47.0478 29.4175L 48.0478 29.4175L 48.0478 29.2464L 47.9909 29.085L 47.0478 29.4175ZM 40.4792 10.7891L 41.4223 10.4566L 41.3651 10.2943L 41.2569 10.1604L 40.4792 10.7891ZM 37.7481 6.2682L 38.3019 0.0892797L 36.3099 -0.0892807L 35.756 6.08964L 37.7481 6.2682ZM 37.3059 -1L 33.5271 -1L 33.5271 1L 37.3059 1L 37.3059 -1ZM 32.5482 -0.204613L 31.2571 5.97213L 33.2148 6.38135L 34.5059 0.204612L 32.5482 -0.204613ZM 32.2359 5.17674L 25.7437 5.17674L 25.7437 7.17674L 32.2359 7.17674L 32.2359 5.17674ZM 25.7437 5.17674L 21.304 5.17674L 21.304 7.17674L 25.7437 7.17674L 25.7437 5.17674ZM 21.304 5.17674L 14.8126 5.17674L 14.8126 7.17674L 21.304 7.17674L 21.304 5.17674ZM 15.7915 5.97213L 14.5003 -0.204613L 12.5426 0.204612L 13.8338 6.38135L 15.7915 5.97213ZM 13.5215 -1L 9.74188 -1L 9.74188 1L 13.5215 1L 13.5215 -1ZM 8.74588 0.0892807L 9.29975 6.2682L 11.2918 6.08964L 10.7379 -0.0892816L 8.74588 0.0892807ZM 9.51806 5.55028L 5.79089 10.1612L 7.34628 11.4185L 11.0735 6.80756L 9.51806 5.55028ZM 5.6255 10.4573L -0.943087 29.0857L 0.943089 29.7508L 7.51167 11.1224L 5.6255 10.4573ZM -0.999999 29.4182L -0.999999 39.707L 1 39.707L 1 29.4182L -0.999999 29.4182ZM 6.21917e-07 40.707L 1.59684 40.707L 1.59684 38.707L 6.21917e-07 38.707L 6.21917e-07 40.707ZM 0.596838 39.707L 0.596838 40.2393L 2.59684 40.2393L 2.59684 39.707L 0.596838 39.707ZM 0.596838 40.2393C 0.596838 41.185 1.36471 41.9492 2.30719 41.9492L 2.30719 39.9492C 2.46654 39.9492 2.59684 40.0777 2.59684 40.2393L 0.596838 40.2393ZM 2.30719 41.9492L 6.21341 41.9492L 6.21341 39.9492L 2.30719 39.9492L 2.30719 41.9492ZM 6.21341 41.9492C 7.15589 41.9492 7.92376 41.185 7.92376 40.2393L 5.92376 40.2393C 5.92376 40.0777 6.05406 39.9492 6.21341 39.9492L 6.21341 41.9492ZM 7.92376 40.2393L 7.92376 39.707L 5.92376 39.707L 5.92376 40.2393L 7.92376 40.2393ZM 6.92376 40.707L 40.1233 40.707L 40.1233 38.707L 6.92376 38.707L 6.92376 40.707ZM 39.1233 39.707L 39.1233 40.2393L 41.1233 40.2393L 41.1233 39.707L 39.1233 39.707ZM 39.1233 40.2393C 39.1233 41.1857 39.8918 41.9492 40.8344 41.9492L 40.8344 39.9492C 40.9923 39.9492 41.1233 40.077 41.1233 40.2393L 39.1233 40.2393ZM 40.8344 41.9492L 44.7399 41.9492L 44.7399 39.9492L 40.8344 39.9492L 40.8344 41.9492ZM 44.7399 41.9492C 45.6824 41.9492 46.4502 41.185 46.4502 40.2393L 44.4502 40.2393C 44.4502 40.0777 44.5805 39.9492 44.7399 39.9492L 44.7399 41.9492ZM 46.4502 40.2393L 46.4502 39.707L 44.4502 39.707L 44.4502 40.2393L 46.4502 40.2393ZM 45.4502 40.707L 47.0478 40.707L 47.0478 38.707L 45.4502 38.707L 45.4502 40.707ZM 48.0478 39.707L 48.0478 29.4175L 46.0478 29.4175L 46.0478 39.707L 48.0478 39.707ZM 47.9909 29.085L 41.4223 10.4566L 39.5361 11.1217L 46.1047 29.7501L 47.9909 29.085ZM 41.2569 10.1604L 37.5297 5.55022L 35.9744 6.80762L 39.7016 11.4178L 41.2569 10.1604Z"/>
    </defs>
</svg>
