<svg width="63" height="62" viewBox="0 0 63 62" version="1.1" xmlns="http://www.w3.org/2000/svg" xmlns:xlink="http://www.w3.org/1999/xlink">
    <title>Vector</title>
    <desc>Created using Figma</desc>
    <g id="Canvas" transform="translate(141 -3284)">
        <g id="Vector">
            <mask id="mask0_outline_ins">
                <use xlink:href="#path0_fill" fill="white" transform="translate(-141 3284)"/>
            </mask>
            <g mask="url(#mask0_outline_ins)">
                <use xlink:href="#path1_stroke_2x" transform="translate(-141 3284)" fill="#FFFFFF"/>
            </g>
        </g>
    </g>
    <defs>
        <path id="path0_fill" d="M 62.338 10.3112L 52.3227 0.255501C 51.9834 -0.0851671 51.4329 -0.0851671 51.0927 0.255501C 50.7534 0.59617 50.7534 1.14895 51.0927 1.49054L 52.0941 2.49602L 45.2181 9.4003L 42.4783 6.64924C 42.1034 6.27276 41.4953 6.27276 41.1203 6.64924C 40.7454 7.02572 40.7454 7.63635 41.1203 8.01283L 42.0184 8.91455L 21.3421 29.676C 20.6955 30.3252 20.5236 31.3142 20.9314 32.136C 21.3805 33.0396 22.1651 34.327 23.5084 35.9027L 22.0828 37.3342C 21.9584 37.4591 21.9584 37.6602 22.0828 37.7851L 22.6031 38.3075L 0 61.0029L 3.59206 61.091L 24.443 40.1541L 24.9634 40.6766C 25.0877 40.8015 25.288 40.8015 25.4124 40.6766L 26.8381 39.2451C 28.4073 40.594 29.6894 41.3818 30.5892 41.8327C 31.4068 42.2422 32.3926 42.0696 33.0391 41.4204L 53.7154 20.6589L 54.6134 21.5606C 54.9884 21.9371 55.5965 21.9371 55.9714 21.5606C 56.3464 21.1841 56.3464 20.5735 55.9714 20.197L 53.2317 17.446L 60.1076 10.5417L 61.109 11.5472C 61.4482 11.8878 61.9988 11.8878 62.3389 11.5472C 62.6773 11.2056 62.6773 10.6528 62.338 10.3112ZM 42.8176 14.4516L 26.5207 30.8633C 26.2235 31.1627 25.7352 31.1636 25.4371 30.8652C 25.139 30.5667 25.138 30.0764 25.4352 29.7771L 41.733 13.3653C 42.0302 13.0659 42.5186 13.065 42.8167 13.3634C 43.1148 13.6619 43.1157 14.1522 42.8176 14.4516Z"/>
        <path id="path1_stroke_2x" d="M 62.338 10.3112L 63.0475 9.6065L 63.0466 9.60551L 62.338 10.3112ZM 52.3227 0.255501L 51.6141 0.961153L 51.6141 0.961186L 52.3227 0.255501ZM 51.0927 0.255501L 50.3851 -0.451104L 50.3842 -0.45015L 51.0927 0.255501ZM 51.0927 1.49054L 50.3832 2.19524L 50.3841 2.19619L 51.0927 1.49054ZM 52.0941 2.49602L 52.8026 3.20167L 53.5054 2.49602L 52.8026 1.79037L 52.0941 2.49602ZM 45.2181 9.4003L 44.5096 10.1059L 45.2181 10.8174L 45.9267 10.1059L 45.2181 9.4003ZM 42.4783 6.64924L 41.7698 7.35489L 41.7698 7.35489L 42.4783 6.64924ZM 41.1203 8.01283L 41.8289 7.30718L 41.8289 7.30718L 41.1203 8.01283ZM 42.0184 8.91455L 42.7269 9.6202L 43.4297 8.91455L 42.7269 8.20889L 42.0184 8.91455ZM 21.3421 29.676L 22.0506 30.3817L 22.0506 30.3817L 21.3421 29.676ZM 20.9314 32.136L 20.0357 32.5806L 20.0359 32.581L 20.9314 32.136ZM 23.5084 35.9027L 24.217 36.6083L 24.8674 35.9553L 24.2694 35.2539L 23.5084 35.9027ZM 22.0828 37.3342L 21.3742 36.6286L 21.3742 36.6286L 22.0828 37.3342ZM 22.0828 37.7851L 21.3742 38.4907L 21.3742 38.4907L 22.0828 37.7851ZM 22.6031 38.3075L 23.3117 39.0132L 24.0144 38.3076L 23.3117 37.6019L 22.6031 38.3075ZM 0 61.0029L -0.708545 60.2972L -2.35014 61.9455L -0.0245339 62.0026L 0 61.0029ZM 3.59206 61.091L 3.56753 62.0907L 3.99728 62.1013L 4.30062 61.7967L 3.59206 61.091ZM 24.443 40.1541L 25.1516 39.4485L 24.443 38.737L 23.7345 39.4485L 24.443 40.1541ZM 24.9634 40.6766L 25.6719 39.971L 25.6719 39.971L 24.9634 40.6766ZM 25.4124 40.6766L 26.1209 41.3823L 26.1209 41.3823L 25.4124 40.6766ZM 26.8381 39.2451L 27.4899 38.4867L 26.7852 37.881L 26.1295 38.5394L 26.8381 39.2451ZM 30.5892 41.8327L 30.1413 42.7267L 30.1414 42.7268L 30.5892 41.8327ZM 33.0391 41.4204L 33.7477 42.126L 33.7477 42.126L 33.0391 41.4204ZM 53.7154 20.6589L 54.424 19.9532L 53.7154 19.2418L 53.0069 19.9532L 53.7154 20.6589ZM 54.6134 21.5606L 53.9049 22.2663L 53.9049 22.2663L 54.6134 21.5606ZM 55.9714 20.197L 55.2629 20.9027L 55.2629 20.9027L 55.9714 20.197ZM 53.2317 17.446L 52.5231 16.7403L 51.8204 17.446L 52.5231 18.1516L 53.2317 17.446ZM 60.1076 10.5417L 60.8162 9.83602L 60.1076 9.12454L 59.3991 9.83602L 60.1076 10.5417ZM 61.109 11.5472L 61.8175 10.8415L 61.8175 10.8415L 61.109 11.5472ZM 62.3389 11.5472L 63.0466 12.2538L 63.0494 12.2509L 62.3389 11.5472ZM 42.8176 14.4516L 42.1091 13.7459L 42.108 13.7469L 42.8176 14.4516ZM 26.5207 30.8633L 25.8111 30.1587L 25.8111 30.1588L 26.5207 30.8633ZM 25.4352 29.7771L 24.7257 29.0724L 24.7256 29.0725L 25.4352 29.7771ZM 41.733 13.3653L 42.4426 14.0699L 42.4427 14.0698L 41.733 13.3653ZM 63.0466 9.60551L 53.0312 -0.450183L 51.6141 0.961186L 61.6295 11.0169L 63.0466 9.60551ZM 53.0312 -0.45015C 52.3006 -1.18381 51.1154 -1.18244 50.3851 -0.451103L 51.8003 0.962106C 51.7504 1.0121 51.6662 1.01348 51.6141 0.961153L 53.0312 -0.45015ZM 50.3842 -0.45015C 49.6558 0.281232 49.6571 1.46421 50.3832 2.19524L 51.8022 0.785842C 51.8498 0.833696 51.8511 0.911108 51.8013 0.961153L 50.3842 -0.45015ZM 50.3841 2.19619L 51.3855 3.20167L 52.8026 1.79037L 51.8013 0.784891L 50.3841 2.19619ZM 51.3855 1.79037L 44.5096 8.69464L 45.9267 10.1059L 52.8026 3.20167L 51.3855 1.79037ZM 45.9267 8.69464L 43.1869 5.94358L 41.7698 7.35489L 44.5096 10.1059L 45.9267 8.69464ZM 43.1869 5.94358C 42.4211 5.17464 41.1776 5.17464 40.4118 5.94358L 41.8289 7.35489C 41.813 7.37087 41.7857 7.37087 41.7698 7.35489L 43.1869 5.94358ZM 40.4118 5.94358C 39.6483 6.71025 39.6483 7.95181 40.4118 8.71848L 41.8289 7.30718C 41.8313 7.30961 41.8345 7.31409 41.8367 7.31948C 41.8386 7.32419 41.8391 7.32807 41.8391 7.33103C 41.8391 7.33399 41.8386 7.33787 41.8367 7.34259C 41.8345 7.34798 41.8313 7.35246 41.8289 7.35489L 40.4118 5.94358ZM 40.4118 8.71848L 41.3098 9.6202L 42.7269 8.20889L 41.8289 7.30718L 40.4118 8.71848ZM 41.3098 8.20889L 20.6335 28.9704L 22.0506 30.3817L 42.7269 9.6202L 41.3098 8.20889ZM 20.6335 28.9704C 19.6915 29.9163 19.433 31.3661 20.0357 32.5806L 21.8272 31.6915C 21.6142 31.2623 21.6995 30.7342 22.0506 30.3817L 20.6335 28.9704ZM 20.0359 32.581C 20.5049 33.5227 21.3551 34.9134 22.7475 36.5514L 24.2694 35.2539C 22.9751 33.7405 22.256 32.5564 21.827 31.691L 20.0359 32.581ZM 22.7999 35.197L 21.3742 36.6286L 22.7913 38.0399L 24.217 36.6083L 22.7999 35.197ZM 21.3742 36.6286C 20.8613 37.1436 20.8613 37.9756 21.3742 38.4907L 22.7913 37.0794C 23.0556 37.3447 23.0556 37.7745 22.7913 38.0399L 21.3742 36.6286ZM 21.3742 38.4907L 21.8946 39.0132L 23.3117 37.6019L 22.7913 37.0794L 21.3742 38.4907ZM 21.8946 37.6019L -0.708545 60.2972L 0.708545 61.7085L 23.3117 39.0132L 21.8946 37.6019ZM -0.0245339 62.0026L 3.56753 62.0907L 3.6166 60.0913L 0.0245339 60.0032L -0.0245339 62.0026ZM 4.30062 61.7967L 25.1516 40.8598L 23.7345 39.4485L 2.8835 60.3854L 4.30062 61.7967ZM 23.7345 40.8598L 24.2548 41.3823L 25.6719 39.971L 25.1516 39.4485L 23.7345 40.8598ZM 24.2548 41.3823C 24.77 41.8996 25.6057 41.8996 26.1209 41.3823L 24.7038 39.971C 24.9703 39.7034 25.4054 39.7034 25.6719 39.971L 24.2548 41.3823ZM 26.1209 41.3823L 27.5466 39.9507L 26.1295 38.5394L 24.7038 39.971L 26.1209 41.3823ZM 26.1862 40.0034C 27.8177 41.4017 29.2032 42.2557 30.1413 42.7267L 31.0372 40.9386C 30.1756 40.508 28.9969 39.7863 27.4899 38.4867L 26.1862 40.0034ZM 30.1414 42.7268C 31.3551 43.3348 32.805 43.0726 33.7477 42.126L 32.3306 40.7147C 31.9802 41.0665 31.4585 41.1497 31.0371 40.9386L 30.1414 42.7268ZM 33.7477 42.126L 54.424 21.3645L 53.0069 19.9532L 32.3306 40.7147L 33.7477 42.126ZM 53.0069 21.3645L 53.9049 22.2663L 55.322 20.855L 54.424 19.9532L 53.0069 21.3645ZM 53.9049 22.2663C 54.6707 23.0352 55.9142 23.0352 56.68 22.2663L 55.2629 20.855C 55.2788 20.839 55.3061 20.839 55.322 20.855L 53.9049 22.2663ZM 56.68 22.2663C 57.4435 21.4996 57.4435 20.258 56.68 19.4914L 55.2629 20.9027C 55.2605 20.9002 55.2573 20.8958 55.2551 20.8904C 55.2532 20.8857 55.2526 20.8818 55.2526 20.8788C 55.2526 20.8759 55.2532 20.872 55.2551 20.8673C 55.2573 20.8619 55.2605 20.8574 55.2629 20.855L 56.68 22.2663ZM 56.68 19.4914L 53.9402 16.7403L 52.5231 18.1516L 55.2629 20.9027L 56.68 19.4914ZM 53.9402 18.1516L 60.8162 11.2473L 59.3991 9.83602L 52.5231 16.7403L 53.9402 18.1516ZM 59.3991 11.2473L 60.4004 12.2528L 61.8175 10.8415L 60.8162 9.83602L 59.3991 11.2473ZM 60.4004 12.2528C 61.1311 12.9865 62.3162 12.9851 63.0465 12.2538L 61.6313 10.8405C 61.6813 10.7905 61.7654 10.7892 61.8175 10.8415L 60.4004 12.2528ZM 63.0494 12.2509C 63.774 11.5194 63.774 10.3379 63.0475 9.6065L 61.6285 11.0159C 61.5806 10.9677 61.5806 10.8917 61.6285 10.8434L 63.0494 12.2509ZM 42.108 13.7469L 25.8111 30.1587L 27.2303 31.568L 43.5272 15.1562L 42.108 13.7469ZM 25.8111 30.1588C 25.9038 30.0654 26.0509 30.0647 26.1445 30.1584L 24.7296 31.5719C 25.4195 32.2625 26.5432 32.26 27.2304 31.5679L 25.8111 30.1588ZM 26.1445 30.1584C 26.2353 30.2493 26.2359 30.3899 26.1449 30.4816L 24.7256 29.0725C 24.0401 29.7629 24.0426 30.8842 24.7296 31.5719L 26.1445 30.1584ZM 26.1448 30.4817L 42.4426 14.0699L 41.0235 12.6606L 24.7257 29.0724L 26.1448 30.4817ZM 42.4427 14.0698C 42.3499 14.1633 42.2029 14.1639 42.1092 14.0702L 43.5242 12.6567C 42.8343 11.9661 41.7106 11.9686 41.0234 12.6607L 42.4427 14.0698ZM 42.1092 14.0702C 42.0183 13.9791 42.0176 13.8377 42.1091 13.7459L 43.5262 15.1572C 44.2138 14.4667 44.2114 13.3446 43.5242 12.6567L 42.1092 14.0702Z"/>
    </defs>
</svg>
