<svg width="8" height="10" viewBox="0 0 8 10" version="1.1" xmlns="http://www.w3.org/2000/svg" xmlns:xlink="http://www.w3.org/1999/xlink">
<title>timeline-arrow-mobile</title>
<desc>Created using Figma</desc>
<g id="Canvas" transform="translate(-495 -3797)">
<g id="timeline-arrow-mobile">
<use xlink:href="#path0_stroke" transform="matrix(-1.56354e-09 1 -1 -1.56354e-09 499 3797)" fill="#FD5755"/>
</g>
</g>
<defs>
<path id="path0_stroke" d="M 9.35355 0.353553C 9.54882 0.158291 9.54882 -0.158291 9.35355 -0.353553L 6.17157 -3.53553C 5.97631 -3.7308 5.65973 -3.7308 5.46447 -3.53553C 5.2692 -3.34027 5.2692 -3.02369 5.46447 -2.82843L 8.29289 0L 5.46447 2.82843C 5.2692 3.02369 5.2692 3.34027 5.46447 3.53553C 5.65973 3.7308 5.97631 3.7308 6.17157 3.53553L 9.35355 0.353553ZM 0 0.5L 9 0.5L 9 -0.5L 0 -0.5L 0 0.5Z"/>
</defs>
</svg>
