<svg width="70" height="72" viewBox="0 0 70 72" version="1.1" xmlns="http://www.w3.org/2000/svg" xmlns:xlink="http://www.w3.org/1999/xlink">
    <title>noun_1429971_cc</title>
    <desc>Created using Figma</desc>
    <g id="Canvas" transform="translate(-52 -3272)">
        <g id="noun_1429971_cc">
            <g id="Vector">
                <use xlink:href="#path0_fill" transform="translate(52 3272)" fill="#FFFFFF"/>
                <mask id="mask0_outline_ins">
                    <use xlink:href="#path0_fill" fill="white" transform="translate(52 3272)"/>
                </mask>
                <g mask="url(#mask0_outline_ins)">
                    <use xlink:href="#path1_stroke_2x" transform="translate(52 3272)" fill="#5D2FCD"/>
                </g>
            </g>
            <g id="Vector">
                <use xlink:href="#path2_fill" transform="translate(91.8314 3283.42)" fill="#FFFFFF"/>
                <mask id="mask1_outline_ins">
                    <use xlink:href="#path2_fill" fill="white" transform="translate(91.8314 3283.42)"/>
                </mask>
                <g mask="url(#mask1_outline_ins)">
                    <use xlink:href="#path3_stroke_2x" transform="translate(91.8314 3283.42)" fill="#5D2FCD"/>
                </g>
            </g>
        </g>
    </g>
    <defs>
        <path id="path0_fill" d="M 59.6813 2.68356e-11L 36.5803 2.68356e-11C 33.8779 2.68382e-11 31.2861 1.07273 29.3752 2.98219C 27.4643 4.89166 26.3908 7.48145 26.3908 10.1818L 26.3908 19.1855C 25.7449 19.2976 25.1429 19.5868 24.652 20.0208C 24.161 20.4549 23.8005 21.0167 23.6105 21.6437C 23.5847 21.7294 23.5652 21.8169 23.5523 21.9055L 23.0865 25.2728C 22.9489 26.2584 22.6618 27.2173 22.2349 28.1164L 17.6715 37.7092C 17.3706 38.4133 16.9146 39.0406 16.3374 39.5443C 15.7603 40.048 15.0769 40.4151 14.3381 40.6183C 14.2911 39.7225 13.8987 38.8797 13.2433 38.2668C 12.5878 37.6539 11.7203 37.3185 10.8227 37.331L 3.54449 37.331C 3.08735 37.3213 2.63281 37.402 2.20696 37.5684C 1.78112 37.7348 1.39236 37.9836 1.06301 38.3005C 0.733664 38.6175 0.470215 38.9963 0.287792 39.4153C 0.10537 39.8342 0.0075668 40.2851 9.69652e-16 40.7419L 9.69652e-16 68.5892C 0.0153281 69.5068 0.393858 70.3809 1.05272 71.0201C 1.71158 71.6594 2.59709 72.0118 3.51537 72.0001L 10.7936 72.0001C 11.7131 72.0137 12.6005 71.6622 13.2609 71.0227C 13.9214 70.3833 14.3009 69.508 14.3162 68.5892L 14.3162 68.1601L 15.8374 69.0692C 17.7184 70.2004 19.8721 70.7988 22.0675 70.8001L 34.2221 70.8001C 35.9749 70.8076 37.6848 70.2588 39.1053 69.2327C 40.5258 68.2067 41.5837 66.7565 42.1263 65.091L 47.4321 48.9819C 47.8132 47.819 47.9317 46.5863 47.7791 45.3722C 47.6266 44.1581 47.2067 42.9928 46.5498 41.9602C 45.8929 40.9275 45.0152 40.0532 43.9797 39.3999C 42.9443 38.7466 41.7769 38.3306 40.5615 38.1819C 37.0679 37.7528 33.8801 37.491 31.7184 37.4546C 31.6438 36.2313 31.7642 35.0038 32.0751 33.8182C 33.4738 34.5093 35.0127 34.87 36.573 34.8728L 46.1584 34.8728C 47.9707 39.2364 51.5079 41.7601 54.2736 43.171C 54.8423 43.4575 55.4837 43.5677 56.1155 43.4873C 56.7473 43.4069 57.3407 43.1397 57.8194 42.72C 58.2981 42.3002 58.6404 41.7471 58.8023 41.1316C 58.9642 40.516 58.9382 39.8662 58.7279 39.2655C 58.2596 37.8608 58.1373 36.3639 58.3712 34.9019L 59.6813 34.9019C 62.3837 34.9019 64.9755 33.8292 66.8864 31.9197C 68.7973 30.0102 69.8708 27.4204 69.8708 24.72L 69.8708 10.2037C 69.8737 8.86472 69.6122 7.53837 69.1015 6.30053C 68.5907 5.0627 67.8406 3.93768 66.8941 2.9899C 65.9476 2.04212 64.8234 1.29018 63.5857 0.777128C 62.348 0.264079 61.0213 -3.07406e-06 59.6813 2.68356e-11ZM 10.7208 68.3638L 3.6391 68.3638L 3.6391 40.9746L 10.7208 40.9746L 10.7208 68.3638ZM 40.1175 41.8183C 40.7998 41.9021 41.4549 42.136 42.0359 42.5031C 42.6169 42.8703 43.1092 43.3615 43.4774 43.9416C 43.8456 44.5216 44.0805 45.176 44.1653 45.8577C 44.2501 46.5393 44.1826 47.2313 43.9677 47.8837L 38.6691 63.971C 38.3637 64.9007 37.772 65.7101 36.9785 66.2835C 36.185 66.8569 35.2305 67.165 34.2513 67.1638L 22.0966 67.1638C 20.5582 67.1657 19.0484 66.7483 17.7297 65.9565L 14.3381 63.9201L 14.3381 44.3419L 14.4836 44.3419C 15.9032 44.0949 17.2395 43.5008 18.3736 42.6125C 19.5076 41.7243 20.4041 40.5694 20.9831 39.251L 25.4737 29.6801C 26.0586 28.4451 26.4513 27.1281 26.6382 25.7746L 27.0531 22.8C 27.5295 22.891 27.9828 23.0762 28.3865 23.3447C 28.7902 23.6132 29.1362 23.9597 29.404 24.3637C 30.19 25.6291 30.1755 27.5782 29.404 30.0001C 28.1812 33.6873 27.8028 36.611 28.2758 38.691C 28.4301 39.3751 28.8137 39.9861 29.3631 40.4226C 29.9124 40.859 30.5945 41.0949 31.2963 41.091C 34.2478 41.1728 37.1925 41.4156 40.1175 41.8183ZM 66.2317 24.6764C 66.2317 26.4124 65.5416 28.0772 64.3131 29.3048C 63.0847 30.5323 61.4186 31.2219 59.6813 31.2219L 56.901 31.2219C 56.5033 31.2216 56.1164 31.3517 55.7996 31.592C 55.4828 31.8324 55.2536 32.1699 55.147 32.5528C 54.5031 34.7814 54.443 37.1379 54.9723 39.3964C 52.2385 37.9047 50.1617 35.4455 49.1497 32.5019C 49.0334 32.1322 48.8019 31.8093 48.4889 31.5804C 48.176 31.3514 47.7981 31.2283 47.4103 31.2291L 36.5803 31.2291C 35.3468 31.2293 34.1384 30.8814 33.094 30.2255C 33.9528 27.1201 33.7563 24.5019 32.4972 22.4655C 31.8793 21.4756 31.0237 20.6556 30.0081 20.08L 30.0081 10.2037C 30.0081 8.46769 30.6982 6.80282 31.9266 5.57531C 33.1551 4.3478 34.8212 3.65819 36.5584 3.65819L 59.6813 3.65819C 61.4186 3.65819 63.0847 4.3478 64.3131 5.57531C 65.5416 6.80282 66.2317 8.46769 66.2317 10.2037L 66.2317 24.6764Z"/>
        <path id="path1_stroke_2x" d="M 36.5803 2.68356e-11L 36.5803 -1L 36.5803 2.68356e-11ZM 26.3908 19.1855L 26.5617 20.1708L 27.3908 20.0269L 27.3908 19.1855L 26.3908 19.1855ZM 23.6105 21.6437L 22.6535 21.3537L 22.6531 21.3549L 23.6105 21.6437ZM 23.5523 21.9055L 22.5627 21.7613L 22.5617 21.7685L 23.5523 21.9055ZM 23.0865 25.2728L 24.0769 25.411L 24.077 25.4098L 23.0865 25.2728ZM 22.2349 28.1164L 23.138 28.546L 23.1383 28.5453L 22.2349 28.1164ZM 17.6715 37.7092L 16.7685 37.2796L 16.7598 37.2977L 16.7519 37.3162L 17.6715 37.7092ZM 16.3374 39.5443L 15.6799 38.7909L 16.3374 39.5443ZM 14.3381 40.6183L 13.3394 40.6706L 13.4045 41.9121L 14.6033 41.5825L 14.3381 40.6183ZM 10.8227 37.331L 10.8227 38.3311L 10.8366 38.3309L 10.8227 37.331ZM 3.54449 37.331L 3.5234 38.3308L 3.53394 38.331L 3.54449 38.331L 3.54449 37.331ZM 2.20696 37.5684L 1.84304 36.637L 2.20696 37.5684ZM 9.69652e-16 40.7419L -0.999863 40.7253L -1 40.7336L -1 40.7419L 9.69652e-16 40.7419ZM 9.69652e-16 68.5892L -1 68.5892L -1 68.5976L -0.99986 68.6059L 9.69652e-16 68.5892ZM 3.51537 72.0001L 3.51537 71.0001L 3.50267 71.0002L 3.51537 72.0001ZM 10.7936 72.0001L 10.8084 71.0002L 10.801 71.0001L 10.7936 71.0001L 10.7936 72.0001ZM 14.3162 68.5892L 15.3161 68.6059L 15.3162 68.5976L 15.3162 68.5892L 14.3162 68.5892ZM 14.3162 68.1601L 14.8292 67.3017L 13.3162 66.3975L 13.3162 68.1601L 14.3162 68.1601ZM 15.8374 69.0692L 16.3528 68.2122L 16.3504 68.2108L 15.8374 69.0692ZM 22.0675 70.8001L 22.0669 71.8001L 22.0675 71.8001L 22.0675 70.8001ZM 34.2221 70.8001L 34.2264 69.8001L 34.2221 69.8001L 34.2221 70.8001ZM 42.1263 65.091L 41.1765 64.7782L 41.1755 64.7812L 42.1263 65.091ZM 47.4321 48.9819L 48.3819 49.2947L 48.3824 49.2933L 47.4321 48.9819ZM 40.5615 38.1819L 40.4395 39.1744L 40.44 39.1745L 40.5615 38.1819ZM 31.7184 37.4546L 30.7203 37.5155L 30.7766 38.4389L 31.7016 38.4545L 31.7184 37.4546ZM 32.0751 33.8182L 32.518 32.9217L 31.4187 32.3786L 31.1078 33.5646L 32.0751 33.8182ZM 36.573 34.8728L 36.5712 35.8728L 36.573 35.8728L 36.573 34.8728ZM 46.1584 34.8728L 47.0819 34.4892L 46.8259 33.8728L 46.1584 33.8728L 46.1584 34.8728ZM 54.2736 43.171L 53.8192 44.0618L 53.8237 44.0641L 54.2736 43.171ZM 58.7279 39.2655L 57.7792 39.5818L 57.7816 39.5889L 57.7841 39.5961L 58.7279 39.2655ZM 58.3712 34.9019L 58.3712 33.9019L 57.5185 33.9019L 57.3838 34.7439L 58.3712 34.9019ZM 66.8864 31.9197L 66.1795 31.2123L 66.8864 31.9197ZM 69.8708 24.72L 68.8708 24.72L 69.8708 24.72ZM 69.8708 10.2037L 68.8708 10.2015L 68.8708 10.2037L 69.8708 10.2037ZM 10.7208 68.3638L 10.7208 69.3638L 11.7208 69.3638L 11.7208 68.3638L 10.7208 68.3638ZM 3.6391 68.3638L 2.6391 68.3638L 2.6391 69.3638L 3.6391 69.3638L 3.6391 68.3638ZM 3.6391 40.9746L 3.6391 39.9746L 2.6391 39.9746L 2.6391 40.9746L 3.6391 40.9746ZM 10.7208 40.9746L 11.7208 40.9746L 11.7208 39.9746L 10.7208 39.9746L 10.7208 40.9746ZM 43.9677 47.8837L 43.0179 47.5709L 43.0178 47.5709L 43.9677 47.8837ZM 38.6691 63.971L 37.7193 63.6582L 37.7191 63.6589L 38.6691 63.971ZM 34.2513 67.1638L 34.2525 66.1638L 34.2513 66.1638L 34.2513 67.1638ZM 22.0966 67.1638L 22.0966 66.1638L 22.0954 66.1638L 22.0966 67.1638ZM 17.7297 65.9565L 18.2445 65.0992L 18.2445 65.0992L 17.7297 65.9565ZM 14.3381 63.9201L 13.3381 63.9201L 13.3381 64.4861L 13.8233 64.7775L 14.3381 63.9201ZM 14.3381 44.3419L 14.3381 43.3419L 13.3381 43.3419L 13.3381 44.3419L 14.3381 44.3419ZM 14.4836 44.3419L 14.4836 45.3419L 14.57 45.3419L 14.6551 45.3271L 14.4836 44.3419ZM 20.9831 39.251L 20.0778 38.8262L 20.0725 38.8375L 20.0675 38.8489L 20.9831 39.251ZM 25.4737 29.6801L 24.57 29.252L 24.5684 29.2553L 25.4737 29.6801ZM 26.6382 25.7746L 25.6478 25.6365L 25.6476 25.6378L 26.6382 25.7746ZM 27.0531 22.8L 27.2407 21.8178L 26.2079 21.6206L 26.0627 22.6619L 27.0531 22.8ZM 29.404 24.3637L 30.2534 23.836L 30.2456 23.8235L 30.2375 23.8112L 29.404 24.3637ZM 29.404 30.0001L 30.3532 30.3148L 30.3568 30.3036L 29.404 30.0001ZM 28.2758 38.691L 29.2513 38.471L 29.2509 38.4692L 28.2758 38.691ZM 66.2317 24.6764L 67.2317 24.6764L 66.2317 24.6764ZM 56.901 31.2219L 56.9005 32.2219L 56.901 32.2219L 56.901 31.2219ZM 55.147 32.5528L 56.1077 32.8303L 56.1104 32.821L 55.147 32.5528ZM 54.9723 39.3964L 54.4933 40.2743L 56.4562 41.3453L 55.9459 39.1683L 54.9723 39.3964ZM 49.1497 32.5019L 48.1959 32.8021L 48.1998 32.8146L 48.2041 32.827L 49.1497 32.5019ZM 47.4103 31.2291L 47.4103 32.2292L 47.4123 32.2291L 47.4103 31.2291ZM 36.5803 31.2291L 36.5803 30.2291L 36.5802 30.2291L 36.5803 31.2291ZM 33.094 30.2255L 32.1302 29.959L 31.9318 30.6765L 32.5622 31.0724L 33.094 30.2255ZM 32.4972 22.4655L 33.3478 21.9396L 33.3455 21.936L 32.4972 22.4655ZM 30.0081 20.08L 29.0081 20.08L 29.0081 20.6627L 29.515 20.95L 30.0081 20.08ZM 36.5584 3.65819L 36.5584 2.65819L 36.5584 3.65819ZM 59.6813 3.65819L 59.6813 2.65819L 59.6813 3.65819ZM 59.6813 -1L 36.5803 -1L 36.5803 1L 59.6813 1L 59.6813 -1ZM 36.5803 -1C 33.6129 -1 30.7669 0.177901 28.6684 2.27482L 30.0821 3.68956C 31.8054 1.96755 34.1428 1 36.5803 1L 36.5803 -1ZM 28.6684 2.27482C 26.5699 4.37176 25.3908 7.21599 25.3908 10.1818L 27.3908 10.1818C 27.3908 7.74691 28.3588 5.41155 30.0821 3.68956L 28.6684 2.27482ZM 25.3908 10.1818L 25.3908 19.1855L 27.3908 19.1855L 27.3908 10.1818L 25.3908 10.1818ZM 26.2198 18.2002C 25.44 18.3452 24.59 18.7536 23.9896 19.2717L 25.3144 20.77C 25.6959 20.42 26.0498 20.2499 26.5617 20.1708L 26.2198 18.2002ZM 23.9896 19.2717C 23.4018 19.8041 22.8925 20.5977 22.6535 21.3537L 24.5675 21.9337C 24.7084 21.4358 24.9203 21.1057 25.3144 20.77L 23.9896 19.2717ZM 22.6531 21.3549C 22.6172 21.4763 22.5817 21.6362 22.5627 21.7613L 24.5418 22.0496C 24.5487 21.9976 24.5521 21.9825 24.5679 21.9325L 22.6531 21.3549ZM 22.5617 21.7685L 22.0959 25.1357L 24.077 25.4098L 24.5429 22.0425L 22.5617 21.7685ZM 22.0961 25.1346C 21.9719 26.0452 21.7284 26.8584 21.3316 27.6875L 23.1383 28.5453C 23.5951 27.5762 23.9259 26.4716 24.0769 25.411L 22.0961 25.1346ZM 21.3319 27.6868L 16.7685 37.2796L 18.5745 38.1387L 23.138 28.546L 21.3319 27.6868ZM 16.7519 37.3162C 16.5009 37.9197 16.1767 38.3656 15.6799 38.7909L 16.9949 40.2977C 17.6524 39.7156 18.2403 38.9069 18.591 38.1021L 16.7519 37.3162ZM 15.6799 38.7909C 15.1913 39.2256 14.7053 39.4866 14.0729 39.6541L 14.6033 41.5825C 15.4484 41.3435 16.3292 40.8703 16.9949 40.2977L 15.6799 38.7909ZM 15.3367 40.5659C 15.2762 39.4117 14.7706 38.3259 13.9263 37.5364L 12.5603 38.9972C 13.0269 39.4335 13.306 40.0333 13.3394 40.6706L 15.3367 40.5659ZM 13.9263 37.5364C 13.082 36.7469 11.9647 36.315 10.8088 36.3311L 10.8366 38.3309C 11.4759 38.322 12.0937 38.5609 12.5603 38.9972L 13.9263 37.5364ZM 10.8227 36.331L 3.54449 36.331L 3.54449 38.331L 10.8227 38.331L 10.8227 36.331ZM 3.56557 36.3312C 3.01013 36.3243 2.36214 36.4394 1.84304 36.637L 2.57089 38.4998C 2.90347 38.3647 3.16457 38.3184 3.5234 38.3308L 3.56557 36.3312ZM 1.84304 36.637C 1.32743 36.8436 0.773137 37.1984 0.369612 37.58L 1.75641 39.0211C 2.01158 38.7688 2.2348 38.626 2.57089 38.4998L 1.84304 36.637ZM 0.369612 37.58C -0.0272152 37.9686 -0.402939 38.5089 -0.629064 39.016L 1.20465 39.8145C 1.34337 39.4837 1.49454 39.2664 1.75641 39.0211L 0.369612 37.58ZM -0.629064 39.016C -0.846308 39.5271 -0.985817 40.1702 -0.999863 40.7253L 0.999863 40.7585C 1.00095 40.3999 1.05705 40.1413 1.20465 39.8145L -0.629064 39.016ZM -1 40.7419L -1 68.5892L 1 68.5892L 1 40.7419L -1 40.7419ZM -0.99986 68.6059C -0.98011 69.7882 -0.492363 70.9143 0.356355 71.7378L 1.74908 70.3025C 1.28008 69.8474 1.01077 69.2253 0.99986 68.5725L -0.99986 68.6059ZM 0.356355 71.7378C 1.20505 72.5613 2.34553 73.0151 3.52808 73.0001L 3.50267 71.0002C 2.84864 71.0085 2.21811 70.7575 1.74908 70.3025L 0.356355 71.7378ZM 3.51537 73.0001L 10.7936 73.0001L 10.7936 71.0001L 3.51537 71.0001L 3.51537 73.0001ZM 10.7788 73C 11.9629 73.0176 13.1058 72.5649 13.9566 71.7411L 12.5653 70.3043C 12.0952 70.7596 11.4633 71.0099 10.8084 71.0002L 10.7788 73ZM 13.9566 71.7411C 14.8073 70.9174 15.2964 69.7898 15.3161 68.6059L 13.3164 68.5725C 13.3055 69.2263 13.0354 69.8491 12.5653 70.3043L 13.9566 71.7411ZM 15.3162 68.5892L 15.3162 68.1601L 13.3162 68.1601L 13.3162 68.5892L 15.3162 68.5892ZM 13.8032 69.0185L 15.3244 69.9276L 16.3504 68.2108L 14.8292 67.3017L 13.8032 69.0185ZM 15.322 69.9262C 17.3233 71.1191 19.7367 71.7896 22.0669 71.8001L 22.0681 69.8001C 20.0075 69.808 18.1136 69.2818 16.3527 68.2122L 15.322 69.9262ZM 22.0675 71.8001L 34.2221 71.8001L 34.2221 69.8001L 22.0675 69.8001L 22.0675 71.8001ZM 34.2179 71.8001C 36.1275 71.7959 38.1359 71.1512 39.6908 70.0434L 38.5198 68.4221C 37.2336 69.3663 35.8223 69.8193 34.2264 69.8001L 34.2179 71.8001ZM 39.6908 70.0434C 41.2313 68.9155 42.474 67.2116 43.0771 65.4008L 41.1755 64.7812C 40.6933 66.3013 39.8204 67.498 38.5198 68.4221L 39.6908 70.0434ZM 43.0761 65.4039L 48.3819 49.2947L 46.4823 48.6691L 41.1765 64.7782L 43.0761 65.4039ZM 48.3824 49.2933C 48.792 48.0238 48.9316 46.5717 48.7713 45.2475L 46.7869 45.4968C 46.9318 46.6008 46.8343 47.6142 46.4818 48.6705L 48.3824 49.2933ZM 48.7713 45.2475C 48.599 43.9248 48.1045 42.5523 47.3935 41.4234L 45.7061 42.4969C 46.309 43.4334 46.6542 44.3913 46.7869 45.4968L 48.7713 45.2475ZM 47.3935 41.4234C 46.6724 40.3011 45.6386 39.2713 44.5133 38.5541L 43.4461 40.2456C 44.3917 40.835 45.1134 41.554 45.7061 42.4969L 47.3935 41.4234ZM 44.5133 38.5541C 43.3816 37.8473 42.0069 37.3574 40.6829 37.1893L 40.44 39.1745C 41.547 39.3038 42.507 39.6459 43.4461 40.2456L 44.5133 38.5541ZM 40.6834 37.1894C 37.1698 36.758 33.9294 36.4922 31.7353 36.4548L 31.7016 38.4545C 33.8307 38.4898 36.966 38.7476 40.4395 39.1744L 40.6834 37.1894ZM 32.7166 37.3937C 32.6437 36.2497 32.7486 35.18 33.0424 34.0719L 31.1078 33.5646C 30.7798 34.8277 30.644 36.2128 30.7203 37.5155L 32.7166 37.3937ZM 31.6321 34.7148C 33.136 35.4505 34.8969 35.8633 36.5712 35.8728L 36.5748 33.8728C 35.1284 33.8768 33.8116 33.568 32.518 32.9217L 31.6321 34.7148ZM 36.573 35.8728L 46.1584 35.8728L 46.1584 33.8728L 36.573 33.8728L 36.573 35.8728ZM 45.2349 35.2563C 47.1883 39.8593 50.9889 42.6148 53.8192 44.0618L 54.728 42.2802C 52.0269 40.9053 48.753 38.6136 47.0819 34.4892L 45.2349 35.2563ZM 53.8237 44.0641C 54.5293 44.4073 55.462 44.5674 56.2417 44.4793L 55.9893 42.4953C 55.5055 42.5679 55.1553 42.5078 54.7235 42.2779L 53.8237 44.0641ZM 56.2417 44.4793C 57.0187 44.3694 57.8816 43.9808 58.4787 43.4719L 57.1601 41.9681C 56.7998 42.2986 56.4759 42.4445 55.9893 42.4953L 56.2417 44.4793ZM 58.4787 43.4719C 59.0613 42.9464 59.5593 42.1417 59.7694 41.3859L 57.8352 40.8772C 57.7216 41.3525 57.5349 41.6541 57.1601 41.9681L 58.4787 43.4719ZM 59.7694 41.3859C 59.9583 40.6245 59.9206 39.679 59.6717 38.935L 57.7841 39.5961C 57.9559 40.0535 57.9701 40.4076 57.8352 40.8772L 59.7694 41.3859ZM 59.6765 38.9493C 59.2393 37.6605 59.1365 36.4025 59.3587 35.0599L 57.3838 34.7439C 57.138 36.3254 57.2799 38.0611 57.7792 39.5818L 59.6765 38.9493ZM 58.3712 35.9019L 59.6813 35.9019L 59.6813 33.9019L 58.3712 33.9019L 58.3712 35.9019ZM 59.6813 35.9019C 62.6487 35.9019 65.4947 34.724 67.5932 32.6271L 66.1795 31.2123C 64.4562 32.9343 62.1188 33.9019 59.6813 33.9019L 59.6813 35.9019ZM 67.5932 32.6271C 69.6917 30.5301 70.8708 27.6859 70.8708 24.72L 68.8708 24.72C 68.8708 27.155 67.9028 29.4903 66.1795 31.2123L 67.5932 32.6271ZM 70.8708 24.72L 70.8708 10.2037L 68.8708 10.2037L 68.8708 24.72L 70.8708 24.72ZM 70.8708 10.2058C 70.869 8.76864 70.5696 7.24956 70.0258 5.91909L 68.1771 6.68198C 68.6549 7.82718 68.8783 8.96081 68.8708 10.2015L 70.8708 10.2058ZM 70.0258 5.91909C 69.4731 4.59233 68.6141 3.30394 67.6017 2.28329L 66.1865 3.69652C 67.067 4.57143 67.7082 5.53307 68.1771 6.68198L 70.0258 5.91909ZM 67.6017 2.28329C 66.5825 1.26947 65.2951 0.408427 63.9686 -0.146649L 63.2028 1.70091C 64.3517 2.17193 65.3128 2.81476 66.1865 3.69652L 67.6017 2.28329ZM 63.9686 -0.146649C 62.6385 -0.692805 61.1193 -0.995182 59.6813 -1L 59.6813 1C 60.9232 0.995176 62.0576 1.22096 63.2028 1.70091L 63.9686 -0.146649ZM 10.7208 67.3638L 3.6391 67.3638L 3.6391 69.3638L 10.7208 69.3638L 10.7208 67.3638ZM 4.6391 68.3638L 4.6391 40.9746L 2.6391 40.9746L 2.6391 68.3638L 4.6391 68.3638ZM 3.6391 41.9746L 10.7208 41.9746L 10.7208 39.9746L 3.6391 39.9746L 3.6391 41.9746ZM 9.7208 40.9746L 9.7208 68.3638L 11.7208 68.3638L 11.7208 40.9746L 9.7208 40.9746ZM 39.9956 42.8108C 40.5693 42.8752 41.0171 43.035 41.5017 43.3485L 42.5701 41.6578C 41.8928 41.2369 41.0302 40.929 40.2394 40.8257L 39.9956 42.8108ZM 41.5017 43.3485C 41.9928 43.6516 42.3291 43.9872 42.6331 44.4775L 44.3216 43.4057C 43.8893 42.7359 43.241 42.0889 42.5701 41.6578L 41.5017 43.3485ZM 42.6331 44.4775C 42.9474 44.9612 43.1078 45.4081 43.1729 45.9811L 45.1576 45.7343C 45.0532 44.944 44.7438 44.0821 44.3216 43.4057L 42.6331 44.4775ZM 43.1729 45.9811C 43.2501 46.5526 43.2041 47.025 43.0179 47.5709L 44.9175 48.1966C 45.1611 47.4375 45.25 46.5261 45.1576 45.7343L 43.1729 45.9811ZM 43.0178 47.5709L 37.7193 63.6582L 39.6189 64.2839L 44.9175 48.1966L 43.0178 47.5709ZM 37.7191 63.6589C 37.4741 64.4439 37.0668 65.001 36.3928 65.473L 37.5642 67.094C 38.4771 66.4191 39.2533 65.3575 39.6192 64.2831L 37.7191 63.6589ZM 36.3928 65.473C 35.733 65.9649 35.0756 66.1771 34.2525 66.1638L 34.25 68.1638C 35.3853 68.153 36.637 67.749 37.5642 67.094L 36.3928 65.473ZM 34.2513 66.1638L 22.0966 66.1638L 22.0966 68.1638L 34.2513 68.1638L 34.2513 66.1638ZM 22.0954 66.1638C 20.692 66.1747 19.4426 65.8293 18.2445 65.0992L 17.2149 66.8138C 18.6541 67.6673 20.4244 68.1567 22.0979 68.1638L 22.0954 66.1638ZM 18.2445 65.0992L 14.8528 63.0628L 13.8233 64.7775L 17.215 66.8138L 18.2445 65.0992ZM 15.3381 63.9201L 15.3381 44.3419L 13.3381 44.3419L 13.3381 63.9201L 15.3381 63.9201ZM 14.3381 45.3419L 14.4836 45.3419L 14.4836 43.3419L 14.3381 43.3419L 14.3381 45.3419ZM 14.6551 45.3271C 16.1942 45.0516 17.7549 44.3578 18.9902 43.3998L 17.7569 41.8253C 16.7242 42.6438 15.6122 43.1382 14.3122 43.3567L 14.6551 45.3271ZM 18.9902 43.3998C 20.2162 42.4298 21.2633 41.081 21.8987 39.6531L 20.0675 38.8489C 19.5448 40.0579 18.7989 41.0187 17.7569 41.8253L 18.9902 43.3998ZM 21.8884 39.6758L 26.379 30.1048L 24.5684 29.2553L 20.0778 38.8262L 21.8884 39.6758ZM 26.3775 30.1081C 26.9924 28.803 27.4286 27.34 27.6288 25.9114L 25.6476 25.6378C 25.474 26.9162 25.1249 28.0871 24.57 29.252L 26.3775 30.1081ZM 27.6287 25.9127L 28.0435 22.9382L 26.0627 22.6619L 25.6478 25.6365L 27.6287 25.9127ZM 26.8655 23.7823C 27.2452 23.8497 27.5145 23.9598 27.8327 24.1773L 28.9403 22.5121C 28.4511 22.1926 27.8137 21.9323 27.2407 21.8178L 26.8655 23.7823ZM 27.8327 24.1773C 28.1564 24.3867 28.3617 24.5924 28.5705 24.9162L 30.2375 23.8112C 29.9106 23.327 29.4241 22.8398 28.9403 22.5121L 27.8327 24.1773ZM 28.5545 24.8913C 29.1023 25.7732 29.1973 27.3543 28.4511 29.6965L 30.3568 30.3036C 31.1536 27.8021 31.2777 25.4851 30.2534 23.836L 28.5545 24.8913ZM 28.4548 29.6853C 27.2149 33.4244 26.766 36.5618 27.3007 38.9128L 29.2509 38.4692C 28.8395 36.6601 29.1476 33.9502 30.3531 30.3148L 28.4548 29.6853ZM 27.3003 38.911C 27.5057 39.7565 28.0686 40.653 28.741 41.2055L 29.9852 39.6396C 29.5589 39.3192 29.3546 38.9938 29.2513 38.471L 27.3003 38.911ZM 28.741 41.2055C 29.4311 41.7356 30.4315 42.0815 31.3018 42.091L 31.2908 40.091C 30.7574 40.1082 30.3937 39.9825 29.9852 39.6396L 28.741 41.2055ZM 31.2686 42.0906C 34.1928 42.1713 37.0832 42.4096 39.9811 42.8089L 40.2539 40.8276C 37.3019 40.4215 34.3027 40.1743 31.324 40.0914L 31.2686 42.0906ZM 65.2317 24.6764C 65.2317 26.1469 64.6471 27.5573 63.6063 28.5974L 65.02 30.0121C 66.436 28.5971 67.2317 26.6778 67.2317 24.6764L 65.2317 24.6764ZM 63.6063 28.5974C 62.5655 29.6374 61.1536 30.2219 59.6813 30.2219L 59.6813 32.2219C 61.6836 32.2219 63.6039 31.4271 65.02 30.0121L 63.6063 28.5974ZM 59.6813 30.2219L 56.901 30.2219L 56.901 32.2219L 59.6813 32.2219L 59.6813 30.2219ZM 56.9016 30.2219C 56.3422 30.2347 55.6487 30.4678 55.1951 30.7954L 56.4041 32.3887C 56.5841 32.2356 56.6644 32.2086 56.9005 32.2219L 56.9016 30.2219ZM 55.1951 30.7954C 54.7574 31.1441 54.3463 31.7493 54.1836 32.2846L 56.1104 32.821C 56.1608 32.5905 56.2082 32.5207 56.4041 32.3887L 55.1951 30.7954ZM 54.1863 32.2752C 53.5149 34.6286 53.4482 37.2401 53.9987 39.6246L 55.9459 39.1683C 55.4378 37.0358 55.4914 34.9342 56.1077 32.8303L 54.1863 32.2752ZM 55.4513 38.5186C 52.8708 37.13 51.0314 34.9519 50.0954 32.1768L 48.2041 32.827C 49.292 35.9391 51.6063 38.6794 54.4933 40.2743L 55.4513 38.5186ZM 50.1036 32.2017C 49.9279 31.6851 49.5124 31.1056 49.0794 30.7733L 47.8985 32.3874C 48.0914 32.513 48.1389 32.5793 48.1959 32.8021L 50.1036 32.2017ZM 49.0794 30.7733C 48.6318 30.4613 47.9538 30.2405 47.4082 30.2292L 47.4123 32.2291C 47.6424 32.2162 47.7203 32.2415 47.8985 32.3874L 49.0794 30.7733ZM 47.4103 30.2291L 36.5803 30.2291L 36.5803 32.2291L 47.4103 32.2291L 47.4103 30.2291ZM 36.5802 30.2291C 35.4864 30.2391 34.5466 29.9685 33.6259 29.3787L 32.5622 31.0724C 33.7301 31.7943 35.2072 32.2195 36.5804 32.2291L 36.5802 30.2291ZM 34.0578 30.4921C 34.9635 27.2172 34.7998 24.2879 33.3477 21.9396L 31.6467 22.9914C 32.7129 24.7158 32.9422 27.0229 32.1302 29.959L 34.0578 30.4921ZM 33.3455 21.936C 32.6554 20.845 31.6207 19.8534 30.5011 19.21L 29.515 20.95C 30.4266 21.4578 31.1032 22.1062 31.6489 22.995L 33.3455 21.936ZM 31.0081 20.08L 31.0081 10.2037L 29.0081 10.2037L 29.0081 20.08L 31.0081 20.08ZM 31.0081 10.2037C 31.0081 8.73315 31.5926 7.32272 32.6335 6.28268L 31.2198 4.86794C 29.8037 6.28293 29.0081 8.20223 29.0081 10.2037L 31.0081 10.2037ZM 32.6335 6.28268C 33.6743 5.24262 35.0861 4.65819 36.5584 4.65819L 36.5584 2.65819C 34.5562 2.65819 32.6358 3.45297 31.2198 4.86794L 32.6335 6.28268ZM 36.5584 4.65819L 59.6813 4.65819L 59.6813 2.65819L 36.5584 2.65819L 36.5584 4.65819ZM 59.6813 4.65819C 61.1536 4.65819 62.5655 5.24262 63.6063 6.28268L 65.02 4.86794C 63.6039 3.45297 61.6836 2.65819 59.6813 2.65819L 59.6813 4.65819ZM 63.6063 6.28268C 64.6471 7.32272 65.2317 8.73315 65.2317 10.2037L 67.2317 10.2037C 67.2317 8.20223 66.436 6.28293 65.02 4.86794L 63.6063 6.28268ZM 65.2317 10.2037L 65.2317 24.6764L 67.2317 24.6764L 67.2317 10.2037L 65.2317 10.2037Z"/>
        <path id="path2_fill" d="M 12.8047 0.54048L 5.73025 7.60231L 3.11009 5.02049C 2.76843 4.67908 2.30503 4.48728 1.82185 4.48728C 1.33867 4.48728 0.87527 4.67908 0.533607 5.02049C 0.191944 5.36189 -7.5921e-07 5.82494 -7.6281e-07 6.30776C -7.6641e-07 6.79059 0.191944 7.25363 0.533607 7.59504L 4.44201 11.4932C 4.61103 11.6625 4.81181 11.7969 5.03287 11.8885C 5.25393 11.9802 5.49091 12.0274 5.73025 12.0274C 5.96958 12.0274 6.20656 11.9802 6.42762 11.8885C 6.64868 11.7969 6.84947 11.6625 7.01849 11.4932L 15.3739 3.10776C 15.7155 2.76635 15.9075 2.3033 15.9075 1.82048C 15.9075 1.33766 15.7155 0.874614 15.3739 0.533207C 15.0322 0.1918 14.5688 1.29146e-07 14.0856 1.25548e-07C 13.6024 1.21951e-07 13.139 0.1918 12.7974 0.533207L 12.8047 0.54048Z"/>
        <path id="path3_stroke_2x" d="M 12.8047 0.54048L 13.5111 1.24822L 14.2198 0.540777L 13.5114 -0.16696L 12.8047 0.54048ZM 5.73025 7.60231L 5.02837 8.31461L 5.73481 9.01071L 6.43672 8.31005L 5.73025 7.60231ZM 3.11009 5.02049L 2.40323 5.72788L 2.40822 5.73279L 3.11009 5.02049ZM 1.82185 4.48728L 1.82185 5.48728L 1.82185 4.48728ZM -7.6281e-07 6.30776L -1 6.30776L -7.6281e-07 6.30776ZM 0.533607 7.59504L -0.173234 8.30241L -0.172574 8.30307L 0.533607 7.59504ZM 4.44201 11.4932L 5.14974 10.7867L 5.14819 10.7852L 4.44201 11.4932ZM 5.73025 12.0274L 5.73025 13.0274L 5.73025 12.0274ZM 7.01849 11.4932L 7.72623 12.1997L 7.72687 12.1991L 7.01849 11.4932ZM 15.3739 3.10776L 14.667 2.40038L 14.6655 2.40192L 15.3739 3.10776ZM 14.0856 1.25548e-07L 14.0856 1L 14.0856 1.25548e-07ZM 12.7974 0.533207L 12.0905 -0.174165L 11.3826 0.533274L 12.0906 1.24065L 12.7974 0.533207ZM 12.0982 -0.167256L 5.02377 6.89457L 6.43672 8.31005L 13.5111 1.24822L 12.0982 -0.167256ZM 6.43212 6.89001L 3.81197 4.30819L 2.40822 5.73279L 5.02837 8.31461L 6.43212 6.89001ZM 3.81693 4.31312C 3.28768 3.78426 2.57001 3.48728 1.82185 3.48728L 1.82185 5.48728C 2.04006 5.48728 2.24918 5.57391 2.40325 5.72786L 3.81693 4.31312ZM 1.82185 3.48728C 1.07369 3.48728 0.356023 3.78426 -0.173234 4.31312L 1.24045 5.72786C 1.39452 5.57391 1.60364 5.48728 1.82185 5.48728L 1.82185 3.48728ZM -0.173234 4.31312C -0.702517 4.842 -1 5.55948 -1 6.30776L 0.999999 6.30776C 0.999999 6.0904 1.0864 5.88179 1.24045 5.72786L -0.173234 4.31312ZM -1 6.30776C -1 7.05605 -0.702516 7.77353 -0.173234 8.30241L 1.24045 6.88766C 1.0864 6.73374 0.999999 6.52513 0.999999 6.30776L -1 6.30776ZM -0.172574 8.30307L 3.73583 12.2013L 5.14819 10.7852L 1.23979 6.88701L -0.172574 8.30307ZM 3.73427 12.1997C 3.97606 12.4351 4.33999 12.6786 4.64985 12.8123L 5.41589 10.9648C 5.28364 10.9152 5.246 10.89 5.14974 10.7867L 3.73427 12.1997ZM 4.64985 12.8123C 4.96339 12.9371 5.39281 13.0226 5.73025 13.0274L 5.73025 11.0274C 5.58902 11.0322 5.54447 11.0233 5.41589 10.9648L 4.64985 12.8123ZM 5.73025 13.0274C 6.06768 13.0226 6.49711 12.9371 6.81064 12.8123L 6.0446 10.9648C 5.91602 11.0233 5.87148 11.0322 5.73025 11.0274L 5.73025 13.0274ZM 6.81064 12.8123C 7.1205 12.6786 7.48444 12.4351 7.72623 12.1997L 6.31076 10.7867C 6.21451 10.89 6.17686 10.9152 6.0446 10.9648L 6.81064 12.8123ZM 7.72687 12.1991L 16.0822 3.81359L 14.6655 2.40192L 6.31012 10.7874L 7.72687 12.1991ZM 16.0807 3.81513C 16.61 3.28625 16.9075 2.56877 16.9075 1.82048L 14.9075 1.82048C 14.9075 2.03784 14.8211 2.24645 14.667 2.40038L 16.0807 3.81513ZM 16.9075 1.82048C 16.9075 1.0722 16.61 0.354717 16.0807 -0.174165L 14.667 1.24058C 14.8211 1.39451 14.9075 1.60312 14.9075 1.82048L 16.9075 1.82048ZM 16.0807 -0.174165C 15.5515 -0.703024 14.8338 -1 14.0856 -1L 14.0856 1C 14.3038 1 14.513 1.08662 14.667 1.24058L 16.0807 -0.174165ZM 14.0856 -1C 13.3375 -1 12.6198 -0.703026 12.0905 -0.174165L 13.5042 1.24058C 13.6583 1.08663 13.8674 1 14.0856 1L 14.0856 -1ZM 12.0906 1.24065L 12.0979 1.24792L 13.5114 -0.16696L 13.5042 -0.174233L 12.0906 1.24065Z"/>
    </defs>
</svg>
