<svg width="138" height="51" viewBox="0 0 138 51" version="1.1" xmlns="http://www.w3.org/2000/svg" xmlns:xlink="http://www.w3.org/1999/xlink">
<title>timeline-recieve-mobile</title>
<desc>Created using Figma</desc>
<g id="Canvas" transform="translate(-526 -3390)">
<g id="timeline-recieve-mobile">
<clipPath id="clip-0" clip-rule="evenodd">
<path d="M 615.955 3413.3L 664 3413.3L 664 3441L 615.955 3441L 615.955 3413.3Z" fill="#FFFFFF"/>
</clipPath>
<g id="Group" clip-path="url(#clip-0)">
</g>
<clipPath id="clip-1" clip-rule="evenodd">
<path d="M 527 3391L 584.541 3391L 584.541 3438.1L 527 3438.1L 527 3391Z" fill="#FFFFFF"/>
</clipPath>
<g id="Group" clip-path="url(#clip-1)">
</g>
<g id="Vector">
<use xlink:href="#path0_fill" transform="translate(615.955 3413.3)" fill="#5D2FCD"/>
</g>
<g id="Vector">
<use xlink:href="#path1_fill" transform="translate(636.068 3418.1)" fill="#5D2FCD"/>
</g>
<g id="Vector">
<use xlink:href="#path2_fill" transform="translate(639.075 3418.1)" fill="#5D2FCD"/>
</g>
<g id="Vector">
<use xlink:href="#path3_fill" transform="translate(645.053 3418.1)" fill="#5D2FCD"/>
</g>
<g id="Vector">
<use xlink:href="#path4_fill" transform="translate(642.081 3418.1)" fill="#5D2FCD"/>
</g>
<g id="Vector">
<use xlink:href="#path5_fill" transform="translate(648.06 3418.1)" fill="#5D2FCD"/>
</g>
<g id="Vector">
<use xlink:href="#path6_fill" transform="translate(645.053 3435.77)" fill="#5D2FCD"/>
</g>
<g id="Vector">
<use xlink:href="#path7_fill" transform="translate(648.06 3435.77)" fill="#5D2FCD"/>
</g>
<g id="Vector">
<use xlink:href="#path8_fill" transform="translate(642.081 3435.77)" fill="#5D2FCD"/>
</g>
<g id="Vector">
<use xlink:href="#path9_fill" transform="translate(639.075 3435.77)" fill="#5D2FCD"/>
</g>
<g id="Vector">
<use xlink:href="#path10_fill" transform="translate(636.068 3435.77)" fill="#5D2FCD"/>
</g>
<g id="Vector">
<use xlink:href="#path11_fill" transform="translate(618.823 3421.27)" fill="#5D2FCD"/>
</g>
<g id="Vector">
<use xlink:href="#path12_fill" transform="translate(654.799 3423.13)" fill="#5D2FCD"/>
</g>
<g id="Vector">
<use xlink:href="#path13_fill" transform="translate(656.009 3424.57)" fill="#5D2FCD"/>
</g>
<g id="Vector">
<use xlink:href="#path14_fill" transform="translate(654.799 3430.21)" fill="#5D2FCD"/>
</g>
<g id="Vector">
<use xlink:href="#path15_fill" transform="translate(656.32 3426.47)" fill="#5D2FCD"/>
</g>
<g id="Vector">
<use xlink:href="#path16_fill" transform="translate(656.043 3428.35)" fill="#5D2FCD"/>
</g>
<g id="Vector">
<use xlink:href="#path12_fill" transform="translate(656.354 3423.13)" fill="#5D2FCD"/>
</g>
<g id="Vector">
<use xlink:href="#path13_fill" transform="translate(657.564 3424.57)" fill="#5D2FCD"/>
</g>
<g id="Vector">
<use xlink:href="#path17_fill" transform="translate(657.598 3428.35)" fill="#5D2FCD"/>
</g>
<g id="Vector">
<use xlink:href="#path14_fill" transform="translate(656.354 3430.21)" fill="#5D2FCD"/>
</g>
<g id="Vector">
<use xlink:href="#path15_fill" transform="translate(657.875 3426.47)" fill="#5D2FCD"/>
</g>
<g id="Vector">
<use xlink:href="#path18_fill" transform="translate(527 3391)" fill="#5D2FCD"/>
<use xlink:href="#path19_stroke" transform="translate(527 3391)" fill="#FFFFFF"/>
</g>
<g id="Vector">
<use xlink:href="#path20_fill" transform="translate(561.697 3418.14)" fill="#5D2FCD"/>
<use xlink:href="#path21_stroke" transform="translate(561.697 3418.14)" fill="#FFFFFF"/>
</g>
<g id="Vector">
<use xlink:href="#path22_fill" transform="translate(533.175 3409.1)" fill="#5D2FCD"/>
<use xlink:href="#path23_stroke" transform="translate(533.175 3409.1)" fill="#FFFFFF"/>
</g>
<g id="Vector (Stroke)">
<use xlink:href="#path24_fill" transform="translate(607.177 3425.46)" fill="#5D2FCD"/>
</g>
<g id="Vector (Stroke)">
<use xlink:href="#path25_fill" transform="translate(572.791 3421.92)" fill="#5D2FCD"/>
</g>
<g id="Vector (Stroke)">
<use xlink:href="#path25_fill" transform="translate(575.728 3429.17)" fill="#5D2FCD"/>
</g>
<g id="Vector (Stroke)">
<use xlink:href="#path26_fill" transform="translate(569.162 3425.46)" fill="#5D2FCD"/>
</g>
</g>
</g>
<defs>
<path id="path0_fill" d="M 33.1766 27.6C 34.4553 27.7349 34.9737 27.0268 35.0773 26.6558C 36.0796 23.5199 36.6325 23.4861 37.4965 23.4524C 41.1252 23.2838 43.8899 22.171 45.7215 20.1478C 48.1061 17.5514 48.0715 14.3479 48.037 13.8084C 48.0715 13.2689 48.1061 10.0655 45.7215 7.469C 43.8899 5.44579 41.1252 4.33302 37.4965 4.16442C 36.5979 4.1307 36.0796 4.09698 35.0773 0.994714C 34.9737 0.590071 34.4553 -0.118055 33.1766 0.0168261C 32.2435 0.117987 24.2604 0.0505464 20.1479 0.0168261C 19.5949 0.0168261 18.731 0.421469 18.6618 1.53424L 18.6618 1.60168C 18.6273 2.20865 18.5582 3.11909 17.867 3.72606C 17.314 4.19814 16.381 4.36674 15.1368 4.26558C 12.9942 4.06326 10.6787 3.69234 8.81253 3.38885C 7.1537 3.11909 5.9787 2.91677 5.3912 2.91677C 2.93751 2.91677 -2.10931e-06 4.4679 -2.10931e-06 11.8864L -2.10931e-06 13.4375L -2.10931e-06 14.2805L -2.10931e-06 15.8316C -2.10931e-06 23.2501 2.93751 24.8012 5.3912 24.8012C 5.9787 24.8012 7.1537 24.5989 8.81253 24.3291C 10.6787 24.0257 12.9942 23.6547 15.1368 23.4524C 16.381 23.3513 17.314 23.5199 17.867 23.9919C 18.5582 24.5652 18.6273 25.5093 18.6618 26.1163L 18.6618 26.1838C 18.731 27.2628 19.5949 27.7012 20.1824 27.7012C 24.2604 27.5663 32.2435 27.4988 33.1766 27.6ZM 19.6295 26.0489L 19.6295 25.9814C 19.5949 25.307 19.5258 24.0257 18.489 23.1827C 17.6942 22.542 16.5537 22.2722 14.9986 22.4071C 12.8214 22.6094 10.5059 22.9803 8.60518 23.2838C 7.11914 23.5199 5.84046 23.7222 5.32208 23.7222C 1.69339 23.7222 0.933094 19.3723 0.933094 15.7305L 0.933094 14.1793L 0.933094 13.3363L 0.933094 11.7852C 0.933094 8.14341 1.69339 3.7935 5.32208 3.7935C 5.8059 3.7935 7.11914 3.99582 8.60518 4.23186C 10.4714 4.53534 12.8214 4.90626 14.9986 5.10859C 16.5192 5.24347 17.6942 5.00743 18.489 4.33302C 19.4913 3.49001 19.5949 2.20864 19.6295 1.53424L 19.6295 1.4668C 19.6641 0.960995 19.9751 0.893553 20.1133 0.859833C 20.5971 0.859833 32.0362 0.994714 33.2457 0.859833C 33.9369 0.792392 34.0751 1.09588 34.1097 1.1296C 35.1465 4.33302 35.8722 4.93999 37.4274 5.00743C 40.7796 5.17603 43.3024 6.18763 44.9612 7.97481C 47.173 10.4027 47.0348 13.5049 47.0348 13.6735C 47.0348 13.8759 47.173 16.9444 44.9612 19.3723C 43.3024 21.1932 40.7796 22.171 37.4274 22.3396C 35.8722 22.4071 35.1465 23.0141 34.1097 26.2175C 34.1097 26.2512 33.9715 26.5547 33.2803 26.4872C 32.0707 26.3524 20.6317 26.4872 20.1479 26.4872C 19.9751 26.6558 19.6641 26.5547 19.6295 26.0489Z"/>
<path id="path1_fill" d="M 1.96986 0.236042C 1.96986 0.101161 1.86619 1.02906e-06 1.72795 1.02906e-06L 0.241909 1.02906e-06C 0.103673 1.02906e-06 2.10931e-06 0.101161 2.10931e-06 0.236042C 2.10931e-06 0.370923 0.103673 0.472083 0.241909 0.472083L 1.72795 0.472083C 1.83163 0.472083 1.96986 0.370923 1.96986 0.236042Z"/>
<path id="path2_fill" d="M 1.96986 0.236042C 1.96986 0.101161 1.86618 1.02906e-06 1.72794 1.02906e-06L 0.241913 1.02906e-06C 0.103677 1.02906e-06 -4.21862e-06 0.101161 -4.21862e-06 0.236042C -4.21862e-06 0.370923 0.103677 0.472083 0.241913 0.472083L 1.72794 0.472083C 1.83162 0.472083 1.96986 0.370923 1.96986 0.236042Z"/>
<path id="path3_fill" d="M 1.96986 0.236042C 1.96986 0.101161 1.86619 1.02906e-06 1.72795 1.02906e-06L 0.241909 1.02906e-06C 0.103673 1.02906e-06 2.10931e-06 0.101161 2.10931e-06 0.236042C 2.10931e-06 0.370923 0.103673 0.472083 0.241909 0.472083L 1.72795 0.472083C 1.86619 0.472083 1.96986 0.370923 1.96986 0.236042Z"/>
<path id="path4_fill" d="M 1.96987 0.236042C 1.96987 0.101161 1.86618 1.02906e-06 1.72795 1.02906e-06L 0.241917 1.02906e-06C 0.103681 1.02906e-06 0 0.101161 0 0.236042C 0 0.370923 0.103681 0.472083 0.241917 0.472083L 1.72795 0.472083C 1.83163 0.472083 1.96987 0.370923 1.96987 0.236042Z"/>
<path id="path5_fill" d="M 1.96986 0.236042C 1.96986 0.101161 1.86618 1.02906e-06 1.72794 1.02906e-06L 0.241913 1.02906e-06C 0.103677 1.02906e-06 -4.21862e-06 0.101161 -4.21862e-06 0.236042C -4.21862e-06 0.370923 0.103677 0.472083 0.241913 0.472083L 1.72794 0.472083C 1.86618 0.472083 1.96986 0.370923 1.96986 0.236042Z"/>
<path id="path6_fill" d="M 1.96986 0.23604C 1.96986 0.101159 1.86619 -1.02906e-06 1.72795 -1.02906e-06L 0.241909 -1.02906e-06C 0.103673 -1.02906e-06 2.10931e-06 0.101159 2.10931e-06 0.23604C 2.10931e-06 0.370921 0.103673 0.472086 0.241909 0.472086L 1.72795 0.472086C 1.86619 0.472086 1.96986 0.370921 1.96986 0.23604Z"/>
<path id="path7_fill" d="M 1.96986 0.23604C 1.96986 0.101159 1.86618 -1.02906e-06 1.72794 -1.02906e-06L 0.241913 -1.02906e-06C 0.103677 -1.02906e-06 -4.21862e-06 0.101159 -4.21862e-06 0.23604C -4.21862e-06 0.370921 0.103677 0.472086 0.241913 0.472086L 1.72794 0.472086C 1.86618 0.472086 1.96986 0.370921 1.96986 0.23604Z"/>
<path id="path8_fill" d="M 1.96987 0.23604C 1.96987 0.101159 1.86618 -1.02906e-06 1.72795 -1.02906e-06L 0.241917 -1.02906e-06C 0.103681 -1.02906e-06 0 0.101159 0 0.23604C 0 0.370921 0.103681 0.472086 0.241917 0.472086L 1.72795 0.472086C 1.83163 0.472086 1.96987 0.370921 1.96987 0.23604Z"/>
<path id="path9_fill" d="M 1.96986 0.23604C 1.96986 0.101159 1.86618 -1.02906e-06 1.72794 -1.02906e-06L 0.241913 -1.02906e-06C 0.103677 -1.02906e-06 -4.21862e-06 0.101159 -4.21862e-06 0.23604C -4.21862e-06 0.370921 0.103677 0.472086 0.241913 0.472086L 1.72794 0.472086C 1.83162 0.472086 1.96986 0.370921 1.96986 0.23604Z"/>
<path id="path10_fill" d="M 1.96986 0.23604C 1.96986 0.101159 1.86619 -1.02906e-06 1.72795 -1.02906e-06L 0.241909 -1.02906e-06C 0.103673 -1.02906e-06 2.10931e-06 0.101159 2.10931e-06 0.23604C 2.10931e-06 0.370921 0.103673 0.472086 0.241909 0.472086L 1.72795 0.472086C 1.83163 0.472086 1.96986 0.370921 1.96986 0.23604Z"/>
<path id="path11_fill" d="M 38.1877 11.8021C 40.3303 11.8021 42.0583 9.17191 42.0583 5.90105C 42.0583 2.6639 40.3303 -1.02906e-06 38.1877 -1.02906e-06L 3.76693 -1.02906e-06C 3.73237 -1.02906e-06 3.73237 -1.02906e-06 3.69781 -1.02906e-06C 1.65883 0.1686 4.21862e-06 2.73134 4.21862e-06 5.90105C 4.21862e-06 9.13819 1.72795 11.8021 3.8706 11.8021C 3.90516 11.8021 3.97428 11.8021 4.00884 11.7684L 38.0494 11.7684C 38.084 11.8021 38.1531 11.8021 38.1877 11.8021ZM 0.518389 5.90105C 0.518389 2.93366 2.03898 0.505803 3.90516 0.505803L 38.1877 0.505803C 40.0538 0.505803 41.5744 2.93366 41.5744 5.90105C 41.5744 8.76727 40.1575 11.1277 38.395 11.2963C 38.3605 11.2963 38.3259 11.2626 38.2913 11.2626L 3.8706 11.2626C 3.83604 11.2626 3.80149 11.2626 3.76693 11.2963C 1.96986 11.2288 0.518389 8.83471 0.518389 5.90105Z"/>
<path id="path12_fill" d="M 1.24412 0.640685C 0.898531 0.10116 0.483826 -1.02906e-06 0.241913 -1.02906e-06C 0.103677 -1.02906e-06 -4.21862e-06 0.101161 -4.21862e-06 0.236042C -4.21862e-06 0.370923 0.103677 0.472083 0.241913 0.472083C 0.483826 0.472083 0.691184 0.708126 0.829419 0.910448C 0.898537 1.01161 1.07133 1.04533 1.17501 0.977887C 1.31325 0.910447 1.3478 0.775566 1.24412 0.640685Z"/>
<path id="path13_fill" d="M 0.725736 1.15508C 0.656618 0.81788 0.587507 0.480677 0.48383 0.177194C 0.449271 0.0423133 0.311026 -0.0251272 0.172791 0.00859307C 0.0691137 0.0423133 -4.21862e-06 0.143473 -4.21862e-06 0.244634C -4.21862e-06 0.278354 -4.21862e-06 0.278356 -4.21862e-06 0.312076C 0.103673 0.581838 0.172793 0.885319 0.207352 1.22252C 0.241911 1.3574 0.345594 1.45856 0.48383 1.42484C 0.656625 1.39112 0.760295 1.28996 0.725736 1.15508Z"/>
<path id="path14_fill" d="M 1.24412 0.37229C 1.31324 0.271129 1.27869 0.102528 1.17501 0.0350876C 1.07133 -0.0323529 0.898537 0.00136629 0.829419 0.102527C 0.691184 0.304849 0.483826 0.540892 0.241913 0.540892C 0.103677 0.540892 -4.21862e-06 0.642051 -4.21862e-06 0.776932C -4.21862e-06 0.911814 0.103677 1.01297 0.241913 1.01297C 0.518384 1.01297 0.898531 0.911815 1.24412 0.37229Z"/>
<path id="path15_fill" d="M 0.518389 1.18021C 0.518389 1.01161 0.518389 0.876726 0.518389 0.708125C 0.518389 0.539523 0.518389 0.404644 0.518389 0.236043C 0.518389 0.101162 0.380147 -5.1453e-07 0.241911 -5.1453e-07C 0.103675 -5.1453e-07 4.21862e-06 0.101162 4.21862e-06 0.236043C 4.21862e-06 0.370924 4.21862e-06 0.539524 4.21862e-06 0.674405C 4.21862e-06 0.809286 4.21862e-06 0.977888 4.21862e-06 1.11277C 4.21862e-06 1.24765 0.103675 1.34881 0.241911 1.34881C 0.414706 1.41625 0.518389 1.31509 0.518389 1.18021Z"/>
<path id="path16_fill" d="M 0.207354 0.202323C 0.138236 0.539525 0.0691158 0.843007 -2.10931e-06 1.11277C -2.10931e-06 1.14649 -2.10931e-06 1.14649 -2.10931e-06 1.18021C -2.10931e-06 1.28137 0.0691158 1.38253 0.172793 1.41625C 0.311029 1.44997 0.449262 1.38253 0.483821 1.24765C 0.587498 0.944168 0.65662 0.606965 0.725738 0.269762C 0.760297 0.134881 0.656618 -1.02906e-06 0.518382 -1.02906e-06C 0.345588 -1.02906e-06 0.241913 0.0674416 0.207354 0.202323Z"/>
<path id="path17_fill" d="M 0.207354 0.202323C 0.138236 0.539525 0.0691158 0.843007 -2.10931e-06 1.11277C -2.10931e-06 1.14649 -2.10931e-06 1.14649 -2.10931e-06 1.18021C -2.10931e-06 1.28137 0.0691158 1.38253 0.172793 1.41625C 0.311029 1.44997 0.449262 1.38253 0.483821 1.24765C 0.587498 0.944168 0.65662 0.606965 0.725738 0.269762C 0.760297 0.134881 0.656618 -1.02906e-06 0.518382 -1.02906e-06C 0.345588 -1.02906e-06 0.207354 0.0674416 0.207354 0.202323Z"/>
<path id="path18_fill" d="M 44.2355 15.0658L 26.6104 15.0658L 26.6104 7.47874L 32.3126 4.71368C 32.6237 4.54508 32.7965 4.2416 32.7965 3.93811C 32.7965 3.63463 32.6237 3.26371 32.3126 3.16255L 26.092 0.0940038C 25.781 -0.0408773 25.47 -0.0408773 25.1589 0.161444C 24.917 0.296325 24.7097 0.599808 24.7097 0.86957L 24.7097 6.93922C 24.7097 6.93922 24.7097 6.93922 24.7097 7.00666L 24.7097 15.167L 13.3052 15.167C 5.94414 15.0995 0 20.8994 0 28.0818L 0 46.1896C 0 46.6617 0.449267 47.1001 0.933092 47.1001L 31.8634 47.1001L 56.6076 47.1001C 57.0914 47.1001 57.5407 46.6617 57.5407 46.1896L 57.5407 28.0481C 57.5407 20.8657 51.5965 15.0658 44.2355 15.0658ZM 26.6104 2.35326L 29.7553 3.93811L 26.6104 5.52297L 26.6104 2.35326ZM 37.4965 16.8867C 33.8332 19.0111 31.3104 22.7877 30.9994 27.1377L 26.6104 27.1377L 26.6104 16.8867L 37.4965 16.8867ZM 13.3052 16.8867L 24.7442 16.8867L 24.7442 27.1377L 1.90074 27.1377C 2.35001 21.4052 7.29194 16.8867 13.3052 16.8867ZM 1.86618 28.9586L 24.7442 28.9586L 24.7442 34.084C 24.7442 34.5561 25.1935 34.9945 25.6773 34.9945C 26.1611 34.9945 26.6104 34.5561 26.6104 34.084L 26.6104 28.9586L 30.9303 28.9586L 30.9303 45.2454L 1.86618 45.2454L 1.86618 28.9586ZM 55.6745 45.2454L 32.7965 45.2454L 32.7965 28.0481C 32.7965 21.8773 37.9457 16.8867 44.2355 16.8867C 50.5252 16.8867 55.6745 21.911 55.6745 28.0481L 55.6745 45.2454Z"/>
<path id="path19_stroke" d="M 26.6104 15.0658L 26.1104 15.0658L 26.1104 15.5658L 26.6104 15.5658L 26.6104 15.0658ZM 26.6104 7.47874L 26.3922 7.02885L 26.1104 7.16551L 26.1104 7.47874L 26.6104 7.47874ZM 32.3126 4.71368L 32.5308 5.16358L 32.541 5.15864L 32.5509 5.15325L 32.3126 4.71368ZM 32.3126 3.16255L 32.0914 3.61096L 32.1237 3.62689L 32.158 3.63803L 32.3126 3.16255ZM 26.092 0.0940038L 26.3132 -0.354407L 26.3022 -0.359837L 26.2909 -0.36472L 26.092 0.0940038ZM 25.1589 0.161444L 25.4024 0.598151L 25.4173 0.589858L 25.4316 0.580573L 25.1589 0.161444ZM 24.7097 15.167L 24.7097 15.667L 25.2097 15.667L 25.2097 15.167L 24.7097 15.167ZM 13.3052 15.167L 13.3006 15.667L 13.3052 15.667L 13.3052 15.167ZM 26.6104 2.35326L 26.8354 1.90676L 26.1104 1.54138L 26.1104 2.35326L 26.6104 2.35326ZM 29.7553 3.93811L 29.9803 4.38462L 30.8663 3.93811L 29.9803 3.49161L 29.7553 3.93811ZM 26.6104 5.52297L 26.1104 5.52297L 26.1104 6.33484L 26.8354 5.96947L 26.6104 5.52297ZM 37.4965 16.8867L 37.7473 17.3192L 39.3554 16.3867L 37.4965 16.3867L 37.4965 16.8867ZM 30.9994 27.1377L 30.9994 27.6377L 31.4649 27.6377L 31.4981 27.1733L 30.9994 27.1377ZM 26.6104 27.1377L 26.1104 27.1377L 26.1104 27.6377L 26.6104 27.6377L 26.6104 27.1377ZM 26.6104 16.8867L 26.6104 16.3867L 26.1104 16.3867L 26.1104 16.8867L 26.6104 16.8867ZM 24.7442 16.8867L 25.2442 16.8867L 25.2442 16.3867L 24.7442 16.3867L 24.7442 16.8867ZM 24.7442 27.1377L 24.7442 27.6377L 25.2442 27.6377L 25.2442 27.1377L 24.7442 27.1377ZM 1.90074 27.1377L 1.40227 27.0986L 1.36002 27.6377L 1.90074 27.6377L 1.90074 27.1377ZM 1.86618 28.9586L 1.86618 28.4586L 1.36618 28.4586L 1.36618 28.9586L 1.86618 28.9586ZM 24.7442 28.9586L 25.2442 28.9586L 25.2442 28.4586L 24.7442 28.4586L 24.7442 28.9586ZM 26.6104 28.9586L 26.6104 28.4586L 26.1104 28.4586L 26.1104 28.9586L 26.6104 28.9586ZM 30.9303 28.9586L 31.4303 28.9586L 31.4303 28.4586L 30.9303 28.4586L 30.9303 28.9586ZM 30.9303 45.2454L 30.9303 45.7454L 31.4303 45.7454L 31.4303 45.2454L 30.9303 45.2454ZM 1.86618 45.2454L 1.36618 45.2454L 1.36618 45.7454L 1.86618 45.7454L 1.86618 45.2454ZM 55.6745 45.2454L 55.6745 45.7454L 56.1745 45.7454L 56.1745 45.2454L 55.6745 45.2454ZM 32.7965 45.2454L 32.2965 45.2454L 32.2965 45.7454L 32.7965 45.7454L 32.7965 45.2454ZM 44.2355 14.5658L 26.6104 14.5658L 26.6104 15.5658L 44.2355 15.5658L 44.2355 14.5658ZM 27.1104 15.0658L 27.1104 7.47874L 26.1104 7.47874L 26.1104 15.0658L 27.1104 15.0658ZM 26.8286 7.92864L 32.5308 5.16358L 32.0945 4.26378L 26.3922 7.02885L 26.8286 7.92864ZM 32.5509 5.15325C 33.0166 4.90082 33.2965 4.43245 33.2965 3.93811L 32.2965 3.93811C 32.2965 4.05075 32.2307 4.18934 32.0744 4.27411L 32.5509 5.15325ZM 33.2965 3.93811C 33.2925 3.72383 33.2166 3.42977 33.1051 3.22597C 32.9796 3.00683 32.7716 2.78605 32.4673 2.68707L 32.158 3.63803C 32.1647 3.64021 32.1987 3.65547 32.2373 3.72295C 32.2762 3.79083 32.2965 3.8738 32.2965 3.93811L 33.2965 3.93811ZM 32.5338 2.71414L 26.3132 -0.354407L 25.8708 0.542415L 32.0914 3.61096L 32.5338 2.71414ZM 26.2909 -0.36472C 25.8472 -0.557171 25.3562 -0.563345 24.8863 -0.257684L 25.4316 0.580573C 25.5837 0.48159 25.7148 0.475417 25.8931 0.552727L 26.2909 -0.36472ZM 24.9154 -0.275262C 24.5465 -0.0695316 24.2097 0.3853 24.2097 0.86957L 25.2097 0.86957C 25.2097 0.814316 25.2876 0.662182 25.4024 0.598151L 24.9154 -0.275262ZM 24.2097 0.86957L 24.2097 6.93922L 25.2097 6.93922L 25.2097 0.86957L 24.2097 0.86957ZM 24.7097 6.93922C 24.2097 6.93922 24.2097 6.93922 24.2097 6.93922C 24.2097 6.93922 24.2097 6.93922 24.2097 6.93922C 24.2097 6.93922 24.2097 6.93922 24.2097 6.93922C 24.2097 6.93922 24.2097 6.93922 24.2097 6.93922C 24.2097 6.93922 24.2097 6.93922 24.2097 6.93922C 24.2097 6.93922 24.2097 6.93923 24.2097 6.93923C 24.2097 6.93925 24.2097 6.93928 24.2097 6.93935C 24.2097 6.93948 24.2097 6.93975 24.2097 6.94027C 24.2097 6.94133 24.2097 6.94343 24.2097 6.94765C 24.2097 6.95608 24.2097 6.97294 24.2097 7.00666L 25.2097 7.00666C 25.2097 6.97294 25.2097 6.95608 25.2097 6.94765C 25.2097 6.94343 25.2097 6.94133 25.2097 6.94027C 25.2097 6.93975 25.2097 6.93948 25.2097 6.93935C 25.2097 6.93928 25.2097 6.93925 25.2097 6.93923C 25.2097 6.93923 25.2097 6.93922 25.2097 6.93922C 25.2097 6.93922 25.2097 6.93922 25.2097 6.93922C 25.2097 6.93922 25.2097 6.93922 25.2097 6.93922C 25.2097 6.93922 25.2097 6.93922 25.2097 6.93922C 25.2097 6.93922 25.2097 6.93922 25.2097 6.93922C 25.2097 6.93922 25.2097 6.93922 24.7097 6.93922ZM 24.2097 7.00666L 24.2097 15.167L 25.2097 15.167L 25.2097 7.00666L 24.2097 7.00666ZM 24.7097 14.667L 13.3052 14.667L 13.3052 15.667L 24.7097 15.667L 24.7097 14.667ZM 13.3098 14.667C 5.67984 14.5971 -0.5 20.6125 -0.5 28.0818L 0.5 28.0818C 0.5 21.1863 6.20844 15.602 13.3006 15.6669L 13.3098 14.667ZM -0.5 28.0818L -0.5 46.1896L 0.5 46.1896L 0.5 28.0818L -0.5 28.0818ZM -0.5 46.1896C -0.5 46.9493 0.184772 47.6001 0.933092 47.6001L 0.933092 46.6001C 0.713761 46.6001 0.5 46.374 0.5 46.1896L -0.5 46.1896ZM 0.933092 47.6001L 31.8634 47.6001L 31.8634 46.6001L 0.933092 46.6001L 0.933092 47.6001ZM 31.8634 47.6001L 56.6076 47.6001L 56.6076 46.6001L 31.8634 46.6001L 31.8634 47.6001ZM 56.6076 47.6001C 57.3559 47.6001 58.0407 46.9493 58.0407 46.1896L 57.0407 46.1896C 57.0407 46.374 56.8269 46.6001 56.6076 46.6001L 56.6076 47.6001ZM 58.0407 46.1896L 58.0407 28.0481L 57.0407 28.0481L 57.0407 46.1896L 58.0407 46.1896ZM 58.0407 28.0481C 58.0407 20.578 51.861 14.5658 44.2355 14.5658L 44.2355 15.5658C 51.332 15.5658 57.0407 21.1533 57.0407 28.0481L 58.0407 28.0481ZM 26.3854 2.79977L 29.5303 4.38462L 29.9803 3.49161L 26.8354 1.90676L 26.3854 2.79977ZM 29.5303 3.49161L 26.3854 5.07646L 26.8354 5.96947L 29.9803 4.38462L 29.5303 3.49161ZM 27.1104 5.52297L 27.1104 2.35326L 26.1104 2.35326L 26.1104 5.52297L 27.1104 5.52297ZM 37.2456 16.4542C 33.4478 18.6566 30.8242 22.5772 30.5007 27.102L 31.4981 27.1733C 31.7966 22.9983 34.2187 19.3656 37.7473 17.3192L 37.2456 16.4542ZM 30.9994 26.6377L 26.6104 26.6377L 26.6104 27.6377L 30.9994 27.6377L 30.9994 26.6377ZM 27.1104 27.1377L 27.1104 16.8867L 26.1104 16.8867L 26.1104 27.1377L 27.1104 27.1377ZM 26.6104 17.3867L 37.4965 17.3867L 37.4965 16.3867L 26.6104 16.3867L 26.6104 17.3867ZM 13.3052 17.3867L 24.7442 17.3867L 24.7442 16.3867L 13.3052 16.3867L 13.3052 17.3867ZM 24.2442 16.8867L 24.2442 27.1377L 25.2442 27.1377L 25.2442 16.8867L 24.2442 16.8867ZM 24.7442 26.6377L 1.90074 26.6377L 1.90074 27.6377L 24.7442 27.6377L 24.7442 26.6377ZM 2.39921 27.1767C 2.82728 21.7148 7.5424 17.3867 13.3052 17.3867L 13.3052 16.3867C 7.04148 16.3867 1.87274 21.0956 1.40227 27.0986L 2.39921 27.1767ZM 1.86618 29.4586L 24.7442 29.4586L 24.7442 28.4586L 1.86618 28.4586L 1.86618 29.4586ZM 24.2442 28.9586L 24.2442 34.084L 25.2442 34.084L 25.2442 28.9586L 24.2442 28.9586ZM 24.2442 34.084C 24.2442 34.8438 24.929 35.4945 25.6773 35.4945L 25.6773 34.4945C 25.458 34.4945 25.2442 34.2685 25.2442 34.084L 24.2442 34.084ZM 25.6773 35.4945C 26.4256 35.4945 27.1104 34.8438 27.1104 34.084L 26.1104 34.084C 26.1104 34.2685 25.8966 34.4945 25.6773 34.4945L 25.6773 35.4945ZM 27.1104 34.084L 27.1104 28.9586L 26.1104 28.9586L 26.1104 34.084L 27.1104 34.084ZM 26.6104 29.4586L 30.9303 29.4586L 30.9303 28.4586L 26.6104 28.4586L 26.6104 29.4586ZM 30.4303 28.9586L 30.4303 45.2454L 31.4303 45.2454L 31.4303 28.9586L 30.4303 28.9586ZM 30.9303 44.7454L 1.86618 44.7454L 1.86618 45.7454L 30.9303 45.7454L 30.9303 44.7454ZM 2.36618 45.2454L 2.36618 28.9586L 1.36618 28.9586L 1.36618 45.2454L 2.36618 45.2454ZM 55.6745 44.7454L 32.7965 44.7454L 32.7965 45.7454L 55.6745 45.7454L 55.6745 44.7454ZM 33.2965 45.2454L 33.2965 28.0481L 32.2965 28.0481L 32.2965 45.2454L 33.2965 45.2454ZM 33.2965 28.0481C 33.2965 22.1659 38.2092 17.3867 44.2355 17.3867L 44.2355 16.3867C 37.6822 16.3867 32.2965 21.5887 32.2965 28.0481L 33.2965 28.0481ZM 44.2355 17.3867C 50.2607 17.3867 55.1745 22.1987 55.1745 28.0481L 56.1745 28.0481C 56.1745 21.6234 50.7897 16.3867 44.2355 16.3867L 44.2355 17.3867ZM 55.1745 28.0481L 55.1745 45.2454L 56.1745 45.2454L 56.1745 28.0481L 55.1745 28.0481Z"/>
<path id="path20_fill" d="M 2.17721 5.1453e-07C 1.00221 5.1453e-07 5.27328e-07 0.977887 5.27328e-07 2.12438L 5.27328e-07 14.8032C 5.27328e-07 15.9497 1.00221 16.9276 2.17721 16.9276L 18.2471 16.9276C 19.4221 16.9276 20.4243 15.9497 20.4243 14.8032L 20.4243 2.12438C 20.4243 0.977887 19.4221 5.1453e-07 18.2471 5.1453e-07L 2.17721 5.1453e-07ZM 18.5582 2.12438L 18.5582 14.8032C 18.5582 14.9718 18.4199 15.1067 18.2471 15.1067L 2.17721 15.1067C 2.00442 15.1067 1.86619 14.9718 1.86619 14.8032L 1.86619 2.12438C 1.86619 1.95577 2.00442 1.8209 2.17721 1.8209L 18.2471 1.8209C 18.4545 1.8209 18.5582 1.95577 18.5582 2.12438Z"/>
<path id="path21_stroke" d="M 2.17721 -0.499999C 0.737718 -0.499999 -0.499999 0.690235 -0.499999 2.12438L 0.500001 2.12438C 0.500001 1.26554 1.2667 0.500001 2.17721 0.500001L 2.17721 -0.499999ZM -0.499999 2.12438L -0.499999 14.8032L 0.500001 14.8032L 0.500001 2.12438L -0.499999 2.12438ZM -0.499999 14.8032C -0.499999 16.2373 0.737717 17.4276 2.17721 17.4276L 2.17721 16.4276C 1.2667 16.4276 0.500001 15.662 0.500001 14.8032L -0.499999 14.8032ZM 2.17721 17.4276L 18.2471 17.4276L 18.2471 16.4276L 2.17721 16.4276L 2.17721 17.4276ZM 18.2471 17.4276C 19.6866 17.4276 20.9243 16.2373 20.9243 14.8032L 19.9243 14.8032C 19.9243 15.662 19.1576 16.4276 18.2471 16.4276L 18.2471 17.4276ZM 20.9243 14.8032L 20.9243 2.12438L 19.9243 2.12438L 19.9243 14.8032L 20.9243 14.8032ZM 20.9243 2.12438C 20.9243 0.690235 19.6866 -0.499999 18.2471 -0.499999L 18.2471 0.500001C 19.1576 0.500001 19.9243 1.26554 19.9243 2.12438L 20.9243 2.12438ZM 18.2471 -0.499999L 2.17721 -0.499999L 2.17721 0.500001L 18.2471 0.500001L 18.2471 -0.499999ZM 18.0582 2.12438L 18.0582 14.8032L 19.0582 14.8032L 19.0582 2.12438L 18.0582 2.12438ZM 18.0582 14.8032C 18.0582 14.6841 18.1554 14.6067 18.2471 14.6067L 18.2471 15.6067C 18.6844 15.6067 19.0582 15.2595 19.0582 14.8032L 18.0582 14.8032ZM 18.2471 14.6067L 2.17721 14.6067L 2.17721 15.6067L 18.2471 15.6067L 18.2471 14.6067ZM 2.17721 14.6067C 2.26891 14.6067 2.36619 14.6841 2.36619 14.8032L 1.36619 14.8032C 1.36619 15.2595 1.73993 15.6067 2.17721 15.6067L 2.17721 14.6067ZM 2.36619 14.8032L 2.36619 2.12438L 1.36619 2.12438L 1.36619 14.8032L 2.36619 14.8032ZM 2.36619 2.12438C 2.36619 2.24343 2.26891 2.3209 2.17721 2.3209L 2.17721 1.3209C 1.73993 1.3209 1.36619 1.66812 1.36619 2.12438L 2.36619 2.12438ZM 2.17721 2.3209L 18.2471 2.3209L 18.2471 1.3209L 2.17721 1.3209L 2.17721 2.3209ZM 18.2471 2.3209C 18.2376 2.3209 18.1752 2.31435 18.1172 2.25303C 18.0641 2.19688 18.0582 2.14058 18.0582 2.12438L 19.0582 2.12438C 19.0582 1.93957 19.0004 1.73153 18.8436 1.56579C 18.6819 1.39488 18.4641 1.3209 18.2471 1.3209L 18.2471 2.3209Z"/>
<path id="path22_fill" d="M 0.563891 4.75456C 0.702126 4.822 0.805803 4.822 0.944039 4.822C 1.32419 4.822 1.63522 4.6534 1.80801 4.28247C 1.80801 4.28247 2.98302 1.82089 7.13009 1.82089C 7.61392 1.82089 8.06319 1.38253 8.06319 0.910447C 8.06319 0.438363 7.61392 -5.1453e-07 7.13009 -5.1453e-07C 1.80801 -5.1453e-07 0.149183 3.37203 0.0800652 3.57435C -0.127289 3.97899 0.0800651 4.51851 0.563891 4.75456Z"/>
<path id="path23_stroke" d="M 0.563891 4.75456L 0.344657 5.20393L 0.563891 4.75456ZM 1.80801 4.28247L 1.35676 4.06708L 1.35478 4.07134L 1.80801 4.28247ZM 0.0800652 3.57435L 0.525043 3.80237L 0.54153 3.7702L 0.553217 3.73599L 0.0800652 3.57435ZM 0.344657 5.20393C 0.589621 5.30918 0.8058 5.322 0.944039 5.322L 0.944039 4.322C 0.86811 4.322 0.843086 4.32116 0.822996 4.31836C 0.813234 4.317 0.803601 4.31517 0.783124 4.30518L 0.344657 5.20393ZM 0.944039 5.322C 1.49838 5.322 1.99817 5.05833 2.26125 4.49361L 1.35478 4.07134C 1.27227 4.24846 1.14999 4.322 0.944039 4.322L 0.944039 5.322ZM 1.80801 4.28247C 2.25924 4.49786 2.2591 4.49816 2.25897 4.49844C 2.25893 4.49852 2.2588 4.4988 2.25872 4.49896C 2.25878 4.49883 2.25817 4.5001 2.25829 4.49984C 2.25834 4.49973 2.25764 4.50118 2.25775 4.50095C 2.25757 4.50132 2.25757 4.5013 2.25792 4.50063C 2.25942 4.49765 2.26035 4.49581 2.26337 4.49018C 2.27112 4.47562 2.27983 4.45979 2.29579 4.43322C 2.3315 4.37332 2.37845 4.3001 2.45485 4.19992C 2.61688 3.98548 2.84631 3.72739 3.21587 3.4502C 3.93948 2.90188 5.16353 2.32089 7.13009 2.32089L 7.13009 1.32089C 4.94958 1.32089 3.51259 1.9707 2.61193 2.65317C 2.16935 2.99137 1.84585 3.34868 1.65797 3.59579C 1.55941 3.72637 1.48216 3.84547 1.43742 3.92019C 1.41314 3.96093 1.39256 3.99798 1.38107 4.01948C 1.37447 4.03188 1.3683 4.04387 1.36511 4.0502C 1.3631 4.05418 1.361 4.05842 1.36001 4.06043C 1.35932 4.06183 1.35851 4.0635 1.35817 4.06421C 1.3579 4.06476 1.35755 4.06548 1.35742 4.06576C 1.3573 4.066 1.35714 4.06633 1.35709 4.06645C 1.35693 4.06677 1.35678 4.06709 1.80801 4.28247ZM 7.13009 2.32089C 7.87841 2.32089 8.56319 1.67018 8.56319 0.910447L 7.56319 0.910447C 7.56319 1.09488 7.34943 1.32089 7.13009 1.32089L 7.13009 2.32089ZM 8.56319 0.910447C 8.56319 0.150712 7.87841 -0.500001 7.13009 -0.500001L 7.13009 0.499999C 7.34943 0.499999 7.56319 0.726014 7.56319 0.910447L 8.56319 0.910447ZM 7.13009 -0.500001C 1.55275 -0.500001 -0.269247 3.05021 -0.393086 3.41271L 0.553217 3.73599C 0.545478 3.76095 0.644988 3.52852 0.867976 3.22288C 1.1032 2.89575 1.43756 2.50578 1.947 2.10219C 2.94844 1.30342 4.58412 0.499999 7.13009 0.499999L 7.13009 -0.500001ZM -0.364913 3.34632C -0.725421 4.04984 -0.337551 4.8711 0.344657 5.20393L 0.783124 4.30518C 0.497681 4.16592 0.470844 3.90814 0.525043 3.80237L -0.364913 3.34632Z"/>
<path id="path24_fill" fill-rule="evenodd" d="M 5.18385 1L 0 1L 0 0L 5.18385 0L 5.18385 1Z"/>
<path id="path25_fill" fill-rule="evenodd" d="M 38.706 1L 0 1L 0 0L 38.706 0L 38.706 1Z"/>
<path id="path26_fill" fill-rule="evenodd" d="M 26.6104 1L 0 1L 0 0L 26.6104 0L 26.6104 1Z"/>
</defs>
</svg>
