<svg width="43" height="32" viewBox="0 0 43 32" version="1.1" xmlns="http://www.w3.org/2000/svg" xmlns:xlink="http://www.w3.org/1999/xlink">
<title>timeline-phone-mobile</title>
<desc>Created using Figma</desc>
<g id="Canvas" transform="translate(-527 -3315)">
<g id="timeline-phone-mobile">
<g id="Group">
<g id="Vector">
<mask id="mask0_outline_ins">
<use xlink:href="#path0_fill" fill="white" transform="translate(541.699 3328.28)"/>
</mask>
<g mask="url(#mask0_outline_ins)">
<use xlink:href="#path1_stroke_2x" transform="translate(541.699 3328.28)" fill="#5D2FCD"/>
</g>
</g>
<g id="Vector">
<mask id="mask1_outline_ins">
<use xlink:href="#path2_fill" fill="white" transform="translate(527.013 3315)"/>
</mask>
<g mask="url(#mask1_outline_ins)">
<use xlink:href="#path3_stroke_2x" transform="translate(527.013 3315)" fill="#5D2FCD"/>
</g>
</g>
<g id="Vector">
<mask id="mask2_outline_ins">
<use xlink:href="#path4_fill" fill="white" transform="translate(559.433 3324.31)"/>
</mask>
<g mask="url(#mask2_outline_ins)">
<use xlink:href="#path5_stroke_2x" transform="translate(559.433 3324.31)" fill="#5D2FCD"/>
</g>
</g>
<g id="Vector">
<mask id="mask3_outline_ins">
<use xlink:href="#path6_fill" fill="white" transform="translate(527 3324.33)"/>
</mask>
<g mask="url(#mask3_outline_ins)">
<use xlink:href="#path7_stroke_2x" transform="translate(527 3324.33)" fill="#5D2FCD"/>
</g>
</g>
<g id="Vector">
<mask id="mask4_outline_ins">
<use xlink:href="#path8_fill" fill="white" transform="translate(533.057 3320.47)"/>
</mask>
<g mask="url(#mask4_outline_ins)">
<use xlink:href="#path9_stroke_2x" transform="translate(533.057 3320.47)" fill="#5D2FCD"/>
</g>
</g>
</g>
</g>
</g>
<defs>
<path id="path0_fill" d="M 8.11942 1.03064C 8.32535 0.538644 8.89677 0.30443 9.39606 0.50707C 9.89486 0.710181 10.1323 1.2738 9.92639 1.7658C 9.72047 2.25826 9.14904 2.49247 8.64976 2.28936C 8.15096 2.08625 7.91302 1.52263 8.11942 1.03064ZM 6.80075 0C 7.34064 0 7.77829 0.431199 7.77829 0.963718C 7.77829 1.49577 7.34064 1.92791 6.80075 1.92791C 6.26085 1.92791 5.82368 1.49624 5.82368 0.963718C 5.82368 0.431199 6.26133 0 6.80075 0ZM 4.11752 0.5443C 4.61346 0.33412 5.18823 0.560322 5.40132 1.04949C 5.61394 1.53865 5.3846 2.10557 4.88866 2.31575C 4.39273 2.52593 3.81795 2.29926 3.60486 1.81009C 3.39225 1.32093 3.62206 0.754009 4.11752 0.5443ZM 1.99235 1.96514C 2.37362 1.58813 2.99235 1.58813 3.37457 1.96467C 3.75632 2.3412 3.75632 2.95147 3.37457 3.32801C 2.99282 3.70454 2.3741 3.70454 1.99235 3.32801C 1.6106 2.95147 1.6106 2.3412 1.99235 1.96514ZM 0.514571 4.14847C 0.720495 3.65648 1.2924 3.42226 1.7912 3.62537C 2.29049 3.82848 2.52747 4.39163 2.32154 4.88363C 2.1161 5.37609 1.54419 5.6103 1.04539 5.40719C 0.546104 5.20408 0.308647 4.64093 0.514571 4.14847ZM 0 6.70786C 0 6.17581 0.437649 5.74367 0.977065 5.74367C 1.51744 5.74367 1.95508 6.17534 1.95508 6.70786C 1.95508 7.24038 1.51744 7.67205 0.977065 7.67205C 0.437649 7.67158 0 7.24038 0 6.70786ZM 0.551839 9.35396C 0.339226 8.8648 0.568561 8.29788 1.0645 8.08817C 1.56044 7.87799 2.13521 8.10466 2.3483 8.59383C 2.56091 9.08299 2.33205 9.64991 1.83564 9.86009C 1.33922 10.0698 0.764452 9.8436 0.551839 9.35396ZM 1.99235 11.451C 1.6106 11.0745 1.6106 10.4638 1.99235 10.0877C 2.37362 9.71117 2.99235 9.71117 3.37457 10.0877C 3.75632 10.4638 3.75584 11.0745 3.37457 11.4506C 2.99235 11.8276 2.37362 11.8276 1.99235 11.451ZM 5.48255 12.3851C 5.27662 12.8771 4.70519 13.1113 4.20591 12.9086C 3.70759 12.7055 3.46965 12.1419 3.67557 11.6499C 3.8815 11.1575 4.45293 10.9232 4.95221 11.1268C 5.45101 11.329 5.68847 11.8926 5.48255 12.3851ZM 6.80075 13.4157C 6.26085 13.4157 5.82368 12.984 5.82368 12.4515C 5.82368 11.9195 6.26133 11.4873 6.80075 11.4873C 7.34064 11.4873 7.77829 11.9195 7.77829 12.4515C 7.77877 12.984 7.34064 13.4157 6.80075 13.4157ZM 9.48397 12.8714C 8.98803 13.0816 8.41374 12.8549 8.20065 12.3662C 7.98803 11.8771 8.21737 11.3101 8.71283 11.1C 9.20924 10.8898 9.78401 11.116 9.99663 11.6052C 10.2092 12.0948 9.97991 12.6612 9.48397 12.8714ZM 11.6096 11.451C 11.2283 11.8276 10.6087 11.8276 10.2274 11.4506C 9.84565 11.074 9.84565 10.4638 10.2274 10.0877C 10.6091 9.71117 11.2283 9.71117 11.6096 10.0872C 11.9914 10.4638 11.9914 11.0745 11.6096 11.451ZM 13.0874 9.26725C 12.8815 9.75924 12.31 9.99346 11.8112 9.79035C 11.312 9.58723 11.0745 9.02361 11.2804 8.53162C 11.4868 8.03963 12.0583 7.80541 12.5571 8.00805C 13.0554 8.21117 13.2933 8.77479 13.0874 9.26725ZM 13.6015 6.70786C 13.6015 7.24038 13.1638 7.67205 12.6239 7.67205C 12.0841 7.67205 11.6469 7.24085 11.6469 6.70786C 11.6469 6.17581 12.0845 5.74367 12.6239 5.74367C 13.1643 5.74367 13.6015 6.17534 13.6015 6.70786ZM 13.0501 4.06129C 13.2627 4.55092 13.0334 5.11784 12.5375 5.32708C 12.0415 5.53726 11.4668 5.31106 11.2537 4.82189C 11.0411 4.33273 11.2699 3.76581 11.7659 3.5561C 12.2623 3.34592 12.8375 3.57212 13.0501 4.06129ZM 11.6096 3.32801C 11.2283 3.70454 10.6087 3.70454 10.2274 3.32801C 9.84565 2.95147 9.84565 2.3412 10.2274 1.96467C 10.6091 1.58813 11.2283 1.58813 11.6096 1.96467C 11.9914 2.3412 11.9914 2.95147 11.6096 3.32801Z"/>
<path id="path1_stroke_2x" d="M 8.11942 1.03064L 9.04156 1.41749L 9.04188 1.41673L 8.11942 1.03064ZM 9.39606 0.50707L 9.77319 -0.419091L 9.77213 -0.419522L 9.39606 0.50707ZM 9.92639 1.7658L 9.00394 1.3797L 9.0038 1.38001L 9.92639 1.7658ZM 8.64976 2.28936L 8.27263 3.21552L 8.27294 3.21565L 8.64976 2.28936ZM 4.11752 0.5443L 4.50731 1.46521L 4.50773 1.46503L 4.11752 0.5443ZM 5.40132 1.04949L 6.31844 0.650866L 6.31811 0.650113L 5.40132 1.04949ZM 3.60486 1.81009L 2.68775 2.20871L 2.68808 2.20947L 3.60486 1.81009ZM 1.99235 1.96514L 2.69413 2.67753L 2.69547 2.67621L 1.99235 1.96514ZM 3.37457 1.96467L 4.0768 1.25271L 4.07635 1.25227L 3.37457 1.96467ZM 0.514571 4.14847L -0.407888 3.76237L -0.408019 3.76268L 0.514571 4.14847ZM 1.7912 3.62537L 1.41407 4.55153L 1.41438 4.55166L 1.7912 3.62537ZM 2.32154 4.88363L 1.39908 4.49753L 1.39863 4.49861L 2.32154 4.88363ZM 1.04539 5.40719L 1.42252 4.48103L 1.42221 4.48091L 1.04539 5.40719ZM 0.977065 7.67205L 0.976191 8.67205L 0.977065 8.67205L 0.977065 7.67205ZM 0.551839 9.35396L 1.4691 8.95566L 1.46896 8.95534L 0.551839 9.35396ZM 1.0645 8.08817L 1.45396 9.00921L 1.45471 9.00889L 1.0645 8.08817ZM 2.3483 8.59383L 3.26541 8.19521L 3.26509 8.19445L 2.3483 8.59383ZM 1.83564 9.86009L 2.22479 10.7813L 2.22553 10.781L 1.83564 9.86009ZM 1.99235 11.451L 2.69502 10.7395L 2.69458 10.7391L 1.99235 11.451ZM 1.99235 10.0877L 2.69413 10.8001L 2.69502 10.7992L 1.99235 10.0877ZM 3.37457 10.0877L 2.67279 10.8001L 2.67279 10.8001L 3.37457 10.0877ZM 3.37457 11.4506L 2.67234 10.7386L 3.37457 11.4506ZM 5.48255 12.3851L 6.405 12.7712L 6.40514 12.7709L 5.48255 12.3851ZM 4.20591 12.9086L 3.82847 13.8347L 3.82984 13.8352L 4.20591 12.9086ZM 3.67557 11.6499L 4.59803 12.036L 4.59816 12.0357L 3.67557 11.6499ZM 4.95221 11.1268L 4.57464 12.0528L 4.57658 12.0536L 4.95221 11.1268ZM 7.77829 12.4515L 6.77829 12.4515L 6.77829 12.4524L 7.77829 12.4515ZM 8.20065 12.3662L 7.28353 12.7648L 7.284 12.7659L 8.20065 12.3662ZM 8.71283 11.1L 8.32294 10.1791L 8.3223 10.1794L 8.71283 11.1ZM 9.99663 11.6052L 10.9139 11.2069L 10.9137 11.2065L 9.99663 11.6052ZM 11.6096 11.451L 10.9074 10.7391L 10.9069 10.7395L 11.6096 11.451ZM 10.2274 11.4506L 10.9305 10.7395L 10.9296 10.7386L 10.2274 11.4506ZM 10.2274 10.0877L 10.9292 10.8001L 10.9296 10.7997L 10.2274 10.0877ZM 11.6096 10.0872L 12.3118 9.37528L 11.6096 10.0872ZM 13.0874 9.26725L 14.0099 9.65335L 14.01 9.65303L 13.0874 9.26725ZM 11.8112 9.79035L 12.1884 8.86419L 12.1881 8.86406L 11.8112 9.79035ZM 11.2804 8.53162L 10.3583 8.14476L 10.358 8.14552L 11.2804 8.53162ZM 12.5571 8.00805L 12.9345 7.08202L 12.9334 7.08159L 12.5571 8.00805ZM 13.0501 4.06129L 13.9674 3.66299L 13.9672 3.66266L 13.0501 4.06129ZM 12.5375 5.32708L 12.1487 4.40572L 12.1473 4.40635L 12.5375 5.32708ZM 11.2537 4.82189L 10.3366 5.22051L 10.3369 5.22127L 11.2537 4.82189ZM 11.7659 3.5561L 12.1553 4.47714L 12.1557 4.47696L 11.7659 3.5561ZM 11.6096 3.32801L 10.9074 2.61606L 10.9069 2.6165L 11.6096 3.32801ZM 10.2274 3.32801L 10.9301 2.6165L 10.9296 2.61606L 10.2274 3.32801ZM 10.2274 1.96467L 9.52517 1.25271L 10.2274 1.96467ZM 11.6096 1.96467L 10.9069 2.67618L 10.9074 2.67662L 11.6096 1.96467ZM 9.04188 1.41673C 9.04022 1.4207 9.03705 1.42547 9.03327 1.42915C 9.03004 1.4323 9.02776 1.43334 9.02712 1.4336C 9.02647 1.43387 9.02556 1.43415 9.02395 1.43416C 9.02165 1.43418 9.01987 1.43362 9.01999 1.43366L 9.77213 -0.419522C 8.77424 -0.824525 7.61831 -0.362142 7.19696 0.644539L 9.04188 1.41673ZM 9.01893 1.43323C 9.01916 1.43332 9.01823 1.43296 9.0166 1.43187C 9.01502 1.43082 9.01329 1.42943 9.0116 1.42775C 9.0083 1.42445 9.00574 1.42063 9.00395 1.41637C 9.00216 1.41211 9.00065 1.40626 9.00059 1.39889C 9.00051 1.39076 9.00226 1.38371 9.00394 1.3797L 10.8489 2.15189C 11.2731 1.1384 10.7784 -0.00977532 9.77319 -0.419091L 9.01893 1.43323ZM 9.0038 1.38001C 9.0054 1.37621 9.00851 1.37148 9.0123 1.36778C 9.01556 1.36461 9.01791 1.3635 9.0187 1.36318C 9.01948 1.36286 9.02056 1.36255 9.02233 1.36253C 9.02479 1.36251 9.02667 1.36311 9.02658 1.36307L 8.27294 3.21565C 9.27148 3.62186 10.4278 3.15882 10.849 2.15158L 9.0038 1.38001ZM 9.02689 1.3632C 9.02663 1.3631 9.02753 1.36345 9.02911 1.3645C 9.03065 1.36553 9.03234 1.36688 9.034 1.36854C 9.03724 1.37177 9.03979 1.37556 9.0416 1.37986C 9.04342 1.38417 9.04497 1.39014 9.04503 1.39772C 9.0451 1.40607 9.04331 1.41332 9.04156 1.41749L 7.19728 0.643777C 6.77159 1.65849 7.26825 2.80654 8.27263 3.21552L 9.02689 1.3632ZM 6.80075 1C 6.80162 1 6.79959 1 6.79653 0.998729C 6.79411 0.997717 6.79196 0.9963 6.78999 0.994354C 6.78801 0.992401 6.78506 0.98877 6.78246 0.982714C 6.77956 0.975947 6.77829 0.96881 6.77829 0.963718L 8.77829 0.963718C 8.77829 -0.134642 7.87927 -1 6.80075 -1L 6.80075 1ZM 6.77829 0.963718C 6.77829 0.958402 6.7796 0.951267 6.78243 0.944661C 6.78496 0.938765 6.78779 0.93531 6.78963 0.933497C 6.79146 0.931688 6.79352 0.930297 6.79599 0.929267C 6.79909 0.927971 6.80131 0.927908 6.80075 0.927908L 6.80075 2.92791C 7.88023 2.92791 8.77829 2.06066 8.77829 0.963718L 6.77829 0.963718ZM 6.80075 0.927908C 6.80004 0.927908 6.80225 0.927943 6.80546 0.929282C 6.80803 0.930359 6.81025 0.931842 6.81222 0.933794C 6.81421 0.93575 6.81709 0.939319 6.81962 0.945226C 6.82245 0.951838 6.82368 0.958793 6.82368 0.963718L 4.82368 0.963718C 4.82368 2.06081 5.72093 2.92791 6.80075 2.92791L 6.80075 0.927908ZM 6.82368 0.963718C 6.82368 0.968809 6.82242 0.975926 6.81953 0.982662C 6.81694 0.988686 6.81401 0.992293 6.81204 0.994235C 6.81008 0.996168 6.80792 0.997608 6.80542 0.99865C 6.8023 0.999953 6.80011 1 6.80075 1L 6.80075 -1C 5.72238 -1 4.82368 -0.134323 4.82368 0.963718L 6.82368 0.963718ZM 4.50773 1.46503C 4.50796 1.46493 4.5074 1.46518 4.50623 1.46542C 4.50511 1.46564 4.50397 1.46576 4.50294 1.46576C 4.50108 1.46577 4.50001 1.46546 4.4993 1.46518C 4.49859 1.4649 4.49632 1.46389 4.49311 1.46085C 4.48935 1.45729 4.48619 1.45267 4.48453 1.44886L 6.31811 0.650113C 5.88254 -0.349781 4.72013 -0.797186 3.72731 -0.376427L 4.50773 1.46503ZM 4.48421 1.44811C 4.48253 1.44424 4.48071 1.43734 4.48067 1.42934C 4.48063 1.42208 4.48203 1.4163 4.48375 1.41205C 4.48547 1.40781 4.48795 1.40396 4.49121 1.40061C 4.49288 1.3989 4.49459 1.39749 4.49616 1.39641C 4.49777 1.3953 4.49869 1.39492 4.49846 1.39502L 5.27887 3.23648C 6.2785 2.81283 6.75612 1.65786 6.31844 0.650866L 4.48421 1.44811ZM 4.49846 1.39502C 4.49828 1.3951 4.49891 1.39483 4.50015 1.39458C 4.50133 1.39434 4.50252 1.39422 4.50359 1.39421C 4.50553 1.3942 4.50663 1.39453 4.50729 1.3948C 4.50796 1.39506 4.51015 1.39603 4.51326 1.39898C 4.51692 1.40245 4.52002 1.40698 4.52165 1.41072L 2.68808 2.20947C 3.12332 3.20861 4.28529 3.65756 5.27887 3.23648L 4.49846 1.39502ZM 4.52198 1.41147C 4.52372 1.41548 4.52555 1.42248 4.52558 1.43055C 4.52562 1.43786 4.52421 1.44365 4.5225 1.44788C 4.52079 1.4521 4.51831 1.45595 4.51501 1.45934C 4.51332 1.46107 4.51157 1.46253 4.50993 1.46365C 4.50824 1.46481 4.50721 1.46525 4.50731 1.46521L 3.72774 -0.376606C 2.72847 0.0463463 2.24993 1.20141 2.68775 2.20871L 4.52198 1.41147ZM 2.69547 2.67621C 2.69386 2.6778 2.69076 2.67996 2.68746 2.68128C 2.68483 2.68233 2.6835 2.68232 2.68334 2.68232C 2.68318 2.68232 2.68204 2.68234 2.67975 2.68142C 2.67679 2.68024 2.67407 2.67832 2.67279 2.67706L 4.07635 1.25227C 3.30527 0.492675 2.06051 0.491411 1.28923 1.25406L 2.69547 2.67621ZM 2.67234 2.67662C 2.67081 2.6751 2.66723 2.67066 2.66444 2.66389C 2.66193 2.65779 2.66088 2.65181 2.66088 2.64634C 2.66088 2.64086 2.66193 2.63489 2.66444 2.62878C 2.66723 2.62202 2.67081 2.61757 2.67234 2.61606L 4.0768 4.03996C 4.85558 3.27182 4.85558 2.02085 4.0768 1.25271L 2.67234 2.67662ZM 2.67234 2.61606C 2.67382 2.6146 2.67672 2.61258 2.67981 2.61135C 2.68222 2.61038 2.68339 2.61041 2.68346 2.61041C 2.68353 2.61041 2.6847 2.61038 2.68712 2.61135C 2.6902 2.61258 2.6931 2.6146 2.69458 2.61606L 1.29012 4.03996C 2.06125 4.80056 3.30567 4.80056 4.0768 4.03996L 2.67234 2.61606ZM 2.69458 2.61606C 2.69611 2.61757 2.69969 2.62201 2.70247 2.62877C 2.70498 2.63487 2.70604 2.64087 2.70604 2.6464C 2.70604 2.65193 2.70498 2.65802 2.7024 2.66428C 2.69955 2.6712 2.69585 2.67583 2.69413 2.67753L 1.29057 1.25275C 0.510948 2.02075 0.511595 3.27207 1.29012 4.03996L 2.69458 2.61606ZM 1.43703 4.53456C 1.43532 4.53866 1.43209 4.54348 1.42831 4.54716C 1.42508 4.55031 1.4228 4.55135 1.42216 4.55161C 1.42152 4.55187 1.42054 4.55218 1.41878 4.5522C 1.41779 4.5522 1.41669 4.55211 1.41558 4.5519C 1.41443 4.55168 1.41386 4.55145 1.41407 4.55153L 2.16833 2.69921C 1.17029 2.29281 0.0134448 2.75573 -0.407888 3.76237L 1.43703 4.53456ZM 1.41438 4.55166C 1.41439 4.55166 1.41109 4.55011 1.40721 4.54624C 1.40382 4.54285 1.40115 4.53887 1.39926 4.5344C 1.39738 4.52993 1.39586 4.52393 1.3958 4.5165C 1.39573 4.50832 1.39748 4.50135 1.39908 4.49753L 3.244 5.26972C 3.6681 4.25647 3.17425 3.10843 2.16802 2.69909L 1.41438 4.55166ZM 1.39863 4.49861C 1.40036 4.49447 1.40363 4.48954 1.40754 4.48573C 1.4109 4.48246 1.41331 4.48133 1.41409 4.48101C 1.41486 4.4807 1.41593 4.48038 1.41774 4.48036C 1.41876 4.48035 1.41988 4.48045 1.42099 4.48066C 1.42216 4.48088 1.42273 4.48112 1.42252 4.48103L 0.668257 6.33335C 1.66623 6.73973 2.82382 6.27691 3.24445 5.26865L 1.39863 4.49861ZM 1.42221 4.48091C 1.42214 4.48088 1.42536 4.48238 1.42916 4.48617C 1.43247 4.48948 1.4351 4.49338 1.43695 4.49778C 1.43881 4.50218 1.44032 4.50813 1.44039 4.51551C 1.44046 4.52365 1.43871 4.53054 1.43716 4.53425L -0.408019 3.76268C -0.832023 4.77668 -0.337221 5.92432 0.668566 6.33348L 1.42221 4.48091ZM 1 6.70786C 1 6.71317 0.99869 6.72029 0.99587 6.72687C 0.993355 6.73273 0.990543 6.73616 0.988719 6.73796C 0.986898 6.73976 0.984824 6.74117 0.982284 6.74223C 0.979108 6.74356 0.97674 6.74367 0.977065 6.74367L 0.977065 4.74367C -0.102264 4.74367 -1 5.61123 -1 6.70786L 1 6.70786ZM 0.977065 6.74367C 0.97802 6.74367 0.976041 6.74369 0.973022 6.74243C 0.970629 6.74143 0.968531 6.74004 0.966607 6.73814C 0.964677 6.73624 0.961777 6.73268 0.959215 6.7267C 0.956349 6.72002 0.955084 6.71294 0.955084 6.70786L 2.95508 6.70786C 2.95508 5.60981 2.05639 4.74367 0.977065 4.74367L 0.977065 6.74367ZM 0.955084 6.70786C 0.955084 6.70277 0.956349 6.6957 0.959215 6.68901C 0.961776 6.68304 0.964676 6.67948 0.966605 6.67758C 0.968529 6.67568 0.970627 6.67429 0.97302 6.67329C 0.976039 6.67203 0.978019 6.67205 0.977065 6.67205L 0.977065 8.67205C 2.05639 8.67205 2.95508 7.8059 2.95508 6.70786L 0.955084 6.70786ZM 0.977938 6.67205C 0.97718 6.67205 0.979212 6.67207 0.982187 6.67331C 0.984541 6.67429 0.986591 6.67566 0.98848 6.67752C 0.990379 6.67939 0.99328 6.68294 0.995852 6.68894C 0.998731 6.69565 1 6.70276 1 6.70786L -1 6.70786C -1 7.80605 -0.101335 8.67111 0.976191 8.67205L 0.977938 6.67205ZM 1.46896 8.95534C 1.47064 8.95921 1.47245 8.9661 1.47249 8.97412C 1.47253 8.98139 1.47113 8.98722 1.46938 8.99154C 1.46763 8.99586 1.46508 8.99983 1.46169 9.0033C 1.45997 9.00507 1.45818 9.00655 1.45653 9.00768C 1.45483 9.00884 1.45382 9.00927 1.45396 9.00921L 0.675033 7.16713C -0.325607 7.59025 -0.802852 8.74584 -0.365277 9.75258L 1.46896 8.95534ZM 1.45471 9.00889C 1.45488 9.00882 1.45425 9.00909 1.45301 9.00934C 1.45183 9.00958 1.45064 9.0097 1.44957 9.0097C 1.44763 9.00971 1.44653 9.00939 1.44587 9.00912C 1.4452 9.00886 1.44302 9.00789 1.4399 9.00494C 1.43624 9.00147 1.43314 8.99694 1.43151 8.9932L 3.26509 8.19445C 2.82984 7.19531 1.66787 6.74636 0.67429 7.16744L 1.45471 9.00889ZM 1.43118 8.99245C 1.42956 8.98871 1.42776 8.98193 1.42771 8.97397C 1.42767 8.96676 1.42906 8.96094 1.43082 8.9566C 1.43258 8.95225 1.43513 8.94829 1.43848 8.94486C 1.44018 8.9431 1.44193 8.94167 1.44351 8.94059C 1.44513 8.93947 1.44604 8.9391 1.44575 8.93923L 2.22553 10.781C 3.22653 10.3571 3.70285 9.20164 3.26541 8.19521L 1.43118 8.99245ZM 1.44649 8.93891C 1.44639 8.93896 1.44818 8.93836 1.45053 8.93835C 1.4522 8.93834 1.45318 8.93861 1.45391 8.9389C 1.45464 8.93919 1.45701 8.94025 1.46033 8.94339C 1.4642 8.94707 1.46742 8.9518 1.4691 8.95566L -0.365417 9.75226C 0.0696229 10.7541 1.2325 11.2005 2.22479 10.7813L 1.44649 8.93891ZM 2.69458 10.7391C 2.69619 10.7407 2.69976 10.7452 2.70252 10.7519C 2.70501 10.7579 2.70604 10.7638 2.70604 10.7692C 2.70604 10.7746 2.70501 10.7806 2.70245 10.7868C 2.69963 10.7937 2.69593 10.7983 2.69413 10.8001L 1.29057 9.37532C 0.510948 10.1433 0.511595 11.3951 1.29012 12.163L 2.69458 10.7391ZM 2.69502 10.7992C 2.69336 10.8009 2.69026 10.803 2.68701 10.8043C 2.68444 10.8053 2.68318 10.8053 2.6831 10.8053C 2.68303 10.8053 2.68195 10.8053 2.6797 10.8044C 2.67678 10.8033 2.67408 10.8014 2.67279 10.8001L 4.07635 9.37532C 3.30534 8.61578 2.06092 8.61453 1.28968 9.37619L 2.69502 10.7992ZM 2.67279 10.8001C 2.67091 10.7982 2.66716 10.7935 2.66431 10.7866C 2.66173 10.7803 2.6607 10.7743 2.6607 10.7689C 2.6607 10.7635 2.66173 10.7577 2.66421 10.7516C 2.66697 10.7449 2.67058 10.7404 2.67234 10.7386L 4.0768 12.1625C 4.85452 11.3954 4.8563 10.1436 4.07635 9.37532L 2.67279 10.8001ZM 2.67234 10.7386C 2.67358 10.7374 2.67627 10.7355 2.67925 10.7343C 2.68156 10.7334 2.68271 10.7334 2.68287 10.7334C 2.68302 10.7334 2.68435 10.7334 2.68696 10.7344C 2.69025 10.7357 2.69336 10.7379 2.69502 10.7395L 1.28968 12.1626C 2.06099 12.9243 3.30575 12.923 4.0768 12.1625L 2.67234 10.7386ZM 4.56009 11.999C 4.56175 11.995 4.56492 11.9902 4.5687 11.9866C 4.57193 11.9834 4.57421 11.9824 4.57485 11.9821C 4.57549 11.9818 4.57641 11.9816 4.57802 11.9816C 4.58032 11.9815 4.5821 11.9821 4.58198 11.9821L 3.82984 13.8352C 4.82772 14.2402 5.98366 13.7779 6.405 12.7712L 4.56009 11.999ZM 4.58335 11.9826C 4.58317 11.9825 4.58412 11.9829 4.58574 11.984C 4.58731 11.985 4.58901 11.9864 4.59066 11.9881C 4.59388 11.9913 4.59636 11.995 4.59811 11.9991C 4.59987 12.0033 4.60138 12.0091 4.60145 12.0165C 4.60152 12.0247 4.59977 12.0319 4.59803 12.036L 2.75312 11.2638C 2.32868 12.2779 2.82463 13.4255 3.82847 13.8347L 4.58335 11.9826ZM 4.59816 12.0357C 4.59657 12.0395 4.59346 12.0442 4.58964 12.048C 4.58635 12.0512 4.58394 12.0523 4.58307 12.0527C 4.58219 12.053 4.58101 12.0534 4.57912 12.0534C 4.57653 12.0534 4.57458 12.0528 4.57464 12.0528L 5.32978 10.2008C 4.33079 9.79351 3.17415 10.2569 2.75299 11.2641L 4.59816 12.0357ZM 4.57658 12.0536C 4.57663 12.0536 4.57551 12.0532 4.57371 12.052C 4.57195 12.0508 4.57007 12.0493 4.56825 12.0475C 4.56468 12.0439 4.56199 12.0398 4.56014 12.0354C 4.55829 12.031 4.5568 12.0252 4.55674 12.0179C 4.55667 12.0099 4.55839 12.0031 4.55996 11.9993L 6.40514 12.7709C 6.82871 11.7579 6.3354 10.6084 5.32783 10.2001L 4.57658 12.0536ZM 6.80075 12.4157C 6.80004 12.4157 6.80225 12.4157 6.80545 12.4171C 6.80803 12.4182 6.81024 12.4196 6.81222 12.4216C 6.8142 12.4236 6.81709 12.4271 6.81962 12.433C 6.82245 12.4396 6.82368 12.4466 6.82368 12.4515L 4.82368 12.4515C 4.82368 13.5486 5.72094 14.4157 6.80075 14.4157L 6.80075 12.4157ZM 6.82368 12.4515C 6.82368 12.4568 6.82237 12.464 6.81955 12.4705C 6.81704 12.4764 6.81423 12.4798 6.8124 12.4816C 6.81058 12.4834 6.80851 12.4848 6.80597 12.4859C 6.80279 12.4872 6.80042 12.4873 6.80075 12.4873L 6.80075 10.4873C 5.72141 10.4873 4.82368 11.3549 4.82368 12.4515L 6.82368 12.4515ZM 6.80075 12.4873C 6.80131 12.4873 6.79909 12.4873 6.79599 12.486C 6.79352 12.4849 6.79146 12.4836 6.78963 12.4817C 6.78779 12.4799 6.78496 12.4765 6.78243 12.4706C 6.7796 12.464 6.77829 12.4568 6.77829 12.4515L 8.77829 12.4515C 8.77829 11.3546 7.88023 10.4873 6.80075 10.4873L 6.80075 12.4873ZM 6.77829 12.4524C 6.77828 12.4471 6.77961 12.4397 6.78254 12.4329C 6.78517 12.4268 6.78813 12.4231 6.79005 12.4212C 6.79196 12.4194 6.79404 12.418 6.79641 12.417C 6.79941 12.4157 6.80147 12.4157 6.80075 12.4157L 6.80075 14.4157C 7.87908 14.4157 8.77927 13.5499 8.77829 12.4506L 6.77829 12.4524ZM 9.09376 11.9507C 9.09356 11.9508 9.09418 11.9505 9.09542 11.9503C 9.0966 11.95 9.09781 11.9499 9.09891 11.9499C 9.10091 11.9499 9.10207 11.9502 9.1028 11.9505C 9.10352 11.9508 9.10574 11.9518 9.10887 11.9547C 9.11254 11.9582 9.11565 11.9628 9.11729 11.9665L 7.284 12.7659C 7.71927 13.7642 8.88049 14.2133 9.87418 13.7921L 9.09376 11.9507ZM 9.11776 11.9676C 9.11944 11.9715 9.12125 11.9784 9.12129 11.9863C 9.12133 11.9935 9.11994 11.9993 9.11824 12.0035C 9.11655 12.0076 9.11408 12.0115 9.11082 12.0148C 9.10915 12.0166 9.10742 12.018 9.10582 12.0191C 9.10417 12.0202 9.10319 12.0206 9.10335 12.0206L 8.3223 10.1794C 7.32326 10.6032 6.84594 11.7581 7.28353 12.7648L 9.11776 11.9676ZM 9.10272 12.0208C 9.1028 12.0208 9.10094 12.0214 9.09851 12.0214C 9.09678 12.0214 9.09573 12.0211 9.09497 12.0208C 9.0942 12.0205 9.0918 12.0195 9.08845 12.0163C 9.08454 12.0126 9.08126 12.0078 9.07951 12.0038L 10.9137 11.2065C 10.4786 10.2053 9.31546 9.75887 8.32294 10.1791L 9.10272 12.0208ZM 9.07937 12.0034C 9.07782 11.9999 9.07602 11.9932 9.07598 11.9852C 9.07594 11.978 9.07733 11.9721 9.07909 11.9678C 9.08084 11.9635 9.08338 11.9596 9.08666 11.9562C 9.08834 11.9545 9.09004 11.9531 9.09159 11.952C 9.09318 11.9509 9.09406 11.9506 9.09376 11.9507L 9.87418 13.7921C 10.8738 13.3685 11.3513 12.2141 10.9139 11.2069L 9.07937 12.0034ZM 10.9069 10.7395C 10.9088 10.7378 10.9119 10.7356 10.9151 10.7343C 10.9176 10.7333 10.9187 10.7334 10.9187 10.7334C 10.9188 10.7334 10.9199 10.7333 10.9224 10.7344C 10.9256 10.7356 10.9288 10.7378 10.9305 10.7395L 9.52428 12.1617C 10.2951 12.9238 11.5415 12.9238 12.3123 12.1626L 10.9069 10.7395ZM 10.9296 10.7386C 10.9312 10.7401 10.9347 10.7446 10.9375 10.7513C 10.94 10.7574 10.9411 10.7634 10.9411 10.769C 10.9411 10.7745 10.94 10.7806 10.9374 10.7868C 10.9346 10.7938 10.9309 10.7984 10.9292 10.8001L 9.52561 9.37532C 8.74599 10.1433 8.74664 11.3946 9.52517 12.1625L 10.9296 10.7386ZM 10.9296 10.7997C 10.9281 10.8012 10.9252 10.8032 10.9222 10.8044C 10.921 10.8049 10.9201 10.8051 10.9197 10.8052C 10.9192 10.8052 10.919 10.8052 10.9189 10.8052C 10.9188 10.8052 10.9186 10.8052 10.9181 10.8052C 10.9176 10.8051 10.9167 10.8048 10.9154 10.8043C 10.9123 10.8031 10.9092 10.801 10.9074 10.7992L 12.3118 9.37528C 11.5409 8.61485 10.296 8.61547 9.52517 9.37575L 10.9296 10.7997ZM 10.9074 10.7992C 10.9058 10.7976 10.9022 10.7931 10.8994 10.7864C 10.897 10.7804 10.8959 10.7745 10.8959 10.7691C 10.8959 10.7638 10.897 10.7579 10.8994 10.7519C 10.9022 10.7452 10.9058 10.7407 10.9074 10.7391L 12.3118 12.163C 13.0906 11.3949 13.0906 10.1434 12.3118 9.37528L 10.9074 10.7992ZM 12.1649 8.88115C 12.1666 8.87719 12.1698 8.87242 12.1736 8.86873C 12.1768 8.86557 12.1791 8.86448 12.1799 8.86417C 12.1806 8.86387 12.1817 8.86354 12.1836 8.86352C 12.1846 8.86351 12.1858 8.86361 12.1869 8.86382C 12.1881 8.86404 12.1886 8.86428 12.1884 8.86419L 11.4341 10.7165C 12.4325 11.123 13.5887 10.6597 14.0099 9.65335L 12.1649 8.88115ZM 12.1881 8.86406C 12.1877 8.86393 12.1886 8.86427 12.1902 8.86533C 12.1918 8.86635 12.1935 8.86772 12.1952 8.8694C 12.1985 8.87269 12.201 8.87653 12.2028 8.88084C 12.2047 8.88515 12.2062 8.89105 12.2062 8.89847C 12.2063 8.90664 12.2046 8.91371 12.2029 8.91772L 10.358 8.14552C 9.93368 9.15923 10.4287 10.3075 11.4344 10.7166L 12.1881 8.86406ZM 12.2026 8.91848C 12.201 8.92224 12.1979 8.92683 12.1943 8.93036C 12.1912 8.93337 12.1891 8.93435 12.1885 8.93459C 12.1879 8.93483 12.187 8.93513 12.1852 8.93515C 12.1843 8.93515 12.1832 8.93507 12.1821 8.93486C 12.181 8.93465 12.1804 8.93442 12.1807 8.93452L 12.9334 7.08159C 11.9353 6.67608 10.78 7.13944 10.3583 8.14476L 12.2026 8.91848ZM 12.1796 8.93409C 12.1798 8.93416 12.1788 8.93378 12.1772 8.9327C 12.1756 8.93165 12.1739 8.93028 12.1723 8.92862C 12.1691 8.92539 12.1666 8.92167 12.1648 8.91753C 12.1631 8.91338 12.1616 8.90765 12.1615 8.90036C 12.1615 8.89232 12.1632 8.88537 12.1648 8.88147L 14.01 9.65303C 14.434 8.63902 13.9387 7.49132 12.9345 7.08202L 12.1796 8.93409ZM 12.6015 6.70786C 12.6015 6.70277 12.6028 6.69571 12.6056 6.68906C 12.6082 6.68312 12.611 6.67959 12.613 6.6777C 12.6149 6.67581 12.617 6.6744 12.6194 6.67337C 12.6225 6.67208 12.6247 6.67205 12.6239 6.67205L 12.6239 8.67205C 13.7031 8.67205 14.6015 7.80558 14.6015 6.70786L 12.6015 6.70786ZM 12.6239 6.67205C 12.6231 6.67205 12.6252 6.67205 12.6284 6.67339C 12.631 6.67446 12.6333 6.67597 12.6353 6.67799C 12.6374 6.68003 12.6403 6.68368 12.6429 6.68963C 12.6457 6.69628 12.6469 6.70316 12.6469 6.70786L 10.6469 6.70786C 10.6469 7.80574 11.5445 8.67205 12.6239 8.67205L 12.6239 6.67205ZM 12.6469 6.70786C 12.6469 6.71317 12.6456 6.72029 12.6428 6.72686C 12.6402 6.73273 12.6374 6.73616 12.6356 6.73796C 12.6338 6.73976 12.6317 6.74117 12.6292 6.74223C 12.626 6.74356 12.6236 6.74367 12.6239 6.74367L 12.6239 4.74367C 11.5446 4.74367 10.6469 5.61123 10.6469 6.70786L 12.6469 6.70786ZM 12.6239 6.74367C 12.6249 6.74367 12.6228 6.74368 12.6197 6.74237C 12.6172 6.74133 12.615 6.73987 12.613 6.7379C 12.611 6.73593 12.6081 6.73234 12.6056 6.7264C 12.6027 6.71976 12.6015 6.71278 12.6015 6.70786L 14.6015 6.70786C 14.6015 5.61045 13.7039 4.74367 12.6239 4.74367L 12.6239 6.74367ZM 12.1329 4.45958C 12.1313 4.45597 12.1295 4.44928 12.1295 4.44139C 12.1294 4.43424 12.1308 4.42844 12.1326 4.42406C 12.1344 4.41968 12.137 4.41559 12.1405 4.41198C 12.1423 4.41013 12.1442 4.40859 12.1459 4.4074C 12.1477 4.40618 12.1488 4.4057 12.1487 4.40572L 12.9262 6.24843C 13.9282 5.82569 14.4044 4.66945 13.9674 3.66299L 12.1329 4.45958ZM 12.1473 4.40635C 12.147 4.40645 12.1476 4.4062 12.1488 4.40596C 12.1499 4.40573 12.151 4.40562 12.1521 4.40562C 12.1539 4.40561 12.155 4.40592 12.1557 4.4062C 12.1564 4.40648 12.1587 4.40749 12.1619 4.41053C 12.1656 4.41409 12.1688 4.41871 12.1705 4.42252L 10.3369 5.22127C 10.7725 6.22116 11.9349 6.66856 12.9277 6.2478L 12.1473 4.40635ZM 12.1708 4.42327C 12.1724 4.427 12.1742 4.43377 12.1742 4.44169C 12.1743 4.44887 12.1729 4.45469 12.1711 4.45906C 12.1694 4.46342 12.1668 4.46748 12.1633 4.47105C 12.1615 4.47287 12.1597 4.47438 12.158 4.47554C 12.1563 4.47674 12.1552 4.47719 12.1553 4.47714L 11.3764 2.63506C 10.375 3.05851 9.89932 4.21455 10.3366 5.22051L 12.1708 4.42327ZM 12.1557 4.47696C 12.1558 4.47695 12.1539 4.47755 12.1516 4.47756C 12.15 4.47757 12.149 4.4773 12.1484 4.47704C 12.1477 4.47678 12.1454 4.47576 12.1421 4.47259C 12.1382 4.4689 12.1348 4.46405 12.133 4.45991L 13.9672 3.66266C 13.5319 2.66112 12.3682 2.21513 11.376 2.63524L 12.1557 4.47696ZM 10.9069 2.6165C 10.9088 2.61471 10.9119 2.61258 10.915 2.61133C 10.9163 2.61082 10.9172 2.6106 10.9177 2.6105C 10.9182 2.61041 10.9184 2.61041 10.9185 2.61041C 10.9186 2.61041 10.9188 2.61041 10.9193 2.6105C 10.9198 2.6106 10.9207 2.61082 10.922 2.61133C 10.9251 2.61258 10.9283 2.61471 10.9301 2.6165L 9.52472 4.03952C 10.2955 4.8007 11.5415 4.8007 12.3123 4.03952L 10.9069 2.6165ZM 10.9296 2.61606C 10.9312 2.61757 10.9347 2.62202 10.9375 2.62878C 10.94 2.63489 10.9411 2.64086 10.9411 2.64634C 10.9411 2.65181 10.94 2.65779 10.9375 2.66389C 10.9347 2.67066 10.9312 2.6751 10.9296 2.67662L 9.52517 1.25271C 8.74639 2.02085 8.74639 3.27182 9.52517 4.03996L 10.9296 2.61606ZM 10.9296 2.67662C 10.9281 2.67815 10.9252 2.68016 10.9221 2.68137C 10.9198 2.68231 10.9187 2.68227 10.9187 2.68227C 10.9187 2.68227 10.9175 2.68231 10.915 2.6813C 10.9118 2.68003 10.9087 2.67789 10.9069 2.67618L 12.3123 1.25315C 11.5413 0.491729 10.2961 0.492357 9.52517 1.25271L 10.9296 2.67662ZM 10.9074 2.67662C 10.9059 2.6751 10.9023 2.67066 10.8995 2.66389C 10.897 2.65779 10.8959 2.65181 10.8959 2.64634C 10.8959 2.64086 10.897 2.63489 10.8995 2.62878C 10.9023 2.62202 10.9059 2.61757 10.9074 2.61606L 12.3118 4.03996C 13.0906 3.27182 13.0906 2.02085 12.3118 1.25271L 10.9074 2.67662Z"/>
<path id="path2_fill" d="M 10.445 8.7114C 10.6036 8.3278 10.7723 7.9918 10.9557 7.70009C 11.0026 6.23354 12.1168 5.05964 13.4846 5.05964L 29.5133 5.05964C 30.9103 5.05964 32.0441 6.28443 32.0441 7.79622L 32.0441 7.87869C 32.0914 7.96493 32.1353 8.054 32.1755 8.14543C 32.3938 8.64119 32.6556 8.76277 33.1568 8.75947C 36.1927 8.74015 39.2294 8.75099 42.2657 8.74722C 42.4922 8.74722 42.7182 8.70905 42.9576 8.68737C 43.0001 5.94183 42.056 3.79385 39.6585 2.31222C 37.067 0.71089 34.1893 0.119934 31.2338 0.0756364C 24.5166 -0.0261549 17.7952 -0.0233276 11.0781 0.0728086C 8.16407 0.114279 5.39102 0.910702 2.87884 2.46915C 0.525769 3.92957 -0.117803 6.11054 0.0169318 8.7114C 3.53054 8.7114 6.99541 8.7114 10.445 8.7114Z"/>
<path id="path3_stroke_2x" d="M 10.445 8.7114L 10.445 9.7114L 11.1136 9.7114L 11.3691 9.09353L 10.445 8.7114ZM 10.9557 7.70009L 11.8022 8.23249L 11.9466 8.00298L 11.9552 7.732L 10.9557 7.70009ZM 32.0441 7.87869L 31.0441 7.87869L 31.0441 8.13493L 31.1673 8.35959L 32.0441 7.87869ZM 32.1755 8.14543L 31.2598 8.54739L 31.2603 8.54849L 32.1755 8.14543ZM 33.1568 8.75947L 33.1505 7.75949L 33.1502 7.75949L 33.1568 8.75947ZM 42.2657 8.74722L 42.2657 7.74722L 42.2645 7.74722L 42.2657 8.74722ZM 42.9576 8.68737L 43.0478 9.6833L 43.9435 9.60217L 43.9574 8.70286L 42.9576 8.68737ZM 39.6585 2.31222L 40.1842 1.46155L 40.1841 1.46152L 39.6585 2.31222ZM 31.2338 0.0756364L 31.2186 1.07552L 31.2188 1.07552L 31.2338 0.0756364ZM 11.0781 0.0728086L 11.0923 1.07271L 11.0924 1.07271L 11.0781 0.0728086ZM 2.87884 2.46915L 2.35169 1.61938L 2.35151 1.61949L 2.87884 2.46915ZM 0.0169318 8.7114L -0.981729 8.76314L -0.932605 9.7114L 0.0169318 9.7114L 0.0169318 8.7114ZM 11.3691 9.09353C 11.5131 8.74345 11.6434 8.48287 11.8022 8.23249L 10.1092 7.16769C 9.90116 7.50073 9.69409 7.91216 9.52089 8.32928L 11.3691 9.09353ZM 11.9552 7.732C 11.9872 6.7314 12.7274 6.05964 13.4846 6.05964L 13.4846 4.05964C 11.5061 4.05964 10.018 5.73568 9.95625 7.66818L 11.9552 7.732ZM 13.4846 6.05964L 29.5133 6.05964L 29.5133 4.05964L 13.4846 4.05964L 13.4846 6.05964ZM 29.5133 6.05964C 30.2861 6.05964 31.0441 6.76197 31.0441 7.79622L 33.0441 7.79622C 33.0441 5.8069 31.5345 4.05964 29.5133 4.05964L 29.5133 6.05964ZM 31.0441 7.79622L 31.0441 7.87869L 33.0441 7.87869L 33.0441 7.79622L 31.0441 7.79622ZM 31.1673 8.35959C 31.2044 8.42677 31.2289 8.47637 31.2598 8.54739L 33.0911 7.74347C 33.0418 7.63164 32.9783 7.5031 32.9209 7.3978L 31.1673 8.35959ZM 31.2603 8.54849C 31.4137 8.89682 31.6459 9.2606 32.0508 9.50021C 32.4406 9.73088 32.8514 9.7615 33.1634 9.75945L 33.1502 7.75949C 33.1076 7.75978 33.0753 7.75865 33.0511 7.75692C 33.027 7.7552 33.014 7.75307 33.0092 7.75217C 33.0048 7.75133 33.0099 7.75199 33.0217 7.75621C 33.0339 7.76061 33.0506 7.76788 33.0693 7.77898C 33.0882 7.79016 33.1047 7.80255 33.1181 7.81454C 33.1311 7.82625 33.1381 7.83482 33.1396 7.83685C 33.1412 7.83888 33.1229 7.81553 33.0906 7.74236L 31.2603 8.54849ZM 33.1632 9.75945C 36.1941 9.74015 39.2283 9.75099 42.267 9.74722L 42.2645 7.74722C 39.2306 7.75099 36.1913 7.74015 33.1505 7.75949L 33.1632 9.75945ZM 42.2657 9.74722C 42.5758 9.74372 42.8467 9.70076 43.0478 9.6833L 42.8674 7.69145C 42.5897 7.71733 42.4086 7.75072 42.2657 7.74722L 42.2657 9.74722ZM 43.9574 8.70286C 44.0045 5.66702 42.9303 3.1586 40.1842 1.46155L 39.1328 3.16289C 41.1817 4.42909 41.9957 6.21664 41.9577 8.67188L 43.9574 8.70286ZM 40.1841 1.46152C 37.4361 -0.218509 34.2979 -0.874156 31.2487 -0.924251L 31.2188 1.07552C 34.0808 1.11403 36.6979 1.64029 39.1328 3.16291L 40.1841 1.46152ZM 31.2489 -0.924249C 24.524 -1.02613 17.7878 -1.0233 11.0637 -0.927089L 11.0924 1.07271C 17.8026 0.976645 24.5093 0.973818 31.2186 1.07552L 31.2489 -0.924249ZM 11.0638 -0.92709C 8.01764 -0.874943 4.98558 -0.00341784 2.35169 1.61938L 3.406 3.31891C 5.79646 1.82482 8.31049 1.1035 11.0923 1.07271L 11.0638 -0.92709ZM 2.35151 1.61949C 1.04379 2.44679 0.0961928 3.59431 -0.408281 4.77839C -0.892092 5.96793 -1.05007 7.38385 -0.981729 8.76314L 1.01559 8.65967C 0.949197 7.4381 1.04564 6.4631 1.4382 5.54683C 1.8101 4.6251 2.36082 3.95193 3.40618 3.3188L 2.35151 1.61949ZM 0.0169318 9.7114C 3.53054 9.7114 6.99541 9.7114 10.445 9.7114L 10.445 7.7114C 6.99541 7.7114 3.53054 7.7114 0.0169318 7.7114L 0.0169318 9.7114Z"/>
<path id="path4_fill" d="M 10.4435 6.61553e-07C 7.0159 6.61553e-07 3.58208 6.61553e-07 0.0904533 6.61553e-07C -0.167071 2.34827 -0.000803991 2.53394 2.28873 2.53394C 4.34844 2.53442 6.40721 2.53583 8.46549 2.53347C 10.2925 2.53206 10.8444 1.83319 10.4435 6.61553e-07Z"/>
<path id="path5_stroke_2x" d="M 10.4435 6.61553e-07L 11.4204 -0.21362L 11.2485 -0.999999L 10.4435 -0.999999L 10.4435 6.61553e-07ZM 0.0904533 6.61553e-07L 0.0904533 -0.999999L -0.805876 -0.999999L -0.903587 -0.109011L 0.0904533 6.61553e-07ZM 2.28873 2.53394L 2.28895 1.53394L 2.28873 1.53394L 2.28873 2.53394ZM 8.46549 2.53347L 8.46471 1.53347L 8.46434 1.53347L 8.46549 2.53347ZM 10.4435 -0.999999C 7.0159 -0.999999 3.58208 -0.999999 0.0904533 -0.999999L 0.0904533 1C 3.58208 1 7.0159 1 10.4435 1L 10.4435 -0.999999ZM -0.903587 -0.109011C -0.969281 0.490773 -1.01162 1.01892 -0.995727 1.43014C -0.97697 1.86061 -0.888922 2.37961 -0.520209 2.8037C -0.146763 3.23322 0.357813 3.38637 0.783028 3.45534C 1.18321 3.51796 1.70315 3.53386 2.28873 3.53394L 2.28873 1.53394C 1.72954 1.53403 1.37012 1.52672 1.10324 1.48114C 0.861401 1.44191 0.911219 1.40188 0.989097 1.49145C 1.06224 1.57558 1.01391 1.60786 1.00238 1.34307C 0.987977 1.05903 1.02143 0.683362 1.08449 0.109013L -0.903587 -0.109011ZM 2.2885 3.53394C 4.34798 3.53442 6.40743 3.53583 8.46663 3.53347L 8.46434 1.53347C 6.40698 1.53583 4.3489 1.53442 2.28895 1.53394L 2.2885 3.53394ZM 8.46626 3.53347C 9.42877 3.53273 10.4556 3.36456 11.0774 2.56999C 11.6917 1.78517 11.6297 0.743461 11.4204 -0.21362L 9.46659 0.213621C 9.65816 1.08973 9.52069 1.31404 9.50248 1.33731C 9.4919 1.35083 9.32924 1.5328 8.46471 1.53347L 8.46626 3.53347Z"/>
<path id="path6_fill" d="M 10.4321 -6.90316e-07C 6.97584 -6.90316e-07 3.51861 -6.90316e-07 0.0666383 -6.90316e-07C -0.178941 2.08436 0.194684 2.51745 2.19611 2.51839C 4.19658 2.51933 6.19706 2.52122 8.19753 2.51792C 9.96341 2.51462 10.5554 1.85251 10.4321 -6.90316e-07Z"/>
<path id="path7_stroke_2x" d="M 10.4321 -6.90316e-07L 11.4299 -0.0663948L 11.3678 -1L 10.4321 -1L 10.4321 -6.90316e-07ZM 0.0666383 -6.90316e-07L 0.0666383 -1L -0.822459 -1L -0.926492 -0.117011L 0.0666383 -6.90316e-07ZM 2.19611 2.51839L 2.19658 1.51839L 2.19658 1.51839L 2.19611 2.51839ZM 8.19753 2.51792L 8.19918 3.51792L 8.1994 3.51792L 8.19753 2.51792ZM 10.4321 -1C 6.97584 -1 3.51861 -1 0.0666383 -1L 0.0666383 0.999999C 3.51861 0.999999 6.97584 0.999999 10.4321 0.999999L 10.4321 -1ZM -0.926492 -0.117011C -0.991081 0.435429 -1.01724 0.959296 -0.981187 1.36746C -0.93851 1.81584 -0.810456 2.29045 -0.473913 2.68728C -0.133119 3.08912 0.316586 3.28813 0.756223 3.39121C 1.14842 3.47979 1.66141 3.51757 2.19564 3.51839L 2.19658 1.51839C 1.7301 1.51875 1.44585 1.50203 1.21277 1.44401C 1.02179 1.40753 1.0319 1.34246 1.05141 1.39368C 1.10171 1.4265 1.02332 1.39429 1.00981 1.17795C 0.982342 0.918658 1.00157 0.606753 1.05977 0.11701L -0.926492 -0.117011ZM 2.19564 3.51839C 4.19588 3.51933 6.19741 3.52122 8.19918 3.51792L 8.19588 1.51792C 6.1967 1.52122 4.19729 1.51934 2.19658 1.51839L 2.19564 3.51839ZM 8.1994 3.51792C 9.15267 3.51614 10.1213 3.34734 10.7707 2.61676C 11.4065 1.90147 11.4951 0.912912 11.4299 -0.0663948L 9.43432 0.0663935C 9.49242 0.939594 9.34668 1.20835 9.27582 1.28807C 9.21856 1.3525 9.00827 1.51641 8.19566 1.51792L 8.1994 3.51792Z"/>
<path id="path8_fill" d="M 24.1261 4.00379L 24.4897 -3.02013e-07L 22.009 -3.02013e-07L 21.1614 4.00238L 16.8996 4.00238L 13.9851 4.00238L 9.72381 4.00238L 8.87623 -3.02013e-07L 6.39511 -3.02013e-07L 6.7587 4.00379L 4.31198 6.99156L 4.08261e-07 19.0623L 4.08261e-07 25.7292L 1.04825 25.7292L 1.04825 26.0741C 1.04825 26.3281 1.25752 26.5341 1.51457 26.5341L 4.07882 26.5341C 4.33587 26.5341 4.54514 26.3281 4.54514 26.0741L 4.54514 25.7292L 26.3391 25.7292L 26.3391 26.0741C 26.3391 26.3281 26.5484 26.5341 26.8059 26.5341L 29.3697 26.5341C 29.6268 26.5341 29.836 26.3281 29.836 26.0741L 29.836 25.7292L 30.8848 25.7292L 30.8848 19.0618L 26.5728 6.99108L 24.1261 4.00379Z"/>
<path id="path9_stroke_2x" d="M 24.1261 4.00379L 23.1302 3.91335L 23.0932 4.32087L 23.3524 4.63743L 24.1261 4.00379ZM 24.4897 -3.02013e-07L 25.4856 0.0904387L 25.5846 -1L 24.4897 -1L 24.4897 -3.02013e-07ZM 22.009 -3.02013e-07L 22.009 -1L 21.1986 -1L 21.0307 -0.207176L 22.009 -3.02013e-07ZM 21.1614 4.00238L 21.1614 5.00238L 21.9718 5.00238L 22.1397 4.20955L 21.1614 4.00238ZM 9.72381 4.00238L 8.74551 4.20955L 8.9134 5.00238L 9.72381 5.00238L 9.72381 4.00238ZM 8.87623 -3.02013e-07L 9.85453 -0.207176L 9.68664 -1L 8.87623 -1L 8.87623 -3.02013e-07ZM 6.39511 -3.02013e-07L 6.39511 -1L 5.30018 -1L 5.39921 0.0904396L 6.39511 -3.02013e-07ZM 6.7587 4.00379L 7.53238 4.63737L 7.79161 4.32082L 7.7546 3.91335L 6.7587 4.00379ZM 4.31198 6.99156L 3.5383 6.35798L 3.42854 6.49201L 3.37026 6.65515L 4.31198 6.99156ZM 4.08261e-07 19.0623L -0.941717 18.7259L -1 18.8891L -1 19.0623L 4.08261e-07 19.0623ZM 4.08261e-07 25.7292L -1 25.7292L -1 26.7292L 4.08261e-07 26.7292L 4.08261e-07 25.7292ZM 1.04825 25.7292L 2.04825 25.7292L 2.04825 24.7292L 1.04825 24.7292L 1.04825 25.7292ZM 4.54514 25.7292L 4.54514 24.7292L 3.54514 24.7292L 3.54514 25.7292L 4.54514 25.7292ZM 26.3391 25.7292L 27.3391 25.7292L 27.3391 24.7292L 26.3391 24.7292L 26.3391 25.7292ZM 29.836 25.7292L 29.836 24.7292L 28.836 24.7292L 28.836 25.7292L 29.836 25.7292ZM 30.8848 25.7292L 30.8848 26.7292L 31.8848 26.7292L 31.8848 25.7292L 30.8848 25.7292ZM 30.8848 19.0618L 31.8848 19.0618L 31.8848 18.8886L 31.8265 18.7254L 30.8848 19.0618ZM 26.5728 6.99108L 27.5145 6.65468L 27.4562 6.4915L 27.3464 6.35745L 26.5728 6.99108ZM 25.122 4.09423L 25.4856 0.0904387L 23.4938 -0.0904393L 23.1302 3.91335L 25.122 4.09423ZM 24.4897 -1L 22.009 -1L 22.009 1L 24.4897 1L 24.4897 -1ZM 21.0307 -0.207176L 20.1831 3.7952L 22.1397 4.20955L 22.9873 0.207175L 21.0307 -0.207176ZM 21.1614 3.00238L 16.8996 3.00238L 16.8996 5.00238L 21.1614 5.00238L 21.1614 3.00238ZM 16.8996 3.00238L 13.9851 3.00238L 13.9851 5.00238L 16.8996 5.00238L 16.8996 3.00238ZM 13.9851 3.00238L 9.72381 3.00238L 9.72381 5.00238L 13.9851 5.00238L 13.9851 3.00238ZM 10.7021 3.7952L 9.85453 -0.207176L 7.89792 0.207175L 8.74551 4.20955L 10.7021 3.7952ZM 8.87623 -1L 6.39511 -1L 6.39511 1L 8.87623 1L 8.87623 -1ZM 5.39921 0.0904396L 5.7628 4.09423L 7.7546 3.91335L 7.39101 -0.0904402L 5.39921 0.0904396ZM 5.98502 3.37022L 3.5383 6.35798L 5.08566 7.62513L 7.53238 4.63737L 5.98502 3.37022ZM 3.37026 6.65515L -0.941717 18.7259L 0.941718 19.3987L 5.2537 7.32796L 3.37026 6.65515ZM -1 19.0623L -1 25.7292L 1 25.7292L 1 19.0623L -1 19.0623ZM 4.08261e-07 26.7292L 1.04825 26.7292L 1.04825 24.7292L 4.08261e-07 24.7292L 4.08261e-07 26.7292ZM 0.0482528 25.7292L 0.0482528 26.0741L 2.04825 26.0741L 2.04825 25.7292L 0.0482528 25.7292ZM 0.0482528 26.0741C 0.0482528 26.894 0.718913 27.5341 1.51457 27.5341L 1.51457 25.5341C 1.79613 25.5341 2.04825 25.7623 2.04825 26.0741L 0.0482528 26.0741ZM 1.51457 27.5341L 4.07882 27.5341L 4.07882 25.5341L 1.51457 25.5341L 1.51457 27.5341ZM 4.07882 27.5341C 4.87448 27.5341 5.54514 26.894 5.54514 26.0741L 3.54514 26.0741C 3.54514 25.7623 3.79726 25.5341 4.07882 25.5341L 4.07882 27.5341ZM 5.54514 26.0741L 5.54514 25.7292L 3.54514 25.7292L 3.54514 26.0741L 5.54514 26.0741ZM 4.54514 26.7292L 26.3391 26.7292L 26.3391 24.7292L 4.54514 24.7292L 4.54514 26.7292ZM 25.3391 25.7292L 25.3391 26.0741L 27.3391 26.0741L 27.3391 25.7292L 25.3391 25.7292ZM 25.3391 26.0741C 25.3391 26.8947 26.0105 27.5341 26.8059 27.5341L 26.8059 25.5341C 27.0864 25.5341 27.3391 25.7616 27.3391 26.0741L 25.3391 26.0741ZM 26.8059 27.5341L 29.3697 27.5341L 29.3697 25.5341L 26.8059 25.5341L 26.8059 27.5341ZM 29.3697 27.5341C 30.1654 27.5341 30.836 26.894 30.836 26.0741L 28.836 26.0741C 28.836 25.7623 29.0882 25.5341 29.3697 25.5341L 29.3697 27.5341ZM 30.836 26.0741L 30.836 25.7292L 28.836 25.7292L 28.836 26.0741L 30.836 26.0741ZM 29.836 26.7292L 30.8848 26.7292L 30.8848 24.7292L 29.836 24.7292L 29.836 26.7292ZM 31.8848 25.7292L 31.8848 19.0618L 29.8848 19.0618L 29.8848 25.7292L 31.8848 25.7292ZM 31.8265 18.7254L 27.5145 6.65468L 25.6311 7.32749L 29.943 19.3982L 31.8265 18.7254ZM 27.3464 6.35745L 24.8997 3.37016L 23.3524 4.63743L 25.7992 7.62472L 27.3464 6.35745Z"/>
</defs>
</svg>
