<svg width="47" height="46" viewBox="0 0 47 46" version="1.1" xmlns="http://www.w3.org/2000/svg" xmlns:xlink="http://www.w3.org/1999/xlink">
<title>timeline-nurse-mobile</title>
<desc>Created using Figma</desc>
<g id="Canvas" transform="translate(-528 -3579)">
<g id="timeline-nurse-mobile">
<g id="Vector">
<mask id="mask0_outline_ins">
<use xlink:href="#path0_fill" fill="white" transform="translate(528 3579)"/>
</mask>
<g mask="url(#mask0_outline_ins)">
<use xlink:href="#path1_stroke_2x" transform="translate(528 3579)" fill="#5D2FCD"/>
</g>
</g>
</g>
</g>
<defs>
<path id="path0_fill" d="M 46.8088 7.76407L 39.2884 0.192386C 39.0337 -0.0641287 38.6203 -0.0641287 38.3649 0.192386C 38.1101 0.448901 38.1101 0.865132 38.3649 1.12234L 39.1168 1.87944L 33.9537 7.07819L 31.8965 5.00671C 31.6149 4.72323 31.1583 4.72323 30.8768 5.00671C 30.5952 5.29019 30.5952 5.74998 30.8768 6.03346L 31.5511 6.71243L 16.0255 22.3453C 15.54 22.8341 15.4109 23.5788 15.7172 24.1976C 16.0543 24.878 16.6435 25.8473 17.6522 27.0338L 16.5817 28.1117C 16.4883 28.2057 16.4883 28.3572 16.5817 28.4512L 16.9724 28.8446L 2.93377e-07 45.9336L 2.69724 46L 18.354 30.235L 18.7447 30.6285C 18.8381 30.7225 18.9885 30.7225 19.0818 30.6285L 20.1524 29.5506C 21.3307 30.5662 22.2934 31.1595 22.9691 31.499C 23.583 31.8073 24.3232 31.6773 24.8087 31.1885L 40.3342 15.5556L 41.0086 16.2346C 41.2901 16.5181 41.7467 16.5181 42.0283 16.2346C 42.3098 15.9511 42.3098 15.4913 42.0283 15.2078L 39.971 13.1364L 45.1341 7.93761L 45.886 8.69471C 46.1407 8.95123 46.5541 8.95123 46.8095 8.69471C 47.0636 8.43751 47.0636 8.02128 46.8088 7.76407ZM 32.1512 10.8817L 19.9141 23.2393C 19.6909 23.4647 19.3242 23.4654 19.1004 23.2407C 18.8765 23.016 18.8758 22.6468 19.099 22.4214L 31.3368 10.0637C 31.56 9.83831 31.9267 9.83762 32.1505 10.0623C 32.3744 10.287 32.3751 10.6563 32.1512 10.8817Z"/>
<path id="path1_stroke_2x" d="M 46.8088 7.76407L 47.5193 7.06036L 47.5184 7.05937L 46.8088 7.76407ZM 39.2884 0.192386L 38.5789 0.897054L 38.5789 0.897086L 39.2884 0.192386ZM 38.3649 0.192386L 37.6563 -0.513236L 37.6553 -0.512281L 38.3649 0.192386ZM 38.3649 1.12234L 37.6544 1.82605L 37.6553 1.827L 38.3649 1.12234ZM 39.1168 1.87944L 39.8263 2.58411L 40.5261 1.87944L 39.8263 1.17477L 39.1168 1.87944ZM 33.9537 7.07819L 33.2442 7.78285L 33.9537 8.4973L 34.6633 7.78285L 33.9537 7.07819ZM 31.8965 5.00671L 32.606 4.30204L 32.606 4.30204L 31.8965 5.00671ZM 30.8768 6.03346L 31.5863 5.32879L 31.5863 5.32879L 30.8768 6.03346ZM 31.5511 6.71243L 32.2606 7.4171L 32.9604 6.71243L 32.2606 6.00776L 31.5511 6.71243ZM 16.0255 22.3453L 16.735 23.05L 16.735 23.05L 16.0255 22.3453ZM 15.7172 24.1976L 14.8209 24.6412L 14.8212 24.6416L 15.7172 24.1976ZM 17.6522 27.0338L 18.3617 27.7385L 19.0094 27.0863L 18.4141 26.3861L 17.6522 27.0338ZM 16.5817 28.1117L 15.8721 27.407L 15.8721 27.407L 16.5817 28.1117ZM 16.5817 28.4512L 17.2912 27.7465L 16.5817 28.4512ZM 16.9724 28.8446L 17.6819 29.5493L 18.3818 28.8446L 17.6819 28.1399L 16.9724 28.8446ZM 2.93377e-07 45.9336L -0.709523 45.2289L -2.34555 46.8762L -0.0246013 46.9333L 2.93377e-07 45.9336ZM 2.69724 46L 2.67263 46.9997L 3.10324 47.0103L 3.40677 46.7047L 2.69724 46ZM 18.354 30.235L 19.0635 29.5304L 18.354 28.8159L 17.6444 29.5304L 18.354 30.235ZM 18.7447 30.6285L 18.0352 31.3331L 18.7447 30.6285ZM 19.0818 30.6285L 19.7914 31.3331L 19.0818 30.6285ZM 20.1524 29.5506L 20.8053 28.7931L 20.0995 28.1847L 19.4428 28.8459L 20.1524 29.5506ZM 22.9691 31.499L 22.5201 32.3925L 22.5202 32.3926L 22.9691 31.499ZM 24.8087 31.1885L 25.5182 31.8932L 24.8087 31.1885ZM 40.3342 15.5556L 41.0438 14.851L 40.3342 14.1365L 39.6247 14.851L 40.3342 15.5556ZM 42.0283 16.2346L 41.3187 15.5299L 42.0283 16.2346ZM 42.0283 15.2078L 41.3187 15.9125L 42.0283 15.2078ZM 39.971 13.1364L 39.2615 12.4317L 38.5616 13.1364L 39.2615 13.841L 39.971 13.1364ZM 45.1341 7.93761L 45.8436 7.23295L 45.1341 6.51851L 44.4245 7.23295L 45.1341 7.93761ZM 45.886 8.69471L 46.5955 7.99005L 45.886 8.69471ZM 46.8095 8.69471L 47.5181 9.40034L 47.521 9.39747L 46.8095 8.69471ZM 32.1512 10.8817L 31.4417 10.177L 31.4406 10.178L 32.1512 10.8817ZM 19.9141 23.2393L 19.2035 22.5357L 19.2035 22.5357L 19.9141 23.2393ZM 19.099 22.4214L 18.3885 21.7177L 18.3884 21.7178L 19.099 22.4214ZM 31.3368 10.0637L 32.0474 10.7674L 32.0474 10.7673L 31.3368 10.0637ZM 32.1505 10.0623L 31.4421 10.7681L 32.1505 10.0623ZM 47.5184 7.05937L 39.998 -0.512314L 38.5789 0.897086L 46.0993 8.46877L 47.5184 7.05937ZM 39.998 -0.512281C 39.3516 -1.1631 38.3021 -1.16173 37.6563 -0.513236L 39.0735 0.898008C 38.9386 1.03347 38.7158 1.03484 38.5789 0.897054L 39.998 -0.512281ZM 37.6553 -0.512281C 37.0128 0.134717 37.0141 1.17963 37.6544 1.82605L 39.0754 0.418627C 39.2061 0.55063 39.2075 0.763085 39.0744 0.897054L 37.6553 -0.512281ZM 37.6553 1.827L 38.4072 2.5841L 39.8263 1.17477L 39.0744 0.417674L 37.6553 1.827ZM 38.4072 1.17477L 33.2442 6.37352L 34.6633 7.78285L 39.8263 2.58411L 38.4072 1.17477ZM 34.6633 6.37352L 32.606 4.30204L 31.1869 5.71137L 33.2442 7.78285L 34.6633 6.37352ZM 32.606 4.30204C 31.9334 3.62478 30.8398 3.62478 30.1672 4.30204L 31.5863 5.71137C 31.4768 5.82167 31.2965 5.82167 31.1869 5.71137L 32.606 4.30204ZM 30.1672 4.30204C 29.4984 4.97548 29.4984 6.06469 30.1672 6.73813L 31.5863 5.32879C 31.692 5.43527 31.692 5.60489 31.5863 5.71137L 30.1672 4.30204ZM 30.1672 6.73812L 30.8415 7.41709L 32.2606 6.00776L 31.5863 5.32879L 30.1672 6.73812ZM 30.8415 6.00776L 15.3159 21.6406L 16.735 23.05L 32.2606 7.4171L 30.8415 6.00776ZM 15.3159 21.6406C 14.5357 22.4263 14.3209 23.6308 14.8209 24.6412L 16.6134 23.7541C 16.501 23.5268 16.5443 23.242 16.735 23.05L 15.3159 21.6406ZM 14.8212 24.6416C 15.1782 25.3601 15.8327 26.4327 16.8903 27.6815L 18.4141 26.3861C 17.4542 25.2619 16.9304 24.3958 16.6132 23.7536L 14.8212 24.6416ZM 16.9427 26.3291L 15.8721 27.407L 17.2912 28.8164L 18.3617 27.7385L 16.9427 26.3291ZM 15.8721 27.407C 15.3915 27.891 15.3915 28.6719 15.8721 29.1559L 17.2912 27.7465C 17.5851 28.0425 17.5851 28.5205 17.2912 28.8164L 15.8721 27.407ZM 15.8721 29.1559L 16.2629 29.5493L 17.6819 28.1399L 17.2912 27.7465L 15.8721 29.1559ZM 16.2629 28.1399L -0.709523 45.2289L 0.709524 46.6383L 17.6819 29.5493L 16.2629 28.1399ZM -0.0246013 46.9333L 2.67263 46.9997L 2.72184 45.0003L 0.0246019 44.9339L -0.0246013 46.9333ZM 3.40677 46.7047L 19.0635 30.9397L 17.6444 29.5304L 1.9877 45.2953L 3.40677 46.7047ZM 17.6444 30.9397L 18.0352 31.3331L 19.4542 29.9238L 19.0635 29.5304L 17.6444 30.9397ZM 18.0352 31.3331C 18.5196 31.8209 19.3069 31.8209 19.7914 31.3331L 18.3723 29.9238C 18.67 29.6241 19.1565 29.6241 19.4542 29.9238L 18.0352 31.3331ZM 19.7914 31.3331L 20.8619 30.2552L 19.4428 28.8459L 18.3723 29.9238L 19.7914 31.3331ZM 19.4995 30.308C 20.7401 31.3732 21.8062 32.0327 22.5201 32.3925L 23.418 30.6054C 22.7806 30.2862 21.9213 29.7593 20.8053 28.7931L 19.4995 30.308ZM 22.5202 32.3926C 23.5313 32.9005 24.7367 32.6801 25.5182 31.8932L 24.0991 30.4838C 23.9097 30.6746 23.6346 30.7142 23.418 30.6054L 22.5202 32.3926ZM 25.5182 31.8932L 41.0438 16.2603L 39.6247 14.851L 24.0991 30.4838L 25.5182 31.8932ZM 39.6247 16.2603L 40.299 16.9393L 41.7181 15.5299L 41.0438 14.851L 39.6247 16.2603ZM 40.299 16.9393C 40.9716 17.6165 42.0652 17.6165 42.7378 16.9393L 41.3187 15.5299C 41.4283 15.4196 41.6086 15.4196 41.7181 15.5299L 40.299 16.9393ZM 42.7378 16.9393C 43.4066 16.2658 43.4066 15.1766 42.7378 14.5032L 41.3187 15.9125C 41.213 15.806 41.213 15.6364 41.3187 15.5299L 42.7378 16.9393ZM 42.7378 14.5032L 40.6805 12.4317L 39.2615 13.841L 41.3187 15.9125L 42.7378 14.5032ZM 40.6805 13.841L 45.8436 8.64228L 44.4245 7.23295L 39.2615 12.4317L 40.6805 13.841ZM 44.4245 8.64228L 45.1764 9.39938L 46.5955 7.99005L 45.8436 7.23295L 44.4245 8.64228ZM 45.1764 9.39938C 45.8228 10.0502 46.8723 10.0488 47.5181 9.40034L 46.1009 7.98909C 46.2358 7.85363 46.4587 7.85226 46.5955 7.99005L 45.1764 9.39938ZM 47.521 9.39747C 48.1599 8.7506 48.16 7.70715 47.5193 7.06036L 46.0984 8.46778C 45.9673 8.33541 45.9673 8.12442 46.0981 7.99196L 47.521 9.39747ZM 31.4406 10.178L 19.2035 22.5357L 20.6246 23.9429L 32.8618 11.5853L 31.4406 10.178ZM 19.2035 22.5357C 19.3705 22.3671 19.6407 22.3662 19.8088 22.5349L 18.3919 23.9465C 19.0078 24.5646 20.0114 24.5624 20.6247 23.9429L 19.2035 22.5357ZM 19.8088 22.5349C 19.9726 22.6993 19.9734 22.9595 19.8096 23.1249L 18.3884 21.7178C 17.7783 22.334 17.7805 23.3326 18.3919 23.9465L 19.8088 22.5349ZM 19.8096 23.125L 32.0474 10.7674L 30.6263 9.36006L 18.3885 21.7177L 19.8096 23.125ZM 32.0474 10.7673C 31.8804 10.936 31.6102 10.9369 31.4421 10.7681L 32.859 9.35658C 32.2432 8.73839 31.2395 8.74066 30.6262 9.36014L 32.0474 10.7673ZM 31.4421 10.7681C 31.2781 10.6035 31.2773 10.3425 31.4417 10.177L 32.8608 11.5863C 33.4728 10.97 33.4706 9.97056 32.859 9.35658L 31.4421 10.7681Z"/>
</defs>
</svg>
