<svg width="28" height="47" viewBox="0 0 28 47" version="1.1" xmlns="http://www.w3.org/2000/svg" xmlns:xlink="http://www.w3.org/1999/xlink">
<title>timeline-kit-mobile</title>
<desc>Created using Figma</desc>
<g id="Canvas" transform="translate(-532 -3483)">
<g id="timeline-kit-mobile">
<g id="Vector">
<use xlink:href="#path0_fill" transform="translate(532 3483)" fill="#5D2FCD"/>
</g>
<g id="Vector">
<use xlink:href="#path1_fill" transform="translate(536.813 3508.54)" fill="#5D2FCD"/>
</g>
<g id="Vector">
<use xlink:href="#path2_fill" transform="translate(536.813 3505.61)" fill="#5D2FCD"/>
</g>
<g id="Vector">
<use xlink:href="#path3_fill" transform="translate(536.813 3499.73)" fill="#5D2FCD"/>
</g>
<g id="Vector">
<use xlink:href="#path4_fill" transform="translate(536.813 3502.67)" fill="#5D2FCD"/>
</g>
<g id="Vector">
<use xlink:href="#path5_fill" transform="translate(536.813 3496.8)" fill="#5D2FCD"/>
</g>
<g id="Vector">
<use xlink:href="#path6_fill" transform="translate(554.692 3499.73)" fill="#5D2FCD"/>
</g>
<g id="Vector">
<use xlink:href="#path7_fill" transform="translate(554.692 3496.8)" fill="#5D2FCD"/>
</g>
<g id="Vector">
<use xlink:href="#path8_fill" transform="translate(554.692 3502.67)" fill="#5D2FCD"/>
</g>
<g id="Vector">
<use xlink:href="#path9_fill" transform="translate(554.692 3505.61)" fill="#5D2FCD"/>
</g>
<g id="Vector">
<use xlink:href="#path10_fill" transform="translate(554.692 3508.54)" fill="#5D2FCD"/>
</g>
<g id="Vector">
<use xlink:href="#path11_fill" transform="translate(540.03 3486.19)" fill="#5D2FCD"/>
</g>
<g id="Vector">
<use xlink:href="#path12_fill" transform="translate(541.916 3490.87)" fill="#5D2FCD"/>
</g>
<g id="Vector">
<use xlink:href="#path13_fill" transform="translate(543.347 3490.24)" fill="#5D2FCD"/>
</g>
<g id="Vector">
<use xlink:href="#path14_fill" transform="translate(549.053 3490.87)" fill="#5D2FCD"/>
</g>
<g id="Vector">
<use xlink:href="#path15_fill" transform="translate(545.294 3490.13)" fill="#5D2FCD"/>
</g>
<g id="Vector">
<use xlink:href="#path16_fill" transform="translate(547.196 3490.24)" fill="#5D2FCD"/>
</g>
<g id="Vector">
<use xlink:href="#path17_fill" transform="translate(541.916 3489.36)" fill="#5D2FCD"/>
</g>
<g id="Vector">
<use xlink:href="#path18_fill" transform="translate(543.347 3488.73)" fill="#5D2FCD"/>
</g>
<g id="Vector">
<use xlink:href="#path19_fill" transform="translate(547.196 3488.73)" fill="#5D2FCD"/>
</g>
<g id="Vector">
<use xlink:href="#path20_fill" transform="translate(549.053 3489.36)" fill="#5D2FCD"/>
</g>
<g id="Vector">
<use xlink:href="#path21_fill" transform="translate(545.294 3488.62)" fill="#5D2FCD"/>
</g>
<g id="Vector">
<use xlink:href="#path22_fill" transform="translate(549.053 3521.75)" fill="#5D2FCD"/>
</g>
<g id="Vector">
<use xlink:href="#path23_fill" transform="translate(547.195 3522.93)" fill="#5D2FCD"/>
</g>
<g id="Vector">
<use xlink:href="#path24_fill" transform="translate(545.294 3523.26)" fill="#5D2FCD"/>
</g>
<g id="Vector">
<use xlink:href="#path25_fill" transform="translate(541.916 3521.75)" fill="#5D2FCD"/>
</g>
<g id="Vector">
<use xlink:href="#path26_fill" transform="translate(543.348 3522.93)" fill="#5D2FCD"/>
</g>
<g id="Vector">
<use xlink:href="#path27_fill" transform="translate(545.294 3524.77)" fill="#5D2FCD"/>
</g>
<g id="Vector">
<use xlink:href="#path28_fill" transform="translate(549.053 3523.27)" fill="#5D2FCD"/>
</g>
<g id="Vector">
<use xlink:href="#path29_fill" transform="translate(547.195 3524.45)" fill="#5D2FCD"/>
</g>
<g id="Vector">
<use xlink:href="#path30_fill" transform="translate(543.348 3524.45)" fill="#5D2FCD"/>
</g>
<g id="Vector">
<use xlink:href="#path31_fill" transform="translate(541.916 3523.27)" fill="#5D2FCD"/>
</g>
</g>
</g>
<defs>
<path id="path0_fill" d="M 27.9826 14.5608C 28.1161 13.3069 27.3932 12.7875 27.0217 12.6966C 23.8542 11.7091 23.8273 11.1877 23.7825 10.3235C 23.5999 6.77335 22.4718 4.06381 20.4292 2.27069C 17.7883 -0.0475143 14.5459 -0.0182562 14.0003 0.00473251C 13.4584 -0.0177338 10.2133 -0.0490819 7.57026 2.27069C 5.52771 4.06381 4.39906 6.77283 4.21702 10.3235C 4.17269 11.1872 4.14526 11.7086 1.00624 12.6883C 0.605748 12.7875 -0.116612 13.3063 0.016885 14.5603C 0.11239 15.4573 0.0474891 23.2803 2.17387e-07 27.3049C 0.00897035 27.8566 0.42318 28.701 1.52967 28.7652L 1.59774 28.7694C 2.21615 28.8044 3.14957 28.8572 3.73685 29.5343C 4.21491 30.0866 4.398 30.9852 4.27981 32.2078C 4.07983 34.2883 3.69728 36.5574 3.38913 38.3803C 3.1158 39.9984 2.91846 41.1677 2.91846 41.7382C 2.91846 44.1389 4.49456 47 12.0026 47L 13.566 47L 14.434 47L 15.9974 47C 23.5054 47 25.0815 44.1384 25.0815 41.7382C 25.0815 41.1677 24.8842 39.9984 24.6109 38.3803C 24.3027 36.5574 23.9191 34.2883 23.7197 32.2078C 23.6025 30.9852 23.7846 30.086 24.2631 29.5343C 24.8499 28.8572 25.7839 28.8049 26.4017 28.7694L 26.4703 28.7652C 27.5774 28.701 27.9916 27.8566 28 27.2924C 27.9515 23.2808 27.8871 15.4579 27.9826 14.5608ZM 26.4112 27.7882L 26.3448 27.7924C 25.6551 27.8305 24.3729 27.9037 23.5123 28.8964C 22.8522 29.6576 22.591 30.8034 22.7345 32.3008C 22.9382 34.4168 23.3239 36.7042 23.6347 38.5422C 23.8801 39.9952 24.0917 41.2497 24.0917 41.7382C 24.0917 45.2785 19.6894 46.0209 15.9964 46.0209L 14.4329 46.0209L 13.5649 46.0209L 12.0015 46.0209C 8.30845 46.0209 3.9057 45.2785 3.9057 41.7382C 3.9057 41.2492 4.11782 39.9952 4.36318 38.5422C 4.67344 36.7037 5.05968 34.4168 5.26336 32.3008C 5.40688 30.8039 5.14569 29.6576 4.48612 28.8964C 3.62446 27.9037 2.34226 27.8305 1.65314 27.7924L 1.58666 27.7882C 1.08644 27.7589 0.996213 27.459 0.987242 27.3033C 0.993047 26.8279 1.12338 15.6355 0.998323 14.4584C 0.924979 13.7719 1.22891 13.6449 1.27323 13.6303C 4.51884 12.6188 5.12458 11.8978 5.20268 10.3737C 5.371 7.10146 6.38462 4.62495 8.21506 3.0126C 10.665 0.855316 13.8003 0.977052 13.9897 0.985412L 13.9897 0.985934C 13.9897 0.985934 13.9966 0.985934 13.9982 0.985934C 13.9997 0.985934 14.0066 0.985934 14.0066 0.985934L 14.0066 0.984889C 14.1966 0.977052 17.3314 0.854794 19.7807 3.01208C 21.6117 4.62443 22.6253 7.10146 22.7936 10.3732C 22.8717 11.8972 23.4785 12.6182 26.7326 13.6324C 26.7669 13.6444 27.0713 13.7713 26.998 14.4579C 26.8724 15.635 27.0038 26.8274 27.0091 27.2819C 27.0022 27.459 26.912 27.7595 26.4112 27.7882Z"/>
<path id="path1_fill" d="M 0.247469 2.23224e-07C 0.110279 2.23224e-07 3.70363e-07 0.109718 3.70363e-07 0.245038L 3.70363e-07 1.71423C 3.70363e-07 1.84955 0.110279 1.95875 0.247469 1.95875C 0.384132 1.95875 0.494413 1.84955 0.494413 1.71423L 0.494413 0.245038C 0.493885 0.109718 0.383604 2.23224e-07 0.247469 2.23224e-07Z"/>
<path id="path2_fill" d="M 0.247469 -9.24785e-07C 0.110279 -9.24785e-07 3.70363e-07 0.109197 3.70363e-07 0.244517L 3.70363e-07 1.71318C 3.70363e-07 1.84903 0.110279 1.95822 0.247469 1.95822C 0.384132 1.95822 0.494413 1.84903 0.494413 1.71318L 0.494413 0.244517C 0.493885 0.109197 0.383604 -9.24785e-07 0.247469 -9.24785e-07Z"/>
<path id="path3_fill" d="M 0.247469 -9.40729e-07C 0.110279 -9.40729e-07 3.70363e-07 0.109197 3.70363e-07 0.244517L 3.70363e-07 1.71318C 3.70363e-07 1.8485 0.110279 1.95822 0.247469 1.95822C 0.384132 1.95822 0.494413 1.84903 0.494413 1.71318L 0.494413 0.244517C 0.493885 0.109719 0.383604 -9.40729e-07 0.247469 -9.40729e-07Z"/>
<path id="path4_fill" d="M 0.247469 2.07279e-07C 0.110279 2.07279e-07 3.70363e-07 0.109718 3.70363e-07 0.245038L 3.70363e-07 1.71371C 3.70363e-07 1.84903 0.110279 1.95875 0.247469 1.95875C 0.384132 1.95875 0.494413 1.84903 0.494413 1.71371L 0.494413 0.245038C 0.493885 0.109718 0.383604 2.07279e-07 0.247469 2.07279e-07Z"/>
<path id="path5_fill" d="M 0.247469 -9.56674e-08C 0.110279 -9.56674e-08 3.70363e-07 0.109197 3.70363e-07 0.244517L 3.70363e-07 1.71318C 3.70363e-07 1.8485 0.110279 1.9577 0.247469 1.9577C 0.384132 1.9577 0.494413 1.8485 0.494413 1.71318L 0.494413 0.244517C 0.493885 0.109197 0.383604 -9.56674e-08 0.247469 -9.56674e-08Z"/>
<path id="path6_fill" d="M 0.247471 -9.40729e-07C 0.110808 -9.40729e-07 -2.25438e-07 0.109197 -2.25438e-07 0.244517L -2.25438e-07 1.71318C -2.25438e-07 1.8485 0.110808 1.95822 0.247471 1.95822C 0.384133 1.95822 0.494414 1.84903 0.494414 1.71318L 0.494414 0.244517C 0.494414 0.109719 0.384133 -9.40729e-07 0.247471 -9.40729e-07Z"/>
<path id="path7_fill" d="M 0.247471 -9.56674e-08C 0.110808 -9.56674e-08 -2.25438e-07 0.109197 -2.25438e-07 0.244517L -2.25438e-07 1.71318C -2.25438e-07 1.8485 0.110808 1.9577 0.247471 1.9577C 0.384133 1.9577 0.494414 1.8485 0.494414 1.71318L 0.494414 0.244517C 0.494414 0.109197 0.384133 -9.56674e-08 0.247471 -9.56674e-08Z"/>
<path id="path8_fill" d="M 0.247471 2.07279e-07C 0.110808 2.07279e-07 -2.25438e-07 0.109718 -2.25438e-07 0.245038L -2.25438e-07 1.71371C -2.25438e-07 1.84903 0.110808 1.95875 0.247471 1.95875C 0.384133 1.95875 0.494414 1.84903 0.494414 1.71371L 0.494414 0.245038C 0.494414 0.109718 0.384133 2.07279e-07 0.247471 2.07279e-07Z"/>
<path id="path9_fill" d="M 0.247471 -9.24785e-07C 0.110808 -9.24785e-07 -2.25438e-07 0.109197 -2.25438e-07 0.244517L -2.25438e-07 1.71318C -2.25438e-07 1.84903 0.110808 1.95822 0.247471 1.95822C 0.384133 1.95822 0.494414 1.84903 0.494414 1.71318L 0.494414 0.244517C 0.494414 0.109197 0.384133 -9.24785e-07 0.247471 -9.24785e-07Z"/>
<path id="path10_fill" d="M 0.247471 2.23224e-07C 0.110808 2.23224e-07 -2.25438e-07 0.109718 -2.25438e-07 0.245038L -2.25438e-07 1.71423C -2.25438e-07 1.84955 0.110808 1.95875 0.247471 1.95875C 0.384133 1.95875 0.494414 1.84955 0.494414 1.71423L 0.494414 0.245038C 0.494414 0.109718 0.384133 2.23224e-07 0.247471 2.23224e-07Z"/>
<path id="path11_fill" d="M 11.9398 3.79419C 11.9398 1.70221 9.26192 -1.95321e-07 5.96989 -1.95321e-07C 2.67838 -1.95321e-07 4.34774e-07 1.70221 4.34774e-07 3.79419L 4.34774e-07 37.4377C 4.34774e-07 37.4633 0.00738754 37.4873 0.0147747 37.5108C 0.16885 39.5161 2.77652 41.119 5.96989 41.119C 9.26192 41.119 11.9398 39.4168 11.9398 37.3238C 11.9398 37.2789 11.9239 37.2386 11.9023 37.2026L 11.9023 3.91592C 11.9239 3.87987 11.9398 3.83964 11.9398 3.79419ZM 5.96989 40.629C 2.95012 40.629 0.493886 39.1467 0.493886 37.3238L 0.493886 3.79419C 0.493886 1.97181 2.95012 0.489556 5.96989 0.489556C 8.87252 0.489556 11.248 1.86052 11.4285 3.5852C 11.4158 3.61498 11.4079 3.64737 11.4079 3.68186L 11.4079 37.3243C 11.4079 37.364 11.419 37.4006 11.4364 37.433C 11.3398 39.2042 8.92845 40.629 5.96989 40.629Z"/>
<path id="path12_fill" d="M 0.64585 0.0421188C 0.112391 0.396877 -8.85651e-07 0.769399 -8.85651e-07 1.01966C -8.85651e-07 1.15498 0.110808 1.26418 0.24747 1.26418C 0.384133 1.26418 0.494941 1.15498 0.494941 1.01966C 0.494941 0.781939 0.726581 0.578174 0.921813 0.448602C 1.03526 0.372843 1.06481 0.220804 0.988825 0.108995C 0.912315 -0.00385857 0.758768 -0.034162 0.64585 0.0421188Z"/>
<path id="path13_fill" d="M 1.17006 0.00338064C 0.812836 0.06033 0.477248 0.138701 0.171736 0.235358C 0.041933 0.276633 -0.0298287 0.414566 0.011856 0.543094C 0.0456259 0.647066 0.143244 0.71342 0.247192 0.71342C 0.272519 0.71342 0.297845 0.70924 0.323172 0.701403C 0.604412 0.61206 0.91573 0.539437 1.24868 0.486667C 1.38376 0.464724 1.47504 0.33933 1.45341 0.2061C 1.43178 0.0728696 1.30355 -0.0190856 1.17006 0.00338064Z"/>
<path id="path14_fill" d="M 0.3854 0.0413197C 0.27301 -0.0333937 0.118936 -0.00413491 0.0424261 0.107674C -0.0346115 0.219483 -0.00348047 0.372044 0.109438 0.44728C 0.303615 0.576853 0.536311 0.780617 0.536311 1.01834C 0.536311 1.15366 0.64659 1.26286 0.783253 1.26286C 0.919916 1.26286 1.03072 1.15366 1.03072 1.01834C 1.02967 0.7686 0.918332 0.396078 0.3854 0.0413197Z"/>
<path id="path15_fill" d="M 1.17862 0.0109719C 1.02402 0.00365731 0.865721 5.5806e-08 0.706369 5.5806e-08C 0.547017 5.5806e-08 0.38872 0.00365731 0.234645 0.0109719C 0.0979827 0.0172416 -0.00702075 0.132185 0.000366413 0.266983C 0.00617062 0.398123 0.115397 0.500006 0.246783 0.500006C 0.250476 0.500006 0.254697 0.500006 0.258918 0.500006C 0.405079 0.493214 0.554932 0.489556 0.706369 0.489556C 0.857806 0.489556 1.00713 0.493214 1.15382 0.500006C 1.15857 0.500006 1.16279 0.500006 1.16596 0.500006C 1.29734 0.500006 1.40657 0.398123 1.41237 0.266983C 1.41976 0.132185 1.31423 0.0172416 1.17862 0.0109719Z"/>
<path id="path16_fill" d="M 0.207902 0.486667C 0.540852 0.539959 0.85217 0.61206 1.13341 0.701403C 1.15874 0.70924 1.18406 0.71342 1.20939 0.71342C 1.31387 0.71342 1.41095 0.647066 1.4442 0.543094C 1.48641 0.414566 1.41465 0.276634 1.28485 0.235359C 0.979861 0.138179 0.643744 0.0603307 0.286522 0.00338135C 0.153553 -0.0190849 0.0248057 0.0728693 0.00317187 0.2061C -0.018462 0.33933 0.0728225 0.464723 0.207902 0.486667Z"/>
<path id="path17_fill" d="M 0.64585 0.0417522C 0.112391 0.39651 -8.85651e-07 0.769033 -8.85651e-07 1.0193C -8.85651e-07 1.15462 0.110808 1.26381 0.24747 1.26381C 0.384133 1.26381 0.494941 1.15462 0.494941 1.0193C 0.494941 0.781572 0.726581 0.577808 0.921813 0.448235C 1.03526 0.372477 1.06481 0.220438 0.988825 0.108629C 0.912315 -0.0037027 0.758768 -0.0340062 0.64585 0.0417522Z"/>
<path id="path18_fill" d="M 1.17006 0.00339568C 0.812836 0.0603451 0.477248 0.138716 0.171736 0.235373C 0.041933 0.276648 -0.0298287 0.414581 0.011856 0.543631C 0.0456259 0.647081 0.143244 0.713434 0.247192 0.713434C 0.272519 0.713434 0.297845 0.709255 0.323172 0.701418C 0.604412 0.612598 0.91573 0.539451 1.24868 0.486681C 1.38376 0.46526 1.47504 0.339345 1.45341 0.206115C 1.4323 0.0723622 1.30355 -0.0190706 1.17006 0.00339568Z"/>
<path id="path19_fill" d="M 0.207902 0.486682C 0.540852 0.539974 0.85217 0.612597 1.13341 0.701417C 1.15874 0.709254 1.18406 0.713434 1.20939 0.713434C 1.31387 0.713434 1.41095 0.64708 1.4442 0.543631C 1.48641 0.41458 1.41465 0.276649 1.28485 0.235373C 0.979861 0.138716 0.643744 0.0608673 0.286522 0.00339547C 0.153553 -0.0190708 0.0248057 0.0723615 0.00317187 0.206114C -0.018462 0.339867 0.0728225 0.46526 0.207902 0.486682Z"/>
<path id="path20_fill" d="M 0.3854 0.0412925C 0.27301 -0.0334209 0.118936 -0.00416236 0.0424261 0.108169C -0.0346115 0.219978 -0.00348047 0.372017 0.109438 0.447775C 0.303615 0.577348 0.536311 0.781112 0.536311 1.01884C 0.536311 1.15416 0.64659 1.26335 0.783253 1.26335C 0.919916 1.26335 1.03072 1.15416 1.03072 1.01884C 1.02967 0.768573 0.918332 0.396051 0.3854 0.0412925Z"/>
<path id="path21_fill" d="M 1.17862 0.010972C 1.02402 0.00365737 0.865721 1.19584e-07 0.706369 1.19584e-07C 0.547017 1.19584e-07 0.38872 0.00365737 0.234645 0.010972C 0.0979827 0.0172416 -0.00702075 0.132185 0.000366413 0.266983C 0.00617062 0.398123 0.115397 0.500005 0.246783 0.500005C 0.250476 0.500005 0.254697 0.500005 0.258918 0.500005C 0.405079 0.493213 0.554932 0.489556 0.706369 0.489556C 0.857806 0.489556 1.00713 0.493213 1.15382 0.500005C 1.15857 0.500005 1.16279 0.500005 1.16596 0.500005C 1.29734 0.500005 1.40657 0.398123 1.41237 0.266983C 1.41976 0.132185 1.31423 0.0172416 1.17862 0.010972Z"/>
<path id="path22_fill" d="M 0.782994 -9.88563e-07C 0.646331 -9.88563e-07 0.53605 0.109197 0.53605 0.245039C 0.53605 0.482764 0.30441 0.686529 0.109706 0.81558C -0.00373996 0.891338 -0.0343431 1.04285 0.0421669 1.15518C 0.0896558 1.22624 0.167749 1.26333 0.247425 1.26333C 0.294913 1.26333 0.343457 1.25028 0.385141 1.22206C 0.919128 0.867304 1.03046 0.49478 1.03046 0.245039C 1.02994 0.109197 0.919129 -9.88563e-07 0.782994 -9.88563e-07Z"/>
<path id="path23_fill" d="M 1.13408 0.0111491C 0.854423 0.100492 0.543106 0.17259 0.207518 0.226927C 0.0724379 0.248871 -0.0188469 0.373742 0.00331459 0.508018C 0.0233655 0.628186 0.127842 0.713348 0.246565 0.713348C 0.260284 0.713348 0.274003 0.712305 0.287194 0.710215C 0.646527 0.65222 0.982115 0.57385 1.28446 0.478237C 1.41479 0.436962 1.48655 0.299031 1.44487 0.169981C 1.40318 0.0409305 1.26388 -0.0285587 1.13408 0.0111491Z"/>
<path id="path24_fill" d="M 1.15276 0.00199548C 1.0066 0.00931008 0.847251 0.0103533 0.706895 0.0124432L 0.706367 0.0124432L 0.70584 0.0124432C 0.70584 0.0124432 0.705313 0.0124432 0.704785 0.0124432C 0.562846 0.0108757 0.405604 0.00931008 0.258916 0.00199548C 0.104841 -0.0152461 0.00616866 0.10022 0.000364457 0.234495C -0.00702271 0.369815 0.0985087 0.484235 0.234116 0.490505C 0.380804 0.497297 0.529604 0.501479 0.679458 0.501479C 0.688955 0.501479 0.697397 0.497297 0.706367 0.497297C 0.71481 0.497297 0.722724 0.501479 0.732222 0.501479C 0.882076 0.501479 1.03035 0.497297 1.17756 0.490505C 1.3137 0.483713 1.4187 0.369815 1.41132 0.234495C 1.40551 0.10022 1.30315 -0.0168135 1.15276 0.00199548Z"/>
<path id="path25_fill" d="M 0.494941 0.245039C 0.494941 0.109197 0.384133 -7.01561e-07 0.24747 -7.01561e-07C 0.110808 -7.01561e-07 -8.85651e-07 0.109197 -8.85651e-07 0.245039C -8.85651e-07 0.495303 0.112391 0.867304 0.64585 1.22206C 0.688062 1.25028 0.736078 1.26334 0.783567 1.26334C 0.862715 1.26334 0.941336 1.22624 0.988824 1.15518C 1.06533 1.04233 1.03473 0.890816 0.921813 0.81558C 0.727108 0.686529 0.494941 0.482764 0.494941 0.245039Z"/>
<path id="path26_fill" d="M 1.24921 0.226641C 0.913618 0.172304 0.602302 0.100206 0.322645 0.0108637C 0.192842 -0.0283217 0.0535404 0.0416899 0.0118557 0.169695C -0.029829 0.298746 0.0419328 0.436676 0.171736 0.477952C 0.474082 0.574086 0.810197 0.651935 1.16953 0.709929C 1.18272 0.712019 1.19697 0.713062 1.21016 0.713062C 1.32888 0.713062 1.43336 0.628423 1.45341 0.507732C 1.47557 0.373457 1.38429 0.248585 1.24921 0.226641Z"/>
<path id="path27_fill" d="M 1.15276 0.00241242C 1.0066 0.00972702 0.847251 0.0107702 0.706895 0.0128601L 0.706367 0.0128601L 0.70584 0.0128601C 0.70584 0.0128601 0.705313 0.0128601 0.704785 0.0128601C 0.562846 0.0112927 0.405604 0.00972702 0.258916 0.00241242C 0.104841 -0.016919 0.00616866 0.100114 0.000364457 0.234912C -0.00702271 0.370232 0.0985087 0.484652 0.234116 0.490922C 0.380804 0.497714 0.529604 0.501896 0.679458 0.501896C 0.688955 0.501896 0.697397 0.497715 0.706367 0.497192C 0.71481 0.497715 0.723252 0.501896 0.732222 0.501896C 0.882076 0.501896 1.03035 0.497714 1.17756 0.490922C 1.3137 0.48413 1.4187 0.370232 1.41132 0.234912C 1.40551 0.099592 1.30315 -0.0184864 1.15276 0.00241242Z"/>
<path id="path28_fill" d="M 0.782994 -7.65339e-07C 0.646331 -7.65339e-07 0.53605 0.109197 0.53605 0.244517C 0.53605 0.482764 0.30441 0.686529 0.109706 0.81558C -0.00373996 0.891338 -0.0343431 1.04285 0.0421669 1.15518C 0.0896558 1.22572 0.167749 1.26334 0.247425 1.26334C 0.294913 1.26334 0.343457 1.25028 0.385141 1.22206C 0.919128 0.867304 1.03046 0.494781 1.03046 0.244517C 1.02994 0.109197 0.919129 -7.65339e-07 0.782994 -7.65339e-07Z"/>
<path id="path29_fill" d="M 1.13408 0.0109089C 0.854423 0.100252 0.543106 0.17235 0.207518 0.226687C 0.0724379 0.24863 -0.0188469 0.373503 0.00331459 0.507255C 0.0233655 0.627424 0.127842 0.713108 0.246565 0.713108C 0.260284 0.713108 0.274003 0.712064 0.287194 0.709974C 0.646527 0.65198 0.982115 0.573609 1.28446 0.477997C 1.41479 0.436722 1.48655 0.298791 1.44487 0.169741C 1.40318 0.0412127 1.26388 -0.0282765 1.13408 0.0109089Z"/>
<path id="path30_fill" d="M 1.24921 0.226687C 0.913618 0.17235 0.602302 0.100252 0.322645 0.0109089C 0.192842 -0.0282765 0.0535404 0.0412127 0.0118557 0.169741C -0.029829 0.298791 0.0419328 0.436722 0.171736 0.477997C 0.474082 0.574132 0.810197 0.65198 1.16953 0.709974C 1.18272 0.712064 1.19697 0.713108 1.21016 0.713108C 1.32888 0.713108 1.43336 0.627946 1.45341 0.507255C 1.47557 0.373503 1.38429 0.24863 1.24921 0.226687Z"/>
<path id="path31_fill" d="M 0.494941 0.244517C 0.494941 0.109197 0.384133 -7.65339e-07 0.24747 -7.65339e-07C 0.110808 -7.65339e-07 -8.85651e-07 0.109197 -8.85651e-07 0.244517C -8.85651e-07 0.494781 0.112391 0.867304 0.64585 1.22206C 0.688062 1.25028 0.736078 1.26334 0.783567 1.26334C 0.862715 1.26334 0.941336 1.22572 0.988824 1.15518C 1.06533 1.04233 1.03473 0.890816 0.921813 0.81558C 0.727108 0.686007 0.494941 0.482764 0.494941 0.244517Z"/>
</defs>
</svg>
