<svg width="47" height="47" viewBox="0 0 47 47" version="1.1" xmlns="http://www.w3.org/2000/svg" xmlns:xlink="http://www.w3.org/1999/xlink">
<title>timeline-sign-mobile</title>
<desc>Created using Figma</desc>
<g id="Canvas" transform="translate(-527 -3212)">
<g id="timeline-sign-mobile">
<use xlink:href="#path0_fill" transform="translate(527 3212)" fill="#5D2FCD"/>
<mask id="mask0_outline_ins">
<use xlink:href="#path0_fill" fill="white" transform="translate(527 3212)"/>
</mask>
<g mask="url(#mask0_outline_ins)">
<use xlink:href="#path1_stroke_2x" transform="translate(527 3212)" fill="#FDF9F3"/>
</g>
</g>
</g>
<defs>
<path id="path0_fill" d="M 46.5693 20.9928L 42.1631 16.5866C 41.5888 16.0123 40.6606 16.0123 40.0863 16.5866L 35.2497 21.4232L 35.2497 1.46875C 35.2497 0.658 34.5932 0 33.781 0L 1.46874 0C 0.657995 0 0 0.658 0 1.46875L 0 45.5312C 0 46.342 0.657995 47 1.46874 47L 33.781 47C 34.5932 47 35.2497 46.342 35.2497 45.5312L 35.2497 34.3893L 46.5693 23.0697C 47.1436 22.4954 47.1436 21.5671 46.5693 20.9928ZM 32.3122 44.0625L 2.93748 44.0625L 2.93748 2.9375L 32.3122 2.9375L 32.3122 24.3607L 20.9927 35.6803C 20.7166 35.955 20.5623 36.3295 20.5623 36.7188L 20.5623 41.125C 20.5623 41.9357 21.2189 42.5938 22.0311 42.5938L 26.4373 42.5938C 26.828 42.5938 27.201 42.4395 27.4757 42.1634L 32.3122 37.3268L 32.3122 44.0625ZM 25.8292 39.6562L 23.4998 39.6562L 23.4998 37.3268L 41.1247 19.7018L 43.4541 22.0312L 25.8292 39.6562ZM 7.34369 13.2188L 27.906 13.2188C 28.7182 13.2188 29.3748 12.5607 29.3748 11.75L 29.3748 7.34375C 29.3748 6.533 28.7182 5.875 27.906 5.875L 7.34369 5.875C 6.53295 5.875 5.87495 6.533 5.87495 7.34375L 5.87495 11.75C 5.87495 12.5607 6.53295 13.2188 7.34369 13.2188ZM 8.81243 8.8125L 26.4373 8.8125L 26.4373 10.2812L 8.81243 10.2812L 8.81243 8.8125ZM 7.34369 22.0312L 27.906 22.0312C 28.7182 22.0312 29.3748 21.3732 29.3748 20.5625L 29.3748 16.1562C 29.3748 15.3455 28.7182 14.6875 27.906 14.6875L 7.34369 14.6875C 6.53295 14.6875 5.87495 15.3455 5.87495 16.1562L 5.87495 20.5625C 5.87495 21.3732 6.53295 22.0312 7.34369 22.0312ZM 8.81243 17.625L 26.4373 17.625L 26.4373 19.0938L 8.81243 19.0938L 8.81243 17.625ZM 24.9686 29.375L 24.9686 24.9688C 24.9686 24.158 24.312 23.5 23.4998 23.5L 7.34369 23.5C 6.53295 23.5 5.87495 24.158 5.87495 24.9688L 5.87495 29.375C 5.87495 30.1857 6.53295 30.8438 7.34369 30.8438L 23.4998 30.8438C 24.312 30.8438 24.9686 30.1857 24.9686 29.375ZM 22.0311 27.9062L 8.81243 27.9062L 8.81243 26.4375L 22.0311 26.4375L 22.0311 27.9062Z"/>
<path id="path1_stroke_2x" d="M 46.5693 20.9928L 45.8622 21.6999L 46.5693 20.9928ZM 42.1631 16.5866L 42.8702 15.8795L 42.1631 16.5866ZM 40.0863 16.5866L 39.3792 15.8795L 40.0863 16.5866ZM 35.2497 21.4232L 34.2497 21.4232L 34.2497 23.8374L 35.9568 22.1303L 35.2497 21.4232ZM 35.2497 34.3893L 34.5426 33.6822L 34.2497 33.9751L 34.2497 34.3893L 35.2497 34.3893ZM 46.5693 23.0697L 45.8622 22.3626L 46.5693 23.0697ZM 32.3122 44.0625L 32.3122 45.0625L 33.3122 45.0625L 33.3122 44.0625L 32.3122 44.0625ZM 2.93748 44.0625L 1.93748 44.0625L 1.93748 45.0625L 2.93748 45.0625L 2.93748 44.0625ZM 2.93748 2.9375L 2.93748 1.9375L 1.93748 1.9375L 1.93748 2.9375L 2.93748 2.9375ZM 32.3122 2.9375L 33.3122 2.9375L 33.3122 1.9375L 32.3122 1.9375L 32.3122 2.9375ZM 32.3122 24.3607L 33.0194 25.0678L 33.3122 24.7749L 33.3122 24.3607L 32.3122 24.3607ZM 20.9927 35.6803L 21.6979 36.3893L 21.6998 36.3874L 20.9927 35.6803ZM 27.4757 42.1634L 26.7686 41.4563L 26.7667 41.4582L 27.4757 42.1634ZM 32.3122 37.3268L 33.3122 37.3268L 33.3122 34.9126L 31.6051 36.6197L 32.3122 37.3268ZM 25.8292 39.6562L 25.8292 40.6562L 26.2434 40.6562L 26.5363 40.3634L 25.8292 39.6562ZM 23.4998 39.6562L 22.4998 39.6562L 22.4998 40.6562L 23.4998 40.6562L 23.4998 39.6562ZM 23.4998 37.3268L 22.7927 36.6197L 22.4998 36.9126L 22.4998 37.3268L 23.4998 37.3268ZM 41.1247 19.7018L 41.8318 18.9947L 41.1247 18.2876L 40.4176 18.9947L 41.1247 19.7018ZM 43.4541 22.0312L 44.1612 22.7384L 44.8683 22.0312L 44.1612 21.3241L 43.4541 22.0312ZM 8.81243 8.8125L 8.81243 7.8125L 7.81243 7.8125L 7.81243 8.8125L 8.81243 8.8125ZM 26.4373 8.8125L 27.4373 8.8125L 27.4373 7.8125L 26.4373 7.8125L 26.4373 8.8125ZM 26.4373 10.2812L 26.4373 11.2812L 27.4373 11.2812L 27.4373 10.2812L 26.4373 10.2812ZM 8.81243 10.2812L 7.81243 10.2812L 7.81243 11.2812L 8.81243 11.2812L 8.81243 10.2812ZM 8.81243 17.625L 8.81243 16.625L 7.81243 16.625L 7.81243 17.625L 8.81243 17.625ZM 26.4373 17.625L 27.4373 17.625L 27.4373 16.625L 26.4373 16.625L 26.4373 17.625ZM 26.4373 19.0938L 26.4373 20.0938L 27.4373 20.0938L 27.4373 19.0938L 26.4373 19.0938ZM 8.81243 19.0938L 7.81243 19.0938L 7.81243 20.0938L 8.81243 20.0938L 8.81243 19.0938ZM 22.0311 27.9062L 22.0311 28.9062L 23.0311 28.9062L 23.0311 27.9062L 22.0311 27.9062ZM 8.81243 27.9062L 7.81243 27.9062L 7.81243 28.9062L 8.81243 28.9062L 8.81243 27.9062ZM 8.81243 26.4375L 8.81243 25.4375L 7.81243 25.4375L 7.81243 26.4375L 8.81243 26.4375ZM 22.0311 26.4375L 23.0311 26.4375L 23.0311 25.4375L 22.0311 25.4375L 22.0311 26.4375ZM 47.2764 20.2857L 42.8702 15.8795L 41.456 17.2937L 45.8622 21.6999L 47.2764 20.2857ZM 42.8702 15.8795C 41.9054 14.9147 40.344 14.9147 39.3792 15.8795L 40.7934 17.2937C 40.9771 17.1099 41.2722 17.1099 41.456 17.2937L 42.8702 15.8795ZM 39.3792 15.8795L 34.5426 20.7161L 35.9568 22.1303L 40.7934 17.2937L 39.3792 15.8795ZM 36.2497 21.4232L 36.2497 1.46875L 34.2497 1.46875L 34.2497 21.4232L 36.2497 21.4232ZM 36.2497 1.46875C 36.2497 0.106374 35.1461 -1 33.781 -1L 33.781 1C 34.0403 1 34.2497 1.20963 34.2497 1.46875L 36.2497 1.46875ZM 33.781 -1L 1.46874 -1L 1.46874 1L 33.781 1L 33.781 -1ZM 1.46874 -1C 0.105703 -1 -1 0.105723 -1 1.46875L 1 1.46875C 1 1.21028 1.21029 1 1.46874 1L 1.46874 -1ZM -1 1.46875L -1 45.5312L 1 45.5312L 1 1.46875L -1 1.46875ZM -1 45.5312C -1 46.8943 0.105703 48 1.46874 48L 1.46874 46C 1.21029 46 1 45.7897 1 45.5312L -1 45.5312ZM 1.46874 48L 33.781 48L 33.781 46L 1.46874 46L 1.46874 48ZM 33.781 48C 35.1461 48 36.2497 46.8936 36.2497 45.5312L 34.2497 45.5312C 34.2497 45.7904 34.0403 46 33.781 46L 33.781 48ZM 36.2497 45.5312L 36.2497 34.3893L 34.2497 34.3893L 34.2497 45.5312L 36.2497 45.5312ZM 35.9568 35.0964L 47.2764 23.7768L 45.8622 22.3626L 34.5426 33.6822L 35.9568 35.0964ZM 47.2764 23.7768C 48.2412 22.812 48.2412 21.2505 47.2764 20.2857L 45.8622 21.6999C 46.0459 21.8837 46.0459 22.1788 45.8622 22.3626L 47.2764 23.7768ZM 32.3122 43.0625L 2.93748 43.0625L 2.93748 45.0625L 32.3122 45.0625L 32.3122 43.0625ZM 3.93748 44.0625L 3.93748 2.9375L 1.93748 2.9375L 1.93748 44.0625L 3.93748 44.0625ZM 2.93748 3.9375L 32.3122 3.9375L 32.3122 1.9375L 2.93748 1.9375L 2.93748 3.9375ZM 31.3122 2.9375L 31.3122 24.3607L 33.3122 24.3607L 33.3122 2.9375L 31.3122 2.9375ZM 31.6051 23.6536L 20.2856 34.9732L 21.6998 36.3874L 33.0194 25.0678L 31.6051 23.6536ZM 20.2875 34.9714C 19.8208 35.4355 19.5623 36.0659 19.5623 36.7188L 21.5623 36.7188C 21.5623 36.5931 21.6123 36.4745 21.6979 36.3893L 20.2875 34.9714ZM 19.5623 36.7188L 19.5623 41.125L 21.5623 41.125L 21.5623 36.7188L 19.5623 36.7188ZM 19.5623 41.125C 19.5623 42.4874 20.6659 43.5938 22.0311 43.5938L 22.0311 41.5938C 21.7718 41.5938 21.5623 41.3841 21.5623 41.125L 19.5623 41.125ZM 22.0311 43.5938L 26.4373 43.5938L 26.4373 41.5938L 22.0311 41.5938L 22.0311 43.5938ZM 26.4373 43.5938C 27.0921 43.5938 27.7209 43.3349 28.1847 42.8686L 26.7667 41.4582C 26.6811 41.5442 26.5638 41.5938 26.4373 41.5938L 26.4373 43.5938ZM 28.1828 42.8705L 33.0194 38.0339L 31.6051 36.6197L 26.7686 41.4563L 28.1828 42.8705ZM 31.3122 37.3268L 31.3122 44.0625L 33.3122 44.0625L 33.3122 37.3268L 31.3122 37.3268ZM 25.8292 38.6562L 23.4998 38.6562L 23.4998 40.6562L 25.8292 40.6562L 25.8292 38.6562ZM 24.4998 39.6562L 24.4998 37.3268L 22.4998 37.3268L 22.4998 39.6562L 24.4998 39.6562ZM 24.2069 38.0339L 41.8318 20.4089L 40.4176 18.9947L 22.7927 36.6197L 24.2069 38.0339ZM 40.4176 20.4089L 42.747 22.7384L 44.1612 21.3241L 41.8318 18.9947L 40.4176 20.4089ZM 42.747 21.3241L 25.1221 38.9491L 26.5363 40.3634L 44.1612 22.7384L 42.747 21.3241ZM 7.34369 14.2188L 27.906 14.2188L 27.906 12.2188L 7.34369 12.2188L 7.34369 14.2188ZM 27.906 14.2188C 29.2712 14.2188 30.3748 13.1124 30.3748 11.75L 28.3748 11.75C 28.3748 12.0091 28.1653 12.2188 27.906 12.2188L 27.906 14.2188ZM 30.3748 11.75L 30.3748 7.34375L 28.3748 7.34375L 28.3748 11.75L 30.3748 11.75ZM 30.3748 7.34375C 30.3748 5.98137 29.2712 4.875 27.906 4.875L 27.906 6.875C 28.1653 6.875 28.3748 7.08463 28.3748 7.34375L 30.3748 7.34375ZM 27.906 4.875L 7.34369 4.875L 7.34369 6.875L 27.906 6.875L 27.906 4.875ZM 7.34369 4.875C 5.98066 4.875 4.87495 5.98072 4.87495 7.34375L 6.87495 7.34375C 6.87495 7.08528 7.08524 6.875 7.34369 6.875L 7.34369 4.875ZM 4.87495 7.34375L 4.87495 11.75L 6.87495 11.75L 6.87495 7.34375L 4.87495 7.34375ZM 4.87495 11.75C 4.87495 13.113 5.98066 14.2188 7.34369 14.2188L 7.34369 12.2188C 7.08524 12.2188 6.87495 12.0085 6.87495 11.75L 4.87495 11.75ZM 8.81243 9.8125L 26.4373 9.8125L 26.4373 7.8125L 8.81243 7.8125L 8.81243 9.8125ZM 25.4373 8.8125L 25.4373 10.2812L 27.4373 10.2812L 27.4373 8.8125L 25.4373 8.8125ZM 26.4373 9.28125L 8.81243 9.28125L 8.81243 11.2812L 26.4373 11.2812L 26.4373 9.28125ZM 9.81243 10.2812L 9.81243 8.8125L 7.81243 8.8125L 7.81243 10.2812L 9.81243 10.2812ZM 7.34369 23.0312L 27.906 23.0312L 27.906 21.0312L 7.34369 21.0312L 7.34369 23.0312ZM 27.906 23.0312C 29.2712 23.0312 30.3748 21.9249 30.3748 20.5625L 28.3748 20.5625C 28.3748 20.8216 28.1653 21.0312 27.906 21.0312L 27.906 23.0312ZM 30.3748 20.5625L 30.3748 16.1562L 28.3748 16.1562L 28.3748 20.5625L 30.3748 20.5625ZM 30.3748 16.1562C 30.3748 14.7939 29.2712 13.6875 27.906 13.6875L 27.906 15.6875C 28.1653 15.6875 28.3748 15.8971 28.3748 16.1562L 30.3748 16.1562ZM 27.906 13.6875L 7.34369 13.6875L 7.34369 15.6875L 27.906 15.6875L 27.906 13.6875ZM 7.34369 13.6875C 5.98066 13.6875 4.87495 14.7932 4.87495 16.1562L 6.87495 16.1562C 6.87495 15.8978 7.08524 15.6875 7.34369 15.6875L 7.34369 13.6875ZM 4.87495 16.1562L 4.87495 20.5625L 6.87495 20.5625L 6.87495 16.1562L 4.87495 16.1562ZM 4.87495 20.5625C 4.87495 21.9255 5.98066 23.0312 7.34369 23.0312L 7.34369 21.0312C 7.08524 21.0312 6.87495 20.821 6.87495 20.5625L 4.87495 20.5625ZM 8.81243 18.625L 26.4373 18.625L 26.4373 16.625L 8.81243 16.625L 8.81243 18.625ZM 25.4373 17.625L 25.4373 19.0938L 27.4373 19.0938L 27.4373 17.625L 25.4373 17.625ZM 26.4373 18.0938L 8.81243 18.0938L 8.81243 20.0938L 26.4373 20.0938L 26.4373 18.0938ZM 9.81243 19.0938L 9.81243 17.625L 7.81243 17.625L 7.81243 19.0938L 9.81243 19.0938ZM 25.9686 29.375L 25.9686 24.9688L 23.9686 24.9688L 23.9686 29.375L 25.9686 29.375ZM 25.9686 24.9688C 25.9686 23.6064 24.865 22.5 23.4998 22.5L 23.4998 24.5C 23.7591 24.5 23.9686 24.7096 23.9686 24.9688L 25.9686 24.9688ZM 23.4998 22.5L 7.34369 22.5L 7.34369 24.5L 23.4998 24.5L 23.4998 22.5ZM 7.34369 22.5C 5.98066 22.5 4.87495 23.6057 4.87495 24.9688L 6.87495 24.9688C 6.87495 24.7103 7.08524 24.5 7.34369 24.5L 7.34369 22.5ZM 4.87495 24.9688L 4.87495 29.375L 6.87495 29.375L 6.87495 24.9688L 4.87495 24.9688ZM 4.87495 29.375C 4.87495 30.738 5.98066 31.8438 7.34369 31.8438L 7.34369 29.8438C 7.08524 29.8438 6.87495 29.6335 6.87495 29.375L 4.87495 29.375ZM 7.34369 31.8438L 23.4998 31.8438L 23.4998 29.8438L 7.34369 29.8438L 7.34369 31.8438ZM 23.4998 31.8438C 24.865 31.8438 25.9686 30.7374 25.9686 29.375L 23.9686 29.375C 23.9686 29.6341 23.7591 29.8438 23.4998 29.8438L 23.4998 31.8438ZM 22.0311 26.9062L 8.81243 26.9062L 8.81243 28.9062L 22.0311 28.9062L 22.0311 26.9062ZM 9.81243 27.9062L 9.81243 26.4375L 7.81243 26.4375L 7.81243 27.9062L 9.81243 27.9062ZM 8.81243 27.4375L 22.0311 27.4375L 22.0311 25.4375L 8.81243 25.4375L 8.81243 27.4375ZM 21.0311 26.4375L 21.0311 27.9062L 23.0311 27.9062L 23.0311 26.4375L 21.0311 26.4375Z"/>
</defs>
</svg>
