<svg width="57" height="59" viewBox="0 0 57 59" version="1.1" xmlns="http://www.w3.org/2000/svg" xmlns:xlink="http://www.w3.org/1999/xlink">
<title>timeline-feedback-mobile</title>
<desc>Created using Figma</desc>
<g id="Canvas" transform="translate(-524 -3691)">
<g id="timeline-feedback-mobile">
<g id="Vector">
<use xlink:href="#path0_fill" transform="translate(524 3691)" fill="#5D2FCD"/>
<mask id="mask0_outline_ins">
<use xlink:href="#path0_fill" fill="white" transform="translate(524 3691)"/>
</mask>
<g mask="url(#mask0_outline_ins)">
<use xlink:href="#path1_stroke_2x" transform="translate(524 3691)" fill="#FDF9F3"/>
</g>
</g>
<g id="Vector">
<use xlink:href="#path2_fill" transform="translate(556.494 3700.35)" fill="#5D2FCD"/>
<mask id="mask1_outline_ins">
<use xlink:href="#path2_fill" fill="white" transform="translate(556.494 3700.35)"/>
</mask>
<g mask="url(#mask1_outline_ins)">
<use xlink:href="#path3_stroke_2x" transform="translate(556.494 3700.35)" fill="#FDF9F3"/>
</g>
</g>
</g>
</g>
<defs>
<path id="path0_fill" d="M 48.6875 2.19902e-11L 29.8419 2.19902e-11C 27.6373 2.19923e-11 25.5229 0.879033 23.964 2.44372C 22.4051 4.00841 21.5294 6.13059 21.5294 8.34339L 21.5294 15.7213C 21.0025 15.8132 20.5114 16.0501 20.1109 16.4058C 19.7104 16.7615 19.4162 17.2219 19.2612 17.7357C 19.2401 17.8059 19.2243 17.8776 19.2137 17.9502L 18.8337 20.7095C 18.7215 21.5171 18.4873 22.3029 18.1391 23.0397L 14.4162 30.9003C 14.1708 31.4774 13.7987 31.9914 13.3279 32.4041C 12.8571 32.8168 12.2996 33.1177 11.6969 33.2842C 11.6586 32.5501 11.3385 31.8595 10.8038 31.3573C 10.2691 30.855 9.56131 30.5802 8.82906 30.5904L 2.89156 30.5904C 2.51863 30.5825 2.14782 30.6487 1.80042 30.785C 1.45302 30.9213 1.13587 31.1252 0.867196 31.3849C 0.598517 31.6446 0.383597 31.9551 0.234778 32.2984C 0.0859596 32.6417 0.00617293 33.0111 7.91034e-16 33.3855L 7.91034e-16 56.2046C 0.0125045 56.9565 0.321306 57.6728 0.858798 58.1966C 1.39629 58.7205 2.11868 59.0092 2.86781 58.9997L 8.80531 58.9997C 9.55546 59.0108 10.2794 58.7228 10.8182 58.1988C 11.3569 57.6748 11.6666 56.9576 11.6791 56.2046L 11.6791 55.853L 12.92 56.598C 14.4545 57.525 16.2115 58.0153 18.0025 58.0164L 27.9181 58.0164C 29.348 58.0225 30.7429 57.5728 31.9018 56.732C 33.0606 55.8912 33.9236 54.7028 34.3662 53.3381L 38.6947 40.1377C 39.0055 39.1848 39.1022 38.1746 38.9778 37.1797C 38.8533 36.1848 38.5108 35.23 37.9749 34.3838C 37.439 33.5376 36.723 32.8211 35.8783 32.2858C 35.0336 31.7504 34.0812 31.4096 33.0897 31.2877C 30.2397 30.9361 27.6391 30.7216 25.8756 30.6918C 25.8148 29.6893 25.913 28.6835 26.1666 27.712C 27.3076 28.2782 28.563 28.5739 29.8359 28.5761L 37.6556 28.5761C 39.134 32.1518 42.0197 34.2198 44.2759 35.376C 44.7399 35.6108 45.2631 35.701 45.7785 35.6352C 46.294 35.5693 46.778 35.3504 47.1686 35.0064C 47.5591 34.6624 47.8383 34.2092 47.9704 33.7048C 48.1024 33.2004 48.0813 32.6679 47.9097 32.1757C 47.5277 31.0246 47.4279 29.798 47.6187 28.5999L 48.6875 28.5999C 50.8921 28.5999 53.0064 27.7209 54.5653 26.1562C 56.1242 24.5915 57 22.4694 57 20.2566L 57 8.36127C 57.0023 7.2641 56.789 6.17723 56.3724 5.1629C 55.9557 4.14857 55.3437 3.22669 54.5716 2.45004C 53.7995 1.67339 52.8823 1.05722 51.8727 0.636809C 50.863 0.216397 49.7806 -2.51901e-06 48.6875 2.19902e-11L 48.6875 2.19902e-11ZM 8.74593 56.0199L 2.96875 56.0199L 2.96875 33.5762L 8.74593 33.5762L 8.74593 56.0199ZM 32.7275 34.2675C 33.2841 34.3362 33.8186 34.5278 34.2925 34.8287C 34.7665 35.1296 35.1681 35.5321 35.4685 36.0074C 35.7688 36.4827 35.9605 37.019 36.0296 37.5775C 36.0988 38.1361 36.0437 38.7031 35.8684 39.2378L 31.5459 52.4203C 31.2968 53.1821 30.814 53.8454 30.1667 54.3153C 29.5194 54.7852 28.7407 55.0376 27.9419 55.0366L 18.0262 55.0366C 16.7712 55.0382 15.5395 54.6961 14.4637 54.0473L 11.6969 52.3786L 11.6969 36.3355L 11.8156 36.3355C 12.9737 36.1331 14.0639 35.6462 14.989 34.9184C 15.9141 34.1905 16.6454 33.2442 17.1178 32.1638L 20.7812 24.321C 21.2584 23.309 21.5788 22.2298 21.7312 21.1207L 22.0697 18.6832C 22.4583 18.7578 22.8281 18.9095 23.1575 19.1295C 23.4868 19.3496 23.769 19.6335 23.9875 19.9645C 24.6287 21.0015 24.6169 22.5987 23.9875 24.5832C 22.99 27.6047 22.6812 30.0004 23.0672 31.7049C 23.1931 32.2655 23.506 32.7661 23.9541 33.1238C 24.4023 33.4815 24.9587 33.6747 25.5312 33.6715L 25.5312 33.6715C 27.939 33.7385 30.3413 33.9375 32.7275 34.2675L 32.7275 34.2675ZM 54.0312 20.2208C 54.0312 21.6433 53.4682 23.0076 52.4661 24.0134C 51.4639 25.0193 50.1047 25.5844 48.6875 25.5844L 46.4194 25.5844C 46.0949 25.5842 45.7793 25.6908 45.5208 25.8877C 45.2624 26.0847 45.0754 26.3612 44.9884 26.675C 44.4632 28.5012 44.4141 30.4322 44.8459 32.283C 42.6157 31.0606 40.9215 29.0454 40.0959 26.6333C 40.001 26.3303 39.8121 26.0658 39.5569 25.8782C 39.3016 25.6905 38.9933 25.5897 38.6769 25.5904L 29.8419 25.5904C 28.8356 25.5905 27.8498 25.3054 26.9978 24.7679C 27.6984 22.2232 27.5381 20.0778 26.5109 18.4091C 26.0068 17.5979 25.3088 16.926 24.4803 16.4544L 24.4803 8.36127C 24.4803 6.93875 25.0433 5.5745 26.0455 4.56862C 27.0476 3.56275 28.4068 2.99766 29.8241 2.99766L 48.6875 2.99766C 50.1047 2.99766 51.4639 3.56275 52.4661 4.56862C 53.4682 5.5745 54.0312 6.93875 54.0312 8.36127L 54.0312 20.2208Z"/>
<path id="path1_stroke_2x" d="M 29.8419 2.19902e-11L 29.8419 -1L 29.8419 2.19902e-11ZM 21.5294 15.7213L 21.7011 16.7065L 22.5294 16.5621L 22.5294 15.7213L 21.5294 15.7213ZM 19.2612 17.7357L 18.3039 17.4469L 18.3035 17.448L 19.2612 17.7357ZM 19.2137 17.9502L 18.2241 17.8067L 18.2231 17.8138L 19.2137 17.9502ZM 18.8337 20.7095L 19.8242 20.8471L 19.8244 20.8459L 18.8337 20.7095ZM 18.1391 23.0397L 19.0428 23.4677L 19.0432 23.467L 18.1391 23.0397ZM 14.4162 30.9003L 13.5125 30.4723L 13.5039 30.4904L 13.4961 30.5089L 14.4162 30.9003ZM 13.3279 32.4041L 12.6687 31.6521L 13.3279 32.4041ZM 11.6969 33.2842L 10.6982 33.3363L 10.7631 34.5796L 11.9632 34.2481L 11.6969 33.2842ZM 8.82906 30.5904L 8.82906 31.5905L 8.84306 31.5903L 8.82906 30.5904ZM 2.89156 30.5904L 2.87038 31.5902L 2.88097 31.5904L 2.89156 31.5904L 2.89156 30.5904ZM 0.234778 32.2984L 1.15228 32.6961L 0.234778 32.2984ZM 7.91034e-16 33.3855L -0.999864 33.369L -1 33.3772L -1 33.3855L 7.91034e-16 33.3855ZM 7.91034e-16 56.2046L -1 56.2046L -1 56.213L -0.999862 56.2213L 7.91034e-16 56.2046ZM 2.86781 58.9997L 2.86781 57.9996L 2.85505 57.9998L 2.86781 58.9997ZM 8.80531 58.9997L 8.82018 57.9998L 8.81274 57.9997L 8.80531 57.9997L 8.80531 58.9997ZM 11.6791 56.2046L 12.6789 56.2212L 12.6791 56.2129L 12.6791 56.2046L 11.6791 56.2046ZM 11.6791 55.853L 12.1937 54.9957L 10.6791 54.0864L 10.6791 55.853L 11.6791 55.853ZM 12.92 56.598L 13.4371 55.742L 13.4347 55.7406L 12.92 56.598ZM 18.0025 58.0164L 18.0019 59.0164L 18.0025 59.0164L 18.0025 58.0164ZM 27.9181 58.0164L 27.9224 57.0164L 27.9181 57.0164L 27.9181 58.0164ZM 34.3662 53.3381L 33.416 53.0265L 33.415 53.0296L 34.3662 53.3381ZM 38.6947 40.1377L 39.6449 40.4492L 39.6454 40.4478L 38.6947 40.1377ZM 35.8783 32.2858L 36.4136 31.4411L 35.8783 32.2858ZM 33.0897 31.2877L 32.9672 32.2802L 32.9677 32.2802L 33.0897 31.2877ZM 25.8756 30.6918L 24.8775 30.7524L 24.9335 31.676L 25.8587 31.6916L 25.8756 30.6918ZM 26.1666 27.712L 26.6111 26.8162L 25.5095 26.2696L 25.199 27.4594L 26.1666 27.712ZM 29.8359 28.5761L 29.8342 29.5761L 29.8359 29.5761L 29.8359 28.5761ZM 37.6556 28.5761L 38.5797 28.194L 38.3243 27.5761L 37.6556 27.5761L 37.6556 28.5761ZM 44.2759 35.376L 43.8199 36.2659L 43.8244 36.2682L 44.2759 35.376ZM 47.9097 32.1757L 46.9606 32.4907L 46.9629 32.4978L 46.9654 32.5049L 47.9097 32.1757ZM 47.6187 28.5999L 47.6187 27.5999L 46.7654 27.5999L 46.6312 28.4426L 47.6187 28.5999ZM 57 20.2566L 56 20.2566L 57 20.2566ZM 57 8.36127L 56 8.35913L 56 8.36127L 57 8.36127ZM 8.74593 56.0199L 8.74593 57.0199L 9.74593 57.0199L 9.74593 56.0199L 8.74593 56.0199ZM 2.96875 56.0199L 1.96875 56.0199L 1.96875 57.0199L 2.96875 57.0199L 2.96875 56.0199ZM 2.96875 33.5762L 2.96875 32.5762L 1.96875 32.5762L 1.96875 33.5762L 2.96875 33.5762ZM 8.74593 33.5762L 9.74593 33.5762L 9.74593 32.5762L 8.74593 32.5762L 8.74593 33.5762ZM 35.8684 39.2378L 34.9182 38.9262L 34.9182 38.9262L 35.8684 39.2378ZM 31.5459 52.4203L 30.5957 52.1088L 30.5955 52.1095L 31.5459 52.4203ZM 27.9419 55.0366L 27.9432 54.0366L 27.9419 54.0366L 27.9419 55.0366ZM 18.0262 55.0366L 18.0262 54.0366L 18.025 54.0366L 18.0262 55.0366ZM 14.4637 54.0473L 14.9802 53.191L 14.9802 53.191L 14.4637 54.0473ZM 11.6969 52.3786L 10.6969 52.3786L 10.6969 52.9433L 11.1804 53.2349L 11.6969 52.3786ZM 11.6969 36.3355L 11.6969 35.3355L 10.6969 35.3355L 10.6969 36.3355L 11.6969 36.3355ZM 11.8156 36.3355L 11.8156 37.3355L 11.9023 37.3355L 11.9878 37.3205L 11.8156 36.3355ZM 17.1178 32.1638L 16.2118 31.7406L 16.2065 31.7518L 16.2016 31.7632L 17.1178 32.1638ZM 20.7812 24.321L 19.8767 23.8945L 19.8752 23.8978L 20.7812 24.321ZM 21.7312 21.1207L 20.7407 20.9832L 20.7406 20.9845L 21.7312 21.1207ZM 22.0697 18.6832L 22.258 17.7011L 21.224 17.5028L 21.0792 18.5457L 22.0697 18.6832ZM 23.9875 19.9645L 24.838 19.4386L 24.8303 19.426L 24.8221 19.4137L 23.9875 19.9645ZM 23.9875 24.5832L 24.9371 24.8967L 24.9407 24.8855L 23.9875 24.5832ZM 23.0672 31.7049L 24.0429 31.4858L 24.0425 31.484L 23.0672 31.7049ZM 54.0312 20.2208L 55.0312 20.2208L 54.0312 20.2208ZM 46.4194 25.5844L 46.4188 26.5844L 46.4194 26.5844L 46.4194 25.5844ZM 44.9884 26.675L 45.9495 26.9514L 45.9521 26.9421L 44.9884 26.675ZM 44.8459 32.283L 44.3653 33.1599L 46.3284 34.2359L 45.8198 32.0557L 44.8459 32.283ZM 40.0959 26.6333L 39.1417 26.9323L 39.1456 26.9447L 39.1498 26.9571L 40.0959 26.6333ZM 38.6769 25.5904L 38.6769 26.5904L 38.6789 26.5904L 38.6769 25.5904ZM 29.8419 25.5904L 29.8419 24.5904L 29.8418 24.5904L 29.8419 25.5904ZM 26.9978 24.7679L 26.0337 24.5025L 25.8367 25.2179L 26.4643 25.6137L 26.9978 24.7679ZM 26.5109 18.4091L 27.3625 17.8849L 27.3603 17.8813L 26.5109 18.4091ZM 24.4803 16.4544L 23.4803 16.4544L 23.4803 17.0358L 23.9856 17.3234L 24.4803 16.4544ZM 29.8241 2.99766L 29.8241 1.99766L 29.8241 2.99766ZM 48.6875 2.99766L 48.6875 1.99766L 48.6875 2.99766ZM 48.6875 -1L 29.8419 -1L 29.8419 1L 48.6875 1L 48.6875 -1ZM 29.8419 -1C 27.3708 -1 25.0018 -0.0147053 23.2556 1.73793L 24.6725 3.14952C 26.0441 1.77277 27.9037 1 29.8419 1L 29.8419 -1ZM 23.2556 1.73793C 21.5096 3.49044 20.5294 5.86656 20.5294 8.34339L 22.5294 8.34339C 22.5294 6.39461 23.3007 4.52639 24.6725 3.14952L 23.2556 1.73793ZM 20.5294 8.34339L 20.5294 15.7213L 22.5294 15.7213L 22.5294 8.34339L 20.5294 8.34339ZM 21.3577 14.7362C 20.6964 14.8612 19.9568 15.218 19.4468 15.6581L 20.7749 17.1535C 21.066 16.8823 21.3086 16.7652 21.7011 16.7065L 21.3577 14.7362ZM 19.4468 15.6581C 18.9498 16.1123 18.5076 16.8044 18.3039 17.4469L 20.2186 18.0245C 20.3249 17.6395 20.471 17.4108 20.7749 17.1535L 19.4468 15.6581ZM 18.3035 17.448C 18.2724 17.5538 18.2406 17.6977 18.2241 17.8067L 20.2034 18.0937C 20.2079 18.0576 20.2079 18.058 20.219 18.0233L 18.3035 17.448ZM 18.2231 17.8138L 17.8431 20.5731L 19.8244 20.8459L 20.2044 18.0866L 18.2231 17.8138ZM 17.8433 20.5719C 17.7443 21.3049 17.5534 21.9454 17.235 22.6124L 19.0432 23.467C 19.4212 22.6604 19.6987 21.7294 19.8242 20.8471L 17.8433 20.5719ZM 17.2353 22.6117L 13.5125 30.4723L 15.32 31.3284L 19.0428 23.4677L 17.2353 22.6117ZM 13.4961 30.5089C 13.3001 30.9854 13.0594 31.318 12.6687 31.6521L 13.9871 33.1561C 14.538 32.6648 15.0414 31.9693 15.3364 31.2918L 13.4961 30.5089ZM 12.6687 31.6521C 12.2865 31.9956 11.9266 32.1898 11.4306 32.3203L 11.9632 34.2481C 12.6725 34.0455 13.4277 33.6381 13.9871 33.1561L 12.6687 31.6521ZM 12.6955 33.232C 12.6438 32.2409 12.2116 31.3077 11.4884 30.6284L 10.1191 32.0862C 10.4654 32.4114 10.6733 32.8593 10.6982 33.3363L 12.6955 33.232ZM 11.4884 30.6284C 10.7651 29.949 9.80702 29.5767 8.81506 29.5905L 8.84306 31.5903C 9.3156 31.5837 9.773 31.761 10.1191 32.0862L 11.4884 30.6284ZM 8.82906 29.5904L 2.89156 29.5904L 2.89156 31.5904L 8.82906 31.5904L 8.82906 29.5904ZM 2.91274 29.5907C 2.44107 29.5856 1.87606 29.6863 1.43508 29.8541L 2.16576 31.7159C 2.41958 31.611 2.59619 31.5795 2.87038 31.5902L 2.91274 29.5907ZM 1.43508 29.8541C 0.997759 30.031 0.514982 30.3413 0.172191 30.6659L 1.5622 32.1039C 1.75677 31.9091 1.90828 31.8117 2.16576 31.7159L 1.43508 29.8541ZM 0.172191 30.6659C -0.163762 30.9974 -0.490462 31.4693 -0.682728 31.9007L 1.15228 32.6961C 1.25766 32.4409 1.3608 32.2919 1.5622 32.1039L 0.172191 30.6659ZM -0.682728 31.9007C -0.866109 32.3358 -0.987268 32.8968 -0.999864 33.369L 0.999864 33.402C 0.999614 33.1255 1.03803 32.9476 1.15228 32.6961L -0.682728 31.9007ZM -1 33.3855L -1 56.2046L 1 56.2046L 1 33.3855L -1 33.3855ZM -0.999862 56.2213C -0.982978 57.2365 -0.566055 58.2043 0.160836 58.9128L 1.55676 57.4805C 1.20867 57.1413 1.00799 56.6766 0.999862 56.188L -0.999862 56.2213ZM 0.160836 58.9128C 0.887853 59.6213 1.86574 60.0126 2.88058 59.9996L 2.85505 57.9998C 2.37162 58.0059 1.90473 57.8196 1.55676 57.4805L 0.160836 58.9128ZM 2.86781 59.9997L 8.80531 59.9997L 8.80531 57.9997L 2.86781 57.9997L 2.86781 59.9997ZM 8.79044 59.9996C 9.80666 60.0147 10.7866 59.6244 11.5154 58.9156L 10.1209 57.4819C 9.77214 57.8212 9.30427 58.007 8.82018 57.9998L 8.79044 59.9996ZM 11.5154 58.9156C 12.244 58.207 12.662 57.2378 12.6789 56.2212L 10.6792 56.188C 10.6711 56.6773 10.4699 57.1426 10.1209 57.4819L 11.5154 58.9156ZM 12.6791 56.2046L 12.6791 55.853L 10.6791 55.853L 10.6791 56.2046L 12.6791 56.2046ZM 11.1644 56.7104L 12.4053 57.4554L 13.4347 55.7406L 12.1937 54.9957L 11.1644 56.7104ZM 12.4029 57.4539C 14.058 58.443 16.0755 59.006 18.0019 59.0164L 18.0031 57.0164C 16.3474 57.0245 14.8511 56.6069 13.4371 55.742L 12.4029 57.4539ZM 18.0025 59.0164L 27.9181 59.0164L 27.9181 57.0164L 18.0025 57.0164L 18.0025 59.0164ZM 27.9138 59.0163C 29.5012 59.0107 31.1956 58.4644 32.489 57.5414L 31.3145 55.9226C 30.2902 56.6811 29.1948 57.0343 27.9224 57.0164L 27.9138 59.0163ZM 32.489 57.5414C 33.7676 56.5985 34.8148 55.1565 35.3175 53.6466L 33.415 53.0296C 33.0324 54.2492 32.3537 55.1839 31.3145 55.9226L 32.489 57.5414ZM 35.3165 53.6497L 39.6449 40.4492L 37.7445 39.8261L 33.416 53.0265L 35.3165 53.6497ZM 39.6454 40.4478C 39.9845 39.3887 40.1021 38.1601 39.97 37.0556L 37.9855 37.3038C 38.1023 38.1891 38.0266 38.9808 37.744 39.8275L 39.6454 40.4478ZM 39.97 37.0556C 39.826 35.9525 39.4093 34.791 38.8197 33.8487L 37.1301 34.9188C 37.6123 35.669 37.8807 36.4171 37.9855 37.3038L 39.97 37.0556ZM 38.8197 33.8487C 38.2198 32.9128 37.3481 32.0406 36.4136 31.4411L 35.343 33.1304C 36.0978 33.6016 36.6582 34.1624 37.1301 34.9188L 38.8197 33.8487ZM 36.4136 31.4411C 35.4724 30.8519 34.3121 30.4366 33.2117 30.2952L 32.9677 32.2802C 33.8503 32.3826 34.5948 32.649 35.343 33.1304L 36.4136 31.4411ZM 33.2121 30.2952C 30.342 29.9413 27.6886 29.7228 25.8925 29.6919L 25.8587 31.6916C 27.5895 31.7203 30.1373 31.9308 32.9672 32.2802L 33.2121 30.2952ZM 26.8738 30.6312C 26.8146 29.7076 26.8975 28.8589 27.1341 27.9645L 25.199 27.4594C 24.9285 28.5081 24.8149 29.671 24.8775 30.7524L 26.8738 30.6312ZM 25.722 28.6077C 26.9685 29.219 28.4468 29.5671 29.8342 29.5761L 29.8377 27.5761C 28.6793 27.5806 27.6467 27.3375 26.6111 26.8162L 25.722 28.6077ZM 29.8359 29.5761L 37.6556 29.5761L 37.6556 27.5761L 29.8359 27.5761L 29.8359 29.5761ZM 36.7315 28.9582C 38.3506 32.7732 41.499 35.0736 43.8199 36.2659L 44.732 34.486C 42.5404 33.3661 39.9175 31.5305 38.5797 28.194L 36.7315 28.9582ZM 43.8244 36.2682C 44.4256 36.5601 45.2413 36.7008 45.9053 36.6271L 45.6518 34.6432C 45.285 34.7013 45.0541 34.6614 44.7275 34.4837L 43.8244 36.2682ZM 45.9053 36.6271C 46.5664 36.5315 47.3205 36.1904 47.8295 35.7568L 46.5076 34.2559C 46.2355 34.5103 46.0215 34.6071 45.6518 34.6432L 45.9053 36.6271ZM 47.8295 35.7568C 48.3237 35.307 48.7578 34.6024 48.9378 33.9581L 47.003 33.4515C 46.9189 33.816 46.7945 34.0179 46.5076 34.2559L 47.8295 35.7568ZM 48.9378 33.9581C 49.0966 33.3084 49.0638 32.4814 48.8539 31.8465L 46.9654 32.5049C 47.0988 32.8544 47.1083 33.0924 47.003 33.4515L 48.9378 33.9581ZM 48.8588 31.8607C 48.5076 30.8251 48.4271 29.8364 48.6063 28.7573L 46.6312 28.4426C 46.4286 29.7596 46.5478 31.2241 46.9606 32.4907L 48.8588 31.8607ZM 47.6187 29.5999L 48.6875 29.5999L 48.6875 27.5999L 47.6187 27.5999L 47.6187 29.5999ZM 48.6875 29.5999C 51.1585 29.5999 53.5276 28.6147 55.2737 26.862L 53.8569 25.4504C 52.4852 26.8272 50.6257 27.5999 48.6875 27.5999L 48.6875 29.5999ZM 55.2737 26.862C 57.0197 25.1095 58 22.7334 58 20.2566L 56 20.2566C 56 22.2053 55.2287 24.0736 53.8569 25.4504L 55.2737 26.862ZM 58 20.2566L 58 8.36127L 56 8.36127L 56 20.2566L 58 20.2566ZM 58 8.3634C 57.9977 7.16842 57.7468 5.88958 57.2973 4.78291L 55.4474 5.54289C 55.8313 6.46489 56.0069 7.35977 56 8.35913L 58 8.3634ZM 57.2973 4.78291C 56.839 3.6798 56.1186 2.59461 55.2808 1.745L 53.8624 3.15508C 54.5688 3.85877 55.0723 4.61734 55.4474 5.54289L 57.2973 4.78291ZM 55.2808 1.745C 54.436 0.902109 53.3557 0.176331 52.2571 -0.286362L 51.4883 1.55998C 52.409 1.93811 53.163 2.44467 53.8624 3.15508L 55.2808 1.745ZM 52.2571 -0.286362C 51.1546 -0.740133 49.8791 -0.995139 48.6875 -1L 48.6875 1C 49.6821 0.995134 50.5713 1.17293 51.4883 1.55998L 52.2571 -0.286362ZM 8.74593 55.0199L 2.96875 55.0199L 2.96875 57.0199L 8.74593 57.0199L 8.74593 55.0199ZM 3.96875 56.0199L 3.96875 33.5762L 1.96875 33.5762L 1.96875 56.0199L 3.96875 56.0199ZM 2.96875 34.5762L 8.74593 34.5762L 8.74593 32.5762L 2.96875 32.5762L 2.96875 34.5762ZM 7.74593 33.5762L 7.74593 56.0199L 9.74593 56.0199L 9.74593 33.5762L 7.74593 33.5762ZM 32.605 35.26C 33.0527 35.309 33.3792 35.4261 33.7566 35.673L 34.8285 33.9844C 34.258 33.6296 33.5155 33.3633 32.85 33.275L 32.605 35.26ZM 33.7566 35.673C 34.1407 35.9096 34.3867 36.1562 34.6231 36.5416L 36.3138 35.4732C 35.9495 34.9081 35.3922 34.3495 34.8285 33.9844L 33.7566 35.673ZM 34.6231 36.5416C 34.8699 36.9208 34.9876 37.2501 35.0372 37.7004L 37.0221 37.4547C 36.9334 36.7879 36.6678 36.0447 36.3138 35.4732L 34.6231 36.5416ZM 35.0372 37.7004C 35.0989 38.1493 35.0651 38.4978 34.9182 38.9262L 36.8186 39.5494C 37.0224 38.9085 37.0987 38.1229 37.0221 37.4547L 35.0372 37.7004ZM 34.9182 38.9262L 30.5957 52.1088L 32.4962 52.7319L 36.8186 39.5493L 34.9182 38.9262ZM 30.5955 52.1095C 30.4064 52.7269 30.1074 53.1378 29.5793 53.506L 30.7542 55.1245C 31.5207 54.5529 32.1871 53.6374 32.4964 52.7312L 30.5955 52.1095ZM 29.5793 53.506C 29.0659 53.8939 28.5852 54.0498 27.9432 54.0366L 27.9406 56.0366C 28.8962 56.0255 29.973 55.6764 30.7542 55.1245L 29.5793 53.506ZM 27.9419 54.0366L 18.0262 54.0366L 18.0262 56.0366L 27.9419 56.0366L 27.9419 54.0366ZM 18.025 54.0366C 16.9056 54.0472 15.9352 53.7778 14.9802 53.191L 13.9473 54.9036C 15.1438 55.6145 16.6368 56.0291 18.0275 56.0366L 18.025 54.0366ZM 14.9802 53.191L 12.2133 51.5223L 11.1804 53.2349L 13.9473 54.9036L 14.9802 53.191ZM 12.6969 52.3786L 12.6969 36.3355L 10.6969 36.3355L 10.6969 52.3786L 12.6969 52.3786ZM 11.6969 37.3355L 11.8156 37.3355L 11.8156 35.3355L 11.6969 35.3355L 11.6969 37.3355ZM 11.9878 37.3205C 13.2659 37.0894 14.5808 36.5022 15.6073 35.7043L 14.3706 34.1324C 13.5469 34.7902 12.6815 35.1767 11.6435 35.3504L 11.9878 37.3205ZM 15.6073 35.7043C 16.6243 34.8945 17.5057 33.7541 18.0341 32.5644L 16.2016 31.7632C 15.7852 32.7343 15.2039 33.4864 14.3706 34.1324L 15.6073 35.7043ZM 18.0238 32.587L 21.6873 24.7442L 19.8752 23.8978L 16.2118 31.7406L 18.0238 32.587ZM 21.6857 24.7475C 22.1927 23.6655 22.5562 22.4408 22.7219 21.2569L 20.7406 20.9845C 20.6013 22.0188 20.3241 22.9524 19.8767 23.8945L 21.6857 24.7475ZM 22.7217 21.2582L 23.0602 18.8208L 21.0792 18.5457L 20.7407 20.9832L 22.7217 21.2582ZM 21.8813 19.6653C 22.1729 19.7162 22.3582 19.7922 22.6019 19.961L 23.713 18.2981C 23.298 18.0268 22.7437 17.7994 22.258 17.7011L 21.8813 19.6653ZM 22.6019 19.961C 22.8513 20.1217 22.9932 20.2645 23.1529 20.5153L 24.8221 19.4137C 24.5448 19.0025 24.1223 18.5775 23.713 18.2981L 22.6019 19.961ZM 23.137 20.4905C 23.5417 21.1449 23.6385 22.3756 23.0343 24.2809L 24.9407 24.8855C 25.5952 22.8217 25.7158 20.8581 24.838 19.4386L 23.137 20.4905ZM 23.0379 24.2697C 22.0233 27.343 21.6448 29.9515 22.0919 31.9257L 24.0425 31.484C 23.7176 30.0494 23.9567 27.8664 24.9371 24.8967L 23.0379 24.2697ZM 22.0915 31.924C 22.268 32.6455 22.7594 33.4314 23.3303 33.9054L 24.5779 32.3422C 24.2525 32.1008 24.1181 31.8855 24.0429 31.4858L 22.0915 31.924ZM 23.3303 33.9054C 23.9194 34.3572 24.7951 34.6613 25.5368 34.6715L 25.5257 32.6716C 25.1223 32.6882 24.8851 32.6058 24.5779 32.3422L 23.3303 33.9054ZM 25.5034 34.6712C 27.8838 34.737 30.2315 34.9315 32.5905 35.2581L 32.8645 33.2769C 30.4511 32.9435 27.9942 32.7401 25.5591 32.6719L 25.5034 34.6712ZM 53.0312 20.2208C 53.0312 21.3793 52.5727 22.4896 51.7577 23.3077L 53.1745 24.7192C 54.3638 23.5255 55.0312 21.9073 55.0312 20.2208L 53.0312 20.2208ZM 51.7577 23.3077C 50.9428 24.1256 49.8383 24.5844 48.6875 24.5844L 48.6875 26.5844C 50.3712 26.5844 51.9851 25.9131 53.1745 24.7192L 51.7577 23.3077ZM 48.6875 24.5844L 46.4194 24.5844L 46.4194 26.5844L 48.6875 26.5844L 48.6875 24.5844ZM 46.4199 24.5844C 45.9331 24.5974 45.31 24.8077 44.9147 25.0924L 46.127 26.6831C 46.2485 26.5738 46.2566 26.571 46.4188 26.5844L 46.4199 24.5844ZM 44.9147 25.0924C 44.5356 25.3979 44.1675 25.9421 44.0247 26.4079L 45.9521 26.9421C 45.9833 26.7804 45.9892 26.7715 46.127 26.6831L 44.9147 25.0924ZM 44.0274 26.3986C 43.4748 28.3491 43.4193 30.534 43.8721 32.5102L 45.8198 32.0557C 45.4089 30.3305 45.4515 28.6534 45.9495 26.9514L 44.0274 26.3986ZM 45.3266 31.406C 43.2496 30.2871 41.7921 28.5534 41.042 26.3095L 39.1498 26.9571C 40.0509 29.5375 41.9819 31.834 44.3653 33.1599L 45.3266 31.406ZM 41.0502 26.3343C 40.8963 25.8848 40.5241 25.3636 40.1491 25.0724L 38.9647 26.6839C 39.1002 26.768 39.1058 26.7759 39.1417 26.9323L 41.0502 26.3343ZM 40.1491 25.0724C 39.7589 24.8012 39.1496 24.602 38.6748 24.5904L 38.6789 26.5904C 38.8369 26.5774 38.8443 26.5799 38.9647 26.6839L 40.1491 25.0724ZM 38.6769 24.5904L 29.8419 24.5904L 29.8419 26.5904L 38.6769 26.5904L 38.6769 24.5904ZM 29.8418 24.5904C 28.9758 24.6003 28.2595 24.3932 27.5313 23.9222L 26.4643 25.6137C 27.4401 26.2176 28.6954 26.5806 29.842 26.5904L 29.8418 24.5904ZM 27.9619 25.0334C 28.709 22.3201 28.5813 19.8648 27.3625 17.8849L 25.6593 18.9333C 26.4949 20.2907 26.6879 22.1264 26.0337 24.5025L 27.9619 25.0334ZM 27.3603 17.8813C 26.7843 16.9689 25.9076 16.1251 24.975 15.5853L 23.9856 17.3234C 24.7101 17.7269 25.2294 18.2269 25.6616 18.9369L 27.3603 17.8813ZM 25.4803 16.4544L 25.4803 8.36127L 23.4803 8.36127L 23.4803 16.4544L 25.4803 16.4544ZM 25.4803 8.36127C 25.4803 7.20277 25.9388 6.09247 26.7539 5.27442L 25.337 3.86283C 24.1478 5.05652 23.4803 6.67473 23.4803 8.36127L 25.4803 8.36127ZM 26.7539 5.27442C 27.5688 4.45649 28.6732 3.99766 29.8241 3.99766L 29.8241 1.99766C 28.1404 1.99766 26.5264 2.66901 25.337 3.86283L 26.7539 5.27442ZM 29.8241 3.99766L 48.6875 3.99766L 48.6875 1.99766L 29.8241 1.99766L 29.8241 3.99766ZM 48.6875 3.99766C 49.8383 3.99766 50.9428 4.45649 51.7577 5.27442L 53.1745 3.86283C 51.9851 2.66901 50.3712 1.99766 48.6875 1.99766L 48.6875 3.99766ZM 51.7577 5.27442C 52.5727 6.09247 53.0312 7.20277 53.0312 8.36127L 55.0312 8.36127C 55.0312 6.67473 54.3638 5.05652 53.1745 3.86283L 51.7577 5.27442ZM 53.0312 8.36127L 53.0312 20.2208L 55.0312 20.2208L 55.0312 8.36127L 53.0312 8.36127Z"/>
<path id="path2_fill" d="M 10.4459 0.44289L 4.67468 6.22963L 2.53719 4.11398C 2.25846 3.83422 1.88043 3.67705 1.48625 3.67705C 1.09207 3.67705 0.714038 3.83422 0.435312 4.11398C 0.156586 4.39374 -6.19357e-07 4.77318 -6.22294e-07 5.16882C -6.25231e-07 5.56447 0.156586 5.9439 0.435312 6.22367L 3.62375 9.41799C 3.76164 9.55674 3.92544 9.66682 4.10577 9.74193C 4.28611 9.81704 4.47944 9.85571 4.67468 9.85571C 4.86993 9.85571 5.06326 9.81704 5.2436 9.74193C 5.42393 9.66682 5.58774 9.55674 5.72562 9.41799L 12.5419 2.54662C 12.8206 2.26685 12.9772 1.88742 12.9772 1.49177C 12.9772 1.09613 12.8206 0.716692 12.5419 0.43693C 12.2631 0.157169 11.8851 1.05827e-07 11.4909 1.02879e-07C 11.0968 9.99315e-08 10.7187 0.157169 10.44 0.43693L 10.4459 0.44289Z"/>
<path id="path3_stroke_2x" d="M 10.4459 0.44289L 11.154 1.14905L 11.858 0.443186L 11.1543 -0.262971L 10.4459 0.44289ZM 4.67468 6.22963L 3.97122 6.94036L 4.67926 7.64115L 5.38274 6.93578L 4.67468 6.22963ZM 2.53719 4.11398L 1.82875 4.81979L 1.83372 4.82471L 2.53719 4.11398ZM 1.48625 3.67705L 1.48625 4.67705L 1.48625 3.67705ZM -6.22294e-07 5.16882L -1 5.16882L -6.22294e-07 5.16882ZM 0.435312 6.22367L -0.273106 6.92946L -0.272447 6.93012L 0.435312 6.22367ZM 3.62375 9.41799L 4.33306 8.71309L 4.33151 8.71154L 3.62375 9.41799ZM 4.67468 9.85571L 4.67468 10.8557L 4.67468 9.85571ZM 5.72562 9.41799L 6.43493 10.1229L 6.43557 10.1222L 5.72562 9.41799ZM 12.5419 2.54662L 11.8334 1.84082L 11.8319 1.84236L 12.5419 2.54662ZM 11.4909 1.02879e-07L 11.4909 1L 11.4909 1.02879e-07ZM 10.44 0.43693L 9.73158 -0.268864L 9.02833 0.436998L 9.73164 1.14279L 10.44 0.43693ZM 9.73788 -0.263268L 3.96663 5.52347L 5.38274 6.93578L 11.154 1.14905L 9.73788 -0.263268ZM 5.37815 5.5189L 3.24065 3.40325L 1.83372 4.82471L 3.97122 6.94036L 5.37815 5.5189ZM 3.2456 3.40819C 2.77963 2.94048 2.14684 2.67705 1.48625 2.67705L 1.48625 4.67705C 1.61401 4.67705 1.73729 4.72796 1.82877 4.81978L 3.2456 3.40819ZM 1.48625 2.67705C 0.825655 2.67705 0.192869 2.94048 -0.273105 3.40819L 1.14373 4.81978C 1.23521 4.72796 1.35849 4.67705 1.48625 4.67705L 1.48625 2.67705ZM -0.273105 3.40819C -0.738955 3.87577 -1 4.50916 -1 5.16882L 0.999999 5.16882C 0.999999 5.0372 1.05213 4.91172 1.14373 4.81978L -0.273105 3.40819ZM -1 5.16882C -1 5.82849 -0.738954 6.46188 -0.273105 6.92946L 1.14373 5.51787C 1.05213 5.42593 0.999999 5.30044 0.999999 5.16882L -1 5.16882ZM -0.272447 6.93012L 2.91599 10.1244L 4.33151 8.71154L 1.14307 5.51721L -0.272447 6.93012ZM 2.91444 10.1229C 3.12501 10.3279 3.452 10.5477 3.72129 10.6651L 4.49025 8.8188C 4.39887 8.78599 4.39826 8.78557 4.33306 8.7131L 2.91444 10.1229ZM 3.72129 10.6651C 3.9944 10.7736 4.38091 10.8508 4.67468 10.8557L 4.67468 8.85571C 4.57797 8.86057 4.57782 8.86054 4.49025 8.8188L 3.72129 10.6651ZM 4.67468 10.8557C 4.96846 10.8508 5.35497 10.7736 5.62808 10.6651L 4.85912 8.8188C 4.77155 8.86054 4.7714 8.86057 4.67468 8.85571L 4.67468 10.8557ZM 5.62808 10.6651C 5.89736 10.5477 6.22436 10.3279 6.43493 10.1229L 5.01632 8.7131C 4.95111 8.78557 4.95051 8.78599 4.85912 8.8188L 5.62808 10.6651ZM 6.43557 10.1222L 13.2518 3.25087L 11.8319 1.84236L 5.01567 8.71374L 6.43557 10.1222ZM 13.2503 3.25241C 13.7161 2.78483 13.9772 2.15144 13.9772 1.49177L 11.9772 1.49177C 11.9772 1.62339 11.9251 1.74888 11.8335 1.84082L 13.2503 3.25241ZM 13.9772 1.49177C 13.9772 0.832105 13.7161 0.198715 13.2503 -0.268864L 11.8335 1.14272C 11.9251 1.23467 11.9772 1.36016 11.9772 1.49177L 13.9772 1.49177ZM 13.2503 -0.268864C 12.7843 -0.736569 12.1515 -1 11.4909 -1L 11.4909 1C 11.6187 1 11.742 1.05091 11.8335 1.14272L 13.2503 -0.268864ZM 11.4909 -1C 10.8303 -1 10.1976 -0.736571 9.73158 -0.268864L 11.1484 1.14272C 11.2399 1.05091 11.3632 1 11.4909 1L 11.4909 -1ZM 9.73164 1.14279L 9.73758 1.14875L 11.1543 -0.262971L 11.1483 -0.268931L 9.73164 1.14279Z"/>
</defs>
</svg>
