<svg width="430" height="481" xmlns="http://www.w3.org/2000/svg" xmlns:xlink="http://www.w3.org/1999/xlink">
  <g filter="url(#filter0_d)" transform="translate(6443 -9980)">
    <use xlink:href="#path0_fill" transform="translate(-6276.7 10193.5)" fill="#CC5B49"/>
    <use xlink:href="#path1_fill" transform="translate(-6310.6 10054.5)" fill="#CC5B49"/>
    <use xlink:href="#path2_fill" transform="translate(-6326.65 10053.5)" fill="#E1968C"/>
    <use xlink:href="#path3_fill" transform="translate(-6407.97 10134.3)" fill="#197ABC"/>
    <use xlink:href="#path4_fill" transform="translate(-6328.73 10433.9)" fill="#150911"/>
    <use xlink:href="#path5_fill" transform="translate(-6331.37 10403.2)" fill="#DDD"/>
    <use xlink:href="#path6_fill" transform="translate(-6346.55 10052.9)" fill="#014A8F"/>
    <use xlink:href="#path7_fill" transform="translate(-6402.01 10050.1)" fill="#197ABC"/>
    <use xlink:href="#path8_fill" transform="translate(-6389.81 10126.1)" fill="#E1968C"/>
    <use xlink:href="#path9_fill" transform="translate(-6341 10198.8)" fill="#014A8F"/>
    <use xlink:href="#path10_fill" transform="translate(-6362.26 9980)" fill="#150911"/>
    <use xlink:href="#path11_fill" transform="translate(-6371.2 10033.2)" fill="#E1968C"/>
    <use xlink:href="#path12_fill" transform="translate(-6348.12 9994.59)" fill="#CC5B49"/>
    <use xlink:href="#path13_fill" transform="translate(-6367.41 10025)" fill="#CC5B49"/>
    <use xlink:href="#path14_fill" transform="translate(-6376.67 9985.44)" fill="#E1968C"/>
    <use xlink:href="#path15_fill" transform="translate(-6358.98 9985.17)" fill="#150911"/>
    <use xlink:href="#path16_fill" transform="translate(-6376.16 10050.3)" fill="#014A8F"/>
    <use xlink:href="#path17_fill" transform="translate(-6369.99 10103.1)" fill="#014A8F"/>
    <use xlink:href="#path18_fill" transform="translate(-6360.62 9984.2)" fill="#150911"/>
    <use xlink:href="#path19_fill" transform="translate(-6402.11 9981.96)" fill="#150911"/>
    <use xlink:href="#path20_fill" transform="translate(-6376.81 9985.81)" fill="#150911"/>
    <use xlink:href="#path21_fill" transform="translate(-6387.31 9981.95)" fill="#2F302D"/>
    <use xlink:href="#path22_fill" transform="translate(-6398.88 10139)" fill="#014A8F"/>
    <use xlink:href="#path23_fill" transform="translate(-6399.63 10049.7)" fill="#014A8F"/>
    <use xlink:href="#path24_fill" transform="translate(-6431.17 10048.5)" fill="#E1968C"/>
    <use xlink:href="#path25_fill" transform="translate(-6395.33 10130.7)" fill="#CC5B49"/>
    <use xlink:href="#path26_fill" transform="translate(-6438.44 10393.5)" fill="#DDD"/>
    <use xlink:href="#path27_fill" transform="translate(-6413.14 10113.4)" fill="#CC5B49"/>
    <use xlink:href="#path28_fill" transform="translate(-6439 10435.5)" fill="#150911"/>
    <use xlink:href="#path29_fill" transform="translate(-6415.84 10409.1)" fill="#BFBBBC"/>
    <use xlink:href="#path30_fill" transform="translate(-6328.72 10407.1)" fill="#BFBBBC"/>
  </g>
  <g filter="url(#filter1_d)" transform="translate(6443 -9980)">
    <use xlink:href="#path31_fill" transform="translate(-6086.7 10097.5)" fill="#EAA9A4"/>
    <use xlink:href="#path32_fill" transform="translate(-6029.39 10092.8)" fill="#EAA9A4"/>
    <use xlink:href="#path33_fill" transform="translate(-6034.35 10107.8)" fill="#ED8883"/>
    <use xlink:href="#path34_fill" transform="translate(-6076.16 10123.3)" fill="#ED8883"/>
    <use xlink:href="#path35_fill" transform="translate(-6085.45 10414.2)" fill="#52A9D8"/>
    <use xlink:href="#path36_fill" transform="translate(-6085.63 10443.5)" fill="#150911"/>
    <use xlink:href="#path37_fill" transform="translate(-6067.42 10433.8)" fill="#197ABC"/>
    <use xlink:href="#path38_fill" transform="translate(-6064.63 10443.3)" fill="#197ABC"/>
    <use xlink:href="#path39_fill" transform="translate(-6076.52 10210.1)" fill="#6AA0DB"/>
    <use xlink:href="#path40_fill" transform="translate(-6209.59 10171)" fill="#97CEE0"/>
    <use xlink:href="#path41_fill" transform="translate(-6190.99 10058.7)" fill="#5FCEA3"/>
    <use xlink:href="#path42_fill" transform="translate(-6080.75 10432)" fill="#197ABC"/>
    <use xlink:href="#path43_fill" transform="translate(-6094.03 10083.3)" fill="#58AF8B"/>
    <use xlink:href="#path44_fill" transform="translate(-6116.67 10028.6)" fill="#E95238"/>
    <use xlink:href="#path45_fill" transform="translate(-6180.99 9990)" fill="#E95238"/>
    <use xlink:href="#path46_fill" transform="translate(-6122.77 10103.1)" fill="#58AF8B"/>
    <use xlink:href="#path47_fill" transform="translate(-6110.3 10003.7)" fill="#E95238"/>
    <use xlink:href="#path48_fill" transform="translate(-6134.17 10003.9)" fill="#EAA9A4"/>
    <use xlink:href="#path49_fill" transform="translate(-6110.6 10003.4)" fill="#197ABC"/>
    <use xlink:href="#path50_fill" transform="translate(-6138.96 10003.4)" fill="#ED8883"/>
    <use xlink:href="#path51_fill" transform="translate(-6125.56 10212.6)" fill="#6AA0DB"/>
    <use xlink:href="#path52_fill" transform="translate(-6138.68 10002.4)" fill="#E95238"/>
    <use xlink:href="#path53_fill" transform="translate(-6115.67 10256.6)" fill="#6AA0DB"/>
    <use xlink:href="#path54_fill" transform="translate(-6141.17 10048.4)" fill="#EAA9A4"/>
    <use xlink:href="#path55_fill" transform="translate(-6131.25 10061.7)" fill="#519E7E"/>
    <use xlink:href="#path56_fill" transform="translate(-6133.02 10063.7)" fill="#58AF8B"/>
    <use xlink:href="#path57_fill" transform="translate(-6144.77 10055.3)" fill="#519E7E"/>
    <use xlink:href="#path58_fill" transform="translate(-6175.74 10248.1)" fill="#6AA0DB"/>
    <use xlink:href="#path59_fill" transform="translate(-6144.58 10035.5)" fill="#ED8883"/>
    <use xlink:href="#path60_fill" transform="translate(-6148.83 10055.5)" fill="#58AF8B"/>
    <use xlink:href="#path61_fill" transform="translate(-6194.56 10062.3)" fill="#58AF8B"/>
    <use xlink:href="#path62_fill" transform="translate(-6178.36 10105.7)" fill="#58AF8B"/>
    <use xlink:href="#path63_fill" transform="translate(-6239.25 10106.1)" fill="#EAA9A4"/>
    <use xlink:href="#path64_fill" transform="translate(-6178.42 10178.1)" fill="#197ABC"/>
    <use xlink:href="#path65_fill" transform="translate(-6240 10105.2)" fill="#ED8883"/>
    <use xlink:href="#path66_fill" transform="translate(-6218.66 10407.9)" fill="#52A9D8"/>
    <use xlink:href="#path67_fill" transform="translate(-6197.71 10442.9)" fill="#197ABC"/>
    <use xlink:href="#path68_fill" transform="translate(-6201.73 10413.3)" fill="#197ABC"/>
    <use xlink:href="#path69_fill" transform="translate(-6218.89 10435.8)" fill="#150911"/>
    <use xlink:href="#path70_fill" transform="translate(-6215.44 10416.6)" fill="#197ABC"/>
    <use xlink:href="#path71_fill" transform="translate(-6223.3 10241.9)" fill="#197ABC"/>
    <use xlink:href="#path72_fill" transform="translate(-6231.1 10228)" fill="#ED8883"/>
  </g>
  <defs>
    <filter id="filter0_d" filterUnits="userSpaceOnUse" x="-6443" y="9980" width="177" height="481" color-interpolation-filters="sRGB">
      <feFlood flood-opacity="0" result="BackgroundImageFix"/>
      <feColorMatrix in="SourceAlpha" values="0 0 0 0 0 0 0 0 0 0 0 0 0 0 0 0 0 0 255 0"/>
      <feOffset dy="4"/>
      <feGaussianBlur stdDeviation="2"/>
      <feColorMatrix values="0 0 0 0 0 0 0 0 0 0 0 0 0 0 0 0 0 0 0.25 0"/>
      <feBlend in2="BackgroundImageFix" result="effect1_dropShadow"/>
      <feBlend in="SourceGraphic" in2="effect1_dropShadow" result="shape"/>
    </filter>
    <filter id="filter1_d" filterUnits="userSpaceOnUse" x="-6244" y="9990" width="232" height="472" color-interpolation-filters="sRGB">
      <feFlood flood-opacity="0" result="BackgroundImageFix"/>
      <feColorMatrix in="SourceAlpha" values="0 0 0 0 0 0 0 0 0 0 0 0 0 0 0 0 0 0 255 0"/>
      <feOffset dy="4"/>
      <feGaussianBlur stdDeviation="2"/>
      <feColorMatrix values="0 0 0 0 0 0 0 0 0 0 0 0 0 0 0 0 0 0 0.25 0"/>
      <feBlend in2="BackgroundImageFix" result="effect1_dropShadow"/>
      <feBlend in="SourceGraphic" in2="effect1_dropShadow" result="shape"/>
    </filter>
    <path id="path0_fill" d="M1.97 7.04c0 4.86 5.82 20.47 2.91 26.3-.57 1.11-1.14 2.48-1.84 3.96C2.27 27.92 0 15.89 0 8.01.53 5.36.9 2.68 1.1 0l1.64.13a87.1 87.1 0 0 1-.77 6.9z"/>
    <path id="path1_fill" d="M31 82.7c1.77 3.56 7.55 32.85 5.65 56.44l-1.64-.13c2.14-30.53-17.32-61.2-13.74-83.61C24.34 36.03 7.19 9.92 0 0c14.18 2.65 27.08 37.6 27.08 65.15.04.03 1.98 13.67 3.92 17.56z"/>
    <path id="path2_fill" d="M37.32 56.37c-3.58 22.42 15.88 53.05 13.74 83.61-.2 2.68-.54 5.36-1.1 8.01 0 7.88 2.27 19.94 3.04 29.3-2.84 6.3-7.2 14.74-16.65 15.5-1.94 0 0-1.94 0-1.94s-.84-1.24-.6-2.38c.13-.6.53-1.17 1.57-1.5 2.9-.97 5.81-4.86 6.82-6.84 1-1.98 1.94-10.72-.97-12.67-2.91-1.94-3.88-.97-3.88 1.95 0 2.44-.67 9.01-3.21 11.09-.47.4-1.04.6-1.64.6-3.88 0-.97-28.25 1.94-30.23 2.9-1.97 1.94-12.66.97-15.58-.9-2.71-5.12-39.41-17.19-51.94.27-3.05-3.6-15.05-4.04-16.36 4.1-5.16 6.65-13 7.85-20.91 1.88-12.3-8.02-18.77-9.93-23.83C12.3 17.66.37.5 0 0a96 96 0 0 0 10.16.77c1.48.03 3.11.07 4.85.07a10 10 0 0 1 1.1.13c7.13 9.89 24.32 36.03 21.2 55.4z"/>
    <path id="path3_fill" d="M98.14 270.01c-5.89 5.7-20.33-.1-20.33-.1s.03-.33.13-.97c.37-3.22 1.34-13.6-1.1-18.53-2.91-5.84-10.7-53.59-9.73-58.48.5-2.48.47-8.72.3-14.31 17.49-24.1 3.68-93.94 7.46-95.85 6.42-2.14 11.8-12.2 14.2-17.36l-21 19.3s1.95 12.67 3.89 48.73c.57 10.32-1.5 22.52-4.99 34.96-8.66 31.03-26.01 63.33-32.96 70.3-9.73 9.76-16.52 31.2-16.52 31.2-.34.1-.64.24-.94.34C.94 274.2 0 260.16 0 260.16l.17-.94c1.57-8.68 13.7-74.3 17.32-77.01 3.88-2.92 10.7-17.53 4.85-29.22C16.52 141.29 9.7 95.48 9.7 95.48L9 92.49a4.02 4.02 0 0 0 2.64 1.04c1.94 0-.97-4.86-.97-5.83 0-.94.9-8.1-2.44-15.55l-.47-4.92c-2.54-17.16-.94-31.4 1.27-40.86 14.2.17 71.05-.5 83.56-21.64A36.25 36.25 0 0 0 98.17 0c1.14.67 2.2 1.58 3.21 2.61 12.1 12.54 16.32 49.27 17.19 51.95.97 2.91 1.94 13.64-.97 15.58-2.91 1.95-5.82 30.23-1.94 30.23a2.6 2.6 0 0 0 1.64-.6s-.8 2.88-2 7.6c-4.56 17.67-14.75 61.03-9.37 74.9 6.82 17.53-7.8 87.7-7.8 87.7.07-.03.04 0 0 .04z"/>
    <path id="path4_fill" d="M28.46 0c4.62 12.2-15.3 13.14-23.07 12.17C-2.4 11.19.54 2.4.54 2.4c.97 2.92 14.58 13.64 27.22-.97.34-.47.57-.97.7-1.44z"/>
    <path id="path5_fill" d="M26.49 20.48c.83 4.25 5.38 7 4.61 10.25-.1.47-.33.94-.7 1.44-12.64 14.61-26.25 3.89-27.22.97-.97-2.91-1.94-18.53-2.9-20.47C-.7 10.72 1.23 0 1.23 0h.13c-.06.6-.13.97-.13.97s14.45 5.8 20.33.1c-.43 6.64 3.98 14.78 4.92 19.4z"/>
    <path id="path6_fill" d="M35.98 67.6c-2.3 2.91-5.12 4.99-8.46 5.76-1.64.4-3.38.47-5.28.17-4.02-.6-12.51-.34-22.24.3 24.68-2.05 27.35-12.43 33.9-24.67C40.74 36.5 32.5 31.6 31 27.71 29.6 24.1 16.65 0 16.65 0c.87.2 1.94.4 3.21.57.37.54 12.3 17.7 14.05 22.25 1.9 5.06 11.83 11.53 9.93 23.83-1.24 7.94-3.78 15.75-7.86 20.95z"/>
    <path id="path7_fill" d="M32.03 68.53l21.33-1.94V52.95c0 11.33-20.06 15.35-21.33 15.58zM13.07 80.56l-5.59.64c0-1.1.04-2.11.2-2.91.97-4.86-5.81-13.64-5.81-13.64a8.7 8.7 0 0 1-.64-1.38c-2.4-6.4-.9-18.93 1.27-23.93.44-.97.87-1.67 1.34-1.97 2.9-1.95 21.4-37.1 21.4-37.1l.03-.27c.9.07 1.77.1 2.54.13 0 0-12.5 32.91 26.99 37.04l.03-.27C77.27 40.58 69.98 2.28 69.98 2.28v-.03c.57.2 1.27.4 2.17.57 0 0 12.94 24.1 14.34 27.71 1.51 3.85 9.73 8.78 2.91 21.45-6.55 12.2-9.22 22.62-33.9 24.66l-1.27.1c-.37.04-.77.04-1.14.07-.17 0-.3.03-.47.03a1083.64 1083.64 0 0 0-39.55 3.72z"/>
    <path id="path8_fill" d="M74.5 12.9C53.27 27.76 14.34 25.7 0 24.38 3.24 18.43 2.1 9.99.87 4.59 9.3 3.66 25.8 1.88 40.36.84c.17 0 .3-.03.47-.03.4-.04.77-.04 1.13-.07l1.27-.1C53 0 61.5-.26 65.47.34c1.9.3 3.64.23 5.28-.17V.2c0 .2 7.6 3.69 9.3 7.95a33.03 33.03 0 0 1-5.55 4.76z"/>
    <path id="path9_fill" d="M1.1 19.3L22.1 0c-2.4 5.16-7.79 15.21-14.2 17.36C4.07 19.27 17.91 89.08.42 113.2.27 107.78 0 103 0 103c3.48-12.41 5.52-24.6 4.98-34.93C3.04 31.97 1.1 19.3 1.1 19.3z"/>
    <path id="path10_fill" d="M25.58 21.2C22.4 11.77 14.98 5.16 6.32 5.16c-1.04 0-2.07.1-3.08.27l-1.3-1.27L0 2.22s18.5-7.8 27.22 5.84c8.72 13.64 10.7 36.06 3.88 43.86-6.82 7.81 12.64 12.54 14.57 22.36-4.34-.14-7.65-.44-10.16-.77a34.07 34.07 0 0 1-5.38-1.14c-1.54-.5-1.94-.94-1.94-.94-3.01-1.2-3.81-10.96-3.98-18.27-.1-4.55.03-8.14.03-8.14a31.2 31.2 0 0 0 2.98-13.54c.03-3.65-.57-7.14-1.64-10.29z"/>
    <path id="path11_fill" d="M39.1 19.24s7.29 38.3-15.15 34.61c-.73-.13-1.53-.3-2.34-.5C-3.66 46.52.21 17.23.21 17.23l1.94.06c.64-.37 1.17-.8 1.64-1.3C26.06 17.49 32.41 2.2 33.2 0c.16 7.3.96 17.06 3.97 18.26 0 0 .4.4 1.94.94v.04z"/>
    <path id="path12_fill" d="M11.44 6.6a32.05 32.05 0 0 1 1.66 10.3c0 4.96-1.1 9.59-2.98 13.54-.33.74-.73 1.44-1.14 2.11C10.43 20.64 4.15 7.31 0 0c3.68 2.71 7.72 5.23 11.44 6.6z"/>
    <path id="path13_fill" d="M28.29 2.11c.4-.67.77-1.4 1.13-2.11 0 0-.13 3.62-.03 8.14-.8 2.22-7.12 17.5-29.39 15.99C4.31 19.4.9 9.42.77 9.05a17.67 17.67 0 0 0 10.73 3.72c6.86 0 12.98-4.2 16.79-10.66z"/>
    <path id="path14_fill" d="M28.56 9.15c4.14 7.3 10.4 20.64 8.99 32.54-3.81 6.47-9.93 10.66-16.79 10.66-3.9 0-7.59-1.34-10.73-3.72C4.58 44.53.77 37.37 0 29.06 10.83 23.56 15.01 5.86 16.08.4c.54-.17 1.07-.3 1.6-.4 2.01 1.91 6.13 5.66 10.88 9.15z"/>
    <path id="path15_fill" d="M10.87 9.42A116.8 116.8 0 0 1 0 .27C1 .07 2.04 0 3.08 0c8.66 0 16.05 6.6 19.26 16.02-3.75-1.38-7.8-3.89-11.47-6.6z"/>
    <path id="path16_fill" d="M28.9 36.76l-.03.27C-10.65 32.91 1.9 0 1.9 0c1.34.07 2.44.1 3.28.13 0 0-3.88 29.3 21.4 36.13.8.24 1.57.37 2.34.5z"/>
    <path id="path17_fill" d="M21.33 0v13.64L0 15.58C1.27 15.35 21.33 11.33 21.33 0z"/>
    <path id="path18_fill" d="M1.6 1.24c-.53.1-1.07.23-1.6.4L.3 0l1.3 1.24z"/>
    <path id="path19_fill" d="M25.4 32.54c.74 8.31 4.58 15.45 10.03 19.57.14.4 3.55 10.36-.77 15.08-.46.5-1 .94-1.63 1.31 0 0-.7 0-1.94-.07-.84-.03-1.94-.06-3.28-.13-.77-.03-1.6-.1-2.54-.14a284.96 284.96 0 0 1-17.52-1.6C5.67 66.29 3 67.43.02 69.7-.85 54.39 23.3 49.97 18.45 44.14a13.81 13.81 0 0 1-2.48-4.86C18.45 17.12 31.15 4.93 37.77 0c1.3.03 2.11.27 2.11.27l1.94 1.94-.3 1.64C32.22 6.5 25.27 17 25.27 29.5c0 1.04.06 2.05.13 3.05z"/>
    <path id="path20_fill" d="M16.22 0C15.15 5.5 10.93 23.16.13 28.65A29.9 29.9 0 0 1 0 25.64C-.03 13.14 6.92 2.68 16.22 0z"/>
    <path id="path21_fill" d="M6.6 10.03C12.87.95 19.66-.12 22.97.01 16.36 4.94 3.65 17.14 1.18 39.29c-2.34-7.4-1.5-19.24 5.41-29.26z"/>
    <path id="path22_fill" d="M9.06 11.46C23.41 12.8 62.33 14.81 83.56 0 71.02 21.15 14.18 21.82 0 21.65a54.82 54.82 0 0 1 3.58-10.8s2 .31 5.48.61z"/>
    <path id="path23_fill" d="M22.82.44L22.8.7S4.29 35.86 1.39 37.8c-.44.3-.9 1-1.34 1.98-.33-9.28.9-21.75 6.19-24.4C11.72 12.63 15.3 4.52 16.9 0c2.18.2 4.18.34 5.92.44z"/>
    <path id="path24_fill" d="M31.46 157.95c3.35 7.44 2.44 14.61 2.44 15.55 0 .97 2.91 5.83.97 5.83-1.03 0-1.9-.4-2.64-1.04-3.5-3.01-4.14-11.63-4.14-11.63v12.67c0 1.94 3.87 6.84 3.87 10.72 0 3.72-3.57 2.12-3.87 1.98.13.14.87 1.04-.04 1.95-2.77 1.84-4.68-1.58-4.85-1.91.1.3.8 2.78-1.94.93-10.7-7.8-15.54-18.53-14.57-21.44.97-2.92.97-23.4.97-27.28-12.64-38.04-5.82-60.43-5.82-60.43s-.97-11.7 4.85-39C10.97 24.8 20.99 9.51 29.12 3.18 32.06.9 34.77-.23 36.85.04c4.21.53 8.16.9 11.63 1.17-1.6 4.53-5.15 12.64-10.66 15.38-5.29 2.65-6.52 15.12-6.19 24.4-2.17 5-3.68 17.53-1.27 23.93-4.01 4.19-11.3 13.24-12 23.8-.94 14.4-.04 54.28 6.48 58.3 1.07 1.71 3.35 4.33 6.16 9.92.16.34.33.68.46 1.01z"/>
    <path id="path25_fill" d="M6.39 0c1.27 5.4 2.37 13.84-.87 19.77-3.48-.33-5.52-.6-5.52-.6C2.4 14.3.8 6.07.77.64.77.67 2.87.4 6.39 0z"/>
    <path id="path26_fill" d="M47.02 10.05c-.77 2.85-2.24 8.28-2.94 10.4C43.1 23.34 30.47 37 29.5 42.85c-.1.6-.2 1.24-.34 1.95 0 0-7.42 9.75-12.3 11.7C-1.64 58.44.04 42.05.04 42.05a29.39 29.39 0 0 1 2.24-6c5.82-11.7 17.49-15.58 19.46-23.4C25.62 6.85 30.5 0 30.5 0l.17.03-.17.94s.9 14.04 16.52 9.08z"/>
    <path id="path27_fill" d="M12.33 0c.2.5.4.97.63 1.37C10.06 4.3 4.2 25.74 4.2 25.74s1.94 4.86.97 6.83c-2.9 6.84.97 45.82.97 47.76 0 .54.24 1.1.67 1.78C.3 78.08-.64 38.2.32 23.79c.7-10.55 8-19.6 12-23.79z"/>
    <path id="path28_fill" d="M17.42 14.48c4.85-1.95 12.3-11.7 12.3-11.7-1.13 6.13-3.94 15.48-16.18 14.61C2.31 16.6-1.64 9.15.6 0c0 .03-1.64 16.42 16.82 14.48z"/>
    <path id="path29_fill" d="M17.6 0s-2.9 6.84-6.82 6.84c-3.9 0-11.67 19.5-10.7 21.44 0 0 4.85-11.7 8.76-12.66C12.76 14.62 17.6 0 17.6 0z"/>
    <path id="path30_fill" d="M.5 0s3.88 2.92 7.79 1.94l3.88 18.54S6.35 8.78 2.44 6.84C-1.48 4.89.5 0 .5 0z"/>
    <path id="path31_fill" d="M62.2 18.14c-5.86-1.96-3.9-7.82-3.9-7.82h-1.96c-4.91 0-3.93 7.82-3.93 7.82.98-1.93 9.46-.07 9.79 0zm-8.9 8.93a11.15 11.15 0 0 1-4.06-1.3c.32 1.5.13 3.8-2.72 6.05-4.26 3.4-30.18 26.21-36.04 35.22-.07 0-.13.03-.2.03-4.16 0-5.43-1.8-5.8-3.24l-.39.1C2 55.32-1.7 42.39.9 35.94c.16-.42.36-.85.58-1.2 3.21-5.15 1.8-14.08.99-20.72 0 0 8.05-8.42 10.86-7.07 2.36 14.53 4.69 29.19 5.77 29.75l.68 2.03a31 31 0 0 1 7.14-2.03c6.87-.99 18.6-16.66 18.6-16.66l.78-.17c-.46-3.33-1.02-13.05 6.61-17.24-.69-.85-.4-1.77.43-2.2 1.05-.52 4.84-.49 8.18-.32 2.95.13 5.53.32 5.53.32s2.95 3.93 1.97 5.9c-.98 1.96 1.96 8.8 0 12.73-1.77 3.73-11.26 8.21-15.72 8.01z"/>
    <path id="path32_fill" d="M4.33 4.16C-.71 3.96.04 3.11.04 2.23.04 1.25 2-.7 6.91.27s2.95 4.9 2.95 4.9-2.59-.22-5.53-.32v-.69z"/>
    <path id="path33_fill" d="M3.99 0h1.96S4 5.86 9.85 7.82C9.49 7.76 1 5.9.06 7.82.09 7.82-.89 0 3.99 0z"/>
    <path id="path34_fill" d="M41.9 1.15c.26.06.56.1.89.13C40.72 3.63 8.8 39.83 0 41.27c5.9-9 31.79-31.81 36.04-35.22C38.9 3.76 39.1 1.51 38.76 0c.52.33 1.47.75 3.14 1.15z"/>
    <path id="path35_fill" d="M22.65 19.63c-.72.72 3.5 9.07 3.37 14.1-.32 1.25-7.03 2.46-8.87.63-1.83-1.83-2.75-1.83-5.53-1.83-2.78 0-.92 2.74-4.61 2.74-3.64 0-6.91-5.72-7.01-5.92.79-4.55 3.6-10.01 4.26-10.67.91-.91 0-11.06 0-11.06s.91-2.75.91-4.62c0-1.83 0-3.7 9.2-2.74 9.2.91 5.53 4.61 6.45 6.44.92 1.87 2.75 12.01 1.83 12.93zm-1.7 9.56c.4-1.64 1.38-6.55-.13-9.6l-2.75 3.67c-.03.04 2.78 4.26 2.88 5.93-.06.36-.13.55-.13.55.1-.1.16-.3.13-.55zM8.84 24.25L7 17.8c-3.67 1.83-1.84 11.98-1.84 11.98l3.67-5.53z"/>
    <path id="path36_fill" d="M26.2 4.39c-.03 1.5-.46 2.74-1.5 3.37C14.54 11.42 3.5 8.67.75 5c-.84-1.14-.9-2.97-.54-5 .1.16 3.4 5.92 7 5.92 3.67 0 1.84-2.75 4.62-2.75 2.78 0 3.7 0 5.53 1.84 1.8 1.83 8.51.62 8.84-.62z"/>
    <path id="path37_fill" d="M2.78 0c1.5 3.04.53 7.95.13 9.59C2.81 7.89 0 3.69 0 3.69L2.78 0z"/>
    <path id="path38_fill" d="M.13 0A.71.71 0 0 1 0 .56S.07.36.13 0z"/>
    <path id="path39_fill" d="M9.92 120.96c4.91 9.79 3.93 32.34 1.97 41.14a33.56 33.56 0 0 0-.56 4.1c-.75-2.72-1.8-8.06-.42-12.9 1.96-6.84-3.93-35.25-7.83-43.1-3.93-7.83-3.93-40.16-.98-48.97 2.95-8.8-.98-51.9-.98-51.9C2.26 8.15 3.44 3.57 4.2 0l-.14 2.49c6.85 14.7 0 70.5-.98 74.42-.98 3.9 1.97 34.27 6.84 44.05z"/>
    <path id="path40_fill" d="M100.86 41.56C97.9 50.36 84.2 54.3 84.2 54.3c-1.31 2.61 5.2 19.93 9.69 31.25-3.24-12.44-3.8-29.3-3.8-29.3 8.67-1.95 10.74-14.33 10.77-14.69zm-6.94 44c1.05 3.95 2.36 7.49 4.03 9.84-.1-.2-1.8-4.29-4.03-9.85zm50.48 119.71c-.95 11.49.55 34.1.55 34.1-4.9 4.91-13.71 0-13.71 0s-2.95-13.71-4.91-20.55c-8.8-11.75-12.74-48.96-12.74-53.87 0-4.91-5.89-18.6-7.82-22.52-1.96-3.93-1.96-29.39-6.84-35.25-8.8-7.82-16.67-47-16.67-47s-.85 9.47-2.58 17c-3.05 2.9-7.86 8.14-9.17 13.38-1.96 7.82-8.8 53.87-13.71 58.75-3.67 3.66-16.63 34.65-22.92 50.1-4.75 7.17-9.13 12.73-10.38 13.55-2.94 1.96-8.8 21.54-8.8 21.54-7.83 4.9-14.7-.99-14.7-.99 3.93-4.9 10.77-60.7 13.72-62.67 2.94-1.96 15.68-25.46 15.68-27.43 0-1.96 1.96-9.78 1.96-9.78s3.93-21.54-3.93-54.85c-7.82-33.29 2.95-66.6 2.95-66.6s.26-1.87.78-4.72l.4-.36c4 .95 43.37 9.92 52.67 2.49l2.95-6.84 1.96 6.84s28.09-4.91 39.7-9.59c2.1 5.76 9.6 14.99 8.45 39.04-.75 3.57-1.93 8.19-3.07 9.33 0 0 3.93 43.1.98 51.9-2.95 8.81-2.95 41.15.98 48.97s9.79 36.23 7.82 43.1c-1.4 4.88-.36 10.21.4 12.93z"/>
    <path id="path41_fill" d="M15.81 47.03c.13 3.8.1 7.85.03 11.06a12.42 12.42 0 0 0-2.9-4.02C13.12 49.22.97 44.25 0 42.28.98 16.82 16.66 9.98 24.49 9c4.28-.52 8.28-3.14 11.03-5.37A34.25 34.25 0 0 0 42.13 0l8.54 14.9.27.97 7.04-8.57 6.67 8.57 9.92-12.8c.3 1.02.85 1.8 1.84 2.04 2 .49 10.5 1.5 18.82 3.63 8.08 2.1 15.97 5.23 17.45 10.08 1.3 4.32 3.14 15.64 5 27.03-2.84-1.34-10.86 7.07-10.86 7.07-.43-3.47-.7-6.32 0-7.66 1.57-3.17-.7-10.2-1.6-12.76v-.03c-.2-.4-3.44-6.84-8.2-7.8 0 0 7.83 8.81 6.85 12.74-.98 3.93-2.95 13.71-.98 19.57 1.34 4.06 2.26 11.42 2.32 17.87-2.58 6.41 1.12 19.37 3.21 27.98.75 3.08 1.31 5.56 1.31 7.04 0 .78.2 1.6.52 2.52-11.65 4.64-39.74 9.55-39.74 9.55l-1.96-6.84-2.95 6.84c-9.3 7.43-48.68-1.53-52.67-2.48 5.57-5.01 12.73-12.57 11.52-17.45-1.96-7.82.99-24.48 1.97-35.25.75-8.11-6.78-16.2-10.6-19.73zm78.86 16.1C80.96 65.1 69.2 45.43 68.22 44.44c0 0 .33 11.82 4.26 17.68 3.93 5.89 22.2 1.01 22.2 1.01z"/>
    <path id="path42_fill" d="M2.3 0l1.84 6.45-3.67 5.53C.47 11.95-1.4 1.83 2.3 0z"/>
    <path id="path43_fill" d="M8.22 7.79c.91 2.55 3.2 9.59 1.6 12.76-.69 1.34-.42 4.2 0 7.66.82 6.65 2.23 15.58-.98 20.72-.23.36-.43.78-.6 1.2-.09-6.4-.97-13.77-2.31-17.86-1.97-5.9 0-15.68.98-19.57C7.89 8.8 0 0 0 0c4.75.95 7.99 7.36 8.22 7.79z"/>
    <path id="path44_fill" d="M18.74 16.5c2.88 5.72 4.81 18.03 2.16 22.22-8.31-2.13-16.82-3.14-18.82-3.64-.98-.26-1.54-1.01-1.83-2.02-.82-2.92.65-7.9.72-8.12C8.2 22.22 14.59 14.6 17.04 4.6c.4-1.53.66-3.07.82-4.61.4.88.95 1.54 1.8 1.73-1.11 6.45-2.42 11.75-.92 14.76z"/>
    <path id="path45_fill" d="M42.3 37.97a33.9 33.9 0 0 0-.1 7.49s-1.27 16.5-5.2 19.4c-.2.14-.4.3-.59.47l-.23.2c-1.08.84-2.42 1.96-4.06 3.07-1.8 1.24-4 2.55-6.61 3.63a35.12 35.12 0 0 1-15.94 2.42c-2.36.3-4.91 1.21-7.4 2.95-7.4-4.91 6.42-20.55 7.4-27.43.98-6.84 9.79-11.75 17.64-18.59C35.04 24.74 38.96 5.14 51.7 1.21c12.73-3.93 15.68 2.95 15.68 2.95s12.73.98 16.66 15.67c1.93 7.2 1.02 14.4-.06 20.56-.82-.23-1.41-.85-1.8-1.74 1.24-11.19-3.15-21.3-10.94-24.87l-.85-.36c-.59-.23-1.18-.43-1.8-.56-10.57-2.61-22 6.78-25.5 20.98a29.55 29.55 0 0 0-.79 4.13z"/>
    <path id="path46_fill" d="M0 0c.98.98 12.73 20.65 26.45 18.69 0 0-18.3 4.84-22.2-1.02C.34 11.81 0 0 0 0z"/>
    <path id="path47_fill" d="M.56 0c7.79 3.57 12.17 13.68 10.93 24.87-1.44-3.2-.75-9.65-3.04-11.94C5.93 10.4 1.28 2.43 0 .2.2.16.36.1.56 0z"/>
    <path id="path48_fill" d="M18.46 49.62a15.76 15.76 0 0 1-9.42.65 12.95 12.95 0 0 1-3.15-1.18C1.37 43.36 0 34 0 27.43 0 19.6 8.8 16.66 10.77 9.79 11.98 5.53 18.86 2.03 23.9 0c1.27 2.23 5.92 10.21 8.44 12.73 2.3 2.3 1.6 8.74 3.05 11.95a37.88 37.88 0 0 1-.82 4.61c-2.49 10.02-8.87 17.6-16.1 20.33z"/>
    <path id="path49_fill" d="M.85.4C.7.45.5.51.33.58L0 0c.26.16.56.26.85.4z"/>
    <path id="path50_fill" d="M5.05 44.97C2.4 41.6.7 37.08.17 32.07a32 32 0 0 1 .1-7.5c4.32-3.66 8.25-7.78 9.4-11.25C12.6 4.52 28.33 0 28.33 0s.13.2.32.59c-5.04 2.03-11.91 5.53-13.12 9.78-1.97 6.88-10.77 9.79-10.77 17.65 0 6.57 1.37 15.93 5.89 21.66a17.44 17.44 0 0 1-5.6-4.71z"/>
    <path id="path51_fill" d="M16.83 0c-.06.4-2.1 12.76-10.77 14.7 0 0 .56 16.85 3.8 29.29-4.48-11.33-11-28.64-9.69-31.26C.2 12.7 13.92 8.8 16.83 0z"/>
    <path id="path52_fill" d="M26.25.44c.63.16 1.22.33 1.8.55 0 0-15.74 4.49-18.65 13.32-1.15 3.5-5.08 7.6-9.4 11.26.16-1.37.43-2.78.79-4.19C4.29 7.21 15.7-2.18 26.25.44z"/>
    <path id="path53_fill" d="M4.03 9.85C2.36 7.5 1.05 3.96 0 0c2.23 5.56 3.93 9.65 4.03 9.85z"/>
    <path id="path54_fill" d="M12.9 4.68c.98.5 2.03.88 3.14 1.18 3.14.78 6.35.49 9.43-.66-.07.23-1.54 5.2-.72 8.12L9.92 15.35 0 9.13C2.82 7.63 5.93 2.45 7.27 0a17.52 17.52 0 0 0 5.63 4.68z"/>
    <path id="path55_fill" d="M14.83 0L4.9 12.8 0 2.03 14.83 0z"/>
    <path id="path56_fill" d="M1.77 0l4.9 10.77L0 2.19 1.77 0z"/>
    <path id="path57_fill" d="M4.48 18.16L0 .2.23 0l3.4 2.13 9.92 6.22-1.8 2.19-7.04 8.6-.23-.98z"/>
    <path id="path58_fill" d="M36.66 13.39C37.97 8.15 42.8 2.9 45.83 0c-.88 3.83-1.96 7.17-3.3 8.48-3.93 3.92-6.85 24.48-10.78 47.98-3.92 23.5-15.68 29.39-17.64 35.24-.56 7.92-7.66 20.72-14.11 30.5 6.32-15.44 19.28-46.43 22.91-50.1 4.95-4.84 11.79-50.86 13.75-58.71z"/>
    <path id="path59_fill" d="M10.67 12.86C9.33 15.32 6.22 20.5 3.4 22L0 19.87c.2-.17.4-.3.59-.46C4.52 16.46 5.79 0 5.79 0c.53 5 2.26 9.5 4.88 12.86z"/>
    <path id="path60_fill" d="M8.54 17.97L0 3.07C1.64 1.94 2.98.86 4.06 0l4.48 17.97z"/>
    <path id="path61_fill" d="M3.47 43.82A40.96 40.96 0 0 0 0 42.97c.43-3.1.95-6.51 1.64-10.18C4.39 17.74 9.98 9.36 15.78 5.37a16.57 16.57 0 0 1 7.4-2.95A35.5 35.5 0 0 0 39.12 0c-2.75 2.23-6.74 4.84-11.03 5.37-7.83.98-23.5 7.82-24.49 33.28.98 1.97 13.13 6.94 12.93 11.78-3.73-3.5-9.43-5.6-13.06-6.6z"/>
    <path id="path62_fill" d="M3.18 0c3.8 3.53 11.35 11.62 10.63 19.7-.98 10.77-3.92 27.43-1.96 35.25 1.21 4.9-5.96 12.47-11.52 17.44L0 72.33c.92-4.88 2.59-12.37 4.98-18.36 3.92-9.79-2.3-36.04-2.3-36.04.2-.75.33-1.17.33-1.17s.1-2.36.2-5.73C3.3 7.89 3.34 3.8 3.18 0z"/>
    <path id="path63_fill" d="M15.94 135.82c.07.03.36.17.76.23a6.1 6.1 0 0 0-.76-.23zm-5.82-2.94c.32-5.3-.82-8.84-1.97-11 .13 4.35.59 11 1.9 11h.07zm3.83-7.99a44.9 44.9 0 0 0-.95 6.05c0 1.97 6.87 1.97 5.89 3.93a2 2 0 0 1-2.16 1.21c1.08.36 2.85 1.05 2.16 1.74-.98.98-4.91 0-4.91 0s2.94.98 1.96 1.96c-2.94.98-11.75-3.93-13.71-4.9-1.02-.5-1.74-3.05-2.23-5.54 2.46-9.13 10.67-21.8 13.98-26.77 3.93-5.9 25.47-70.5 29.4-74.42 3.24-3.24 4.45-21.7 4.8-28.15 3.64 1.05 9.3 3.1 13.04 6.64a12.42 12.42 0 0 1 2.9 4.03c-.06 3.34-.19 5.73-.19 5.73s-.13.42-.32 1.17c-1.12 3.9-4.55 16.4-4.55 21.34 0 5.9-12.74 31.36-17.65 35.25-4.91 3.93-22.52 33.29-22.52 33.29s0 6.87-1.97 8.8c-1.1 1.11-2.22 5.04-2.97 8.6v.04z"/>
    <path id="path64_fill" d="M.4.07C.25.2.12.29 0 .43.03.29.07.13.07 0a.9.9 0 0 1 .32.07z"/>
    <path id="path65_fill" d="M48.9.85C48.59 7.3 47.35 25.76 44.1 29c-3.93 3.93-25.47 68.56-29.4 74.42C11.4 108.4 3.18 121.06.72 130.2a44.1 44.1 0 0 1-.72-5.23c0-.98 3.93-9.79 6.87-12.73 2.95-2.95 7.83-15.68 9.8-20.56 1.96-4.9 19.57-56.78 23.5-62.67 3.24-4.88 3.14-13.81 5.23-29 .04-.03 1.44.23 3.5.85z"/>
    <path id="path66_fill" d="M21.31 34.97c-.1.16-.23.3-.36.42-1.14 1.02-4.12 1.54-4.88 1.54-1.67-3.34-4.15-2.49-5.82-2.49s-1.67 2.5-4.16 2.5C1.93 36.93 0 27.9 0 27.9c.33-1.97.88-3.57 1.11-4.26.82-2.48.82-14.1 2.5-15.77C5.26 6.2 7.75 2.04 7.75 2.04c4.97-4.15 13.29-.82 14.96 0 1.67.82.82 9.98 0 12.47s-.82 12.47-.82 12.47 2.03 4.35-.59 7.99zm-1.05-22.13s4.16-6.64-3.34-7.46c0-.03 3.34 2.46 3.34 7.46zM3.63 26.14h6.65C7.79 24.45 5.3 8.68 5.3 8.68c-3.34 2.48-1.67 17.44-1.67 17.44z"/>
    <path id="path67_fill" d="M0 .43C.13.29.23.13.36 0 .29.13.16.3 0 .43z"/>
    <path id="path68_fill" d="M0 0c7.46.82 3.34 7.46 3.34 7.46A9.62 9.62 0 0 0 0 0z"/>
    <path id="path69_fill" d="M16.34 9.03c.72 0 3.73-.52 4.88-1.54-1.6 1.87-4.55 3.47-9.85 4.03C-.1 12.73-.62 5.2.3 0c0 0 1.93 9.03 6.09 9.03 2.49 0 2.49-2.48 4.16-2.48 1.63-.04 4.12-.86 5.8 2.48z"/>
    <path id="path70_fill" d="M7.06 17.44H.42S-1.25 2.5 2.09 0c0 0 2.48 15.77 4.97 17.44z"/>
    <path id="path71_fill" d="M0 0c.07 0 .36.1.75.23C.36.16.07.03 0 0z"/>
    <path id="path72_fill" d="M0 0c1.15 2.13 2.3 5.66 1.96 11H1.9C.59 11 .16 4.35 0 0z"/>
  </defs>
</svg>
