<svg width="266" height="364" xmlns="http://www.w3.org/2000/svg" xmlns:xlink="http://www.w3.org/1999/xlink">
  <use xlink:href="#path0_fill" transform="translate(138.48 319.9)" fill="#5FB2B1"/>
  <use xlink:href="#path1_fill" transform="translate(134 294.26)" fill="#97D0D1"/>
  <use xlink:href="#path2_fill" transform="translate(121.1 107.96)" fill="#E08770"/>
  <use xlink:href="#path3_fill" transform="translate(115.25 275.44)" fill="#E08770"/>
  <use xlink:href="#path4_fill" transform="translate(168.91 287.46)" fill="#CC5B4A"/>
  <use xlink:href="#path5_fill" transform="translate(194.16 201.81)" fill="#CC5B4A"/>
  <use xlink:href="#path6_fill" transform="translate(186.14 152.82)" fill="#CC5B4A"/>
  <use xlink:href="#path7_fill" transform="translate(178.92 248.93)" fill="#5FB2B1"/>
  <use xlink:href="#path8_fill" transform="translate(58.52 251.42)" fill="#97D0D1"/>
  <use xlink:href="#path9_fill" transform="translate(146.45 213.21)" fill="#CF9B1D"/>
  <use xlink:href="#path10_fill" transform="translate(64.5)" fill="#343A3A"/>
  <use xlink:href="#path11_fill" transform="translate(176.08 107.92)" fill="#E08770"/>
  <use xlink:href="#path12_fill" transform="translate(146.33 97.92)" fill="#343A3A"/>
  <use xlink:href="#path13_fill" transform="translate(119.26 110.38)" fill="#E1C24A"/>
  <use xlink:href="#path14_fill" transform="translate(68.28 189.95)" fill="#E1C24A"/>
  <use xlink:href="#path15_fill" transform="translate(146.76 96)" fill="#343A3A"/>
  <use xlink:href="#path16_fill" transform="translate(100.36 73.64)" fill="#E08770"/>
  <use xlink:href="#path17_fill" transform="translate(92.75 3.59)" fill="#343A3A"/>
  <use xlink:href="#path18_fill" transform="translate(129.21 158.92)" fill="#CC5B4A"/>
  <use xlink:href="#path19_fill" transform="translate(100.22 27.48)" fill="#E08770"/>
  <use xlink:href="#path20_fill" transform="translate(124.17 85.2)" fill="#CC5B4A"/>
  <use xlink:href="#path21_fill" transform="translate(112.72 329.11)" fill="#E08770"/>
  <use xlink:href="#path22_fill" transform="translate(99.1 65.34)" fill="#CC5B4A"/>
  <use xlink:href="#path23_fill" transform="translate(97.29 75.31)" fill="#CC5B4A"/>
  <use xlink:href="#path24_fill" transform="translate(9.17 111.79)" fill="#E08770"/>
  <use xlink:href="#path25_fill" transform="translate(62.39 111.79)" fill="#E1C24A"/>
  <use xlink:href="#path26_fill" transform="translate(67.63 252.32)" fill="#97D0D1"/>
  <use xlink:href="#path27_fill" transform="translate(40.28 287.62)" fill="#E08770"/>
  <use xlink:href="#path28_fill" transform="translate(9.61 296.65)" fill="#97D0D1"/>
  <use xlink:href="#path29_fill" transform="translate(61.45 253.91)" fill="#5FB2B1"/>
  <use xlink:href="#path30_fill" transform="translate(77.27 138.26)" fill="#CF9B1D"/>
  <use xlink:href="#path31_fill" transform="translate(94.58 97.01)" fill="#343A3A"/>
  <use xlink:href="#path32_fill" transform="translate(38.21 193.45)" fill="#CC5B4A"/>
  <use xlink:href="#path33_fill" transform="translate(65.31 102.14)" fill="#343A3A"/>
  <use xlink:href="#path34_fill" transform="translate(6.79 112.62)" fill="#CC5B4A"/>
  <use xlink:href="#path35_fill" transform="translate(0 297.22)" fill="#5FB2B1"/>
  <use xlink:href="#path36_fill" transform="translate(116.19 329.91)" fill="#CC5B4A"/>
  <use xlink:href="#path37_fill" transform="translate(153.26 299.57)" fill="#5FB2B1"/>
  <use xlink:href="#path38_fill" transform="translate(101.94 308.63)" fill="#5FB2B1"/>
  <defs>
    <path id="path0_fill" d="M123.86 5.42a14.86 14.86 0 0 1 1.99 16.61c-3.25 6.36-3.94 5.78-4.52 7.77-.72 2.49-8.49 13.54-21.68 14.12-13.18.58-86.6-.47-94.84-.1-2.24.1-3.76-2.28-4.81-5.82 22.26 1.12 97.49 4.51 109.08-5.17 7.41-6.17 9.54-20.59 8.97-32.83a44.71 44.71 0 0 1 5.81 5.42z"/>
    <path id="path1_fill" d="M34.87 19.65C44.59 18.05 65.33 4.7 74.4 0c5.34 2.06 32.59 12.93 48.16 25.64.58 12.25-1.55 26.62-8.96 32.84-11.6 9.68-86.83 6.28-109.08 5.16-1.02-3.32-1.63-7.66-2.1-12.03C1.62 44.46 1.2 37.31 0 34.9c2.24-.87 3.94-1.48 4.52-1.48 2.45-.1 19.18-14.01 28.29-13.54.61-.04 1.3-.08 2.06-.22z"/>
    <path id="path2_fill" d="M65.04 44.86a.28.28 0 0 0-.15-.14c.08.18.11.36.18.57.47 3.36.94 7.91 1.16 12.93-9.9-3.83-11.16-40.09-11.27-53.38.36-.98-.26-1.48.18-4.84 26.23 2.56 34.14 21.5 41.51 46.52 7.7 26.04 17.6 26.48 18.5 47.86.9 21.38 8.06 34.28-3.43 35.61-6.21.72-30.67-4.55-55.43-12.75a275.4 275.4 0 0 1-30.46-11.92C16.66 101 8.82 96.36 3.73 91.71 1.25 86.87.5 83.83.35 82.06 1.63 60.96 0 22.61 0 22.61s3.18-2.6 3.36 1.52c0 0 1.59-1.7 1.88 5.7l.32 7.4s1.63-.9 1.7 1.6c.04.86.65 5.89 1.77 12.24-.68 3.9-1.3 9.43-.65 14.09 1.16 8.2 4.66 13 5.68 17.08.54 2.28 7.87 2.96 15.75 3.65 7.62 2.6 17.92 5.53 27.42 7.26 5.82 1.05 11.35 1.66 15.8 1.48A22.13 22.13 0 0 0 85.66 99c5.28.18 9.29-2.17 12.65-4.44-3.07-.33-7.92-.65-13.84-.58-1.38-1.23-3.07-4.4-4.95-8.56-.36-20.62-9.1-34.17-14.5-40.56z"/>
    <path id="path3_fill" d="M18.72 53.67A453.4 453.4 0 0 0 0 61.8c4.37-9.94 6.14-25.43 5.78-31.68l1.84-.69 1.45-.54 17.92-4.87S28.76 7.44 40.32 7.8c7.41.22 20.31.87 31.51-.76a56.4 56.4 0 0 0 3.9-.69c4.74-.97 9-2.45 12.18-4.7 7.26-3.6 13.19-.53 15.75 1.81 2.57 2.35 18.18.87 18.43 6.65.11 2.78-4.3 3.83-9.83 4.59-6.14-.98-11.85-2.42-16.47-2.68-9.1-.43-17.67 11.45-27.4 15.17-6.1 2.32-11.4 7.52-14.73 11.27-.76.11-1.48.18-2.1.15-9.1-.44-25.83 13.47-28.3 13.54-.6.08-2.3.65-4.54 1.52z"/>
    <path id="path4_fill" d="M39.53 6.8C30.46 11.53 9.68 24.86 0 26.45c3.32-3.8 8.64-8.96 14.74-11.27C24.5 11.46 33.06-.42 42.14.01c4.62.22 10.32 1.66 16.47 2.67-5.86.8-12.9 1.27-17.06 3.15-.58.25-1.26.57-2.02.97z"/>
    <path id="path5_fill" d="M25.3.6c-3.37 2.27-7.38 4.62-12.65 4.44A22.25 22.25 0 0 1 0 .67l1.73-.1A121.18 121.18 0 0 1 25.3.6z"/>
    <path id="path6_fill" d="M0 0c5.35 6.4 14.13 19.97 14.49 40.45C8.99 28.28 2.28 7.44.04.43.04.3.04.14 0 0z"/>
    <path id="path7_fill" d="M4.59 0c4.23 9.25 8.16 22.8 7.48 32.8v.07c-1.27.25-2.57.47-3.9.68C8.24 23.48 4.99 12.32 0 2.5 1.4 1.73 2.78.94 4.2.14L4.58 0z"/>
    <path id="path8_fill" d="M120.43 0c4.99 9.82 8.24 20.98 8.17 31.06-11.24 1.63-24.1.98-31.51.76-11.56-.32-13.33 16.22-13.33 16.22L65.83 52.9l-1.44.55s.43-4.63-4.66-7.7c-5.1-3.07-27.21.33-33.1-2.7C17.6 35.28 6.03 35.82 0 36.83v-.07c2.02-.5 2.78-2.39 3.04-4.12 4.48-4.62 2.38-16.8 12.71-13.83 12.1 3.47 46.04-3.22 48.39-3.69.07 0 .1-.03.1-.03v-.4c16.52-.07 35.78-3.76 56.19-14.7z"/>
    <path id="path9_fill" d="M37.05 35.72l-.36.11c-1.4.83-2.82 1.59-4.19 2.35-5.89-11.52-14.16-21.2-22.47-25.1C-.67 8.02-.67 2.84.53 0a275.62 275.62 0 0 0 30.45 11.92s-4.91 9.53.22 14.27c1.7 1.55 3.83 5.05 5.85 9.53z"/>
    <path id="path10_fill" d="M79.44 69.85c3.43-7.22 5.27-16.18 4.84-25.86-.97-22.93-14.3-41.03-29.74-40.38-15.46.65-27.2 19.8-26.23 42.76.4 9.07 2.68 17.38 6.29 24.06a41.29 41.29 0 0 0 3.07 4.88s3.72 13.65-1.08 21.7a11.16 11.16 0 0 1-5.93 4.88c-.18.07-.4.14-.58.22-10.19 3.68-19.4 7.26-29.27 9.68-2.63-5.53 1.27-11.6 9.72-17.3 9.5-6.4 4.92-14.85 5.5-20.63.57-5.78-7.12-21.7 2.24-49.77C24.05 6.72 49.59.14 49.59.14s25.84-2.2 32.13 10.7C88 23.72 94.07 21.26 94.07 33.07c0 12.36.8 25.29 4.3 34.64 3.07 8.2 15.8 27.96 13.73 37.93-.18.86-.29 1.62-.4 2.27-.07 0-.1-.03-.17 0a43.1 43.1 0 0 0-3.15-.22c-9.93-.43-16.7-4.58-21.28-9.82a35.86 35.86 0 0 1-1.55-1.91c-7.27-9.72-8.17-21.93-8.2-22.33a38.8 38.8 0 0 0 2.09-3.79z"/>
    <path id="path11_fill" d="M.02 0H.2C-.24 3.36.38 3.86.02 4.84c-.04-3 0-4.84 0-4.84z"/>
    <path id="path12_fill" d="M29.77 10s-.04 1.85 0 4.88c-.36.94-1.66 2.35-5.93 7.4-9.43 11.13-14.92-1.84-21.53-2.38-2.6-.22-2.64-3.36-1.88-7.4A51.7 51.7 0 0 0 5.3 0c4.6 5.27 11.39 9.4 21.29 9.82 1.08 0 2.13.08 3.18.18z"/>
    <path id="path13_fill" d="M10.88 48.54A179.75 179.75 0 0 1 9.1 36.3c-.1-2.46-1.7-1.6-1.7-1.6l-.33-7.4c-.31-7.4-1.87-5.7-1.87-5.7-.18-4.12-3.36-1.52-3.36-1.52s-.97-.9-1.84-.86l.04-1.56c.83 0 1.66 0 2.53-.07C15.5 16.61 23.17 7.8 27.5 0c-.8 4.08-.76 7.19 1.88 7.4 6.6.55 12.1 13.51 21.53 2.39 4.26-5.02 5.57-6.43 5.93-7.4.14 13.29 1.4 49.55 11.27 53.38.54 12.67-.72 28.28-9 34.82a201.87 201.87 0 0 1-27.42-7.26 88.83 88.83 0 0 1-9.97-3.9c-5-2.46-8.78-18.97-10.84-30.89z"/>
    <path id="path14_fill" d="M88.2 36.34c8.27 3.93 16.58 13.58 22.47 25.1C90.26 72.42 71 76.07 54.45 76.1 22 76.21 0 62.34 0 62.34c2.78-6.57 5.64-11.09 7.15-12.71 3.15-3.43-.61-15.75-.61-15.75 20.74-7.55 40-16 45.2-22.4.72-2.27 1.2-6.39 1.48-11.48.18 1.77.9 4.8 3.36 9.64 5.1 4.7 12.94 9.32 22.12 13.62-1.2 2.85-1.2 8.02 9.5 13.08z"/>
    <path id="path15_fill" d="M4.88 1.88S3.6 7.8 0 14.4C.87 9.86 2.82 4.11 3.36 0a58 58 0 0 0 1.52 1.88z"/>
    <path id="path16_fill" d="M27.68 12.06C33.13 10.2 37.94 5.9 41.52 0c.03.4.9 12.64 8.2 22.32-.54 4.12-2.46 9.86-3.36 14.41-4.3 7.84-12 16.62-24.93 17.6-.87.06-1.74.1-2.53.06C9.54 54.3 3.69 49.37 0 43.9c3.29-6.29 3.97-16.95 4.48-20.2.65-4.15 3.9-5.13 9.68-5.34 3.3-.15 7.05-3 9.62-5.42 1.33-.14 2.63-.43 3.9-.87z"/>
    <path id="path17_fill" d="M7.43 61.74a33.8 33.8 0 0 1-1.09 5.1C2.73 60.15.42 51.84.06 42.78-.92 19.81 10.82.67 26.29.02 41.75-.63 55.05 17.46 56.03 40.4c.4 9.64-1.45 18.63-4.85 25.86-6.72-4.59-5.02-26.95-13.44-29.62C28.57 33.72 27.3 23.9 27.3 23.9s-8.24 20.12-14.7 22.86c-3.87 1.67-4.27 8.93-5.17 15z"/>
    <path id="path18_fill" d="M21.7 34.82c-7.84-.69-15.2-1.41-15.75-3.65C4.94 27.09 1.43 22.3.28 14.1-.37 9.43.24 3.9.93 0c2.06 11.88 5.85 28.43 10.8 30.92 1.95.97 5.5 2.38 9.97 3.9z"/>
    <path id="path19_fill" d="M25.37 57.72C8.78 54.07 2.38 45.12 0 37.85c.9-6.07 1.3-13.33 5.17-14.99C11.63 20.12 19.87 0 19.87 0s1.23 9.82 10.45 12.75c8.45 2.67 6.72 25 13.44 29.62a32.7 32.7 0 0 1-2.06 3.79c-3.58 5.89-8.39 10.19-13.84 12.06-.87-.14-1.7-.32-2.5-.5z"/>
    <path id="path20_fill" d="M1.4 0c.8.18 1.64.36 2.5.5-1.26.44-2.56.76-3.9.9L1.4 0z"/>
    <path id="path21_fill" d="M23.7 16.72h-.03L0 12.8c.94-1.34 1.8-2.93 2.57-4.66A453.44 453.44 0 0 1 21.28 0c1.2 2.42 1.63 9.57 2.42 16.72z"/>
    <path id="path22_fill" d="M26.49 19.87c-.44.43-.9.9-1.45 1.4-.54.08-1.05.11-1.59.15-7.77.32-15-4.08-20.38-11.45A46.59 46.59 0 0 1 0 5.09C.47 3.65.8 1.88 1.08 0c2.42 7.26 8.78 16.22 25.4 19.87z"/>
    <path id="path23_fill" d="M26.85 11.3c-2.57 2.43-6.33 5.28-9.61 5.42-5.75.26-9.04 1.2-9.69 5.35-.5 3.21-1.2 13.87-4.48 20.19A35.93 35.93 0 0 1 0 36.48c1.52-3.65 2.82-8.45 3.76-14.77C8.56 13.65 4.84 0 4.84 0c5.39 7.37 12.61 11.77 20.38 11.45.58-.04 1.08-.07 1.63-.14z"/>
    <path id="path24_fill" d="M29.04 92.1c1.63 4.88 9.69 10.44 43.14.83 8.78-3.03 14.85-7.04 19.05-11.23 7.33-4 11.96-18.93 12.9-32.98 1-14.88 3.5-14.99 3.5-14.99-.58-13.97 1.12-12.42 1.12-12.42-.1-2.7.58-3.43 1.34-3.47.86-.03 1.84.87 1.84.87s1.63 38.36.36 59.45c-.32 5.13-.8 9.21-1.48 11.49-5.2 6.39-24.46 14.84-45.2 22.39-26.23 9.54-54.82 17.63-60.3 18.31-.51.08-.98.08-1.42.04-9.6-9.4 1.34-44.1 3.44-49.6 2.24-5.84 15.53-22.9 14.45-28.63C20.7 46.4 37.42 12.75 44.65 7.5A65.24 65.24 0 0 0 52.5.83C53.72.58 54.95.3 56.14 0c.04.07.07.18.15.25.83 3.5 8.74 38.32-3 55.8-.08-3.53-.08-6.75 0-9.28l-2.68 3.36S38.94 84.95 31.4 92.43c-.83-.07-1.59-.18-2.35-.33z"/>
    <path id="path25_fill" d="M45.6 40.7c-.25-.43-8.13-14.48-14.6-14.23-6.57.3-14.67 3.9-16.08 9.76 0 0 21.18-5.85 30.68 4.48zM37.98 5.79c3.68 5.53 9.53 10.4 18.9 10.5l-.04 1.56c-.76.04-1.45.8-1.34 3.47 0 0-1.7-1.59-1.12 12.42 0 0-2.46.11-3.5 15-.98 14.04-5.57 28.96-12.9 32.97-.44.25-.9.43-1.34.61a248.24 248.24 0 0 1-27.9 7.55C2.02 85.56.33 68.81 0 56.13 11.74 38.68 3.83 3.83 3 .33 4.95 4.08 9.97 7.58 18.72 10.5c0 0 9.79 4.8 16.15-10.51a39.39 39.39 0 0 0 3.1 5.78z"/>
    <path id="path26_fill" d="M55.1 13.73v.4l-.1.03C22.46 18.89 5.01 6.1 0 1.59.22 1.05.43.5.65 0c-.04 0 22 13.83 54.45 13.73z"/>
    <path id="path27_fill" d="M77.97 9.53c5.1 3.07 4.66 7.7 4.66 7.7l-1.84.68c-.11-1.88-.4-2.9-.9-2.71-2.43.94-8.9 4.51-14.78 1.44-5.9-3.07-23.24-3.14-28.26-5.41-3.54-1.6-24.17-2.1-36.38-2.2 0 0-4.38-5.97 13.69-7.56 0 0 1.55-.5 4.08-.9 6.04-1 17.6-1.55 26.63 6.21 5.9 3.07 28-.32 33.1 2.75z"/>
    <path id="path28_fill" d="M67.44 63.92s-19.25-.43-35.77-.69C18.56 58.72 5.01 52.83 1.83 49.51c-6.04-6.36 5.13-15.06 1.3-28.1C.7 13.17 10.53 5.37 18.45.57 19.53.39 20.73.2 22.03.03c.25-.04 3.9-.04 9.07 0 12.2.1 32.84.61 36.38 2.2 5.06 2.28 22.37 2.35 28.26 5.42 5.89 3.07 12.35-.5 14.78-1.45.5-.18.79.83.9 2.71.4 6.25-1.41 21.75-5.78 31.68a24.56 24.56 0 0 1-2.57 4.66c-7.77 11.05-1.88 14.08-3.32 19.1-1.01 3.69-17.35 3.54-32.3-.43z"/>
    <path id="path29_fill" d="M6.14 0c5.06 4.55 22.48 17.34 55 12.57-2.35.47-36.28 7.15-48.39 3.68C2.42 13.3 4.52 25.46.04 30.1.29 28.33 0 26.7 0 26.7A91.17 91.17 0 0 1 6.14 0z"/>
    <path id="path30_fill" d="M16.12 0c6.5-.28 14.38 13.77 14.6 14.24C21.2 3.94 0 9.76 0 9.76 1.45 3.9 9.54.29 16.12 0z"/>
    <path id="path31_fill" d="M6.5 0c-.94 6.28-2.24 11.09-3.75 14.77C.55 9.57 0 5.1 0 5.1l.58-.21C3.28 3.9 5.2 2.17 6.5 0z"/>
    <path id="path32_fill" d="M2.31 10.8c8.6 1.08 20.06-.43 30.64-2.64 12.5-2.6 23.85-6.14 27.9-7.55.47-.14.9-.36 1.33-.61C58 4.19 51.92 8.24 43.14 11.23 9.68 20.84 1.63 15.28 0 10.4c.76.18 1.52.3 2.31.4z"/>
    <path id="path33_fill" d="M.14 9.93L0 9.68C9.86 7.26 19.08 3.65 29.27 0c0 0 .54 4.44 2.74 9.68-6.32 15.31-16.15 10.51-16.15 10.51-8.74-3-13.8-6.5-15.72-10.26z"/>
    <path id="path34_fill" d="M50.9.76C52.23.54 53.53.29 54.83 0A62.08 62.08 0 0 1 47 6.68c-7.15 5.28-23.88 38.97-22.83 44.68C25.24 57.1 11.9 74.16 9.7 80c-2.1 5.5-13.04 40.2-3.43 49.6-8.27-.48-6.57-16.11-4.84-30.31C2.88 75.31 19.61 60.61 20 50.67c.44-9.86 17.82-47.7 30.9-49.91z"/>
    <path id="path35_fill" d="M41.29 62.7c-9.72-.14-18.5-.21-21.86-.07-9.04.4-19.59-14.84-18.32-23.95 1.26-9.13-5.97-19.93 5.45-27.45C14.01 6.36 14.4 2.46 28.06 0c-7.95 4.84-17.78 12.6-15.32 20.84 3.87 13.04-7.33 21.74-1.3 28.1 3.18 3.36 16.77 9.21 29.85 13.76z"/>
    <path id="path36_fill" d="M17.05 0L0 6.5s.87.8 3.29-.14C5.7 5.42 17.05 0 17.05 0z"/>
    <path id="path37_fill" d="M49.47 0S35.45 13.18 27.2 14.01c-8.24.83-25.55 8.24-27.21 10.7 0 0 19.76-7.4 26.38-3.3C32.95 25.55 50.26 5.79 49.47 0z"/>
    <path id="path38_fill" d="M6.01 0s2.46 10.7-2.45 16.47C-1.4 22.25.26 37.06.26 37.06S2.74 21.42 7.69 18.1C12.58 14.84 6 0 6 0z"/>
  </defs>
</svg>
