<svg width="238" height="591" xmlns="http://www.w3.org/2000/svg" xmlns:xlink="http://www.w3.org/1999/xlink">
  <use xlink:href="#path0_fill" transform="translate(124.51 288.8)" fill="#898685"/>
  <use xlink:href="#path1_fill" transform="translate(12.73 235.3)" fill="#AAA"/>
  <use xlink:href="#path2_fill" transform="translate(190.07 190.6)" fill="#D8403D"/>
  <use xlink:href="#path3_fill" transform="translate(163.42 143.4)" fill="#D8403D"/>
  <use xlink:href="#path4_fill" transform="translate(156.17 187.5)" fill="#E05451"/>
  <use xlink:href="#path5_fill" transform="translate(142.53 232)" fill="#D28F65"/>
  <use xlink:href="#path6_fill" transform="translate(150.31 239.8)" fill="#D28F65"/>
  <use xlink:href="#path7_fill" transform="translate(113.3 175.4)" fill="#D8403D"/>
  <use xlink:href="#path8_fill" transform="translate(119.81 101.9)" fill="#D8403D"/>
  <use xlink:href="#path9_fill" transform="translate(112.17 15.2)" fill="#372D2E"/>
  <use xlink:href="#path10_fill" transform="translate(96.66 72.6)" fill="#D28F65"/>
  <use xlink:href="#path11_fill" transform="translate(87.93 14.8)" fill="#D28F65"/>
  <use xlink:href="#path12_fill" transform="translate(81.66 14.5)" fill="#372D2E"/>
  <use xlink:href="#path13_fill" transform="translate(81.66 40.4)" fill="#703E27"/>
  <use xlink:href="#path14_fill" transform="translate(90.83 72.6)" fill="#703E27"/>
  <use xlink:href="#path15_fill" transform="translate(88.01 86.7)" fill="#E05451"/>
  <use xlink:href="#path16_fill" transform="translate(59.75)" fill="#372D2E"/>
  <use xlink:href="#path17_fill" transform="translate(55.04 272.7)" fill="#898685"/>
  <use xlink:href="#path18_fill" transform="translate(63.58 250.2)" fill="#D28F65"/>
  <use xlink:href="#path19_fill" transform="translate(60.26 187.6)" fill="#D8403D"/>
  <use xlink:href="#path20_fill" transform="translate(60.28 243.8)" fill="#898685"/>
  <use xlink:href="#path21_fill" transform="translate(29.13 247)" fill="#D28F65"/>
  <use xlink:href="#path22_fill" transform="translate(52.49 155)" fill="#D8403D"/>
  <use xlink:href="#path23_fill" transform="translate(16.69 86.6)" fill="#F75246"/>
  <use xlink:href="#path24_fill" transform="translate(21.09 97.9)" fill="#D8403D"/>
  <use xlink:href="#path25_fill" transform="translate(12.49 165.3)" fill="#D8403D"/>
  <use xlink:href="#path26_fill" transform="translate(16.47 288.7)" fill="#898685"/>
  <use xlink:href="#path27_fill" transform="translate(147.53 575.3)" fill="#150911"/>
  <use xlink:href="#path28_fill" transform="translate(153.57 561.1)" fill="#D8403D"/>
  <use xlink:href="#path29_fill" transform="translate(173.35 575.1)" fill="#197ABC"/>
  <use xlink:href="#path30_fill" transform="translate(147.74 539.3)" fill="#F75246"/>
  <use xlink:href="#path31_fill" transform="translate(169.93 563.4)" fill="#D8403D"/>
  <use xlink:href="#path32_fill" transform="translate(.31 542.4)" fill="#F75246"/>
  <use xlink:href="#path33_fill" transform="translate(21.09 549)" fill="#D8403D"/>
  <use xlink:href="#path34_fill" transform="translate(0 576.7)" fill="#150911"/>
  <use xlink:href="#path35_fill" transform="translate(4.26 553.1)" fill="#D8403D"/>
  <use xlink:href="#path36_fill" transform="translate(26.08 585.3)" fill="#197ABC"/>
  <defs>
    <path id="path0_fill" d="M28.9 246c-4.9-17.24-7.76-99.73-10.21-105.88-2.45-6.14-9.85-41.8-8.6-56.54 1-12.21-7.24-44.62-10.09-55.43C6.19 14.94 23 .52 23.63 0 23.11.52 7.68 16.27 8.88 34.42c1.25 18.43 11.1 41.8 8.6 60.24-2.45 18.44 6.15 40.56 6.15 54.1 0 12.57 6.31 86.87 7.2 97.27H28.9V246z"/>
    <path id="path1_fill" d="M142.6 299.49c-.88-10.4-7.19-84.7-7.19-97.28 0-13.53-8.6-35.66-6.15-54.1 2.46-18.43-7.4-41.8-8.6-60.24-1.2-18.15 14.23-33.9 14.75-34.41-.64.52-17.44 14.98-23.63 28.15l-.97-3.58s-13.58 54.1-25.88 65.19c0 7.39-4.9 28.27-8.6 33.21-1.25 2.45-8.6 23.38-17.25 31.97-2.45 6.14-.36 36.06-42.2 97.55L0 305.55c.24-10.2 1.69-21.49 3.74-32.97 10.4-32.1 28.5-86.55 31.95-90 4.9-4.9 6.15-22.13 6.15-22.13s-3.7-31.97 4.9-55.35c6.28-17.07 7.72-39.76 8-50.76.12-3.9.08-6.3.08-6.5 6.56 3.45 8.36-.93 6.68-1.77-2.38-1.2-14-15.07-14.71-15.95.96.6 20.9 13.42 22.1 11.05 1.25-2.45-19.7-15.99-18.45-18.44.16-.32.6-.48 1.29-.52 4.42-.24 18.25 4.94 17.2 1.73-1-3.02-11.05-8.52-18.04-9.08a27.22 27.22 0 0 1 0-6.27L146.35 0c-9.05 4.9-19.3 13.98-15.88 16.55 1.65 1.2 4.3.32 7.11-1.45-2.97 3.94-4.62 7.63-3.41 8.84 1.08 1.08 5.26-1 9.56-3.7a19.6 19.6 0 0 0-3.41 4.94c-1.65 4.14 6.83-.68 12.46-4.26-3.06 2.53-5.75 5.43-3.86 6.71 3.7 2.45 13.54-7.39 16-7.39 1 0 1.24-.4 2.77-.52 1.44 3.77 13.06 35.02 10.77 54.62-2.45 20.92-13.55 89.76-11.1 100.84 2.46 11.09 9.5 75.15-11.4 124.3H142.6z"/>
    <path id="path2_fill" d="M21.38 0c.24 7.35-.72 19.6-7.96 29.24C8.48 35.82 3.74 39.4 0 41.37 7.15 31.45 18.53 6.43 21.38 0z"/>
    <path id="path3_fill" d="M6.87 3.9c3.1 5.54 20.94 24.74 30.43 33.21C23.63 26.6 2.37 9.32.72 2.7L0 2.45C1.53-.35 3.7-1.76 6.87 3.9z"/>
    <path id="path4_fill" d="M14.12 43.37l-.04 1.25c-.72-.04-1.16-.04-1.16-.04-.04 0-.12 0-.16-.04-1.25-7.67-5.83-20.84-9.69-29.48A34.48 34.48 0 0 1 .02 0C4 11.37 14.12 27.03 14.12 43.37z"/>
    <path id="path5_fill" d="M22.98 24.13c-5.67 3.58-14.1 8.4-12.46 4.26.56-1.44 1.85-3.13 3.42-4.94-4.3 2.7-8.48 4.78-9.57 3.7-1.16-1.17.44-4.9 3.42-8.84 5.66-3.57 12.02-10.6 12.02-10.6-4.35 2.05-8.93 6.46-12.02 10.6-2.82 1.77-5.47 2.65-7.12 1.45C-2.74 17.19 7.51 8.1 16.55 3.2c3.9-2.13 7.56-3.45 9.8-3.17.05 0 .13 0 .17.04 0 0 .44 0 1.16.04C30.05.2 35.6.6 39.7 2.29c1.05.4 2.01.92 2.81 1.52.6.48 1.5.08 2.58-.96 3.1 4.26 7.4 10.44 10.53 15.58-4.34 3.58-8.44 5.58-11.9 5.06-3.05-.52-4.78-.6-5.83-.52-1.48.08-1.73.52-2.77.52-2.45 0-12.3 9.84-16 7.4-1.89-1.33.8-4.27 3.86-6.76z"/>
    <path id="path6_fill" d="M12.02 0S5.67 7.03 0 10.6C3.1 6.47 7.68 2.05 12.02 0z"/>
    <path id="path7_fill" d="M35.29 5.46c-4.18 3.26-11.86 8.28-20.14 8.28C7.32 13.74 2.5 5.78 0 0c5.55 4.98 17.89 12.9 35.29 5.46z"/>
    <path id="path8_fill" d="M27.1 1.09S13.54 4.79 9.84 7.23C6.15 9.68 4.95 1.1 0 1.1c0 0 23.4-2.45 27.1 0z"/>
    <path id="path9_fill" d="M19.86 28.92C16.36 21 10.2 11.2 7.68 10.36 4.94 9.44 1.57 3.21 0 0c10.65 2.93 18.85 14.58 19.86 28.92z"/>
    <path id="path10_fill" d="M25.93 0c.04.36 1.12 7.47 5.02 14.1C19.09 17.95 6.9 16.75 0 15.46c3.9-2.53 8.4-4.74 12.1-4.74 5.79 0 9.36-5.02 11.05-8.27.97-.72 1.9-1.57 2.78-2.45z"/>
    <path id="path11_fill" d="M34.65 57.8c-.89.92-1.81 1.72-2.78 2.48a20.91 20.91 0 0 1-12.9 4.58c-3.1 0-6.07-.72-8.84-2.05C2.13 54.1.4 33.98 0 25.58c2.81-4.37 5.1-9.23 8.52-9.92 4.99-1 11.58-11.64 13.9-15.66.61.08 1.21.24 1.78.4 1.56 3.21 4.98 9.44 7.67 10.36 2.58.85 8.69 10.6 12.18 18.56.08.96.12 1.97.12 2.97 0 10.32-3.7 19.52-9.52 25.5z"/>
    <path id="path12_fill" d="M6.27 25.9c-1.73 2.74-3.7 5.27-6.27 6.51C.08 14.5 11.33 0 25.24 0c1.17 0 2.33.08 3.46.32-2.33 4.02-8.92 14.7-13.9 15.66-3.43.69-5.72 5.5-8.53 9.92z"/>
    <path id="path13_fill" d="M6.27 0C6.63 8.4 8.4 28.51 16.4 37.23c-2.5-1.2-4.78-2.9-6.83-4.98C3.74 26.27 0 17.07 0 6.75v-.16C2.57 5.22 4.5 2.69 6.27 0z"/>
    <path id="path14_fill" d="M17.93 10.72c-3.7 0-8.2 2.21-12.1 4.74C2.2 14.78 0 14.1 0 14.1.92 7.75.4.32.36 0A23.85 23.85 0 0 0 7.2 4.98a20.26 20.26 0 0 0 8.85 2.05c4.7 0 9.12-1.69 12.9-4.58-1.69 3.25-5.23 8.27-11.01 8.27z"/>
    <path id="path15_fill" d="M.64 7.03C1.77 5.3 2.41 2.73 2.81 0c0 0 2.21.68 5.83 1.37A74.98 74.98 0 0 0 0 7.95c.24-.32.44-.6.64-.92z"/>
    <path id="path16_fill" d="M9.33 93.29C.69 91.12.2 86.22 1 84.57c1.24-2.45 1.24-9.84 0-13.53-1.25-3.7-2.45-15.99 3.7-20.93 6.15-4.94 3.7-13.53 13.54-35.66C28.1-7.68 53.9 2.2 53.9 2.2s19.7 1.24 20.94 14.74c1.25 13.5 16 25.82 14.76 35.66-1.25 9.84-12.3 18.44-7.4 24.58 4.9 6.15 7.8 18.27-7.8 17.15a24.35 24.35 0 0 1-6.59-7.63c-3.9-6.63-4.94-13.78-5.02-14.1 5.82-5.98 9.56-15.18 9.56-25.5 0-1-.04-2-.12-2.97-1-14.34-9.2-25.99-19.9-28.92l-.92-1.93-.84 1.53c-1.13-.2-2.3-.32-3.46-.32-13.87 0-25.16 14.5-25.24 32.4v.17c0 10.32 3.74 19.56 9.56 25.5.05.36.53 7.75-.36 14.1-.4 2.77-1.04 5.34-2.17 7.03-9.04 1.08-15.31.68-19.57-.4z"/>
    <path id="path17_fill" d="M12.56 10.36c0 .2.04 2.61-.08 6.5l-1.77-.03c0-.48-.08-.85-.08-.85C-4.12 1.25.78 0 .78 0c4.95 5.7 8.84 8.84 11.78 10.36z"/>
    <path id="path18_fill" d="M18.09 9.04C19.17 12.24 5.3 7.07.89 7.3L.83 4.14A29.44 29.44 0 0 1 0 0c7.03.52 17.08 6.02 18.09 9.04z"/>
    <path id="path19_fill" d="M.02 56.5c-.37-10.55 5.54-23.37 6.63-25.54C7.77 28.68 9.75 5.7 3.39 0 4.16.2 5 .44 6 .64c3.54 6.23 10.17 21.85.65 38.92-1.4 7.03-2.82 12-3.3 16.63l-3.33.32z"/>
    <path id="path20_fill" d="M.48 4.3A21.51 21.51 0 0 1 0 .32L3.34 0a27.22 27.22 0 0 0 0 6.27 11.79 11.79 0 0 0-2.86.12v-2.1z"/>
    <path id="path21_fill" d="M31.63 3.21c.04-.04.08-.04.16-.04.85-.12 1.73-.16 2.7-.08.16 1.33.4 2.7.84 4.14l.04 3.17c-.64.04-1.12.2-1.29.52-1.24 2.45 19.7 15.99 18.45 18.44-1.2 2.4-21.18-10.44-22.1-11.05.72.89 12.34 14.74 14.7 15.95 1.7.84-.11 5.22-6.66 1.77-2.94-1.57-6.84-4.66-11.78-10.37 0 0-4.9 1.25 9.85 15.99 0 0 .08.36.08.84 0 1.45-.69 3.74-6.23-.84-7.4-6.15-12.3-14.74-12.3-14.74C.84 25.66.84 7.23.84 7.23L0 6.03A184.62 184.62 0 0 1 14.87 0c.24.4.48.76.73 1.12 1.24 2.45 1.24 3.7 1.24 3.7s7.4 1.24 13.55-1.25c.36-.16.8-.28 1.24-.36z"/>
    <path id="path22_fill" d="M9.48 31.65C-4.06 26.75.88 4.58.88 3.37.88 2.3 1 1.17 1.2 0-.04 14.54 3.57 33.41 31.03 32.29a32.2 32.2 0 0 1-17.25 1c-1-.2-1.89-.44-2.61-.64a6.06 6.06 0 0 0-1.69-1z"/>
    <path id="path23_fill" d="M96.61 88.72c2.5 5.78 7.32 13.73 15.15 13.73 8.28 0 15.96-4.98 20.14-8.27-17.4 7.47-29.74-.44-35.29-5.46zm-59.6-20.36c-.2 1.16-.33 2.28-.33 3.37 0 0-1.24-2.45-3.7 3.7-2.45 6.14-9.84 28.27-12.3 30.72 0 2.37 0 42.65 6.68 54.22a207.96 207.96 0 0 0-14.88 6.02c-.4-.64-.84-1.24-1.24-1.89-1-7.99-3.26-20.88-7.8-33.77-5.83-16.47-4.02-29.12 3.66-51.21a650.71 650.71 0 0 1 7.43-20.12s6.44-32.85 28.94-48.11c10.98-1.53 22.91-.93 26.41-2.33.28-.12.56-.29.8-.45l.05-.04c.2-.12.36-.28.52-.48.04-.04.04-.04.08-.04 1.32-1.2 4.7-4.05 8.64-6.58C86.88 2.65 99.02 3.86 110.92 0a25.28 25.28 0 0 0 6.6 7.63 19.03 19.03 0 0 0 10.24 3.78c18.45 1.24 40.6 17.23 48 29.51 7.39 12.3 38.14 44.26 38.14 44.26s11.09 12.3 6.14 23.38c-3.85 8.67-22.82 42.29-38.58 55.22a275.72 275.72 0 0 0-10.53-15.58c.72-.69 1.57-1.69 2.45-2.94 3.74-1.96 8.52-5.54 13.43-12.12 7.23-9.64 8.16-21.9 7.95-29.24.45-.97.69-1.53.69-1.53l-.77-.56c-1-.72-2.97-2.2-5.54-4.14a228.27 228.27 0 0 1-5.1-3.9c-9.5-8.43-27.34-27.66-30.44-33.2-3.13-5.67-5.34-4.26-6.87-1.5l.73.25s0 14.74-8.6 29.52c-1.77 3.01-1.13 7.1.64 12-.08 3.78.4 9.04 3.05 15.07 3.86 8.67 8.44 21.8 9.69 29.47-2.25-.28-5.95 1.05-9.8 3.18l-95.47 8.55c.48-4.62 1.89-9.6 3.3-16.62 9.48-17.07 2.85-32.7-.65-38.92a32.6 32.6 0 0 0 17.25-1c-27.5 1.2-31.11-17.64-29.87-32.21zm75.96-45.79c3.7-2.45 17.24-6.14 17.24-6.14-3.7-2.45-27.09 0-27.09 0 4.95-.04 6.15 8.6 9.85 6.14z"/>
    <path id="path24_fill" d="M39.07 0C16.52 15.26 10.13 48.11 10.13 48.11a958.24 958.24 0 0 0-7.44 20.12L0 67.27C6.19 48.67 14.67 17.6 19.98 8.76 23.1 3.49 30.83 1.16 39.07 0z"/>
    <path id="path25_fill" d="M7.63 52.13c4.55 12.9 6.76 25.78 7.8 33.78C-2.17 57.75-2 18.76 2.73 14 4.1 12.66 6.2 7.28 8.6 0l2.7.96c-7.64 22.05-9.5 34.7-3.67 51.17z"/>
    <path id="path26_fill" d="M31.95 129.12c-3.45 3.45-21.5 57.91-31.95 90 7.96-44.06 25.76-91.25 25.76-91.25 0-3.69 2.46-12.29 6.15-22.12C27.01 63.94 43.01 0 43.01 0c5.54 4.62 6.23 2.33 6.23.84L51 .88c-.29 10.97-1.73 33.7-8 50.77-8.56 23.33-4.9 55.34-4.9 55.34s-1.21 17.19-6.16 22.13z"/>
    <path id="path27_fill" d="M.94 6.14C-.11 4.74-.2 2.5.25 0c.12.2 4.18 7.27 8.6 7.27 4.5 0 2.26-3.37 5.67-3.37 3.38 0 4.54 0 6.8 2.24 2.25 2.25 10.53.77 10.93-.76-.04 1.85-.56 3.38-1.85 4.14C17.9 14.06 4.35 10.64.94 6.14z"/>
    <path id="path28_fill" d="M.56 14.7S-1.69 2.29 2.81 0l2.25 7.91-4.5 6.79z"/>
    <path id="path29_fill" d="M.16 0A.87.87 0 0 1 0 .68S.08.44.16 0z"/>
    <path id="path30_fill" d="M8.64 21.84c-4.5 2.25-2.25 14.7-2.25 14.7l4.5-6.79-2.25-7.9zm13.59 6.75s3.45 5.18 3.57 7.23c-.08.44-.16.68-.16.68.16-.16.2-.36.16-.68.49-2.01 1.7-8.04-.16-11.77l-3.41 4.54zm5.62-4.5c-.88.88 4.3 11.12 4.14 17.3-.4 1.54-8.64 3.02-10.93.77-2.25-2.25-3.37-2.25-6.8-2.25-3.37 0-1.12 3.38-5.66 3.38-4.46 0-8.48-7.03-8.6-7.27.96-5.58 4.42-12.3 5.23-13.1 1.12-1.12 0-13.57 0-13.57s1.12-3.37 1.12-5.66c0-2.25 0-4.54 11.3-3.38 11.29 1.13 6.79 5.67 7.91 7.92 1.17 2.29 3.46 14.74 2.3 15.86z"/>
    <path id="path31_fill" d="M3.58 11.73C3.46 9.68 0 4.5 0 4.5L3.38 0c1.93 3.7.72 9.72.2 11.73z"/>
    <path id="path32_fill" d="M26.17 42.91c-.12.2-.29.36-.45.56-1.4 1.25-5.06 1.85-5.98 1.85-2.05-4.06-5.1-3.05-7.16-3.05-2.05 0-2.05 3.05-5.1 3.05C2.38 45.32 0 34.23 0 34.23c.4-2.4 1.09-4.37 1.37-5.22 1-3.05 1-17.3 3.05-19.35C6.47 7.6 9.52 2.5 9.52 2.5c6.12-5.1 16.32-1 18.37 0 2.05 1 1 12.25 0 15.3-1 3.05-1 15.3-1 15.3s2.53 5.38-.72 9.8zm-1.29-27.15s5.1-8.15-4.1-9.16c0 0 4.1 3.06 4.1 9.16zM4.46 32.11h8.16c-3.05-2.05-6.1-21.41-6.1-21.41-4.07 3.05-2.06 21.4-2.06 21.4z"/>
    <path id="path33_fill" d="M0 0c9.16 1 4.1 9.16 4.1 9.16C4.1 3.06 0 0 0 0z"/>
    <path id="path34_fill" d="M26.08 9.2c-1.93 2.29-5.6 4.21-12.1 4.94C-.1 15.58-.73 6.34.35 0c0 0 2.37 11.08 7.48 11.08 3.05 0 3.05-3.05 5.1-3.05s5.1-1 7.16 3.05c.88-.04 4.58-.64 5.99-1.88z"/>
    <path id="path35_fill" d="M8.67 21.4H.51S-1.54 3.06 2.56 0c0 0 3.06 19.36 6.11 21.4z"/>
    <path id="path36_fill" d="M0 .56C.16.4.28.2.44 0 .32.2.16.4 0 .56z"/>
  </defs>
</svg>
