<svg width="1121" height="181" xmlns="http://www.w3.org/2000/svg" xmlns:xlink="http://www.w3.org/1999/xlink">
  <use xlink:href="#path0_stroke" transform="translate(0 6)" fill="#FD5755"/>
  <use xlink:href="#path1_fill" transform="translate(1036 1)" fill="#FDA8A4"/>
  <use xlink:href="#path1_fill" transform="translate(840 1)" fill="#FDA8A4"/>
  <use xlink:href="#path1_fill" transform="translate(644 1)" fill="#FDA8A4"/>
  <use xlink:href="#path1_fill" transform="translate(448 1)" fill="#FDA8A4"/>
  <use xlink:href="#path1_fill" transform="translate(252 1)" fill="#FDA8A4"/>
  <use xlink:href="#path1_fill" transform="translate(56)" fill="#FDA8A4"/>
  <g transform="translate(6446 -10811)">
    <use xlink:href="#path2_fill" transform="translate(-6415 10860)" fill="#5D2FCD"/>
    <mask id="a">
      <use xlink:href="#path2_fill" fill="#fff" transform="translate(-6415 10860)"/>
    </mask>
    <g mask="url(#a)">
      <use xlink:href="#path3_stroke_2x" transform="translate(-6415 10860)" fill="#FDF9F3"/>
    </g>
  </g>
  <use xlink:href="#path4_fill" transform="translate(31 131)" fill="#5D2FCD"/>
  <g transform="translate(6446 -10811)">
    <mask id="b">
      <use xlink:href="#path5_fill" fill="#fff" transform="translate(-6200.61 10890.5)"/>
    </mask>
    <g mask="url(#b)">
      <use xlink:href="#path6_stroke_2x" transform="translate(-6200.61 10890.5)" fill="#5D2FCD"/>
    </g>
  </g>
  <g transform="translate(6446 -10811)">
    <mask id="c">
      <use xlink:href="#path7_fill" fill="#fff" transform="translate(-6222.98 10870)"/>
    </mask>
    <g mask="url(#c)">
      <use xlink:href="#path8_stroke_2x" transform="translate(-6222.98 10870)" fill="#5D2FCD"/>
    </g>
  </g>
  <g transform="translate(6446 -10811)">
    <mask id="d">
      <use xlink:href="#path9_fill" fill="#fff" transform="translate(-6173.59 10884.4)"/>
    </mask>
    <g mask="url(#d)">
      <use xlink:href="#path10_stroke_2x" transform="translate(-6173.59 10884.4)" fill="#5D2FCD"/>
    </g>
  </g>
  <g transform="translate(6446 -10811)">
    <mask id="e">
      <use xlink:href="#path11_fill" fill="#fff" transform="translate(-6223 10884.4)"/>
    </mask>
    <g mask="url(#e)">
      <use xlink:href="#path12_stroke_2x" transform="translate(-6223 10884.4)" fill="#5D2FCD"/>
    </g>
  </g>
  <g transform="translate(6446 -10811)">
    <mask id="f">
      <use xlink:href="#path13_fill" fill="#fff" transform="translate(-6213.77 10878.4)"/>
    </mask>
    <g mask="url(#f)">
      <use xlink:href="#path14_stroke_2x" transform="translate(-6213.77 10878.4)" fill="#5D2FCD"/>
    </g>
  </g>
  <use xlink:href="#path15_fill" transform="translate(220 132)" fill="#5D2FCD"/>
  <use xlink:href="#path16_fill" transform="translate(399 132)" fill="#5D2FCD"/>
  <use xlink:href="#path17_fill" transform="translate(631 43)" fill="#5D2FCD"/>
  <use xlink:href="#path18_fill" transform="translate(637.64 78.6)" fill="#5D2FCD"/>
  <use xlink:href="#path19_fill" transform="translate(637.64 74.5)" fill="#5D2FCD"/>
  <use xlink:href="#path20_fill" transform="translate(637.64 66.3)" fill="#5D2FCD"/>
  <use xlink:href="#path21_fill" transform="translate(637.64 70.4)" fill="#5D2FCD"/>
  <use xlink:href="#path22_fill" transform="translate(637.64 62.2)" fill="#5D2FCD"/>
  <use xlink:href="#path23_fill" transform="translate(662.3 66.3)" fill="#5D2FCD"/>
  <use xlink:href="#path24_fill" transform="translate(662.3 62.2)" fill="#5D2FCD"/>
  <use xlink:href="#path25_fill" transform="translate(662.3 70.4)" fill="#5D2FCD"/>
  <use xlink:href="#path26_fill" transform="translate(662.3 74.5)" fill="#5D2FCD"/>
  <use xlink:href="#path27_fill" transform="translate(662.3 78.6)" fill="#5D2FCD"/>
  <use xlink:href="#path28_fill" transform="translate(642.08 47.4)" fill="#5D2FCD"/>
  <use xlink:href="#path29_fill" transform="translate(644.68 54)" fill="#5D2FCD"/>
  <use xlink:href="#path30_fill" transform="translate(646.65 53.1)" fill="#5D2FCD"/>
  <use xlink:href="#path31_fill" transform="translate(654.52 54)" fill="#5D2FCD"/>
  <use xlink:href="#path32_fill" transform="translate(649.34 52.9)" fill="#5D2FCD"/>
  <use xlink:href="#path33_fill" transform="translate(651.96 53.1)" fill="#5D2FCD"/>
  <use xlink:href="#path34_fill" transform="translate(644.68 51.8)" fill="#5D2FCD"/>
  <use xlink:href="#path35_fill" transform="translate(646.65 51)" fill="#5D2FCD"/>
  <use xlink:href="#path36_fill" transform="translate(651.96 51)" fill="#5D2FCD"/>
  <use xlink:href="#path37_fill" transform="translate(654.52 51.8)" fill="#5D2FCD"/>
  <use xlink:href="#path38_fill" transform="translate(649.34 50.8)" fill="#5D2FCD"/>
  <use xlink:href="#path39_fill" transform="translate(654.52 96.9)" fill="#5D2FCD"/>
  <use xlink:href="#path40_fill" transform="translate(651.96 98.6)" fill="#5D2FCD"/>
  <use xlink:href="#path41_fill" transform="translate(649.34 99)" fill="#5D2FCD"/>
  <use xlink:href="#path42_fill" transform="translate(644.68 96.9)" fill="#5D2FCD"/>
  <use xlink:href="#path43_fill" transform="translate(646.65 98.6)" fill="#5D2FCD"/>
  <use xlink:href="#path44_fill" transform="translate(649.34 101.1)" fill="#5D2FCD"/>
  <use xlink:href="#path45_fill" transform="translate(654.52 99.1)" fill="#5D2FCD"/>
  <use xlink:href="#path46_fill" transform="translate(651.96 100.7)" fill="#5D2FCD"/>
  <use xlink:href="#path47_fill" transform="translate(646.65 100.7)" fill="#5D2FCD"/>
  <use xlink:href="#path48_fill" transform="translate(644.68 99.1)" fill="#5D2FCD"/>
  <use xlink:href="#path49_fill" transform="translate(631 132)" fill="#5D2FCD"/>
  <g transform="translate(6446 -10811)">
    <mask id="g">
      <use xlink:href="#path50_fill" fill="#fff" transform="translate(-5631 10858)"/>
    </mask>
    <g mask="url(#g)">
      <use xlink:href="#path51_stroke_2x" transform="translate(-5631 10858)" fill="#5D2FCD"/>
    </g>
  </g>
  <use xlink:href="#path52_fill" transform="translate(815 132)" fill="#5D2FCD"/>
  <g transform="translate(6446 -10811)">
    <use xlink:href="#path53_fill" transform="translate(-5438 10846)" fill="#5D2FCD"/>
    <mask id="h">
      <use xlink:href="#path53_fill" fill="#fff" transform="translate(-5438 10846)"/>
    </mask>
    <g mask="url(#h)">
      <use xlink:href="#path54_stroke_2x" transform="translate(-5438 10846)" fill="#FDF9F3"/>
    </g>
  </g>
  <g transform="translate(6446 -10811)">
    <use xlink:href="#path55_fill" transform="translate(-5398.17 10857.4)" fill="#5D2FCD"/>
    <mask id="i">
      <use xlink:href="#path55_fill" fill="#fff" transform="translate(-5398.17 10857.4)"/>
    </mask>
    <g mask="url(#i)">
      <use xlink:href="#path56_stroke_2x" transform="translate(-5398.17 10857.4)" fill="#FDF9F3"/>
    </g>
  </g>
  <use xlink:href="#path57_fill" transform="translate(1008 131)" fill="#5D2FCD"/>
  <g transform="translate(6446 -10811)">
    <use xlink:href="#path58_fill" transform="translate(-5958.05 10891.3)" fill="#5D2FCD"/>
    <use xlink:href="#path59_fill" transform="translate(-5937.93 10896.1)" fill="#5D2FCD"/>
    <use xlink:href="#path60_fill" transform="translate(-5934.93 10896.1)" fill="#5D2FCD"/>
    <use xlink:href="#path61_fill" transform="translate(-5928.95 10896.1)" fill="#5D2FCD"/>
    <use xlink:href="#path62_fill" transform="translate(-5931.92 10896.1)" fill="#5D2FCD"/>
    <use xlink:href="#path63_fill" transform="translate(-5925.94 10896.1)" fill="#5D2FCD"/>
    <use xlink:href="#path64_fill" transform="translate(-5928.95 10913.8)" fill="#5D2FCD"/>
    <use xlink:href="#path65_fill" transform="translate(-5925.94 10913.8)" fill="#5D2FCD"/>
    <use xlink:href="#path66_fill" transform="translate(-5931.92 10913.8)" fill="#5D2FCD"/>
    <use xlink:href="#path67_fill" transform="translate(-5934.93 10913.8)" fill="#5D2FCD"/>
    <use xlink:href="#path68_fill" transform="translate(-5937.93 10913.8)" fill="#5D2FCD"/>
    <use xlink:href="#path69_fill" transform="translate(-5955.18 10899.3)" fill="#5D2FCD"/>
    <use xlink:href="#path70_fill" transform="translate(-5919.2 10901.1)" fill="#5D2FCD"/>
    <use xlink:href="#path71_fill" transform="translate(-5917.99 10902.6)" fill="#5D2FCD"/>
    <use xlink:href="#path72_fill" transform="translate(-5919.2 10908.2)" fill="#5D2FCD"/>
    <use xlink:href="#path73_fill" transform="translate(-5917.68 10904.5)" fill="#5D2FCD"/>
    <use xlink:href="#path74_fill" transform="translate(-5917.96 10906.4)" fill="#5D2FCD"/>
    <use xlink:href="#path70_fill" transform="translate(-5917.65 10901.1)" fill="#5D2FCD"/>
    <use xlink:href="#path71_fill" transform="translate(-5916.44 10902.6)" fill="#5D2FCD"/>
    <use xlink:href="#path75_fill" transform="translate(-5916.4 10906.4)" fill="#5D2FCD"/>
    <use xlink:href="#path72_fill" transform="translate(-5917.65 10908.2)" fill="#5D2FCD"/>
    <use xlink:href="#path73_fill" transform="translate(-5916.12 10904.5)" fill="#5D2FCD"/>
    <g transform="translate(-6047 10869)">
      <use xlink:href="#path76_fill" fill="#5D2FCD"/>
      <use xlink:href="#path77_stroke" fill="#FFF"/>
    </g>
    <g transform="translate(-6012.3 10896.1)">
      <use xlink:href="#path78_fill" fill="#5D2FCD"/>
      <use xlink:href="#path79_stroke" fill="#FFF"/>
    </g>
    <g transform="translate(-6040.82 10887.1)">
      <use xlink:href="#path80_fill" fill="#5D2FCD"/>
      <use xlink:href="#path81_stroke" fill="#FFF"/>
    </g>
    <use xlink:href="#path82_fill" transform="translate(-5966.82 10903.5)" fill="#5D2FCD"/>
    <use xlink:href="#path83_fill" transform="translate(-6001.21 10899.9)" fill="#5D2FCD"/>
    <use xlink:href="#path83_fill" transform="translate(-5998.27 10907.2)" fill="#5D2FCD"/>
    <use xlink:href="#path84_fill" transform="translate(-6004.84 10903.5)" fill="#5D2FCD"/>
  </g>
  <defs>
    <path id="path0_stroke" d="M1116.35.35a.5.5 0 0 0 0-.7l-3.18-3.19a.5.5 0 0 0-.71 0 .51.51 0 0 0 0 .71l2.83 2.83-2.83 2.83a.51.51 0 0 0 0 .7c.2.2.52.2.71 0l3.18-3.18zM0 .5h1116v-1H0v1z"/>
    <path id="path1_fill" d="M12 6A6 6 0 1 1 0 6a6 6 0 0 1 12 0z"/>
    <path id="path2_fill" d="M57.7 25.99l-5.47-5.46a1.82 1.82 0 0 0-2.57 0l-6 5.99V1.82c0-1-.8-1.82-1.81-1.82H1.82C.82 0 0 .81 0 1.82v54.54c0 1 .82 1.82 1.82 1.82h40.03c1 0 1.82-.81 1.82-1.82V42.57l14.02-14.01c.71-.71.71-1.86 0-2.57zM40.02 54.55H3.63V3.64h36.4v26.52l-14.02 14c-.35.35-.54.81-.54 1.3v5.45c0 1 .82 1.82 1.82 1.82h5.46c.49 0 .95-.2 1.29-.54l5.99-5.98v8.34zM32 49.09h-2.9v-2.88l21.84-21.82 2.88 2.88L32 49.1zM9.1 16.36h25.47c1 0 1.82-.81 1.82-1.81V9.09c0-1-.81-1.82-1.82-1.82H9.1c-1 0-1.82.82-1.82 1.82v5.46c0 1 .81 1.81 1.82 1.81zm1.82-5.45h21.83v1.82H10.92V10.9zM9.1 27.27h25.47c1 0 1.82-.81 1.82-1.82V20c0-1-.81-1.82-1.82-1.82H9.1c-1 0-1.82.82-1.82 1.82v5.45c0 1 .81 1.82 1.82 1.82zm1.82-5.45h21.83v1.82H10.92v-1.82zm20.01 14.54v-5.45c0-1-.81-1.82-1.82-1.82H9.1c-1 0-1.82.82-1.82 1.82v5.45c0 1 .81 1.82 1.82 1.82h20c1 0 1.82-.81 1.82-1.82zm-3.64-1.81H10.92v-1.82h16.37v1.82z"/>
    <path id="path3_stroke_2x" d="M57.7 25.99l-.71.7.7-.7zm-5.47-5.46l.71-.7-.7.7zm-2.57 0l-.7-.7.7.7zm-6 5.99h-1v2.41l1.72-1.7-.71-.71zm0 16.05l-.7-.7-.3.29v.41h1zM57.7 28.56l-.7-.7.7.7zM40.03 54.55v1h1v-1h-1zm-36.4 0h-1v1h1v-1zm0-50.91v-1h-1v1h1zm36.4 0h1v-1h-1v1zm0 26.52l.7.7.3-.29v-.41h-1zm-14.02 14l.7.72-.7-.71zm8.03 8.03l-.7-.7h-.01l.7.7zm5.99-5.98h1v-2.42l-1.7 1.71.7.7zM32 49.09v1h.41l.3-.3-.71-.7zm-2.89 0h-1v1h1v-1zm0-2.88l-.7-.71-.3.3v.4h1zm21.84-21.82l.7-.7-.7-.71-.71.7.7.7zm2.88 2.88l.71.71.7-.7-.7-.71-.7.7zM10.92 10.91v-1h-1v1h1zm21.83 0h1v-1h-1v1zm0 1.82v1h1v-1h-1zm-21.83 0h-1v1h1v-1zm0 9.09v-1h-1v1h1zm21.83 0h1v-1h-1v1zm0 1.82v1h1v-1h-1zm-21.83 0h-1v1h1v-1zm16.37 10.9v1h1v-1h-1zm-16.37 0h-1v1h1v-1zm0-1.81v-1h-1v1h1zm16.37 0h1v-1h-1v1zm31.1-7.45l-5.45-5.45-1.41 1.41 5.46 5.45 1.4-1.41zm-5.45-5.45a2.82 2.82 0 0 0-3.99 0l1.42 1.41a.82.82 0 0 1 1.16 0l1.41-1.41zm-3.99 0l-5.99 5.98 1.42 1.42 5.99-5.99-1.42-1.41zm-4.28 6.69V1.82h-2v24.7h2zm0-24.7A2.82 2.82 0 0 0 41.85-1v2c.45 0 .82.37.82.82h2zM41.85-1H1.82v2h40.03v-2zM1.82-1A2.82 2.82 0 0 0-1 1.82h2c0-.45.37-.82.82-.82v-2zM-1 1.82v54.54h2V1.82h-2zm0 54.54a2.82 2.82 0 0 0 2.82 2.82v-2a.82.82 0 0 1-.82-.82h-2zm2.82 2.82h40.03v-2H1.82v2zm40.03 0a2.82 2.82 0 0 0 2.82-2.82h-2c0 .45-.37.82-.82.82v2zm2.82-2.82V42.57h-2v13.8h2zm-.3-13.08L58.4 29.27l-1.41-1.42-14.03 14.01 1.42 1.42zM58.4 29.27a2.82 2.82 0 0 0 0-3.99l-1.41 1.41c.32.32.32.84 0 1.16l1.4 1.42zM40.03 53.55H3.63v2h36.4v-2zm-35.4 1V3.64h-2v50.9h2zm-1-49.91h36.4v-2H3.63v2zm35.4-1v26.52h2V3.64h-2zm.3 25.8L25.3 43.47l1.41 1.42 14.03-14.02-1.42-1.41zM25.3 43.47a2.81 2.81 0 0 0-.83 2h2c0-.22.09-.43.24-.58l-1.4-1.42zm-.83 2v5.45h2v-5.46h-2zm0 5.45a2.82 2.82 0 0 0 2.82 2.82v-2a.82.82 0 0 1-.82-.82h-2zm2.82 2.82h5.46v-2H27.3v2zm5.46 0c.75 0 1.47-.3 2-.83l-1.42-1.41a.81.81 0 0 1-.58.24v2zm2-.83l5.99-5.99-1.42-1.41-5.99 5.99 1.41 1.41zm4.28-6.7v8.35h2V46.2h-2zM32 48.1h-2.9v2H32v-2zm-1.89 1v-2.9h-2v2.9h2zm-.3-2.19L51.66 25.1l-1.41-1.42L28.41 45.5l1.4 1.41zM50.25 25.1l2.89 2.88 1.41-1.41-2.89-2.89-1.41 1.42zm2.89 1.47L31.29 48.38l1.42 1.42 21.83-21.82-1.41-1.41zM9.1 17.37h25.47v-2H9.1v2zm25.47 0a2.82 2.82 0 0 0 2.82-2.82h-2a.8.8 0 0 1-.82.81v2zm2.82-2.82V9.09h-2v5.46h2zm0-5.46a2.82 2.82 0 0 0-2.82-2.82v2c.46 0 .82.37.82.82h2zm-2.82-2.82H9.1v2h25.47v-2zm-25.47 0A2.82 2.82 0 0 0 6.28 9.1h2c0-.45.36-.82.82-.82v-2zM6.28 9.1v5.46h2V9.09h-2zm0 5.46a2.82 2.82 0 0 0 2.82 2.81v-2a.82.82 0 0 1-.82-.81h-2zm4.64-2.64h21.83v-2H10.92v2zm20.83-1v1.82h2V10.9h-2zm1 .82H10.92v2h21.83v-2zm-20.83 1V10.9h-2v1.82h2zM9.1 28.27h25.47v-2H9.1v2zm25.47 0a2.82 2.82 0 0 0 2.82-2.82h-2c0 .46-.36.82-.82.82v2zm2.82-2.82V20h-2v5.45h2zm0-5.45a2.82 2.82 0 0 0-2.82-2.82v2c.46 0 .82.37.82.82h2zm-2.82-2.82H9.1v2h25.47v-2zm-25.47 0A2.82 2.82 0 0 0 6.28 20h2c0-.45.36-.82.82-.82v-2zM6.28 20v5.45h2V20h-2zm0 5.45a2.82 2.82 0 0 0 2.82 2.82v-2a.82.82 0 0 1-.82-.82h-2zm4.64-2.63h21.83v-2H10.92v2zm20.83-1v1.82h2v-1.82h-2zm1 .82H10.92v2h21.83v-2zm-20.83 1v-1.82h-2v1.82h2zm20.01 12.72v-5.45h-2v5.45h2zm0-5.45a2.82 2.82 0 0 0-2.82-2.82v2c.46 0 .82.37.82.82h2zm-2.82-2.82H9.1v2h20v-2zm-20.01 0a2.82 2.82 0 0 0-2.82 2.82h2c0-.45.36-.82.82-.82v-2zm-2.82 2.82v5.45h2v-5.45h-2zm0 5.45a2.82 2.82 0 0 0 2.82 2.82v-2a.82.82 0 0 1-.82-.82h-2zm2.82 2.82h20v-2h-20v2zm20.01 0a2.82 2.82 0 0 0 2.82-2.82h-2c0 .45-.36.82-.82.82v2zm-1.82-5.63H10.92v2h16.37v-2zm-15.37 1v-1.82h-2v1.82h2zm-1-.82h16.37v-2H10.92v2zm15.37-1v1.82h2v-1.82h-2z"/>
    <path id="path4_fill" d="M.67 10.93c0 .85 1.67 2.29 4.26 2.29 2.45 0 4.05-1.3 4.05-3.28 0-2.3-1.96-2.99-3.81-3.42-1.77-.41-3-.72-3-2.21 0-1.26 1.12-2.11 2.74-2.11 1.44 0 2.58.74 3.12 1.7.03.05.72-.22.72-.75 0-.75-1.44-2.01-3.85-2.01C2.66 1.14.99 2.5.99 4.34c0 2.32 1.82 2.9 3.58 3.31 1.68.4 3.2.81 3.2 2.34 0 1.35-1.06 2.16-2.86 2.16-1.72 0-2.9-.88-3.52-1.96-.04-.05-.72.22-.72.74zM11.6 2.29c.52 0 .8-.25.8-.77 0-.53-.26-.78-.76-.78-.53 0-.8.25-.8.78 0 .5.27.77.76.77zm-.58 10.22c0 .44.22.56.53.56h.12c.3 0 .52-.12.52-.56v-7.6c0-.42-.21-.55-.52-.55h-.12c-.31 0-.53.13-.53.56v7.6zm2.49 1.95c0 1.58 1.3 2.34 4.03 2.34 2.75 0 4.37-.96 4.37-2.56 0-1.37-1.3-1.94-2.52-2.25-1.56-.4-2.37-.45-2.37-1.04a.7.7 0 0 1 .12-.43l.47.01c2.02 0 3.53-1.38 3.53-3.15 0-.7-.27-1.36-.7-1.89l1.42-1.58c.04-.04-.18-.52-.67-.52-.37 0-.57.18-.82.54l-.6.95a3.8 3.8 0 0 0-2.16-.66c-2 0-3.47 1.45-3.47 3.24 0 1.31.84 2.4 2.14 2.86a1.3 1.3 0 0 0-.38.84c0 .4.16.65.38.83-1.57.3-2.77 1.17-2.77 2.47zm4.12-4.84c-1.35 0-2.3-.9-2.3-2.2 0-1.33.93-2.23 2.26-2.23 1.4 0 2.34.93 2.34 2.23 0 1.3-.93 2.2-2.3 2.2zm-2.99 4.84c0-1.08 1.48-1.7 3.12-1.78 1.36.34 2.98.55 2.98 1.6 0 1-1.2 1.56-3.16 1.56-1.93 0-2.94-.48-2.94-1.38zm8.53-1.95c0 .44.21.56.52.56h.13c.3 0 .52-.12.52-.56V7.13a3.03 3.03 0 0 1 2.82-1.82c1.46 0 2.3 1.05 2.3 2.76v4.44c0 .44.22.56.53.56h.13c.3 0 .52-.12.52-.56V8c0-2.27-1.14-3.78-3.4-3.78-1.34 0-2.33.64-2.92 1.56V5.5c0-.93-.36-1.13-.76-1.13-.21 0-.4.09-.4.13v8.02zm12.8-3.07c0 2.26 1.13 3.78 3.4 3.78a3.4 3.4 0 0 0 2.91-1.55v.27c0 .93.36 1.13.76 1.13.21 0 .4-.09.4-.12V4.92c0-.43-.22-.56-.53-.56h-.12c-.31 0-.53.13-.53.56v5.38a3 3 0 0 1-2.73 1.82c-1.53 0-2.4-1.03-2.4-2.76V4.92c0-.43-.21-.56-.52-.56h-.12c-.31 0-.53.13-.53.56v4.52zm11.04 2.14a3.58 3.58 0 0 0 3.12 1.64c2.37 0 4.12-1.82 4.12-4.52 0-2.72-1.78-4.48-4.05-4.48-1.42 0-2.43.59-3.2 1.65V5.5c0-.93-.36-1.13-.76-1.13-.22 0-.4.09-.4.13V16c0 .43.22.56.53.56h.12c.3 0 .52-.13.52-.56v-4.41zM47 9.29V7.28a3.2 3.2 0 0 1 3.07-2.04c1.73 0 3 1.46 3 3.48 0 2.07-1.21 3.47-3.03 3.47-1.62 0-3.04-1.26-3.04-2.9zm12.15 3.22c0 .44.22.56.52.56h.13c.3 0 .52-.12.52-.56V8.25c0-1.78 1.14-2.94 2.83-2.94 1.44 0 2.3 1.03 2.3 2.76v4.44c0 .44.22.56.52.56h.13c.3 0 .52-.12.52-.56V8c0-2.27-1.13-3.78-3.4-3.78-1.35 0-2.3.66-2.9 1.58V1.88c0-.94-.38-1.14-.77-1.14-.22 0-.4.1-.4.13V12.5zm9.23-3.76a4.25 4.25 0 0 0 4.43 4.47c2.32 0 3.62-1.32 3.62-1.91 0-.56-.65-.72-.68-.67-.5.81-1.26 1.53-2.94 1.53a3.16 3.16 0 0 1-3.26-3.13h6.66c.36 0 .49-.07.49-.4v-.1c0-2.61-1.58-4.32-4-4.32-2.48 0-4.32 1.92-4.32 4.53zm1.21-.72a3.13 3.13 0 0 1 3.11-2.79c1.6 0 2.65 1.1 2.76 2.8H69.6zm8.93 4.48c0 .44.22.56.52.56h.13c.3 0 .52-.12.52-.56V9.15c0-2.2.6-3.8 2.13-3.8.48 0 .79.14 1.04.36.04.04.32-.18.32-.61 0-.56-.45-.88-1.24-.88-1.15 0-1.9.6-2.27 1.78v-.5c0-.94-.36-1.14-.75-1.14-.22 0-.4.09-.4.13v8.02zm5.42-3.76a4.25 4.25 0 0 0 4.43 4.47c2.32 0 3.62-1.32 3.62-1.91 0-.56-.65-.72-.69-.67-.5.81-1.26 1.53-2.93 1.53a3.16 3.16 0 0 1-3.26-3.13h6.66c.36 0 .49-.07.49-.4v-.1c0-2.61-1.59-4.32-4-4.32-2.48 0-4.32 1.92-4.32 4.53zm1.2-.72c.26-1.64 1.5-2.79 3.12-2.79 1.6 0 2.65 1.1 2.75 2.8h-5.86zm11.42.67a4.33 4.33 0 0 0 4.43 4.52 4.3 4.3 0 0 0 4.4-4.49 4.32 4.32 0 0 0-4.4-4.51 4.3 4.3 0 0 0-4.43 4.48zm1.19 0c0-2 1.39-3.46 3.24-3.46 1.85 0 3.22 1.5 3.22 3.5s-1.39 3.45-3.22 3.45c-1.85 0-3.24-1.5-3.24-3.5zm9.5 3.81c0 .44.21.56.52.56h.12c.3 0 .52-.12.52-.56V7.13a3.03 3.03 0 0 1 2.83-1.82c1.46 0 2.3 1.05 2.3 2.76v4.44c0 .44.22.56.53.56h.12c.3 0 .52-.12.52-.56V8c0-2.27-1.13-3.78-3.4-3.78-1.33 0-2.32.64-2.91 1.56V5.5c0-.93-.36-1.13-.76-1.13-.22 0-.4.09-.4.13v8.02zM1.74 26.48c0 1.78.72 2.74 2.39 2.74 1.13 0 1.76-.58 1.76-1.07 0-.45-.36-.6-.4-.57-.3.38-.73.63-1.32.63-.96 0-1.28-.6-1.28-1.86v-4.87h2.28c.44 0 .56-.17.56-.47v-.11c0-.3-.12-.47-.56-.47H2.9v-1.5c0-.42-.2-.55-.5-.55h-.13c-.3 0-.52.13-.52.56v1.5h-.8c-.43 0-.55.15-.55.46v.1c0 .31.12.48.55.48h.8v5zm5.68 2.03c0 .44.21.56.52.56h.13c.3 0 .52-.12.52-.56v-4.26c0-1.78 1.13-2.94 2.82-2.94 1.44 0 2.3 1.03 2.3 2.76v4.44c0 .44.22.56.53.56h.13c.3 0 .52-.12.52-.56V24c0-2.27-1.14-3.78-3.4-3.78-1.35 0-2.3.66-2.9 1.58v-3.92c0-.94-.38-1.14-.78-1.14-.21 0-.4.1-.4.13V28.5zm9.23-3.76a4.25 4.25 0 0 0 4.43 4.47c2.32 0 3.62-1.32 3.62-1.91 0-.56-.65-.72-.69-.67-.5.81-1.26 1.53-2.93 1.53a3.16 3.16 0 0 1-3.26-3.13h6.66c.36 0 .49-.07.49-.4v-.1c0-2.61-1.59-4.32-4-4.32-2.48 0-4.32 1.92-4.32 4.53zm1.2-.72c.26-1.64 1.5-2.79 3.12-2.79 1.6 0 2.65 1.1 2.76 2.8h-5.87zm13.3 4.63c.07.3.2.45.86.45.6 0 .68-.15.79-.45l1.94-5.87 1.9 5.87c.1.3.2.45.79.45.66 0 .79-.15.86-.45l2.05-7.96c.02-.05-.29-.34-.65-.34-.27 0-.59.2-.7.83l-1.55 6.73-1.81-5.78c-.11-.34-.3-.48-.89-.48-.59 0-.77.14-.88.48l-1.83 5.78-1.57-6.73c-.13-.63-.43-.83-.7-.83-.38 0-.7.27-.69.34l2.07 7.96zm10.25-3.9a4.25 4.25 0 0 0 4.43 4.46c2.32 0 3.62-1.32 3.62-1.91 0-.56-.65-.72-.69-.67-.5.81-1.26 1.53-2.93 1.53a3.16 3.16 0 0 1-3.26-3.13h6.66c.36 0 .49-.07.49-.4v-.1c0-2.61-1.59-4.32-4-4.32-2.48 0-4.32 1.92-4.32 4.53zm1.2-.73c.26-1.64 1.5-2.79 3.12-2.79 1.6 0 2.65 1.1 2.76 2.8h-5.87zm8.94 4.48c0 .44.22.56.52.56h.13c.3 0 .5-.12.5-.56v-.82c.49.8 1.59 1.53 3.13 1.53 2.38 0 4.13-1.82 4.13-4.52 0-2.72-1.79-4.48-4.05-4.48-1.43 0-2.42.59-3.19 1.62v-3.96c0-.94-.38-1.14-.77-1.14-.22 0-.4.1-.4.13V28.5zm1.15-3.22v-2.01a3.2 3.2 0 0 1 3.08-2.04c1.73 0 2.99 1.46 2.99 3.48 0 2.07-1.2 3.47-3.03 3.47-1.62 0-3.04-1.26-3.04-2.9zm8.45 2.18c0 .65 1.24 1.75 3.53 1.75 2.09 0 3.38-1.03 3.38-2.61 0-1.77-1.76-2.15-3.15-2.45-1.58-.34-2.4-.6-2.4-1.51 0-.85.76-1.44 2.17-1.44a2.9 2.9 0 0 1 2.52 1.26c.03.05.65-.17.65-.62 0-.64-1.08-1.63-3.17-1.63-1.98 0-3.28 1.06-3.28 2.59 0 1.73 1.68 2.1 3 2.4 1.63.33 2.53.55 2.53 1.58 0 .86-.8 1.44-2.22 1.44-1.42 0-2.35-.6-2.93-1.39-.04-.04-.63.14-.63.63zm9.49-9.18c.52 0 .79-.25.79-.77 0-.53-.25-.78-.76-.78-.52 0-.79.25-.79.78 0 .5.27.77.76.77zm-.58 10.22c0 .44.22.56.52.56h.13c.3 0 .52-.12.52-.56v-7.6c0-.42-.21-.55-.52-.55h-.13c-.3 0-.52.13-.52.56v7.6zm4.21-2.03c0 1.78.72 2.74 2.4 2.74 1.13 0 1.76-.58 1.76-1.07 0-.45-.36-.6-.4-.57-.3.38-.73.63-1.33.63-.95 0-1.27-.6-1.27-1.86v-4.87h2.28c.43 0 .56-.17.56-.47v-.11c0-.3-.13-.47-.56-.47h-2.28v-1.5c0-.42-.2-.55-.5-.55h-.13c-.31 0-.53.13-.53.56v1.5h-.79c-.43 0-.56.15-.56.46v.1c0 .31.13.48.56.48h.8v5zm5.02-1.73a4.25 4.25 0 0 0 4.43 4.47c2.32 0 3.62-1.32 3.62-1.91 0-.56-.65-.72-.69-.67-.5.81-1.26 1.53-2.93 1.53a3.16 3.16 0 0 1-3.26-3.13h6.66c.36 0 .49-.07.49-.4v-.1c0-2.61-1.59-4.32-4-4.32-2.48 0-4.32 1.92-4.32 4.53zm1.2-.72c.26-1.64 1.5-2.79 3.12-2.79 1.6 0 2.65 1.1 2.76 2.8H80.5z"/>
    <path id="path5_fill" d="M12.37 1.6a1.5 1.5 0 1 1 2.75 1.13 1.5 1.5 0 0 1-2.75-1.14zM10.36 0a1.49 1.49 0 1 1 0 2.98 1.49 1.49 0 0 1 0-2.98zM6.27.84a1.49 1.49 0 1 1 1.18 2.74A1.49 1.49 0 0 1 6.27.84zm-3.23 2.2a1.49 1.49 0 1 1 2.1 2.1 1.49 1.49 0 0 1-2.1-2.1zM.78 6.4a1.49 1.49 0 1 1 2.76 1.14A1.49 1.49 0 0 1 .78 6.4zM0 10.35a1.49 1.49 0 1 1 2.98 0 1.49 1.49 0 0 1-2.98 0zm.84 4.09a1.49 1.49 0 1 1 2.73-1.18 1.49 1.49 0 0 1-2.73 1.18zm2.2 3.23a1.49 1.49 0 1 1 2.1-2.1 1.49 1.49 0 0 1-2.1 2.1zm5.31 1.44a1.5 1.5 0 1 1-2.75-1.14 1.5 1.5 0 0 1 2.75 1.14zm2.01 1.6a1.49 1.49 0 1 1 0-2.98 1.49 1.49 0 0 1 0 2.97zm4.09-.85a1.49 1.49 0 1 1-1.18-2.73 1.49 1.49 0 0 1 1.18 2.73zm3.24-2.19a1.49 1.49 0 1 1-2.11-2.1 1.49 1.49 0 0 1 2.1 2.1zm2.25-3.37a1.49 1.49 0 1 1-2.76-1.14 1.49 1.49 0 0 1 2.76 1.14zm.78-3.95a1.49 1.49 0 1 1-2.98 0 1.49 1.49 0 0 1 2.98 0zm-.84-4.08a1.49 1.49 0 1 1-2.73 1.17 1.49 1.49 0 0 1 2.73-1.17zm-2.2-1.13a1.49 1.49 0 1 1-2.1-2.11 1.49 1.49 0 0 1 2.1 2.1z"/>
    <path id="path6_stroke_2x" d="M12.37 1.6l.92.37-.92-.38zM14.3.77l.38-.92-.38.92zm.81 1.95l-.92-.39.92.39zm-1.94.8l-.38.93.38-.93zM6.28.84l.39.92-.4-.92zm1.95.78l.92-.4-.92.4zM5.49 2.79l-.92.4.92-.4zm-2.45.24l.7.71-.7-.7zm2.1 0l.7-.7-.7.7zM.78 6.4l-.92-.38.92.38zm1.95-.8l-.38.92.38-.93zm.8 1.94l-.92-.39.93.39zm-1.94.8l.38-.92-.38.92zm-.1 3.5v1-1zm-.65 2.6l.92-.4-.92.4zm.78-1.96l.4.92-.4-.92zm1.96.78l.92-.4-.92.4zm-.78 1.96l.39.92-.4-.92zm.24 2.45l.7-.7-.7.7zm0-2.1l.7.7-.7-.7zm2.1 0l-.7.7.7-.7zm0 2.1l-.7-.7.7.7zm3.21 1.44l.93.39-.93-.39zm-1.94.81l-.38.93.38-.93zm-.81-1.94l.92.38-.92-.38zm1.94-.8l-.38.92.38-.93zm4.3 2.04h-1 1zm.65-.14l-.92.4.92-.4zm.78-1.95l-.4-.92.4.92zm1.96.78l.92-.4-.92.4zm2.46-.24l-.71-.7.7.7zm-2.11 0l.7-.7-.7.7zm0-2.1l.7.7-.7-.7zm2.1 0l.71-.71-.7.7zm2.26-1.27l.92.38-.92-.38zm-1.95.8l.38-.92-.38.93zm-.8-1.93l-.93-.39.92.39zm1.94-.81l.38-.93-.38.93zm.75-6.1l.92-.39-.92.4zm-.78 1.96l-.4-.92.4.92zm-1.96-.78l-.92.4.92-.4zm.78-1.95l.4.92-.4-.92zm-.23-.35l-.71-.71.7.7zm-2.11 0l.7-.71-.7.7zm2.1-2.1l-.7.7.7-.7zM13.3 1.96a.5.5 0 0 1 .64-.26l.76-1.85a2.5 2.5 0 0 0-3.25 1.35l1.85.76zm.64-.26c.25.1.37.39.27.63l1.85.77A2.49 2.49 0 0 0 14.7-.15l-.76 1.85zm.27.63a.49.49 0 0 1-.64.27l-.76 1.85a2.49 2.49 0 0 0 3.25-1.35l-1.85-.77zm-.64.27a.49.49 0 0 1-.27-.64l-1.85-.76a2.49 2.49 0 0 0 1.36 3.25l.76-1.85zM10.36 1a.5.5 0 0 1 .49.49h2A2.49 2.49 0 0 0 10.36-1v2zm.49.49a.5.5 0 0 1-.49.49v2a2.49 2.49 0 0 0 2.49-2.5h-2zm-.49.49a.49.49 0 0 1-.49-.5h-2a2.49 2.49 0 0 0 2.49 2.5v-2zm-.49-.5c0-.26.22-.48.49-.48v-2a2.49 2.49 0 0 0-2.49 2.49h2zm-3.2.28c.25-.1.53 0 .64.25l1.84-.79a2.49 2.49 0 0 0-3.27-1.3l.79 1.84zM7.3 2c.1.25 0 .54-.26.64l.8 1.84c1.25-.54 1.84-2 1.3-3.26L7.3 2zm-.26.64a.48.48 0 0 1-.64-.25l-1.84.79c.55 1.26 2 1.85 3.27 1.3l-.79-1.84zm-.64-.25c-.1-.25 0-.53.26-.64l-.8-1.84a2.5 2.5 0 0 0-1.3 3.27l1.84-.8zM3.74 3.74c.2-.2.5-.2.7 0l1.4-1.42a2.49 2.49 0 0 0-3.51 0l1.41 1.42zm.7 0a.5.5 0 0 1 0 .69l1.4 1.41c.98-.97.98-2.54 0-3.52l-1.4 1.42zm0 .69a.5.5 0 0 1-.7 0L2.33 5.84a2.5 2.5 0 0 0 3.52 0L4.43 4.43zm-.7 0a.49.49 0 0 1 0-.69L2.33 2.32a2.49 2.49 0 0 0 0 3.52l1.41-1.41zM1.71 6.78a.5.5 0 0 1 .64-.26l.76-1.85A2.49 2.49 0 0 0-.14 6.02l1.85.76zm.64-.26c.25.1.36.39.26.63l1.85.77a2.49 2.49 0 0 0-1.35-3.25l-.76 1.85zm.26.64a.49.49 0 0 1-.64.26l-.76 1.85a2.49 2.49 0 0 0 3.25-1.35l-1.85-.76zm-.64.26a.49.49 0 0 1-.26-.64l-1.85-.76a2.49 2.49 0 0 0 1.35 3.25l.76-1.85zM1 10.35a.5.5 0 0 1 .49-.49v-2A2.49 2.49 0 0 0-1 10.36h2zm.49-.49a.5.5 0 0 1 .49.5h2a2.49 2.49 0 0 0-2.5-2.5v2zm.49.5a.5.5 0 0 1-.5.48v2a2.49 2.49 0 0 0 2.5-2.49h-2zm-.5.48a.49.49 0 0 1-.48-.49h-2a2.49 2.49 0 0 0 2.49 2.49v-2zm.28 3.2c-.1-.25 0-.53.26-.64l-.8-1.84c-1.26.54-1.84 2-1.3 3.27l1.84-.79zm.26-.64c.24-.1.53 0 .64.26l1.84-.8a2.49 2.49 0 0 0-3.27-1.3l.79 1.84zm.64.26a.5.5 0 0 1-.26.64l.79 1.84a2.49 2.49 0 0 0 1.3-3.27l-1.83.79zm-.26.64a.5.5 0 0 1-.64-.26l-1.84.79c.54 1.26 2 1.85 3.27 1.3L2.4 14.3zm1.34 2.66a.49.49 0 0 1 0-.68l-1.41-1.42a2.49 2.49 0 0 0 0 3.52l1.41-1.42zm0-.69c.2-.18.5-.19.7 0l1.4-1.41a2.49 2.49 0 0 0-3.51 0l1.41 1.41zm.7 0c.18.2.18.5 0 .7l1.4 1.4c.98-.96.98-2.54 0-3.51l-1.4 1.42zm0 .7c-.2.19-.5.18-.7 0l-1.41 1.4c.97.98 2.55.98 3.52 0l-1.42-1.4zm2.99 1.76a.5.5 0 0 1-.64.27l-.76 1.85a2.5 2.5 0 0 0 3.25-1.35l-1.85-.77zm-.64.27a.49.49 0 0 1-.27-.64l-1.85-.76a2.49 2.49 0 0 0 1.36 3.25L6.79 19zm-.27-.64c.1-.25.4-.37.64-.26l.77-1.85a2.49 2.49 0 0 0-3.26 1.35l1.85.76zm.64-.26c.25.1.37.38.27.63l1.85.77a2.49 2.49 0 0 0-1.36-3.25l-.76 1.85zm3.2 1.6a.49.49 0 0 1-.49-.48h-2a2.49 2.49 0 0 0 2.49 2.48v-2zm-.49-.48c0-.27.22-.5.49-.5v-2a2.49 2.49 0 0 0-2.49 2.5h2zm.49-.5a.5.5 0 0 1 .49.5h2a2.49 2.49 0 0 0-2.49-2.5v2zm.49.5c0 .26-.22.48-.49.48v2a2.49 2.49 0 0 0 2.49-2.48h-2zm3.2-.27a.5.5 0 0 1-.64-.26l-1.84.79c.55 1.26 2 1.85 3.27 1.3l-.79-1.83zm-.64-.26a.5.5 0 0 1 .26-.64l-.8-1.84a2.5 2.5 0 0 0-1.3 3.27l1.84-.79zm.26-.64c.25-.1.53 0 .64.25l1.84-.78a2.49 2.49 0 0 0-3.27-1.3l.79 1.83zm.64.25a.5.5 0 0 1-.26.65l.8 1.83c1.25-.54 1.84-2 1.3-3.26l-1.84.78zm2.67-1.33a.49.49 0 0 1-.7 0l-1.4 1.4c.96.98 2.54.98 3.51 0l-1.41-1.4zm-.7 0a.49.49 0 0 1 0-.7l-1.4-1.41a2.49 2.49 0 0 0 0 3.52l1.4-1.42zm0-.7a.5.5 0 0 1 .7 0l1.41-1.41a2.49 2.49 0 0 0-3.52 0l1.42 1.42zm.7 0c.19.2.19.5 0 .7l1.41 1.4c.97-.96.97-2.54 0-3.51l-1.41 1.41zM19 13.92a.49.49 0 0 1-.64.26l-.76 1.85a2.49 2.49 0 0 0 3.25-1.35L19 13.92zm-.64.26a.49.49 0 0 1-.26-.63l-1.85-.77a2.49 2.49 0 0 0 1.35 3.25l.76-1.85zm-.26-.63a.5.5 0 0 1 .64-.27l.76-1.85a2.5 2.5 0 0 0-3.25 1.35l1.85.77zm.64-.27c.25.1.36.4.26.64l1.85.76a2.49 2.49 0 0 0-1.35-3.25l-.76 1.85zm.97-2.93a.5.5 0 0 1-.49.49v2a2.49 2.49 0 0 0 2.49-2.49h-2zm-.49.49a.49.49 0 0 1-.49-.49h-2a2.49 2.49 0 0 0 2.5 2.49v-2zm-.49-.49a.5.5 0 0 1 .5-.49v-2a2.49 2.49 0 0 0-2.5 2.5h2zm.5-.49a.5.5 0 0 1 .48.5h2a2.49 2.49 0 0 0-2.49-2.5v2zm-.28-3.2c.1.25 0 .54-.25.64l.78 1.84c1.27-.54 1.85-2 1.3-3.27l-1.83.8zm-.26.64a.5.5 0 0 1-.64-.25l-1.84.79a2.5 2.5 0 0 0 3.27 1.3L18.7 7.3zm-.64-.25a.49.49 0 0 1 .26-.64l-.8-1.84a2.5 2.5 0 0 0-1.3 3.27l1.84-.8zm.26-.64c.25-.11.54 0 .64.25l1.84-.79a2.49 2.49 0 0 0-3.27-1.3l.79 1.84zm-1.34-1.98a.49.49 0 0 1-.7 0l-1.4 1.41c.96.97 2.54.97 3.51 0l-1.41-1.41zm-.7 0a.52.52 0 0 1 0-.7l-1.4-1.4a2.49 2.49 0 0 0 0 3.51l1.4-1.41zm0-.7c.2-.18.5-.18.7 0l1.41-1.4a2.49 2.49 0 0 0-3.52 0l1.42 1.4zm.7 0c.19.2.19.5 0 .7l1.41 1.41a2.5 2.5 0 0 0 0-3.52l-1.41 1.42z"/>
    <path id="path7_fill" d="M15.91 13.44c.24-.59.5-1.1.78-1.56.07-2.26 1.77-4.07 3.85-4.07h24.42c2.13 0 3.85 1.89 3.85 4.22v.13c.08.13.14.27.2.41.34.77.74.95 1.5.95 4.62-.03 9.25-.01 13.87-.02.35 0 .7-.06 1.06-.1.06-4.23-1.37-7.55-5.03-9.83C56.47 1.1 52.08.19 47.58.12a981.82 981.82 0 0 0-30.7 0 23.8 23.8 0 0 0-12.5 3.7C.8 6.05-.17 9.42.04 13.43H15.9z"/>
    <path id="path8_stroke_2x" d="M15.91 13.44v1h.67l.26-.62-.93-.38zm.78-1.56l.85.53.14-.23v-.27l-1-.03zm32.12.28h-1v.25l.12.22.88-.47zm.2.41l-.91.4.91-.4zm1.5.95v-1 1zm13.87-.02v-1 1zm1.06-.1l.09 1 .9-.08v-.9l-1-.01zM60.4 3.58l.53-.85-.53.85zM47.58.12l-.02 1 .02-1zm-30.7 0l.01 1-.01-1zm-12.5 3.7l-.53-.86.54.85zM.04 13.43l-1 .06.05.94h.95v-1zm16.8.38c.23-.56.45-1 .7-1.4l-1.69-1.06c-.3.49-.6 1.08-.85 1.7l1.85.76zm.86-1.9c.06-1.81 1.39-3.11 2.85-3.11v-2c-2.7 0-4.76 2.32-4.85 5.04l2 .06zm2.85-3.11h24.42v-2H20.54v2zm24.42 0c1.5 0 2.85 1.35 2.85 3.22h2c0-2.8-2.09-5.22-4.85-5.22v2zm2.85 3.22v.13h2v-.13h-2zm.12.6l.17.34 1.83-.8a6.7 6.7 0 0 0-.24-.49l-1.76.96zm.17.34c.2.48.5.93.99 1.22.47.28.98.33 1.43.33l-.02-2c-.32 0-.39-.04-.39-.04v-.01c-.02-.02-.02 0-.04-.04a1.26 1.26 0 0 1-.14-.26l-1.83.8zm2.42 1.55c4.61-.03 9.24-.01 13.87-.02v-2c-4.63 0-9.26-.01-13.89.02l.02 2zm13.86-.02c.43 0 .82-.07 1.15-.1l-.18-1.99c-.4.04-.7.1-.97.09v2zm2.06-1.08c.07-4.52-1.5-8.2-5.5-10.7l-1.06 1.7c3.3 2.06 4.62 5.02 4.56 8.97l2 .03zm-5.5-10.7C56.84.17 52.2-.8 47.6-.88l-.03 2c4.41.06 8.53.9 12.32 3.3l1.06-1.7zM47.6-.88a983.74 983.74 0 0 0-30.73 0l.03 2a979.9 979.9 0 0 1 30.67 0l.03-2zm-30.73 0a25.26 25.26 0 0 0-13 3.84l1.06 1.7c3.7-2.34 7.66-3.5 11.97-3.55l-.03-2zm-13 3.84c-4 2.52-5.05 6.3-4.83 10.54l2-.1c-.2-3.8.72-6.75 3.89-8.74l-1.07-1.7zM.02 14.44H15.9v-2H.03v2z"/>
    <path id="path9_fill" d="M15.9 0H.15C-.26 3.62 0 3.91 3.49 3.91h9.4c2.79 0 3.63-1.08 3.02-3.91z"/>
    <path id="path10_stroke_2x" d="M15.9 0l.99-.21-.17-.79h-.81v1zM.15 0v-1h-.9l-.1.9 1 .1zM3.5 3.91v-1 1zm9.4 0v-1 1zM15.92-1H.14v2H15.9v-2zM-.86-.1c-.1.91-.16 1.68-.13 2.28.02.62.15 1.27.59 1.79a2.7 2.7 0 0 0 1.67.83 15 15 0 0 0 2.22.11v-2c-.86 0-1.45-.01-1.9-.09-.4-.07-.47-.16-.47-.16-.01 0-.1-.1-.12-.56-.02-.48.04-1.1.13-2L-.86-.1zm4.36 5h9.4v-2H3.5v2zm9.4 0c1.45 0 2.79-.27 3.58-1.28.77-1 .73-2.39.42-3.84L14.93.2c.3 1.38.14 1.95-.05 2.2-.17.22-.65.5-1.99.5v2z"/>
    <path id="path11_fill" d="M15.9 0H.1c-.37 3.22.2 3.89 3.25 3.89h9.14c2.69 0 3.59-1.03 3.4-3.89z"/>
    <path id="path12_stroke_2x" d="M15.9 0l.99-.07-.06-.93h-.94v1zM.1 0v-1h-.89l-.1.88L.1 0zm3.25 3.89v-1 1zm9.14 0v1-1zM15.89-1H.1v2h15.8v-2zM-.89-.12c-.1.84-.14 1.59-.08 2.18.06.63.23 1.23.64 1.73.42.5 1 .77 1.6.91.56.13 1.28.19 2.07.19v-2c-.72 0-1.21-.03-1.6-.13-.36-.08-.48-.19-.53-.25-.06-.08-.15-.24-.2-.64-.04-.44 0-.98.08-1.75L-.89-.12zm4.23 5h9.15v-2H3.35v2zm9.15 0c1.42 0 2.7-.26 3.53-1.2.82-.94.97-2.27.87-3.75l-2 .14c.1 1.37-.11 1.99-.37 2.28-.25.28-.76.53-2.03.54v2z"/>
    <path id="path13_fill" d="M36.75 6.18L37.31 0h-3.78l-1.3 6.18H14.82L13.52 0H9.74l.56 6.18-3.73 4.61L0 29.42V39.7h1.6v.53c0 .4.32.7.7.7h3.91c.4 0 .71-.3.71-.7v-.53h33.2v.53c0 .4.32.7.71.7h3.91c.4 0 .71-.3.71-.7v-.53h1.6V29.4l-6.57-18.6-3.73-4.61z"/>
    <path id="path14_stroke_2x" d="M36.75 6.18l-1-.09-.03.4.25.32.78-.63zM37.31 0l1 .09L38.4-1h-1.1v1zm-3.78 0v-1h-.82l-.16.8.98.2zm-1.3 6.18v1h.82l.16-.8-.97-.2zm-17.42 0l-.98.2.17.8h.81v-1zM13.52 0l.98-.2-.17-.8h-.8v1zM9.74 0v-1h-1.1l.1 1.09 1-.09zm.56 6.18l.77.63.26-.32-.04-.4-1 .09zm-3.73 4.61l-.78-.63-.1.13-.06.17.94.33zM0 29.42l-.94-.33-.06.16v.17h1zM0 39.7h-1v1h1v-1zm1.6 0h1v-1h-1v1zm5.32 0v-1h-1v1h1zm33.2 0h1v-1h-1v1zm5.33 0v-1h-1v1h1zm1.6 0v1h1v-1h-1zm0-10.3h1v-.16l-.06-.16-.94.33zm-6.57-18.6l.94-.33-.05-.17-.11-.13-.78.63zm-2.73-4.52L38.3.09 36.31-.1l-.55 6.18 1.99.18zM37.3-1h-3.78v2h3.78v-2zm-4.76.8l-1.3 6.17 1.96.41L34.51.2l-1.96-.4zm-.31 5.38h-6.5v2h6.5v-2zm-6.5 0H21.3v2h4.44v-2zm-4.44 0H14.8v2h6.5v-2zm-5.5.8L14.5-.2l-1.96.4 1.3 6.18 1.95-.4zM13.51-1H9.74v2h3.78v-2zM8.75.09l.55 6.18 2-.18-.56-6.18-2 .18zm.77 5.46l-3.73 4.61 1.56 1.26 3.72-4.61-1.55-1.26zm-3.9 4.9L-.93 29.1l1.88.66 6.57-18.63-1.88-.66zM-1 29.43V39.7h2V29.4h-2zM0 40.7h1.6v-2H0v2zm.6-1v.53h2v-.53h-2zm0 .53c0 .95.76 1.7 1.7 1.7v-2c.17 0 .3.14.3.3h-2zm1.7 1.7h3.91v-2h-3.9v2zm3.91 0a1.7 1.7 0 0 0 1.71-1.7h-2c0-.16.13-.3.3-.3v2zm1.71-1.7v-.53h-2v.53h2zm-1 .47h33.2v-2H6.92v2zm32.2-1v.53h2v-.53h-2zm0 .53c0 .95.77 1.7 1.71 1.7v-2c.16 0 .3.14.3.3h-2zm1.71 1.7h3.91v-2h-3.9v2zm3.91 0a1.7 1.7 0 0 0 1.71-1.7h-2c0-.16.13-.3.29-.3v2zm1.71-1.7v-.53h-2v.53h2zm-1 .47h1.6v-2h-1.6v2zm2.6-1V29.4h-2v10.3h2zm-.06-10.63l-6.57-18.62-1.88.66 6.56 18.63 1.9-.66zm-6.73-18.92l-3.73-4.61-1.56 1.26 3.73 4.6 1.56-1.25z"/>
    <path id="path15_fill" d="M4.64 12.51c0 .38.18.56.53.56h.16c.36 0 .54-.18.54-.56V2.47h3.65c.36 0 .56-.18.56-.5v-.1c0-.34-.2-.52-.56-.52H1c-.36 0-.56.18-.56.53v.09c0 .32.2.5.56.5h3.65v10.04zm4.8-3.76a4.25 4.25 0 0 0 4.42 4.47c2.33 0 3.62-1.32 3.62-1.91 0-.56-.65-.72-.68-.67-.5.81-1.26 1.53-2.94 1.53a3.16 3.16 0 0 1-3.25-3.13h6.66c.36 0 .48-.07.48-.4v-.1c0-2.61-1.58-4.32-4-4.32-2.48 0-4.31 1.92-4.31 4.53zm1.2-.72a3.13 3.13 0 0 1 3.12-2.79c1.6 0 2.64 1.1 2.75 2.8h-5.87zm9.03 4.48c0 .44.21.56.52.56h.12c.3 0 .53-.12.53-.56V1.88c0-.94-.38-1.14-.78-1.14-.21 0-.4.1-.4.13V12.5zm3.1-3.76a4.25 4.25 0 0 0 4.42 4.47c2.32 0 3.62-1.32 3.62-1.91 0-.56-.65-.72-.69-.67-.5.81-1.26 1.53-2.93 1.53a3.16 3.16 0 0 1-3.26-3.13h6.66c.36 0 .49-.07.49-.4v-.1c0-2.61-1.59-4.32-4-4.32-2.48 0-4.32 1.92-4.32 4.53zm1.2-.72a3.13 3.13 0 0 1 3.11-2.79c1.6 0 2.65 1.1 2.75 2.8h-5.86zm10.1 3.55a3.58 3.58 0 0 0 3.11 1.64c2.38 0 4.13-1.82 4.13-4.52 0-2.72-1.79-4.48-4.05-4.48a3.7 3.7 0 0 0-3.2 1.65V5.5c0-.93-.37-1.13-.76-1.13-.22 0-.4.09-.4.13V16c0 .43.22.56.52.56h.13c.3 0 .52-.13.52-.56v-4.41zm-.02-2.29V7.28a3.2 3.2 0 0 1 3.08-2.04c1.73 0 2.99 1.46 2.99 3.48 0 2.07-1.2 3.47-3.03 3.47-1.62 0-3.04-1.26-3.04-2.9zm9.1 3.22c0 .44.21.56.52.56h.13c.3 0 .52-.12.52-.56V8.25c0-1.78 1.13-2.94 2.82-2.94 1.44 0 2.3 1.03 2.3 2.76v4.44c0 .44.22.56.53.56h.13c.3 0 .52-.12.52-.56V8c0-2.27-1.14-3.78-3.4-3.78-1.35 0-2.3.66-2.9 1.58V1.88c0-.94-.38-1.14-.78-1.14-.21 0-.4.1-.4.13V12.5zm9.23-3.81a4.33 4.33 0 0 0 4.43 4.52 4.3 4.3 0 0 0 4.4-4.49 4.32 4.32 0 0 0-4.4-4.51 4.3 4.3 0 0 0-4.43 4.48zm1.19 0c0-2 1.38-3.46 3.24-3.46 1.85 0 3.22 1.5 3.22 3.5s-1.39 3.45-3.22 3.45c-1.86 0-3.24-1.5-3.24-3.5zm9.5 3.81c0 .44.2.56.52.56h.12c.3 0 .52-.12.52-.56V7.13a3.03 3.03 0 0 1 2.83-1.82c1.46 0 2.3 1.05 2.3 2.76v4.44c0 .44.22.56.53.56H70c.3 0 .52-.12.52-.56V8c0-2.27-1.13-3.78-3.4-3.78-1.33 0-2.32.64-2.91 1.56V5.5c0-.93-.36-1.13-.76-1.13-.22 0-.4.09-.4.13v8.02zm9.23-3.76a4.25 4.25 0 0 0 4.42 4.47c2.33 0 3.62-1.32 3.62-1.91 0-.56-.65-.72-.68-.67-.5.81-1.26 1.53-2.94 1.53a3.16 3.16 0 0 1-3.25-3.13h6.66c.36 0 .48-.07.48-.4v-.1c0-2.61-1.58-4.32-4-4.32-2.48 0-4.31 1.92-4.31 4.53zm1.2-.72a3.13 3.13 0 0 1 3.12-2.79c1.6 0 2.64 1.1 2.75 2.8H73.5zM.56 27.47c0 .65 1.24 1.75 3.53 1.75 2.08 0 3.38-1.03 3.38-2.61 0-1.77-1.76-2.15-3.15-2.45-1.58-.34-2.4-.6-2.4-1.51 0-.85.76-1.44 2.17-1.44a2.9 2.9 0 0 1 2.52 1.26c.03.05.64-.17.64-.62 0-.64-1.08-1.63-3.16-1.63C2.1 20.22.8 21.28.8 22.8c0 1.73 1.67 2.1 3 2.4 1.63.33 2.53.55 2.53 1.58 0 .86-.8 1.44-2.22 1.44-1.42 0-2.36-.6-2.93-1.39-.04-.04-.63.14-.63.63zM8.8 24.7a4.34 4.34 0 0 0 4.41 4.52c2.5 0 3.7-1.6 3.7-2.38 0-.52-.74-.63-.78-.56a2.9 2.9 0 0 1-2.92 1.9c-1.85 0-3.22-1.48-3.22-3.48s1.39-3.44 3.22-3.44c1.64 0 2.47.83 2.92 1.89.04.07.77-.04.77-.56 0-.77-1.18-2.37-3.69-2.37a4.32 4.32 0 0 0-4.4 4.48zm9.9 3.81c0 .44.21.56.52.56h.12c.31 0 .53-.12.53-.56v-3.36c0-2.2.59-3.8 2.12-3.8.49 0 .8.14 1.04.36.04.04.33-.18.33-.61 0-.56-.45-.88-1.24-.88-1.16 0-1.91.6-2.27 1.78v-.5c0-.94-.36-1.14-.76-1.14-.21 0-.4.09-.4.13v8.02zm5.41-3.76a4.25 4.25 0 0 0 4.43 4.47c2.32 0 3.62-1.32 3.62-1.91 0-.56-.65-.72-.68-.67-.5.81-1.26 1.53-2.94 1.53a3.16 3.16 0 0 1-3.26-3.13h6.66c.36 0 .49-.07.49-.4v-.1c0-2.61-1.58-4.32-4-4.32-2.48 0-4.32 1.92-4.32 4.53zm1.21-.72a3.13 3.13 0 0 1 3.11-2.79c1.6 0 2.65 1.1 2.76 2.8h-5.87zm8.36.72a4.25 4.25 0 0 0 4.42 4.47c2.33 0 3.62-1.32 3.62-1.91 0-.56-.65-.72-.68-.67-.5.81-1.26 1.53-2.94 1.53a3.16 3.16 0 0 1-3.25-3.13h6.66c.36 0 .48-.07.48-.4v-.1c0-2.61-1.58-4.32-4-4.32-2.48 0-4.31 1.92-4.31 4.53zm1.2-.72A3.13 3.13 0 0 1 38 21.24c1.6 0 2.64 1.1 2.75 2.8h-5.87zm8.94 4.48c0 .44.21.56.52.56h.12c.3 0 .53-.12.53-.56v-5.38a3.03 3.03 0 0 1 2.82-1.82c1.46 0 2.3 1.05 2.3 2.76v4.44c0 .44.22.56.53.56h.12c.3 0 .53-.12.53-.56V24c0-2.27-1.14-3.78-3.4-3.78-1.34 0-2.33.64-2.92 1.56v-.29c0-.93-.36-1.13-.76-1.13-.21 0-.4.09-.4.13v8.02zM54.29 18.3c.52 0 .8-.25.8-.77 0-.53-.26-.78-.76-.78-.53 0-.8.25-.8.78 0 .5.27.77.76.77zm-.58 10.22c0 .44.22.56.53.56h.12c.3 0 .52-.12.52-.56v-7.6c0-.42-.21-.55-.52-.55h-.12c-.31 0-.53.13-.53.56v7.6zm3.68 0c0 .44.21.56.52.56h.12c.31 0 .53-.12.53-.56v-5.38a3.03 3.03 0 0 1 2.82-1.82c1.46 0 2.3 1.05 2.3 2.76v4.44c0 .44.22.56.53.56h.12c.31 0 .53-.12.53-.56V24c0-2.27-1.14-3.78-3.4-3.78-1.34 0-2.33.64-2.92 1.56v-.29c0-.93-.36-1.13-.76-1.13-.21 0-.4.09-.4.13v8.02zM66 30.46c0 1.58 1.3 2.34 4.03 2.34 2.75 0 4.37-.96 4.37-2.56 0-1.37-1.3-1.94-2.52-2.25-1.56-.4-2.37-.45-2.37-1.04a.7.7 0 0 1 .12-.43l.47.01c2.02 0 3.53-1.38 3.53-3.15 0-.7-.27-1.36-.7-1.89l1.42-1.58c.03-.04-.18-.52-.67-.52-.38 0-.57.18-.83.54l-.59.95a3.8 3.8 0 0 0-2.16-.66c-2 0-3.47 1.45-3.47 3.24 0 1.31.84 2.4 2.14 2.86a1.3 1.3 0 0 0-.38.84c0 .4.16.65.38.83-1.57.3-2.77 1.17-2.77 2.47zm4.12-4.84c-1.35 0-2.3-.9-2.3-2.2 0-1.33.93-2.23 2.26-2.23 1.4 0 2.34.93 2.34 2.23 0 1.3-.93 2.2-2.3 2.2zm-2.99 4.84c0-1.08 1.48-1.7 3.11-1.78 1.37.34 3 .55 3 1.6 0 1-1.21 1.56-3.18 1.56-1.92 0-2.93-.48-2.93-1.38z"/>
    <path id="path16_fill" d="M1.39 12.51c0 .38.18.56.52.56h.14c.36 0 .54-.25.54-.56v-4.4h1.46l3.78 4.53c.27.32.52.43.76.43.5 0 .8-.48.73-.57L5.6 8.1c2.5-.03 3.87-1.27 3.87-3.38 0-2.23-1.48-3.37-4.2-3.37h-3.2a.68.68 0 0 0-.68.69V12.5zm1.2-5.45v-4.6h2.72c1.93 0 2.9.78 2.9 2.3 0 1.38-.9 2.3-2.83 2.3H2.6zm8.25 1.7a4.25 4.25 0 0 0 4.43 4.46c2.32 0 3.62-1.32 3.62-1.91 0-.56-.65-.72-.69-.67-.5.81-1.26 1.53-2.93 1.53a3.16 3.16 0 0 1-3.26-3.13h6.66c.36 0 .49-.07.49-.4v-.1c0-2.61-1.59-4.32-4-4.32-2.48 0-4.32 1.92-4.32 4.53zm1.2-.73c.26-1.64 1.5-2.79 3.12-2.79 1.6 0 2.65 1.1 2.76 2.8h-5.87zm8.37.67a4.34 4.34 0 0 0 4.4 4.52c2.5 0 3.7-1.6 3.7-2.38 0-.52-.74-.63-.78-.56a2.9 2.9 0 0 1-2.91 1.9c-1.86 0-3.23-1.48-3.23-3.48s1.39-3.44 3.23-3.44a2.9 2.9 0 0 1 2.91 1.89c.04.07.78-.04.78-.56 0-.77-1.2-2.37-3.7-2.37a4.32 4.32 0 0 0-4.4 4.48zm9.31.05a4.25 4.25 0 0 0 4.43 4.47c2.32 0 3.62-1.32 3.62-1.91 0-.56-.65-.72-.69-.67-.5.81-1.26 1.53-2.93 1.53a3.16 3.16 0 0 1-3.26-3.13h6.66c.36 0 .49-.07.49-.4v-.1c0-2.61-1.59-4.32-4-4.32-2.48 0-4.32 1.92-4.32 4.53zm1.2-.72c.26-1.64 1.5-2.79 3.12-2.79 1.6 0 2.65 1.1 2.76 2.8h-5.87zm9.6-5.74c.53 0 .8-.25.8-.77 0-.53-.25-.78-.76-.78-.52 0-.79.25-.79.78 0 .5.27.77.76.77zm-.57 10.22c0 .44.22.56.52.56h.13c.3 0 .52-.12.52-.56v-7.6c0-.42-.22-.55-.52-.55h-.13c-.3 0-.52.13-.52.56v7.6zm5.92.17c.13.3.18.43.8.43.59 0 .71-.16.84-.47l3.15-7.94c.02-.05-.16-.34-.58-.34-.36 0-.57.16-.84.86l-2.58 6.74-2.52-6.74c-.27-.7-.46-.86-.88-.86-.41 0-.6.27-.57.34l3.18 7.98zm5.5-3.93a4.25 4.25 0 0 0 4.44 4.47c2.32 0 3.61-1.32 3.61-1.91 0-.56-.64-.72-.68-.67-.5.81-1.26 1.53-2.93 1.53a3.16 3.16 0 0 1-3.26-3.13h6.66c.36 0 .48-.07.48-.4v-.1c0-2.61-1.58-4.32-4-4.32-2.48 0-4.31 1.92-4.31 4.53zm1.21-.72c.26-1.64 1.5-2.79 3.12-2.79 1.6 0 2.64 1.1 2.75 2.8h-5.87zM2.38 27.58a3.58 3.58 0 0 0 3.11 1.64c2.38 0 4.12-1.82 4.12-4.52 0-2.72-1.78-4.48-4.05-4.48-1.42 0-2.43.59-3.2 1.65v-.38c0-.93-.36-1.13-.76-1.13-.21 0-.4.09-.4.13v11.5c0 .43.22.56.53.56h.12c.31 0 .53-.13.53-.56v-4.41zm-.02-2.29v-2.01a3.2 3.2 0 0 1 3.08-2.04c1.72 0 2.98 1.46 2.98 3.48 0 2.07-1.2 3.47-3.02 3.47-1.62 0-3.04-1.26-3.04-2.9zm9.1 3.22c0 .44.21.56.52.56h.12c.3 0 .52-.12.52-.56v-3.36c0-2.2.6-3.8 2.13-3.8.48 0 .79.14 1.04.36.04.04.33-.18.33-.61 0-.56-.45-.88-1.25-.88-1.15 0-1.9.6-2.26 1.78v-.5c0-.94-.36-1.14-.76-1.14-.22 0-.4.09-.4.13v8.02zm5.41-3.81a4.33 4.33 0 0 0 4.43 4.52 4.3 4.3 0 0 0 4.41-4.49 4.32 4.32 0 0 0-4.41-4.51 4.3 4.3 0 0 0-4.43 4.48zm1.19 0c0-2 1.39-3.46 3.24-3.46 1.85 0 3.22 1.5 3.22 3.5s-1.38 3.45-3.22 3.45c-1.85 0-3.24-1.5-3.24-3.5zm8.92.03c0 2.72 1.78 4.49 4.05 4.49 1.42 0 2.43-.6 3.2-1.64v.93c0 .44.2.56.5.56h.13c.31 0 .53-.12.53-.56V17.88c0-.94-.38-1.14-.78-1.14-.21 0-.4.1-.4.13v4.86a3.6 3.6 0 0 0-3.1-1.51c-2.38 0-4.13 1.81-4.13 4.51zm1.19-.01c0-2.07 1.2-3.48 3.02-3.48 1.51 0 2.5.78 3.04 2.02v2.18c-.07 1.58-1.5 2.75-3.07 2.75-1.73 0-3-1.46-3-3.47zm9.56.72c0 2.26 1.14 3.78 3.4 3.78a3.4 3.4 0 0 0 2.92-1.55v.27c0 .93.36 1.13.76 1.13.21 0 .4-.09.4-.12v-8.03c0-.43-.22-.56-.53-.56h-.13c-.3 0-.52.13-.52.56v5.38a3 3 0 0 1-2.73 1.82c-1.53 0-2.4-1.03-2.4-2.76v-4.44c0-.43-.21-.56-.52-.56h-.13c-.3 0-.52.13-.52.56v4.52zm9.3-.74a4.34 4.34 0 0 0 4.42 4.52c2.5 0 3.69-1.6 3.69-2.38 0-.52-.74-.63-.78-.56a2.9 2.9 0 0 1-2.91 1.9c-1.86 0-3.23-1.48-3.23-3.48s1.39-3.44 3.23-3.44a2.9 2.9 0 0 1 2.91 1.89c.04.07.78-.04.78-.56 0-.77-1.2-2.37-3.7-2.37a4.32 4.32 0 0 0-4.4 4.48zm10.44 1.78c0 1.78.72 2.74 2.4 2.74 1.13 0 1.76-.58 1.76-1.07 0-.45-.36-.6-.4-.57-.3.38-.74.63-1.33.63-.96 0-1.28-.6-1.28-1.86v-4.87h2.29c.43 0 .55-.17.55-.47v-.11c0-.3-.12-.47-.55-.47h-2.29v-1.5c0-.42-.2-.55-.5-.55h-.13c-.3 0-.52.13-.52.56v1.5h-.8c-.43 0-.55.15-.55.46v.1c0 .31.12.48.56.48h.79v5zm8.2.32c0 1.44 1.08 2.4 2.95 2.4a3.8 3.8 0 0 0 3.2-1.59v.33c0 .93.35 1.13.74 1.13.22 0 .4-.09.4-.12v-5.4c0-2.07-1.3-3.33-3.47-3.33-2.27 0-3.5 1.36-3.5 1.98 0 .63.67.7.67.68a2.94 2.94 0 0 1 2.74-1.58c1.54 0 2.4.8 2.4 2.28v.3h-.17c-3.96.1-5.96.93-5.96 2.92zm1.19 0c0-1.35 1.51-1.87 4.44-1.98l.5-.01v.79c0 1.53-1.3 2.63-3.07 2.63-1.17 0-1.87-.56-1.87-1.43zm8.44 1.71c0 .44.21.56.52.56h.13c.3 0 .52-.12.52-.56v-5.38a3.03 3.03 0 0 1 2.82-1.82c1.46 0 2.3 1.05 2.3 2.76v4.44c0 .44.22.56.53.56h.13c.3 0 .52-.12.52-.56V24c0-2.27-1.14-3.78-3.4-3.78-1.34 0-2.33.64-2.92 1.56v-.29c0-.93-.36-1.13-.76-1.13-.21 0-.4.09-.4.13v8.02zm9.23-3.78c0 2.72 1.78 4.49 4.05 4.49 1.42 0 2.43-.6 3.2-1.64v.93c0 .44.2.56.5.56h.13c.31 0 .53-.12.53-.56V17.88c0-.94-.38-1.14-.78-1.14-.21 0-.4.1-.4.13v4.86a3.6 3.6 0 0 0-3.1-1.51c-2.38 0-4.13 1.81-4.13 4.51zm1.19-.01c0-2.07 1.2-3.48 3.02-3.48 1.51 0 2.5.78 3.04 2.02v2.18c-.07 1.58-1.5 2.75-3.07 2.75-1.73 0-3-1.46-3-3.47zm12.7 3.8c0 .43.2.55.52.55h.12c.3 0 .52-.12.52-.56v-3.87l4 3.98c.34.34.54.45.75.45.5 0 .69-.56.64-.61l-4.1-4 3.54-3.52c.05-.06-.11-.58-.58-.58-.23 0-.47.13-.8.47l-3.45 3.53v-6.48c0-.94-.38-1.14-.77-1.14-.22 0-.4.1-.4.13V28.5zm8.64-10.23c.52 0 .8-.25.8-.77 0-.53-.26-.78-.77-.78-.52 0-.79.25-.79.78 0 .5.27.77.76.77zm-.58 10.22c0 .44.22.56.53.56h.12c.3 0 .52-.12.52-.56v-7.6c0-.42-.21-.55-.52-.55h-.12c-.31 0-.53.13-.53.56v7.6zm4.21-2.03c0 1.78.73 2.74 2.4 2.74 1.13 0 1.76-.58 1.76-1.07 0-.45-.36-.6-.4-.57-.3.38-.73.63-1.33.63-.95 0-1.27-.6-1.27-1.86v-4.87h2.28c.44 0 .56-.17.56-.47v-.11c0-.3-.13-.47-.56-.47h-2.28v-1.5c0-.42-.2-.55-.5-.55h-.13c-.3 0-.53.13-.53.56v1.5h-.79c-.43 0-.56.15-.56.46v.1c0 .31.13.48.56.48h.8v5z"/>
    <path id="path17_fill" d="M38.6 20.27c.18-1.75-.82-2.47-1.33-2.6-4.37-1.37-4.4-2.1-4.47-3.3-.25-4.94-1.8-8.71-4.62-11.2A13.22 13.22 0 0 0 19.3 0c-.75-.03-5.22-.08-8.87 3.15-2.82 2.5-4.37 6.27-4.62 11.21-.06 1.2-.1 1.93-4.43 3.3-.55.13-1.55.85-1.37 2.6C.16 21.52.07 32.4 0 38a2.1 2.1 0 0 0 2.11 2.03h.1c.85.06 2.13.13 2.94 1.07.66.77.92 2.02.75 3.72-.27 2.9-.8 6.06-1.23 8.6a40.56 40.56 0 0 0-.64 4.67c0 3.34 2.17 7.32 12.53 7.32h5.51c10.35 0 12.53-3.98 12.53-7.32 0-.8-.28-2.42-.65-4.68-.43-2.53-.96-5.7-1.23-8.59-.16-1.7.09-2.95.75-3.72.8-.94 2.1-1.01 2.95-1.06h.1a2.12 2.12 0 0 0 2.1-2.06c-.07-5.58-.15-16.47-.02-17.72zm-2.17 18.41h-.1c-.94.06-2.71.16-3.9 1.54-.9 1.06-1.27 2.66-1.07 4.74.28 2.95.81 6.13 1.24 8.69.34 2.02.63 3.77.63 4.45 0 4.93-6.07 5.96-11.17 5.96h-5.51c-5.09 0-11.16-1.03-11.16-5.96 0-.68.29-2.43.63-4.45.43-2.56.96-5.74 1.24-8.69.2-2.08-.16-3.68-1.07-4.74-1.2-1.38-2.96-1.48-3.91-1.53h-.1c-.68-.05-.8-.47-.82-.68.01-.67.19-16.25.02-17.88-.1-.96.32-1.14.38-1.16 4.47-1.4 5.3-2.4 5.42-4.53.23-4.55 1.63-8 4.15-10.25 3.38-3 7.7-2.83 7.97-2.82h.02c.26-.01 4.59-.18 7.96 2.82 2.53 2.25 3.93 5.7 4.16 10.25.1 2.12.95 3.12 5.43 4.54.05.01.47.19.37 1.15-.17 1.63 0 17.21.02 17.85-.01.24-.14.66-.83.7z"/>
    <path id="path18_fill" d="M.34 0A.34.34 0 0 0 0 .34V2.4a.34.34 0 1 0 .68 0V.34A.34.34 0 0 0 .34 0z"/>
    <path id="path19_fill" d="M.34 0A.34.34 0 0 0 0 .34v2.04a.34.34 0 1 0 .68 0V.34A.34.34 0 0 0 .34 0z"/>
    <path id="path20_fill" d="M.34 0A.34.34 0 0 0 0 .34v2.04a.34.34 0 1 0 .68 0V.34A.34.34 0 0 0 .34 0z"/>
    <path id="path21_fill" d="M.34 0A.34.34 0 0 0 0 .34V2.4a.34.34 0 1 0 .68 0V.34A.34.34 0 0 0 .34 0z"/>
    <path id="path22_fill" d="M.34 0A.34.34 0 0 0 0 .34v2.04a.34.34 0 1 0 .68 0V.34A.34.34 0 0 0 .34 0z"/>
    <path id="path23_fill" d="M.34 0A.34.34 0 0 0 0 .34v2.04a.34.34 0 0 0 .68 0V.34A.34.34 0 0 0 .34 0z"/>
    <path id="path24_fill" d="M.34 0A.34.34 0 0 0 0 .34v2.04a.34.34 0 0 0 .68 0V.34A.34.34 0 0 0 .34 0z"/>
    <path id="path25_fill" d="M.34 0A.34.34 0 0 0 0 .34V2.4a.34.34 0 0 0 .68 0V.34A.34.34 0 0 0 .34 0z"/>
    <path id="path26_fill" d="M.34 0A.34.34 0 0 0 0 .34v2.04a.34.34 0 1 0 .68 0V.34A.34.34 0 0 0 .34 0z"/>
    <path id="path27_fill" d="M.34 0A.34.34 0 0 0 0 .34V2.4a.34.34 0 0 0 .68 0V.34A.34.34 0 0 0 .34 0z"/>
    <path id="path28_fill" d="M16.47 5.28c0-2.91-3.7-5.28-8.24-5.28S0 2.37 0 5.28v46.83l.02.1c.21 2.8 3.81 5.03 8.21 5.03 4.55 0 8.24-2.37 8.24-5.29a.33.33 0 0 0-.05-.16V5.45c.03-.05.05-.1.05-.17zM8.23 56.55c-4.16 0-7.55-2.06-7.55-4.6V5.28c0-2.54 3.39-4.6 7.55-4.6 4 0 7.29 1.91 7.53 4.31a.34.34 0 0 0-.02.14v46.82c0 .06.01.11.03.16-.13 2.46-3.45 4.45-7.54 4.45z"/>
    <path id="path29_fill" d="M.9.06C.15.56 0 1.07 0 1.42a.34.34 0 0 0 .68 0c0-.33.32-.62.6-.8a.34.34 0 0 0-.4-.56z"/>
    <path id="path30_fill" d="M1.61 0C1.12.08.66.2.24.33a.34.34 0 1 0 .2.65 8.7 8.7 0 0 1 1.28-.3.34.34 0 0 0-.1-.68z"/>
    <path id="path31_fill" d="M.53.06a.34.34 0 0 0-.47.09c-.1.16-.06.37.1.47.26.18.58.47.58.8a.34.34 0 1 0 .68 0c0-.35-.15-.87-.89-1.36z"/>
    <path id="path32_fill" d="M1.63.02a13.7 13.7 0 0 0-1.3 0A.34.34 0 0 0 0 .37C0 .55.16.7.34.7h.02a13.2 13.2 0 0 1 1.23 0h.02c.18 0 .33-.15.34-.33a.34.34 0 0 0-.32-.35z"/>
    <path id="path33_fill" d="M.29.68a8.8 8.8 0 0 1 1.38.31c.14 0 .28-.09.32-.23a.34.34 0 0 0-.22-.43A9.4 9.4 0 0 0 .4 0a.34.34 0 0 0-.11.68z"/>
    <path id="path34_fill" d="M.9.06C.15.56 0 1.07 0 1.42a.34.34 0 0 0 .68 0c0-.33.32-.62.6-.8a.34.34 0 0 0-.4-.56z"/>
    <path id="path35_fill" d="M1.61 0C1.12.08.66.2.24.33a.34.34 0 1 0 .2.65 8.8 8.8 0 0 1 1.28-.3.34.34 0 1 0-.1-.68z"/>
    <path id="path36_fill" d="M.29.68a8.9 8.9 0 0 1 1.38.31.34.34 0 0 0 .1-.66A9.6 9.6 0 0 0 .4 0a.34.34 0 1 0-.11.68z"/>
    <path id="path37_fill" d="M.53.06a.34.34 0 0 0-.47.1c-.1.15-.06.36.1.46.26.18.58.47.58.8a.34.34 0 1 0 .68 0c0-.35-.15-.87-.89-1.36z"/>
    <path id="path38_fill" d="M1.63.02a13.7 13.7 0 0 0-1.3 0A.34.34 0 0 0 0 .37C0 .55.16.7.34.7h.02a13.2 13.2 0 0 1 1.23 0h.02c.18 0 .33-.15.34-.33a.34.34 0 0 0-.32-.35z"/>
    <path id="path39_fill" d="M1.08 0a.34.34 0 0 0-.34.34c0 .33-.32.62-.59.8a.34.34 0 1 0 .38.56c.74-.5.9-1.01.9-1.36A.34.34 0 0 0 1.07 0z"/>
    <path id="path40_fill" d="M1.56.02C1.18.14.75.24.3.32a.34.34 0 0 0 .05.67H.4C.9.9 1.35.79 1.77.67a.34.34 0 1 0-.2-.65z"/>
    <path id="path41_fill" d="M1.59 0L.98.02C.77.02.55.02.35 0 .14-.02 0 .14 0 .33 0 .5.14.67.32.68L.94.7H1c.2 0 .41 0 .61-.02.2 0 .34-.17.33-.35 0-.19-.14-.35-.35-.33z"/>
    <path id="path42_fill" d="M.68.34a.34.34 0 1 0-.68 0c0 .35.16.87.9 1.36a.32.32 0 0 0 .46-.09.34.34 0 0 0-.09-.47C1 .96.68.67.68.34z"/>
    <path id="path43_fill" d="M1.72.32A9.9 9.9 0 0 1 .45.02a.34.34 0 1 0-.2.65 9.57 9.57 0 0 0 1.42.32.34.34 0 0 0 .05-.67z"/>
    <path id="path44_fill" d="M1.59 0L.98.02C.77.02.55.02.35 0 .14-.02 0 .14 0 .33s.14.34.32.35L.94.7H1c.2 0 .41 0 .61-.02.2 0 .34-.16.33-.35-.01-.2-.15-.36-.36-.33z"/>
    <path id="path45_fill" d="M1.08 0a.34.34 0 0 0-.34.34c0 .33-.32.62-.59.8a.34.34 0 1 0 .38.56c.74-.5.9-1.01.9-1.36A.34.34 0 0 0 1.07 0z"/>
    <path id="path46_fill" d="M1.56.02C1.18.14.75.24.3.32a.34.34 0 1 0 .1.67C.9.9 1.35.79 1.77.67a.34.34 0 1 0-.2-.65z"/>
    <path id="path47_fill" d="M1.72.32A9.9 9.9 0 0 1 .45.02a.34.34 0 1 0-.2.65 9.57 9.57 0 0 0 1.42.32.34.34 0 0 0 .05-.67z"/>
    <path id="path48_fill" d="M.68.34a.34.34 0 0 0-.68 0c0 .35.16.87.9 1.36a.3.3 0 0 0 .18.06.34.34 0 0 0 .2-.62C1 .95.67.67.67.34z"/>
    <path id="path49_fill" d="M1.2 8.41c0 3.13 1.59 4.8 4.52 4.8 2.96 0 4.58-1.7 4.58-4.85V1.84c0-.38-.15-.56-.49-.56h-.22c-.36 0-.5.18-.5.56V8.3c0 2.56-1.08 3.82-3.33 3.82-2.21 0-3.33-1.3-3.33-3.8V1.84c0-.36-.18-.56-.54-.56h-.16c-.34 0-.52.2-.52.56v6.57zm10.85 3.06c0 .65 1.25 1.75 3.53 1.75 2.09 0 3.39-1.03 3.39-2.61 0-1.77-1.77-2.15-3.15-2.45-1.59-.34-2.4-.6-2.4-1.51 0-.85.76-1.44 2.16-1.44a2.9 2.9 0 0 1 2.52 1.26c.04.05.65-.17.65-.62 0-.64-1.08-1.63-3.17-1.63-1.98 0-3.27 1.06-3.27 2.59 0 1.73 1.67 2.1 3 2.4 1.62.33 2.52.55 2.52 1.58 0 .86-.79 1.44-2.21 1.44s-2.36-.6-2.94-1.39c-.03-.04-.63.14-.63.63zm8.25-2.72a4.25 4.25 0 0 0 4.43 4.47c2.32 0 3.62-1.32 3.62-1.91 0-.56-.65-.72-.69-.67-.5.81-1.26 1.53-2.93 1.53a3.16 3.16 0 0 1-3.26-3.13h6.66c.36 0 .49-.07.49-.4v-.1c0-2.61-1.59-4.32-4-4.32-2.48 0-4.32 1.92-4.32 4.53zm1.2-.72c.26-1.64 1.5-2.79 3.12-2.79 1.6 0 2.65 1.1 2.75 2.8h-5.86zm13.17 3.55a3.58 3.58 0 0 0 3.11 1.64c2.38 0 4.12-1.82 4.12-4.52 0-2.72-1.78-4.48-4.05-4.48-1.42 0-2.43.59-3.2 1.65V5.5c0-.93-.36-1.13-.76-1.13-.21 0-.4.09-.4.13V16c0 .43.22.56.53.56h.13c.3 0 .52-.13.52-.56v-4.41zm-.02-2.29V7.28a3.2 3.2 0 0 1 3.08-2.04c1.73 0 2.99 1.46 2.99 3.48 0 2.07-1.21 3.47-3.03 3.47-1.62 0-3.04-1.26-3.04-2.9zm9.1 3.22c0 .44.21.56.52.56h.12c.3 0 .53-.12.53-.56V9.15c0-2.2.59-3.8 2.12-3.8.49 0 .8.14 1.04.36.04.04.33-.18.33-.61 0-.56-.45-.88-1.24-.88-1.16 0-1.91.6-2.27 1.78v-.5c0-.94-.36-1.14-.76-1.14-.21 0-.4.09-.4.13v8.02zm5.41-3.81a4.33 4.33 0 0 0 4.43 4.52A4.3 4.3 0 0 0 58 8.73a4.32 4.32 0 0 0-4.4-4.51 4.3 4.3 0 0 0-4.44 4.48zm1.2 0c0-2 1.38-3.46 3.23-3.46 1.86 0 3.22 1.5 3.22 3.5s-1.38 3.45-3.22 3.45c-1.85 0-3.24-1.5-3.24-3.5zm8.91.03c0 2.72 1.78 4.49 4.05 4.49 1.42 0 2.43-.6 3.2-1.64v.93c0 .44.2.56.5.56h.13c.31 0 .53-.12.53-.56V1.88c0-.94-.38-1.14-.78-1.14-.21 0-.4.1-.4.13v4.86a3.6 3.6 0 0 0-3.1-1.51c-2.38 0-4.13 1.81-4.13 4.51zm1.19-.01c0-2.07 1.2-3.48 3.02-3.48 1.51 0 2.5.78 3.04 2.02v2.18c-.07 1.58-1.5 2.75-3.07 2.75-1.73 0-3-1.46-3-3.47zm9.56.72c0 2.26 1.14 3.78 3.4 3.78a3.4 3.4 0 0 0 2.92-1.55v.27c0 .93.36 1.13.76 1.13.21 0 .4-.09.4-.12V4.92c0-.43-.22-.56-.53-.56h-.13c-.3 0-.52.13-.52.56v5.38a3 3 0 0 1-2.73 1.82c-1.53 0-2.4-1.03-2.4-2.76V4.92c0-.43-.21-.56-.52-.56h-.13c-.3 0-.52.13-.52.56v4.52zm9.3-.74a4.34 4.34 0 0 0 4.42 4.52c2.5 0 3.69-1.6 3.69-2.38 0-.52-.74-.63-.78-.56a2.89 2.89 0 0 1-2.91 1.9c-1.86 0-3.22-1.48-3.22-3.48s1.38-3.44 3.22-3.44c1.64 0 2.46.83 2.91 1.89.04.07.78-.04.78-.56 0-.77-1.2-2.37-3.7-2.37a4.32 4.32 0 0 0-4.4 4.48zm10.44 1.78c0 1.78.72 2.74 2.4 2.74 1.13 0 1.76-.58 1.76-1.07 0-.45-.36-.6-.4-.57-.3.38-.74.63-1.33.63-.95 0-1.28-.6-1.28-1.86V5.48h2.29c.43 0 .56-.17.56-.47V4.9c0-.3-.13-.47-.56-.47h-2.3v-1.5c0-.42-.2-.55-.5-.55h-.13c-.3 0-.52.13-.52.56v1.5h-.8c-.42 0-.55.15-.55.46V5c0 .31.13.48.56.48h.79v5zM.66 26.8c0 1.44 1.09 2.4 2.96 2.4a3.8 3.8 0 0 0 3.2-1.59v.33c0 .93.34 1.13.74 1.13.22 0 .4-.09.4-.12v-5.4c0-2.07-1.3-3.33-3.48-3.33C2.21 20.22 1 21.58 1 22.2c0 .63.67.7.67.68A2.94 2.94 0 0 1 4.4 21.3c1.55 0 2.41.8 2.41 2.28v.3h-.18c-3.96.1-5.95.93-5.95 2.92zm1.2 0c0-1.35 1.5-1.87 4.44-1.98l.5-.01v.79c0 1.53-1.31 2.63-3.07 2.63-1.17 0-1.88-.56-1.88-1.43zm8.43 1.71c0 .44.22.56.53.56h.12c.3 0 .52-.12.52-.56v-5.38a3.03 3.03 0 0 1 2.83-1.82c1.46 0 2.3 1.05 2.3 2.76v4.44c0 .44.22.56.53.56h.12c.3 0 .52-.12.52-.56V24c0-2.27-1.13-3.78-3.4-3.78-1.33 0-2.32.64-2.91 1.56v-.29c0-.93-.36-1.13-.76-1.13-.22 0-.4.09-.4.13v8.02zm9.24-3.78c0 2.72 1.78 4.49 4.05 4.49 1.42 0 2.43-.6 3.2-1.64v.93c0 .44.2.56.5.56h.13c.3 0 .52-.12.52-.56V17.88c0-.94-.38-1.14-.77-1.14-.22 0-.4.1-.4.13v4.86c-.5-.8-1.6-1.51-3.11-1.51-2.38 0-4.12 1.81-4.12 4.51zm1.18-.01c0-2.07 1.21-3.48 3.03-3.48 1.51 0 2.5.78 3.04 2.02v2.18c-.07 1.58-1.51 2.75-3.08 2.75-1.73 0-2.99-1.46-2.99-3.47zm12.7 3.8c0 .43.22.55.52.55h.13c.3 0 .52-.12.52-.56v-3.87l4 3.98c.34.34.54.45.75.45.49 0 .69-.56.63-.61l-4.1-4 3.54-3.52c.06-.06-.1-.58-.57-.58-.24 0-.47.13-.8.47l-3.45 3.53v-6.48c0-.94-.38-1.14-.77-1.14-.22 0-.4.1-.4.13V28.5zm8.65-10.23c.52 0 .79-.25.79-.77 0-.53-.25-.78-.76-.78-.52 0-.79.25-.79.78 0 .5.27.77.76.77zm-.58 10.22c0 .44.22.56.52.56h.13c.3 0 .52-.12.52-.56v-7.6c0-.42-.22-.55-.52-.55H42c-.3 0-.52.13-.52.56v7.6zm4.21-2.03c0 1.78.72 2.74 2.4 2.74 1.13 0 1.76-.58 1.76-1.07 0-.45-.36-.6-.4-.57-.3.38-.73.63-1.33.63-.95 0-1.28-.6-1.28-1.86v-4.87h2.29c.43 0 .56-.17.56-.47v-.11c0-.3-.13-.47-.56-.47h-2.29v-1.5c0-.42-.2-.55-.5-.55h-.13c-.3 0-.52.13-.52.56v1.5h-.8c-.42 0-.55.15-.55.46v.1c0 .31.13.48.56.48h.8v5z"/>
    <path id="path50_fill" d="M62.34 10.31L52.32.26a.87.87 0 0 0-1.23 0 .88.88 0 0 0 0 1.23l1 1-6.87 6.91-2.74-2.75a.96.96 0 0 0-1.36 0 .97.97 0 0 0 0 1.36l.9.9-20.68 20.77a2.14 2.14 0 0 0-.4 2.46c.44.9 1.23 2.19 2.57 3.76l-1.43 1.43a.32.32 0 0 0 0 .46l.52.52L0 61l3.6.08 20.84-20.94.52.53c.13.12.33.12.45 0l1.43-1.43a18.76 18.76 0 0 0 3.75 2.58c.82.41 1.8.24 2.45-.41l20.68-20.76.9.9c.37.38.98.38 1.35 0a.97.97 0 0 0 0-1.36l-2.74-2.75 6.88-6.9 1 1c.34.34.89.34 1.23 0a.88.88 0 0 0 0-1.24zm-19.52 4.14l-16.3 16.41a.77.77 0 1 1-1.08-1.08l16.3-16.41a.77.77 0 1 1 1.08 1.08z"/>
    <path id="path51_stroke_2x" d="M62.34 10.31l.7-.7-.7.7zM52.32.26l-.7.7.7-.7zm-1.23 0l-.7-.71.7.7zm0 1.23l-.7.7.7-.7zm1 1l.71.71.7-.7-.7-.71-.7.7zM45.22 9.4l-.71.7.7.72.72-.71-.71-.71zm-2.74-2.75l.7-.7-.7.7zM41.12 8l.7-.7-.7.7zm.9.9l.7.71.71-.7-.7-.71-.71.7zM21.34 29.68l.71.7-.7-.7zm-.4 2.46l-.9.44.9-.44zm2.57 3.76l.7.7.66-.64-.6-.7-.76.64zm-1.43 1.43l-.7-.7.7.7zm.52.98l.71.7.7-.7-.7-.7-.7.7zM0 61l-.7-.71-1.65 1.65 2.33.05.02-1zm3.6.08l-.03 1 .43.01.3-.3-.7-.7zm20.84-20.94l.71-.7-.7-.71-.72.7.71.71zm2.4-.9l.65-.76-.7-.6-.66.65.7.7zm3.75 2.58l-.45.9.45-.9zm23.13-21.17l.7-.7-.7-.72-.71.71.7.7zm.9.9l-.72.7.71-.7zm-1.39-4.11l-.7-.71-.71.7.7.71.71-.7zm6.88-6.9l.7-.71-.7-.72-.71.72.7.7zm1 1l.7-.7-.7.7zm1.23 0l.7.7-.7-.7zm-19.52 2.9l-.71-.7.7.7zm-16.3 16.41l-.7-.7.7.7zm-1.08-1.08l-.71-.7.7.7zm16.3-16.41l.7.7-.7-.7zm21.3-3.76l-10-10.06L51.6.96l10.02 10.06 1.42-1.41zm-10-10.06a1.87 1.87 0 0 0-2.65 0L51.8.96a.13.13 0 0 1-.19 0l1.42-1.41zm-2.66 0a1.88 1.88 0 0 0 0 2.65L51.8.79c.05.04.05.12 0 .17L50.38-.45zm0 2.65l1 1L52.8 1.8l-1-1-1.42 1.4zm1-.41l-6.87 6.9 1.42 1.42 6.87-6.9-1.41-1.42zm-5.45 6.9l-2.74-2.75-1.42 1.41 2.74 2.76 1.42-1.42zm-2.74-2.75a1.96 1.96 0 0 0-2.78 0l1.42 1.41a.04.04 0 0 1-.06 0l1.42-1.4zm-2.78 0a1.98 1.98 0 0 0 0 2.78l1.42-1.41v.04l-1.42-1.4zm0 2.78l.9.9 1.42-1.41-.9-.9-1.42 1.4zm.9-.51L20.63 28.97l1.42 1.41L42.73 9.62 41.3 8.21zM20.63 28.97c-.94.95-1.2 2.4-.6 3.61l1.8-.89c-.22-.43-.13-.96.22-1.3l-1.42-1.42zm-.6 3.61a20.3 20.3 0 0 0 2.72 3.97l1.52-1.3a17.41 17.41 0 0 1-2.44-3.56l-1.8.9zm2.77 2.62l-1.43 1.43 1.42 1.41 1.43-1.43-1.42-1.41zm-1.43 1.43a1.32 1.32 0 0 0 0 1.86l1.42-1.41c.27.26.27.7 0 .96l-1.42-1.41zm0 1.86l.52.52 1.42-1.4-.52-.53-1.42 1.41zm.52-.89L-.7 60.3l1.42 1.4 22.6-22.69-1.42-1.4zM-.02 62l3.59.1.05-2-3.6-.1-.04 2zm4.32-.2l20.85-20.94-1.42-1.41L2.88 60.39l1.42 1.4zm19.43-20.94l.52.52 1.42-1.4-.52-.53-1.42 1.41zm.52.52c.52.52 1.36.52 1.87 0l-1.42-1.4c.27-.28.7-.28.97 0l-1.42 1.4zm1.87 0l1.43-1.43-1.42-1.41-1.43 1.43 1.42 1.41zM26.2 40a20.21 20.21 0 0 0 3.95 2.73l.9-1.8a17.32 17.32 0 0 1-3.55-2.44L26.19 40zm3.95 2.73c1.22.6 2.66.34 3.6-.6l-1.4-1.42c-.36.36-.88.44-1.3.23l-.9 1.79zm3.6-.6l20.68-20.77-1.41-1.4L32.33 40.7l1.42 1.42zm19.27-20.77l.9.9 1.41-1.4-.9-.9-1.41 1.4zm.9.9c.76.78 2 .78 2.77 0l-1.42-1.4a.04.04 0 0 1 .06 0l-1.42 1.4zm2.77 0c.76-.76.76-2 0-2.77l-1.42 1.41v-.05l1.42 1.42zm0-2.77l-2.74-2.75-1.42 1.41 2.74 2.75 1.42-1.4zm-2.74-1.34l6.88-6.9-1.42-1.41-6.88 6.9 1.42 1.41zm5.46-6.9l1 1 1.42-1.4-1-1.01-1.42 1.4zm1 1c.73.74 1.92.74 2.65 0l-1.42-1.4a.13.13 0 0 1 .19 0l-1.42 1.4zm2.65 0c.72-.73.72-1.91 0-2.64L61.63 11a.12.12 0 0 1 0-.17l1.42 1.41zm-20.94 1.5l-16.3 16.4 1.42 1.42 16.3-16.41-1.42-1.41zm-16.3 16.4c.1-.08.24-.09.33 0l-1.41 1.42c.69.7 1.81.69 2.5 0l-1.42-1.41zm.33 0c.1.1.1.24 0 .33l-1.41-1.4a1.77 1.77 0 0 0 0 2.5l1.41-1.42zm0 .33l16.3-16.41-1.42-1.4-16.3 16.4 1.42 1.41zm16.3-16.41c-.09.1-.24.1-.33 0l1.41-1.41a1.77 1.77 0 0 0-2.5 0l1.42 1.41zm-.33 0a.23.23 0 0 1 0-.32l1.42 1.4c.68-.68.68-1.8 0-2.5l-1.42 1.42z"/>
    <path id="path52_fill" d="M.29 12.71c-.04.1.32.36.68.36.27 0 .54-.12.7-.56l1.26-3.3h5l1.29 3.3c.16.44.45.56.73.56.38 0 .74-.27.7-.36L6.4 1.7c-.13-.31-.34-.45-.92-.45-.57 0-.79.14-.92.45L.3 12.7zm3.04-4.59l2.1-5.47 2.11 5.47H3.33zm11.9 4.4c0 .43.22.55.53.55h.12c.3 0 .52-.12.52-.56V7.13a3.03 3.03 0 0 1 2.83-1.82c1.46 0 2.3 1.05 2.3 2.76v4.44c0 .44.22.56.53.56h.12c.3 0 .52-.12.52-.56V8c0-2.27-1.13-3.78-3.4-3.78-1.33 0-2.32.64-2.91 1.56V5.5c0-.93-.36-1.13-.76-1.13-.22 0-.4.09-.4.13v8.02zm9.74-3.08c0 2.26 1.13 3.78 3.4 3.78a3.4 3.4 0 0 0 2.92-1.55v.27c0 .93.36 1.13.75 1.13.22 0 .4-.09.4-.12V4.92c0-.43-.22-.56-.52-.56h-.13c-.3 0-.52.13-.52.56v5.38a3 3 0 0 1-2.74 1.82c-1.53 0-2.39-1.03-2.39-2.76V4.92c0-.43-.22-.56-.52-.56h-.13c-.3 0-.52.13-.52.56v4.52zm9.88 3.07c0 .44.22.56.52.56h.13c.3 0 .52-.12.52-.56V9.15c0-2.2.6-3.8 2.12-3.8.49 0 .8.14 1.05.36.03.04.32-.18.32-.61 0-.56-.45-.88-1.24-.88-1.15 0-1.9.6-2.27 1.78v-.5c0-.94-.36-1.14-.75-1.14-.22 0-.4.09-.4.13v8.02zm5.43-1.04c0 .65 1.25 1.75 3.53 1.75 2.1 0 3.39-1.03 3.39-2.61 0-1.77-1.77-2.15-3.15-2.45-1.59-.34-2.4-.6-2.4-1.51 0-.85.76-1.44 2.16-1.44a2.9 2.9 0 0 1 2.52 1.26c.04.05.65-.17.65-.62 0-.64-1.08-1.63-3.17-1.63-1.98 0-3.27 1.06-3.27 2.59 0 1.73 1.67 2.1 3 2.4 1.62.33 2.52.55 2.52 1.58 0 .86-.79 1.44-2.21 1.44s-2.36-.6-2.94-1.39c-.03-.04-.63.14-.63.63zm8.25-2.72a4.25 4.25 0 0 0 4.43 4.47c2.32 0 3.62-1.32 3.62-1.91 0-.56-.65-.72-.69-.67-.5.81-1.26 1.53-2.93 1.53a3.16 3.16 0 0 1-3.26-3.13h6.66c.36 0 .49-.07.49-.4v-.1c0-2.61-1.59-4.32-4-4.32-2.48 0-4.32 1.92-4.32 4.53zm1.2-.72c.26-1.64 1.5-2.79 3.12-2.79 1.6 0 2.65 1.1 2.75 2.8h-5.86zm13.3 4.63c.07.3.2.45.86.45.6 0 .68-.15.79-.45l1.94-5.87 1.9 5.87c.1.3.2.45.79.45.66 0 .79-.15.86-.45l2.05-7.96c.02-.05-.29-.34-.65-.34-.27 0-.59.2-.7.83l-1.55 6.73-1.81-5.78c-.11-.34-.3-.48-.89-.48-.6 0-.77.14-.88.48l-1.83 5.78-1.57-6.73c-.13-.63-.43-.83-.7-.83-.38 0-.7.27-.69.34l2.07 7.96zm11.5-10.37c.51 0 .78-.25.78-.77 0-.53-.25-.78-.75-.78-.52 0-.8.25-.8.78 0 .5.28.77.76.77zm-.58 10.22c0 .44.21.56.52.56h.12c.31 0 .53-.12.53-.56v-7.6c0-.42-.22-.55-.53-.55h-.12c-.3 0-.52.13-.52.56v7.6zm3.76 0c0 .44.21.56.52.56h.13c.3 0 .52-.12.52-.56V1.88c0-.94-.38-1.14-.78-1.14-.21 0-.4.1-.4.13V12.5zm3.76 0c0 .44.22.56.52.56h.13c.3 0 .52-.12.52-.56V1.88c0-.94-.38-1.14-.77-1.14-.22 0-.4.1-.4.13V12.5zM.63 24.7a4.34 4.34 0 0 0 4.41 4.52c2.5 0 3.69-1.6 3.69-2.38 0-.52-.74-.63-.77-.56a2.9 2.9 0 0 1-2.92 1.9c-1.85 0-3.22-1.48-3.22-3.48s1.38-3.44 3.22-3.44c1.64 0 2.47.83 2.92 1.89.03.07.77-.04.77-.56 0-.77-1.19-2.37-3.69-2.37A4.32 4.32 0 0 0 .63 24.7zm9.32 0a4.33 4.33 0 0 0 4.42 4.52 4.3 4.3 0 0 0 4.41-4.49 4.32 4.32 0 0 0-4.4-4.51 4.3 4.3 0 0 0-4.43 4.48zm1.18 0c0-2 1.39-3.46 3.24-3.46 1.86 0 3.23 1.5 3.23 3.5s-1.39 3.45-3.23 3.45c-1.85 0-3.24-1.5-3.24-3.5zm9.5 3.81c0 .44.22.56.52.56h.13c.3 0 .52-.12.52-.56v-5.47a2.95 2.95 0 0 1 2.56-1.73c1.47 0 2.21.89 2.21 2.69v4.51c0 .44.22.56.52.56h.13c.3 0 .52-.12.52-.56v-5.47a2.95 2.95 0 0 1 2.56-1.73c1.47 0 2.21.89 2.21 2.6v4.6c0 .44.22.56.52.56h.13c.3 0 .52-.12.52-.56v-4.68c0-2.37-1.15-3.61-3.31-3.61-1.42 0-2.47.8-3.04 1.83-.47-1.2-1.5-1.83-2.85-1.83a3.3 3.3 0 0 0-2.7 1.49v-.22c0-.93-.36-1.13-.75-1.13-.22 0-.4.09-.4.13v8.02zm14.82-3.76a4.25 4.25 0 0 0 4.43 4.47c2.32 0 3.62-1.32 3.62-1.91 0-.56-.65-.72-.69-.67-.5.81-1.26 1.53-2.93 1.53a3.16 3.16 0 0 1-3.26-3.13h6.66c.36 0 .49-.07.49-.4v-.1c0-2.61-1.59-4.32-4-4.32-2.48 0-4.32 1.92-4.32 4.53zm1.2-.72c.26-1.64 1.5-2.79 3.12-2.79 1.6 0 2.65 1.1 2.76 2.8h-5.87zm12.54 2.45c0 1.78.72 2.74 2.4 2.74 1.13 0 1.76-.58 1.76-1.07 0-.45-.36-.6-.4-.57-.3.38-.74.63-1.33.63-.95 0-1.28-.6-1.28-1.86v-4.87h2.29c.43 0 .56-.17.56-.47v-.11c0-.3-.13-.47-.56-.47h-2.29v-1.5c0-.42-.2-.55-.5-.55h-.13c-.3 0-.52.13-.52.56v1.5h-.8c-.42 0-.55.15-.55.46v.1c0 .31.13.48.56.48h.79v5zm5.02-1.78a4.33 4.33 0 0 0 4.43 4.52 4.3 4.3 0 0 0 4.4-4.49 4.32 4.32 0 0 0-4.4-4.51 4.3 4.3 0 0 0-4.43 4.48zm1.19 0c0-2 1.38-3.46 3.24-3.46 1.85 0 3.22 1.5 3.22 3.5s-1.39 3.45-3.22 3.45c-1.86 0-3.24-1.5-3.24-3.5zm14.75 3.42c.16.36.32.45.72.45l-1.44 3.67c-.02.05.28.3.6.3.31 0 .6-.14.84-.77L75 20.67c.01-.06-.27-.31-.6-.31-.38 0-.65.22-.86.85l-2.36 6.67-2.72-6.71c-.25-.63-.47-.81-.88-.81-.41 0-.6.27-.58.34l3.14 7.42zm5.54-3.42a4.33 4.33 0 0 0 4.43 4.52 4.3 4.3 0 0 0 4.4-4.49 4.32 4.32 0 0 0-4.4-4.51 4.3 4.3 0 0 0-4.43 4.48zm1.19 0c0-2 1.38-3.46 3.24-3.46 1.85 0 3.22 1.5 3.22 3.5s-1.39 3.45-3.22 3.45c-1.86 0-3.24-1.5-3.24-3.5zm9.42.74c0 2.26 1.13 3.78 3.4 3.78a3.4 3.4 0 0 0 2.92-1.55v.27c0 .93.36 1.13.75 1.13.22 0 .4-.09.4-.12v-8.03c0-.43-.22-.56-.52-.56h-.13c-.3 0-.52.13-.52.56v5.38a3 3 0 0 1-2.74 1.82c-1.53 0-2.39-1.03-2.39-2.76v-4.44c0-.43-.22-.56-.52-.56h-.13c-.3 0-.52.13-.52.56v4.52zm13.73 3.07c0 .44.22.56.52.56h.13c.3 0 .5-.12.5-.56v-7.03h1.71c.44 0 .56-.17.56-.47v-.11c0-.3-.13-.47-.56-.47h-1.72v-.74c0-1.42.4-2.05 1.38-2.05.58 0 1.12.27 1.37.52.03.04.34-.14.34-.55 0-.53-.56-1.01-1.7-1.01-1.67 0-2.53 1.08-2.53 3.04v.8h-1.26c-.43 0-.56.15-.56.46v.1c0 .31.13.48.56.48h1.26v7.03zm4.22-3.81a4.33 4.33 0 0 0 4.43 4.52 4.3 4.3 0 0 0 4.41-4.49 4.32 4.32 0 0 0-4.4-4.51 4.3 4.3 0 0 0-4.44 4.48zm1.2 0c0-2 1.38-3.46 3.23-3.46s3.22 1.5 3.22 3.5-1.38 3.45-3.22 3.45c-1.85 0-3.24-1.5-3.24-3.5zm9.49 3.81c0 .44.21.56.52.56h.12c.31 0 .53-.12.53-.56v-3.36c0-2.2.59-3.8 2.12-3.8.49 0 .8.14 1.04.36.04.04.33-.18.33-.61 0-.56-.45-.88-1.24-.88-1.16 0-1.91.6-2.27 1.78v-.5c0-.94-.36-1.14-.76-1.14-.21 0-.4.09-.4.13v8.02zM.67 43.81c0 1.43 1.08 2.39 2.95 2.39a3.8 3.8 0 0 0 3.2-1.59v.33c0 .93.34 1.13.74 1.13.22 0 .4-.09.4-.12v-5.4c0-2.07-1.3-3.33-3.48-3.33C2.21 37.22 1 38.58 1 39.2c0 .63.67.7.67.68A2.94 2.94 0 0 1 4.4 38.3c1.55 0 2.41.8 2.41 2.28v.3h-.18c-3.96.1-5.95.93-5.95 2.92zm1.18 0c0-1.36 1.52-1.88 4.45-1.99l.5-.01v.79c0 1.53-1.31 2.63-3.07 2.63-1.17 0-1.88-.56-1.88-1.43zm11.5 1.7c0 .44.22.56.52.56H14c.3 0 .5-.12.5-.56v-.82c.5.8 1.59 1.53 3.14 1.53 2.37 0 4.12-1.82 4.12-4.52 0-2.72-1.78-4.48-4.05-4.48-1.42 0-2.41.59-3.19 1.62v-3.96c0-.94-.38-1.14-.77-1.14-.22 0-.4.1-.4.13V45.5zm1.15-3.22v-2.01a3.2 3.2 0 0 1 3.08-2.04c1.73 0 3 1.46 3 3.48 0 2.07-1.22 3.47-3.03 3.47-1.62 0-3.05-1.26-3.05-2.9zm9.2 3.22c0 .44.2.56.51.56h.13c.3 0 .52-.12.52-.56V34.88c0-.94-.38-1.14-.77-1.14-.22 0-.4.1-.4.13V45.5zm3.09-3.81a4.33 4.33 0 0 0 4.42 4.52 4.3 4.3 0 0 0 4.41-4.49 4.32 4.32 0 0 0-4.4-4.51 4.3 4.3 0 0 0-4.43 4.48zm1.18 0c0-2 1.39-3.46 3.24-3.46 1.86 0 3.23 1.5 3.23 3.5s-1.39 3.45-3.23 3.45c-1.85 0-3.24-1.5-3.24-3.5zm8.92 0a4.33 4.33 0 0 0 4.43 4.52 4.3 4.3 0 0 0 4.41-4.49 4.32 4.32 0 0 0-4.4-4.51 4.3 4.3 0 0 0-4.44 4.48zm1.2 0c0-2 1.38-3.46 3.23-3.46 1.86 0 3.22 1.5 3.22 3.5s-1.38 3.45-3.22 3.45c-1.85 0-3.24-1.5-3.24-3.5zm8.91.03c0 2.72 1.78 4.49 4.05 4.49 1.42 0 2.43-.6 3.2-1.64v.93c0 .44.2.56.5.56h.14c.3 0 .52-.12.52-.56V34.88c0-.94-.38-1.14-.78-1.14-.21 0-.4.1-.4.13v4.86a3.6 3.6 0 0 0-3.1-1.51c-2.38 0-4.13 1.81-4.13 4.51zm1.19-.01c0-2.07 1.2-3.48 3.02-3.48 1.52 0 2.5.78 3.05 2.02v2.18c-.08 1.58-1.52 2.75-3.08 2.75-1.73 0-3-1.46-3-3.47zm12.12.01c0 2.72 1.78 4.49 4.05 4.49 1.42 0 2.43-.6 3.2-1.64v.93c0 .44.2.56.5.56h.13c.3 0 .52-.12.52-.56V34.88c0-.94-.37-1.14-.77-1.14-.22 0-.4.1-.4.13v4.86c-.5-.8-1.6-1.51-3.11-1.51-2.38 0-4.12 1.81-4.12 4.51zm1.19-.01c0-2.07 1.2-3.48 3.02-3.48 1.51 0 2.5.78 3.04 2.02v2.18c-.07 1.58-1.51 2.75-3.08 2.75-1.72 0-2.98-1.46-2.98-3.47zm9.63 3.8c0 .43.22.55.52.55h.13c.3 0 .52-.12.52-.56v-3.36c0-2.2.6-3.8 2.13-3.8.48 0 .79.14 1.04.36.04.04.32-.18.32-.61 0-.56-.45-.88-1.24-.88-1.15 0-1.9.6-2.27 1.78v-.5c0-.94-.36-1.14-.75-1.14-.22 0-.4.09-.4.13v8.02zm5.46-1.72c0 1.44 1.08 2.4 2.95 2.4a3.8 3.8 0 0 0 3.2-1.59v.33c0 .93.34 1.13.74 1.13.22 0 .4-.09.4-.12v-5.4c0-2.07-1.3-3.33-3.48-3.33-2.27 0-3.49 1.36-3.49 1.98 0 .63.67.7.67.68a2.94 2.94 0 0 1 2.73-1.58c1.55 0 2.41.8 2.41 2.28v.3h-.18c-3.96.1-5.95.93-5.95 2.92zm1.18 0c0-1.35 1.52-1.87 4.45-1.98l.5-.01v.79c0 1.53-1.31 2.63-3.07 2.63-1.17 0-1.88-.56-1.88-1.43zm9.74 1.86c.07.3.2.45.86.45.6 0 .69-.15.8-.45l1.94-5.87L93 45.66c.1.3.2.45.8.45.66 0 .78-.15.86-.45l2.05-7.96c.02-.05-.29-.34-.65-.34-.27 0-.6.2-.7.83l-1.55 6.73-1.82-5.78c-.1-.34-.29-.48-.88-.48-.6 0-.77.14-.88.48l-1.84 5.78-1.56-6.73c-.13-.63-.44-.83-.7-.83-.38 0-.7.27-.69.34l2.07 7.96z"/>
    <path id="path53_fill" d="M59.68 0h-23.1a10.2 10.2 0 0 0-10.19 10.18v9a3.54 3.54 0 0 0-2.84 2.73l-.46 3.36a9.78 9.78 0 0 1-.86 2.85l-4.56 9.59a5.1 5.1 0 0 1-3.33 2.9 3.47 3.47 0 0 0-3.52-3.28H3.54A3.47 3.47 0 0 0 0 40.74V68.6A3.47 3.47 0 0 0 3.52 72h7.27a3.47 3.47 0 0 0 3.53-3.41v-.43l1.52.9a12.1 12.1 0 0 0 6.23 1.74h12.15a8.28 8.28 0 0 0 7.9-5.7l5.31-16.12a8.28 8.28 0 0 0-6.87-10.8 93 93 0 0 0-8.84-.73 11.1 11.1 0 0 1 .36-3.63c1.4.69 2.93 1.05 4.5 1.05h9.58c1.81 4.37 5.35 6.89 8.11 8.3a3.2 3.2 0 0 0 4.46-3.9 9.2 9.2 0 0 1-.36-4.37h1.31a10.2 10.2 0 0 0 10.2-10.18V10.2A10.18 10.18 0 0 0 59.67 0zM10.72 68.36H3.64V40.97h7.08v27.4zm29.4-26.54a4.65 4.65 0 0 1 3.85 6.06l-5.3 16.1a4.64 4.64 0 0 1-4.42 3.18H22.1a8.46 8.46 0 0 1-4.37-1.2l-3.4-2.04V44.34h.15a8.74 8.74 0 0 0 6.5-5.09l4.5-9.57a13.6 13.6 0 0 0 1.16-3.9l.41-2.98a3.64 3.64 0 0 1 2.35 1.56c.79 1.27.78 3.22 0 5.64-1.22 3.69-1.6 6.61-1.12 8.7a3.08 3.08 0 0 0 3.02 2.4c2.95.07 5.9.32 8.82.72zm26.11-17.14a6.54 6.54 0 0 1-6.55 6.54H56.9a1.82 1.82 0 0 0-1.75 1.33 13.6 13.6 0 0 0-.18 6.85 12.47 12.47 0 0 1-5.82-6.9 1.82 1.82 0 0 0-1.74-1.27H36.58a6.55 6.55 0 0 1-3.49-1c.86-3.11.67-5.73-.6-7.76a7 7 0 0 0-2.48-2.39V10.2a6.54 6.54 0 0 1 6.55-6.54h23.12a6.55 6.55 0 0 1 6.55 6.54v14.48z"/>
    <path id="path54_stroke_2x" d="M36.58 0v-1 1zM26.39 19.19l.17.98.83-.14v-.84h-1zm-2.78 2.45l-.96-.29.96.3zm-.06.27l-.99-.15 1 .15zm-.46 3.36l.99.14-1-.14zm-.86 2.85l.9.43-.9-.43zm-4.56 9.59l-.9-.43-.01.02v.02l.91.39zm-3.33 2.9l-1 .06.06 1.24 1.2-.33-.26-.96zm-3.52-3.28v1h.02l-.02-1zm-7.28 0l-.02 1h.02v-1zM0 40.74l-1-.01v.01h1zM0 68.6h-1v.02l1-.02zM3.52 72v-1H3.5l.02 1zm7.27 0l.02-1h-.02v1zm3.53-3.41l1 .02v-.02h-1zm0-.43l.5-.86-1.5-.9v1.76h1zm1.52.9l.51-.85-.51.86zm6.23 1.74v1-1zm12.15 0v-1 1zm7.9-5.7l-.94-.32.95.31zm5.31-16.12l.95.31-.95-.3zm-6.87-10.8l-.12 1 .12-1zm-8.84-.73l-1 .07.06.92.92.01.02-1zm.36-3.63l.44-.9-1.1-.54-.31 1.18.97.26zm4.5 1.05v1-1zm9.58 0l.92-.38-.25-.62h-.67v1zm8.11 8.3l-.45.9.45-.9zm4.46-3.9l-.95.31v.02l.95-.33zm-.36-4.37v-1h-.85l-.14.84 1 .16zm11.5-10.18h-1 1zm0-14.52h-1 1zM10.72 68.36v1h1v-1h-1zm-7.08 0h-1v1h1v-1zm0-27.39v-1h-1v1h1zm7.08 0h1v-1h-1v1zm33.25 6.91l-.95-.3.95.3zm-5.3 16.1l-.95-.32.95.31zm-4.42 3.18v-1 1zm-12.15 0v-1 1zm-4.37-1.2l.51-.86-.51.86zm-3.4-2.04h-1v.57l.5.29.5-.86zm0-19.58v-1h-1v1h1zm.15 0v1h.09l.09-.01-.18-.99zm6.5-5.09l-.9-.42-.01.02.91.4zm4.5-9.57l-.91-.43.9.43zm1.16-3.9l-1-.14 1 .13zm.41-2.98l.2-.98-1.04-.2-.15 1.04 1 .14zm2.35 1.56l.85-.52v-.02h-.01l-.84.54zm0 5.64l.95.31-.95-.31zm-1.12 8.7l.97-.23-.97.22zm37.95-14.02h1-1zm-9.33 6.54v1-1zm-1.75 1.33l.96.28-.96-.28zm-.18 6.85l-.48.87 1.97 1.08-.51-2.18-.98.23zm-5.82-6.9l-.95.3v.03l.95-.33zm-1.74-1.27v1-1zm-10.83 0v-1 1zm-3.49-1l-.96-.27-.2.72.63.4.53-.85zm-.6-7.76l.86-.53-.85.53zm-2.48-2.39h-1v.58l.5.29.5-.87zm6.55-16.42v-1 1zm23.12 0v-1 1zm0-4.66h-23.1v2h23.1v-2zm-23.1 0a11.2 11.2 0 0 0-7.91 3.27l1.41 1.42A9.2 9.2 0 0 1 36.58 1v-2zm-7.91 3.27a11.18 11.18 0 0 0-3.28 7.91h2c0-2.43.97-4.77 2.7-6.49l-1.42-1.42zm-3.28 7.91v9h2v-9h-2zm.83 8.02a5 5 0 0 0-2.23 1.07l1.32 1.5c.39-.35.74-.52 1.25-.6l-.34-1.97zm-2.23 1.07a5 5 0 0 0-1.34 2.08l1.92.58c.14-.5.35-.82.74-1.16L24 19.27zm-1.34 2.08l-.09.41 1.98.29c0-.05.01-.07.03-.12l-1.92-.58zm-.09.42l-.46 3.37 1.98.27.46-3.37-1.98-.27zm-.46 3.36a8.37 8.37 0 0 1-.77 2.56l1.8.86c.47-.97.8-2.08.95-3.14l-1.98-.28zm-.77 2.56l-4.56 9.59 1.8.86 4.57-9.6-1.8-.85zm-4.58 9.63a3.7 3.7 0 0 1-1.07 1.47l1.31 1.5a6.55 6.55 0 0 0 1.6-2.19l-1.84-.78zm-1.07 1.47c-.49.44-.97.7-1.6.86l.52 1.93A6.56 6.56 0 0 0 17 40.3l-1.32-1.5zm-.34 1.78a4.47 4.47 0 0 0-1.41-3.03L12.56 39c.47.43.75 1.03.78 1.67l2-.1zm-1.41-3.03a4.47 4.47 0 0 0-3.12-1.2l.03 2a2.4 2.4 0 0 1 1.72.66l1.37-1.46zm-3.1-1.2h-7.3v2h7.28v-2zm-7.26 0c-.56-.02-1.2.1-1.73.3l.73 1.86c.33-.14.6-.18.95-.17l.05-2zm-1.73.3c-.51.2-1.07.56-1.47.94l1.39 1.44c.25-.25.47-.4.81-.52l-.73-1.86zm-1.47.94c-.4.39-.77.93-1 1.44l1.83.8c.14-.34.3-.55.56-.8L.37 37.58zm-1 1.44a4.94 4.94 0 0 0-.37 1.7l2 .04c0-.36.06-.62.2-.95l-1.83-.8zM-1 40.74V68.6h2V40.74h-2zm0 27.87c.02 1.18.5 2.3 1.36 3.13l1.39-1.44A2.47 2.47 0 0 1 1 68.57l-2 .04zm1.36 3.13A4.47 4.47 0 0 0 3.53 73l-.03-2c-.65 0-1.28-.24-1.75-.7l-1.4 1.44zM3.52 73h7.27v-2H3.52v2zm7.26 0a4.47 4.47 0 0 0 3.18-1.26l-1.4-1.44c-.46.46-1.1.71-1.75.7l-.03 2zm3.18-1.26a4.47 4.47 0 0 0 1.36-3.13l-2-.04a2.47 2.47 0 0 1-.75 1.73l1.39 1.44zm1.36-3.15v-.43h-2v.43h2zm-1.52.43l1.52.9 1.03-1.7-1.52-.92-1.03 1.72zm1.52.9c2 1.2 4.42 1.87 6.75 1.88v-2a10.7 10.7 0 0 1-5.72-1.59l-1.03 1.72zm6.75 1.88h12.15v-2H22.07v2zm12.15 0c1.9 0 3.92-.65 5.47-1.76l-1.17-1.62a6.89 6.89 0 0 1-4.3 1.38v2zm5.47-1.76a9.7 9.7 0 0 0 3.39-4.64l-1.9-.62a6.88 6.88 0 0 1-2.66 3.64l1.17 1.62zm3.39-4.64l5.3-16.1-1.9-.63-5.3 16.1 1.9.63zm5.3-16.1c.41-1.28.55-2.73.4-4.05l-2 .25c.15 1.1.05 2.11-.3 3.17l1.9.62zm.4-4.05a9.73 9.73 0 0 0-1.39-3.83l-1.68 1.08a7 7 0 0 1 1.08 3l1.98-.25zm-1.39-3.83a9.73 9.73 0 0 0-2.88-2.87l-1.06 1.7c.94.59 1.66 1.3 2.26 2.25l1.68-1.08zm-2.88-2.87a9.74 9.74 0 0 0-3.83-1.36l-.24 1.98c1.1.13 2.07.48 3 1.08l1.07-1.7zm-3.83-1.36c-3.51-.43-6.75-.7-8.94-.74l-.04 2c2.13.04 5.27.3 8.74.72l.24-1.98zm-7.96.2c-.08-1.14.03-2.21.32-3.32l-1.93-.5a13 13 0 0 0-.39 3.95l2-.13zm-1.09-2.68a11.6 11.6 0 0 0 4.94 1.16v-2c-1.44 0-2.76-.3-4.05-.95l-.89 1.8zm4.94 1.16h9.59v-2h-9.59v2zm8.66-.61c1.96 4.6 5.76 7.35 8.59 8.8l.9-1.78c-2.7-1.37-5.97-3.67-7.64-7.8l-1.85.78zm8.6 8.8c.7.35 1.63.5 2.41.42L56 42.5c-.48.07-.83 0-1.27-.22l-.9 1.78zm2.41.42c.78-.11 1.64-.5 2.24-1l-1.32-1.51a1.9 1.9 0 0 1-1.17.53l.25 1.98zm2.24-1a4.66 4.66 0 0 0 1.29-2.1l-1.93-.5c-.12.47-.3.77-.68 1.09l1.32 1.5zm1.29-2.1c.19-.76.15-1.7-.1-2.45l-1.89.67c.18.45.19.8.06 1.28l1.93.5zm-.1-2.43a7.8 7.8 0 0 1-.31-3.89l-1.98-.32c-.24 1.59-.1 3.32.4 4.84l1.9-.63zm-1.3-3.05h1.31v-2h-1.3v2zm1.31 0a11.2 11.2 0 0 0 7.91-3.27l-1.41-1.42a9.2 9.2 0 0 1-6.5 2.7v2zm7.91-3.27c2.1-2.1 3.28-4.94 3.28-7.91h-2c0 2.44-.97 4.77-2.69 6.5l1.41 1.4zm3.28-7.91V10.2h-2v14.52h2zm0-14.51c0-1.44-.3-2.96-.84-4.3l-1.85.77c.47 1.15.7 2.28.7 3.52h2zm-.84-4.3a11.63 11.63 0 0 0-2.43-3.63L66.2 3.7a8.77 8.77 0 0 1 1.99 2.98l1.85-.76zM67.6 2.29a11.64 11.64 0 0 0-3.63-2.43L63.2 1.7a8.78 8.78 0 0 1 2.99 2l1.41-1.42zM63.97-.15A11.64 11.64 0 0 0 59.68-1v2c1.24 0 2.38.22 3.52.7l.77-1.85zM10.72 67.36H3.64v2h7.08v-2zm-6.08 1V40.97h-2v27.4h2zm-1-26.39h7.08v-2H3.64v2zm6.08-1v27.4h2v-27.4h-2zM40 42.81c.57.07 1.02.22 1.5.54l1.07-1.7a6.12 6.12 0 0 0-2.33-.82L40 42.8zm1.5.54c.5.3.83.64 1.13 1.13l1.7-1.07a6.11 6.11 0 0 0-1.76-1.75l-1.07 1.69zm1.13 1.13c.32.48.48.93.54 1.5l1.99-.25a6.1 6.1 0 0 0-.84-2.32l-1.69 1.07zm.54 1.5c.08.57.03 1.05-.15 1.6l1.9.62a6.1 6.1 0 0 0 .24-2.47l-1.99.25zm-.15 1.6l-5.3 16.08 1.9.62 5.3-16.08-1.9-.63zm-5.3 16.08a3.27 3.27 0 0 1-1.33 1.81l1.17 1.62a6.1 6.1 0 0 0 2.06-2.8l-1.9-.63zm-1.33 1.81c-.66.5-1.31.7-2.14.7v2a6.1 6.1 0 0 0 3.31-1.08l-1.17-1.62zm-2.14.7H22.1v2h12.15v-2zm-12.15 0a7.06 7.06 0 0 1-3.86-1.07l-1.03 1.71a9.9 9.9 0 0 0 4.89 1.35v-2zm-3.86-1.07l-3.39-2.04-1.03 1.72 3.4 2.03 1.02-1.71zm-2.9-1.18V44.34h-2v19.58h2zm-1-18.58h.14v-2h-.14v2zm.32-.01c1.53-.28 3.1-.97 4.33-1.93l-1.23-1.57a7.33 7.33 0 0 1-3.45 1.53l.35 1.97zm4.33-1.93a10.17 10.17 0 0 0 2.9-3.75l-1.82-.8a7.33 7.33 0 0 1-2.31 2.98l1.23 1.57zm2.9-3.72l4.49-9.58-1.81-.84-4.5 9.57 1.82.85zm4.49-9.57c.61-1.3 1.05-2.77 1.25-4.2l-1.98-.27a12 12 0 0 1-1.08 3.61l1.8.86zm1.25-4.2l.41-2.97-1.98-.28-.41 2.98 1.98.27zm-.76-2.13c.38.07.64.18.96.4l1.11-1.67a5.11 5.11 0 0 0-1.7-.7l-.37 1.97zm.96.4c.33.2.53.41.74.74l1.67-1.1a5.11 5.11 0 0 0-1.3-1.3l-1.1 1.66zm.72.71c.55.88.65 2.46-.1 4.8l1.9.61c.8-2.5.93-4.81-.1-6.46l-1.7 1.05zm-.1 4.8c-1.24 3.73-1.68 6.87-1.15 9.22l1.95-.44c-.41-1.81-.1-4.52 1.1-8.16l-1.9-.62zM27.3 38.9c.2.85.77 1.74 1.44 2.3L30 39.64a1.74 1.74 0 0 1-.74-1.17l-1.95.44zm1.44 2.3c.7.53 1.7.87 2.56.88v-2c-.54.02-.9-.1-1.31-.45l-1.25 1.57zm2.53.88c2.92.08 5.81.32 8.71.72l.27-1.98c-2.95-.4-5.95-.66-8.93-.74l-.05 2zm33.96-17.41c0 1.47-.58 2.88-1.62 3.92L65.02 30a7.54 7.54 0 0 0 2.21-5.33h-2zm-1.62 3.92a5.55 5.55 0 0 1-3.93 1.62v2c2 0 3.92-.8 5.34-2.2l-1.41-1.42zm-3.93 1.62H56.9v2h2.78v-2zm-2.78 0c-.56.01-1.25.25-1.7.58l1.2 1.59c.18-.15.26-.18.5-.17v-2zm-1.7.58c-.44.34-.85.95-1.02 1.48l1.93.54c.05-.23.1-.3.3-.43l-1.21-1.6zm-1.01 1.48a14.97 14.97 0 0 0-.2 7.34l1.96-.45c-.51-2.13-.46-4.24.16-6.34l-1.92-.55zm1.26 6.24a11.08 11.08 0 0 1-5.35-6.34l-1.9.65a13.9 13.9 0 0 0 6.3 7.44l.95-1.75zM50.1 32.2a3.31 3.31 0 0 0-1.02-1.43L47.9 32.4c.2.12.24.19.3.41l1.9-.6zm-1.02-1.43a3.31 3.31 0 0 0-1.67-.54v2c.23-.01.31.01.49.16l1.18-1.62zm-1.67-.54H36.58v2h10.83v-2zm-10.83 0a5.16 5.16 0 0 1-2.95-.85l-1.07 1.7a8 8 0 0 0 4.02 1.15v-2zm-2.52.26c.9-3.27.74-6.2-.71-8.55l-1.7 1.05c1.06 1.73 1.3 4.03.48 6.97l1.93.53zm-.71-8.55a8.46 8.46 0 0 0-2.85-2.73l-.98 1.74c.9.5 1.58 1.16 2.13 2.05l1.7-1.06zM31 20.08V10.2h-2v9.88h2zm0-9.88c0-1.47.58-2.88 1.62-3.92l-1.41-1.41A7.54 7.54 0 0 0 29 10.2h2zm1.62-3.92a5.55 5.55 0 0 1 3.93-1.62v-2c-2 0-3.92.8-5.34 2.2l1.41 1.42zm3.93-1.62h23.12v-2H36.56v2zm23.12 0c1.47 0 2.89.58 3.93 1.62l1.41-1.41a7.55 7.55 0 0 0-5.34-2.21v2zm3.93 1.62a5.54 5.54 0 0 1 1.62 3.92h2c0-2-.8-3.92-2.21-5.33L63.6 6.28zm1.62 3.92v14.48h2V10.2h-2z"/>
    <path id="path55_fill" d="M12.8.54L5.73 7.6 3.11 5.02A1.82 1.82 0 0 0 .53 7.6l3.91 3.9a1.82 1.82 0 0 0 2.58 0l8.35-8.4A1.82 1.82 0 1 0 12.8.54v.01z"/>
    <path id="path56_stroke_2x" d="M12.8.54l.71.7.71-.7-.7-.7-.72.7zM5.73 7.6l-.7.71.7.7.7-.7-.7-.7zM3.11 5.02l-.7.7v.01l.7-.71zm-1.29-.53v1-1zM0 6.3h-1 1zm.53 1.3l-.7.7.7-.7zm3.91 3.9l.71-.71-.7.7zm1.29.53v1-1zm1.29-.54l.7.71-.7-.7zm8.35-8.38l-.7-.71.7.7zM14.1 0v1-1zm-1.3.53l-.7-.7-.7.7.7.71.7-.7zm-.7-.7L5.03 6.9l1.42 1.42 7.07-7.06L12.1-.17zM6.44 6.9L3.81 4.31l-1.4 1.42 2.62 2.58 1.4-1.42zM3.82 4.31a2.82 2.82 0 0 0-2-.82v2c.22 0 .43.08.58.24L3.82 4.3zm-2-.82c-.75 0-1.46.3-2 .82l1.42 1.42a.82.82 0 0 1 .58-.24v-2zm-2 .82a2.82 2.82 0 0 0-.82 2h2c0-.22.09-.43.24-.58L-.17 4.3zm-.82 2c0 .75.3 1.46.83 2l1.41-1.42A.82.82 0 0 1 1 6.3h-2zm.83 2l3.9 3.9 1.42-1.42-3.91-3.9L-.17 8.3zm3.9 3.89c.25.24.61.48.92.61l.77-1.85a.54.54 0 0 1-.27-.17L3.73 12.2zm.92.61c.31.13.74.21 1.08.22v-2c-.14 0-.19 0-.31-.07l-.77 1.85zm1.08.22c.34 0 .77-.1 1.08-.22l-.77-1.85a.54.54 0 0 1-.31.07v2zm1.08-.22c.31-.13.67-.37.92-.61L6.3 10.79c-.1.1-.13.13-.27.17l.77 1.85zm.92-.61l8.35-8.39-1.41-1.4-8.36 8.38 1.42 1.4zm8.35-8.38c.53-.53.83-1.25.83-2h-2c0 .22-.09.43-.24.58l1.41 1.42zm.83-2c0-.75-.3-1.47-.83-2l-1.41 1.42c.15.15.24.36.24.58h2zm-.83-2a2.82 2.82 0 0 0-2-.82v2c.22 0 .43.09.59.24l1.41-1.41zm-2-.82c-.74 0-1.46.3-1.99.83l1.41 1.41a.82.82 0 0 1 .6-.24v-2zM12.1 1.24l1.42-1.4v-.01L12.1 1.24z"/>
    <path id="path57_fill" d="M1.39 12.51c0 .38.18.56.52.56h.16c.36 0 .54-.25.54-.56V8.46h2.3c2.92 0 4.43-1.26 4.43-3.58 0-2.25-1.56-3.53-4.28-3.53H2.07a.68.68 0 0 0-.68.69V12.5zM2.6 7.38V2.45h2.47c1.98 0 3 .85 3 2.47 0 1.6-1.02 2.46-3.06 2.46h-2.4zm8.55 5.13c0 .44.21.56.52.56h.12c.3 0 .53-.12.53-.56V9.15c0-2.2.59-3.8 2.12-3.8.49 0 .8.14 1.04.36.04.04.33-.18.33-.61 0-.56-.45-.88-1.24-.88-1.16 0-1.91.6-2.27 1.78v-.5c0-.94-.36-1.14-.76-1.14-.21 0-.4.09-.4.13v8.02zm5.41-3.81A4.33 4.33 0 0 0 21 13.22a4.3 4.3 0 0 0 4.41-4.49 4.32 4.32 0 0 0-4.4-4.51 4.3 4.3 0 0 0-4.44 4.48zm1.2 0c0-2 1.38-3.46 3.23-3.46 1.86 0 3.22 1.5 3.22 3.5s-1.38 3.45-3.22 3.45c-1.85 0-3.24-1.5-3.24-3.5zm11.56 3.98c.13.3.18.43.8.43.59 0 .71-.16.84-.47l3.15-7.94c.02-.05-.16-.34-.58-.34-.36 0-.57.16-.84.86l-2.58 6.74-2.52-6.74c-.27-.7-.46-.86-.88-.86-.41 0-.6.27-.57.34l3.18 7.98zm6.92-10.39c.53 0 .8-.25.8-.77 0-.53-.26-.78-.76-.78-.52 0-.8.25-.8.78 0 .5.28.77.76.77zm-.57 10.22c0 .44.21.56.52.56h.13c.3 0 .52-.12.52-.56v-7.6c0-.42-.22-.55-.52-.55h-.13c-.3 0-.52.13-.52.56v7.6zm3.1-3.78c0 2.72 1.78 4.49 4.04 4.49 1.43 0 2.43-.6 3.2-1.64v.93c0 .44.2.56.51.56h.13c.3 0 .52-.12.52-.56V1.88c0-.94-.38-1.14-.77-1.14-.22 0-.4.1-.4.13v4.86c-.5-.8-1.6-1.51-3.11-1.51-2.38 0-4.13 1.81-4.13 4.51zm1.18-.01c0-2.07 1.2-3.48 3.03-3.48 1.5 0 2.5.78 3.04 2.02v2.18c-.07 1.58-1.51 2.75-3.08 2.75-1.73 0-2.99-1.46-2.99-3.47zm9.06.03a4.25 4.25 0 0 0 4.43 4.47c2.32 0 3.62-1.32 3.62-1.91 0-.56-.65-.72-.69-.67-.5.81-1.26 1.53-2.93 1.53a3.16 3.16 0 0 1-3.26-3.13h6.66c.36 0 .49-.07.49-.4v-.1c0-2.61-1.59-4.32-4-4.32-2.48 0-4.32 1.92-4.32 4.53zm1.2-.72c.26-1.64 1.5-2.79 3.12-2.79 1.6 0 2.65 1.1 2.76 2.8h-5.87zm11.93 1.4c0 2.27 1.13 3.79 3.4 3.79a3.4 3.4 0 0 0 2.92-1.55v.27c0 .93.36 1.13.75 1.13.22 0 .4-.09.4-.12V4.92c0-.43-.22-.56-.52-.56h-.13c-.3 0-.52.13-.52.56v5.38a3 3 0 0 1-2.74 1.82c-1.53 0-2.4-1.03-2.4-2.76V4.92c0-.43-.2-.56-.51-.56h-.13c-.3 0-.52.13-.52.56v4.52zm9.23 2.04c0 .65 1.24 1.75 3.53 1.75 2.09 0 3.38-1.03 3.38-2.61 0-1.77-1.76-2.15-3.15-2.45-1.58-.34-2.4-.6-2.4-1.51 0-.85.76-1.44 2.17-1.44a2.9 2.9 0 0 1 2.52 1.26c.03.05.65-.17.65-.62 0-.64-1.08-1.63-3.17-1.63-1.98 0-3.28 1.06-3.28 2.59 0 1.73 1.68 2.1 3 2.4 1.63.33 2.53.55 2.53 1.58 0 .86-.8 1.44-2.22 1.44-1.42 0-2.35-.6-2.93-1.39-.04-.04-.63.14-.63.63zm13.18 1.19c.07.3.2.45.86.45.6 0 .68-.15.8-.45l1.94-5.87 1.89 5.87c.1.3.2.45.79.45.66 0 .8-.15.86-.45l2.05-7.96c.02-.05-.28-.34-.64-.34-.27 0-.6.2-.7.83l-1.55 6.73-1.82-5.78c-.1-.34-.29-.48-.88-.48-.6 0-.78.14-.89.48l-1.83 5.78-1.57-6.73c-.12-.63-.43-.83-.7-.83-.38 0-.7.27-.68.34l2.07 7.96zm11.5-10.37c.52 0 .79-.25.79-.77 0-.53-.25-.78-.76-.78-.52 0-.79.25-.79.78 0 .5.27.77.76.77zm-.58 10.22c0 .44.22.56.52.56h.13c.3 0 .52-.12.52-.56v-7.6c0-.42-.22-.55-.52-.55H96c-.3 0-.52.13-.52.56v7.6zm4.21-2.03c0 1.78.72 2.74 2.4 2.74 1.13 0 1.76-.58 1.76-1.07 0-.45-.36-.6-.4-.57-.3.38-.73.63-1.33.63-.95 0-1.28-.6-1.28-1.86V5.48h2.29c.43 0 .56-.17.56-.47V4.9c0-.3-.13-.47-.56-.47h-2.29v-1.5c0-.42-.2-.55-.5-.55h-.13c-.3 0-.52.13-.52.56v1.5h-.8c-.42 0-.55.15-.55.46V5c0 .31.13.48.56.48h.8v5zm5.68 2.03c0 .44.22.56.53.56h.12c.3 0 .52-.12.52-.56V8.25c0-1.78 1.14-2.94 2.83-2.94 1.44 0 2.3 1.03 2.3 2.76v4.44c0 .44.22.56.53.56h.12c.3 0 .52-.12.52-.56V8c0-2.27-1.13-3.78-3.4-3.78-1.35 0-2.3.66-2.9 1.58V1.88c0-.94-.37-1.14-.77-1.14-.22 0-.4.1-.4.13V12.5zM2 28.51c0 .44.21.56.52.56h.13c.3 0 .5-.12.5-.56v-7.03h1.71c.43 0 .56-.17.56-.47v-.11c0-.3-.13-.47-.56-.47H3.13v-.74c0-1.42.42-2.05 1.39-2.05.57 0 1.11.27 1.37.52.03.04.34-.14.34-.55 0-.53-.56-1.01-1.71-1.01C2.86 16.6 2 17.68 2 19.64v.8H.74c-.43 0-.56.15-.56.46v.1c0 .31.13.48.56.48H2v7.03zm4.22-3.76a4.25 4.25 0 0 0 4.43 4.47c2.32 0 3.62-1.32 3.62-1.91 0-.56-.65-.72-.69-.67-.5.81-1.26 1.53-2.93 1.53a3.16 3.16 0 0 1-3.26-3.13h6.66c.36 0 .49-.07.49-.4v-.1c0-2.61-1.59-4.32-4-4.32-2.48 0-4.32 1.92-4.32 4.53zm1.2-.72c.26-1.64 1.5-2.79 3.12-2.79 1.6 0 2.65 1.1 2.75 2.8H7.43zm8.36.72a4.25 4.25 0 0 0 4.43 4.47c2.32 0 3.62-1.32 3.62-1.91 0-.56-.65-.72-.69-.67-.5.81-1.26 1.53-2.93 1.53a3.16 3.16 0 0 1-3.26-3.13h6.66c.36 0 .49-.07.49-.4v-.1c0-2.61-1.59-4.32-4-4.32-2.48 0-4.32 1.92-4.32 4.53zm1.2-.72c.26-1.64 1.5-2.79 3.12-2.79 1.6 0 2.65 1.1 2.76 2.8h-5.87zm8.36.7c0 2.72 1.79 4.49 4.05 4.49 1.43 0 2.43-.6 3.2-1.64v.93c0 .44.2.56.51.56h.13c.3 0 .52-.12.52-.56V17.88c0-.94-.38-1.14-.77-1.14-.22 0-.4.1-.4.13v4.86c-.5-.8-1.6-1.51-3.11-1.51-2.38 0-4.13 1.81-4.13 4.51zm1.2-.01c0-2.07 1.2-3.48 3.02-3.48 1.5 0 2.5.78 3.04 2.02v2.18c-.07 1.58-1.51 2.75-3.08 2.75-1.73 0-2.99-1.46-2.99-3.47zm9.63 3.8c0 .43.21.55.52.55h.13c.3 0 .5-.12.5-.56v-.82c.49.8 1.58 1.53 3.13 1.53 2.38 0 4.12-1.82 4.12-4.52 0-2.72-1.78-4.48-4.05-4.48-1.42 0-2.4.59-3.18 1.62v-3.96c0-.94-.38-1.14-.78-1.14-.21 0-.4.1-.4.13V28.5zm1.15-3.23v-2.01a3.2 3.2 0 0 1 3.08-2.04c1.73 0 2.99 1.46 2.99 3.48 0 2.07-1.2 3.47-3.03 3.47-1.62 0-3.04-1.26-3.04-2.9zm8.56 1.51c0 1.44 1.08 2.4 2.95 2.4a3.8 3.8 0 0 0 3.2-1.59v.33c0 .93.34 1.13.74 1.13.22 0 .4-.09.4-.12v-5.4c0-2.07-1.3-3.33-3.48-3.33-2.27 0-3.49 1.36-3.49 1.98 0 .63.67.7.67.68a2.94 2.94 0 0 1 2.73-1.58c1.55 0 2.41.8 2.41 2.28v.3h-.18c-3.96.1-5.95.93-5.95 2.92zm1.18 0c0-1.35 1.52-1.87 4.45-1.98l.5-.01v.79c0 1.53-1.3 2.63-3.07 2.63-1.17 0-1.88-.56-1.88-1.43zm7.87-2.1a4.34 4.34 0 0 0 4.4 4.52c2.51 0 3.7-1.6 3.7-2.38 0-.52-.74-.63-.78-.56a2.89 2.89 0 0 1-2.91 1.9c-1.86 0-3.22-1.48-3.22-3.48s1.38-3.44 3.22-3.44c1.64 0 2.46.83 2.91 1.89.04.07.78-.04.78-.56 0-.77-1.19-2.37-3.7-2.37a4.32 4.32 0 0 0-4.4 4.48zm9.9 3.81c0 .44.2.56.51.56h.13c.3 0 .52-.12.52-.56v-3.87l4 3.98c.34.34.54.45.75.45.49 0 .69-.56.63-.61l-4.1-4 3.55-3.52c.05-.06-.11-.58-.58-.58-.23 0-.47.13-.8.47L66 24.36v-6.48c0-.94-.38-1.14-.77-1.14-.22 0-.4.1-.4.13V28.5zm13.28.17c.13.3.18.43.8.43.59 0 .71-.16.84-.47l3.15-7.94c.02-.05-.16-.34-.58-.34-.36 0-.57.16-.84.86l-2.58 6.74-2.52-6.74c-.27-.7-.47-.86-.88-.86-.41 0-.6.27-.58.34l3.19 7.98zm6.92-10.39c.53 0 .8-.25.8-.77 0-.53-.26-.78-.76-.78-.52 0-.8.25-.8.78 0 .5.28.77.76.77zm-.57 10.22c0 .44.21.56.52.56h.13c.3 0 .52-.12.52-.56v-7.6c0-.42-.22-.55-.52-.55h-.13c-.3 0-.52.13-.52.56v7.6zm3.13-1.7c0 1.43 1.08 2.39 2.95 2.39a3.8 3.8 0 0 0 3.2-1.59v.33c0 .93.35 1.13.74 1.13.22 0 .4-.09.4-.12v-5.4c0-2.07-1.3-3.33-3.47-3.33-2.27 0-3.5 1.36-3.5 1.98 0 .63.67.7.67.68a2.94 2.94 0 0 1 2.74-1.58c1.54 0 2.4.8 2.4 2.28v.3h-.17c-3.96.1-5.96.93-5.96 2.92zm1.19 0c0-1.36 1.51-1.88 4.44-1.99l.5-.01v.79c0 1.53-1.3 2.63-3.07 2.63-1.17 0-1.87-.56-1.87-1.43zM1.75 43.47c0 1.78.72 2.74 2.39 2.74 1.13 0 1.76-.58 1.76-1.07 0-.45-.36-.6-.4-.57-.3.38-.73.63-1.32.63-.96 0-1.28-.6-1.28-1.86v-4.87h2.28c.44 0 .56-.17.56-.47v-.11c0-.3-.12-.47-.56-.47H2.9v-1.5c0-.42-.2-.55-.5-.55h-.13c-.3 0-.52.13-.52.56v1.5h-.8c-.43 0-.55.15-.55.46v.1c0 .31.12.48.55.48h.8v5zm5.68 2.03c0 .44.21.56.52.56h.13c.3 0 .52-.12.52-.56v-4.26c0-1.78 1.13-2.94 2.82-2.94 1.44 0 2.3 1.03 2.3 2.76v4.44c0 .44.22.56.53.56h.13c.3 0 .52-.12.52-.56V41c0-2.27-1.14-3.78-3.4-3.78-1.35 0-2.3.66-2.9 1.58v-3.92c0-.94-.38-1.14-.78-1.14-.21 0-.4.1-.4.13V45.5zm9.23-3.76a4.25 4.25 0 0 0 4.43 4.47c2.32 0 3.62-1.32 3.62-1.91 0-.56-.65-.72-.69-.67-.5.81-1.26 1.53-2.93 1.53a3.16 3.16 0 0 1-3.26-3.13h6.66c.36 0 .49-.07.49-.4v-.1c0-2.61-1.59-4.32-4-4.32-2.48 0-4.32 1.92-4.32 4.53zm1.2-.72c.26-1.64 1.5-2.79 3.12-2.79 1.6 0 2.65 1.1 2.76 2.8h-5.87zm11.46 2.77c0 1.44 1.08 2.4 2.95 2.4a3.8 3.8 0 0 0 3.2-1.59v.33c0 .93.35 1.13.74 1.13.22 0 .4-.09.4-.12v-5.4c0-2.07-1.3-3.33-3.48-3.33-2.26 0-3.49 1.36-3.49 1.98 0 .63.67.7.67.68a2.94 2.94 0 0 1 2.73-1.58c1.55 0 2.42.8 2.42 2.28v.3h-.18c-3.96.1-5.96.93-5.96 2.92zm1.19 0c0-1.35 1.5-1.87 4.44-1.98l.5-.01v.79c0 1.53-1.3 2.63-3.07 2.63-1.17 0-1.87-.56-1.87-1.43zm9.6.78a3.58 3.58 0 0 0 3.12 1.64c2.38 0 4.12-1.82 4.12-4.52 0-2.72-1.78-4.48-4.05-4.48-1.42 0-2.43.59-3.2 1.65v-.38c0-.93-.36-1.13-.76-1.13-.21 0-.4.09-.4.13v11.5c0 .43.22.56.53.56h.12c.31 0 .53-.13.53-.56v-4.41zm-.01-2.29v-2.01a3.2 3.2 0 0 1 3.08-2.04c1.72 0 2.98 1.46 2.98 3.48 0 2.07-1.2 3.47-3.02 3.47-1.62 0-3.04-1.26-3.04-2.9zm10.26 2.29a3.58 3.58 0 0 0 3.12 1.64c2.37 0 4.12-1.82 4.12-4.52 0-2.72-1.78-4.48-4.05-4.48-1.42 0-2.43.59-3.2 1.65v-.38c0-.93-.36-1.13-.76-1.13-.22 0-.4.09-.4.13v11.5c0 .43.22.56.53.56h.12c.3 0 .52-.13.52-.56v-4.41zm-.01-2.29v-2.01a3.2 3.2 0 0 1 3.07-2.04c1.73 0 3 1.46 3 3.48 0 2.07-1.21 3.47-3.03 3.47-1.62 0-3.04-1.26-3.04-2.9z"/>
    <path id="path58_fill" d="M33.18 27.6c1.28.13 1.8-.57 1.9-.94 1-3.14 1.55-3.17 2.42-3.2 3.63-.18 6.39-1.29 8.22-3.31a9.13 9.13 0 0 0 2.32-6.34c.03-.54.07-3.74-2.32-6.34-1.83-2.02-4.6-3.14-8.22-3.3-.9-.04-1.42-.07-2.42-3.18-.1-.4-.62-1.1-1.9-.97-.94.1-8.92.03-13.03 0-.56 0-1.42.4-1.49 1.51v.07c-.03.6-.1 1.52-.8 2.13-.55.47-1.48.64-2.72.54-2.15-.2-4.46-.58-6.33-.88-1.66-.27-2.83-.47-3.42-.47C2.94 2.92 0 4.47 0 11.89v3.94c0 7.42 2.94 8.97 5.4 8.97.58 0 1.75-.2 3.41-.47 1.87-.3 4.18-.68 6.33-.88 1.24-.1 2.17.07 2.73.54.69.58.76 1.52.8 2.13v.06a1.55 1.55 0 0 0 1.51 1.52c4.08-.13 12.06-.2 13-.1zm-13.55-1.55v-.07c-.04-.67-.1-1.95-1.14-2.8-.8-.64-1.94-.9-3.5-.77-2.17.2-4.48.57-6.38.87a32.8 32.8 0 0 1-3.29.44c-3.63 0-4.39-4.35-4.39-7.99v-3.94c0-3.65.76-8 4.4-8 .48 0 1.79.2 3.28.44 1.86.3 4.21.68 6.39.88 1.52.13 2.7-.1 3.49-.78 1-.84 1.1-2.12 1.14-2.8v-.06c.03-.5.35-.58.48-.61.49 0 11.93.13 13.14 0 .69-.07.83.24.86.27 1.04 3.2 1.76 3.81 3.32 3.88 3.35.17 5.87 1.18 7.53 2.96 2.21 2.43 2.07 5.53 2.07 5.7 0 .2.14 3.27-2.07 5.7-1.66 1.82-4.18 2.8-7.53 2.97-1.56.07-2.28.67-3.32 3.88 0 .03-.14.33-.83.27-1.2-.14-12.65 0-13.13 0-.17.17-.49.06-.52-.44z"/>
    <path id="path59_fill" d="M1.97.24c0-.14-.1-.24-.24-.24H.24C.1 0 0 .1 0 .24c0 .13.1.23.24.23h1.49c.1 0 .24-.1.24-.23z"/>
    <path id="path60_fill" d="M1.97.24c0-.14-.1-.24-.24-.24H.24C.1 0 0 .1 0 .24c0 .13.1.23.24.23h1.49c.1 0 .24-.1.24-.23z"/>
    <path id="path61_fill" d="M1.97.24c0-.14-.1-.24-.24-.24H.24C.1 0 0 .1 0 .24c0 .13.1.23.24.23h1.49c.14 0 .24-.1.24-.23z"/>
    <path id="path62_fill" d="M1.97.24c0-.14-.1-.24-.24-.24H.24C.1 0 0 .1 0 .24c0 .13.1.23.24.23h1.49c.1 0 .24-.1.24-.23z"/>
    <path id="path63_fill" d="M1.97.24c0-.14-.1-.24-.24-.24H.24C.1 0 0 .1 0 .24c0 .13.1.23.24.23h1.49c.14 0 .24-.1.24-.23z"/>
    <path id="path64_fill" d="M1.97.24c0-.14-.1-.24-.24-.24H.24C.1 0 0 .1 0 .24c0 .13.1.23.24.23h1.49c.14 0 .24-.1.24-.23z"/>
    <path id="path65_fill" d="M1.97.24c0-.14-.1-.24-.24-.24H.24C.1 0 0 .1 0 .24c0 .13.1.23.24.23h1.49c.14 0 .24-.1.24-.23z"/>
    <path id="path66_fill" d="M1.97.24c0-.14-.1-.24-.24-.24H.24C.1 0 0 .1 0 .24c0 .13.1.23.24.23h1.49c.1 0 .24-.1.24-.23z"/>
    <path id="path67_fill" d="M1.97.24c0-.14-.1-.24-.24-.24H.24C.1 0 0 .1 0 .24c0 .13.1.23.24.23h1.49c.1 0 .24-.1.24-.23z"/>
    <path id="path68_fill" d="M1.97.24c0-.14-.1-.24-.24-.24H.24C.1 0 0 .1 0 .24c0 .13.1.23.24.23h1.49c.1 0 .24-.1.24-.23z"/>
    <path id="path69_fill" d="M38.19 11.8c2.14 0 3.87-2.63 3.87-5.9 0-3.24-1.73-5.9-3.87-5.9H3.7C1.66.17 0 2.73 0 5.9c0 3.24 1.73 5.9 3.87 5.9.04 0 .1 0 .14-.03h34.04c.03.03.1.03.14.03zM.52 5.9C.52 2.93 2.04.5 3.9.5h34.28c1.86 0 3.38 2.43 3.38 5.4 0 2.87-1.41 5.23-3.17 5.4-.04 0-.07-.04-.1-.04H3.86c-.03 0-.07 0-.1.04C1.97 11.23.52 8.83.52 5.9z"/>
    <path id="path70_fill" d="M1.24.64C.9.1.48 0 .24 0 .1 0 0 .1 0 .24c0 .13.1.23.24.23.24 0 .45.24.59.44.07.1.24.14.35.07.13-.07.17-.2.06-.34z"/>
    <path id="path71_fill" d="M.73 1.16A7.02 7.02 0 0 0 .48.18C.45.04.31-.02.18 0A.25.25 0 0 0 0 .24v.07c.1.27.17.58.2.91.04.14.15.24.28.2.18-.03.28-.13.25-.26z"/>
    <path id="path72_fill" d="M1.24.37c.07-.1.04-.27-.06-.33C1.08-.03.9 0 .83.1.69.3.48.54.24.54.1.54 0 .64 0 .78 0 .9.1 1 .24 1c.28 0 .66-.1 1-.64z"/>
    <path id="path73_fill" d="M.52 1.18V.24C.52.1.38 0 .24 0S0 .1 0 .24v.87c0 .14.1.24.24.24.17.07.28-.03.28-.17z"/>
    <path id="path74_fill" d="M.2.2C.15.54.08.84 0 1.11v.07c0 .1.07.2.17.24.14.03.28-.04.31-.17C.58.95.66.6.73.27A.22.22 0 0 0 .52 0C.35 0 .24.07.2.2z"/>
    <path id="path75_fill" d="M.2.2C.15.54.08.84 0 1.11v.07c0 .1.07.2.17.24.14.03.28-.04.31-.17C.58.95.66.6.73.27A.22.22 0 0 0 .52 0C.35 0 .2.07.2.2z"/>
    <path id="path76_fill" d="M44.24 15.07H26.6v-7.6l5.7-2.76a.9.9 0 0 0 .49-.77c0-.3-.18-.68-.49-.78L26.1.1a.93.93 0 0 0-.93.07c-.24.14-.45.44-.45.71v14.3h-11.4A13.03 13.03 0 0 0 0 28.08V46.2c0 .47.45.91.93.91h55.68c.48 0 .93-.44.93-.91V28.05c0-7.18-5.94-12.98-13.3-12.98zM26.6 2.35l3.15 1.59-3.15 1.58V2.35zM37.5 16.9A12.96 12.96 0 0 0 31 27.14h-4.4V16.89h10.9zm-24.2 0h11.44v10.25H1.9c.45-5.73 5.4-10.25 11.4-10.25zM1.88 28.96h22.87v5.12c0 .48.45.91.94.91.48 0 .93-.43.93-.9v-5.13h4.32v16.29H1.87v-16.3zm53.8 16.29H32.8v-17.2c0-6.17 5.15-11.16 11.44-11.16 6.29 0 11.43 5.02 11.43 11.16v17.2z"/>
    <path id="path77_stroke" d="M26.61 15.07h-.5v.5h.5v-.5zm0-7.6l-.22-.44-.28.14v.3h.5zm5.7-2.76l.22.45h.02l-.24-.45zm0-1.55l-.22.45.03.02h.04l.15-.47zM26.1.1l.22-.44v-.01h-.02l-.2.45zm-.93.07l.24.44.02-.01h.01l-.27-.43zm-.45 15v.5h.5v-.5h-.5zm-11.4 0v.5-.5zm13.3-12.8l.23-.45-.73-.37v.81h.5zm3.15 1.58l.22.44.89-.44-.89-.45-.22.45zM26.6 5.52h-.5v.81l.73-.36-.23-.45zM37.5 16.9l.25.43 1.6-.93H37.5v.5zM31 27.14v.5h.46l.04-.47-.5-.03zm-4.39 0h-.5v.5h.5v-.5zm0-10.25v-.5h-.5v.5h.5zm-1.87 0h.5v-.5h-.5v.5zm0 10.25v.5h.5v-.5h-.5zm-22.84 0l-.5-.04-.04.54h.54v-.5zm-.03 1.82v-.5h-.5v.5h.5zm22.87 0h.5v-.5h-.5v.5zm1.87 0v-.5h-.5v.5h.5zm4.32 0h.5v-.5h-.5v.5zm0 16.29v.5h.5v-.5h-.5zm-29.06 0h-.5v.5h.5v-.5zm53.8 0v.5h.5v-.5h-.5zm-22.87 0h-.5v.5h.5v-.5zm11.44-30.68H26.6v1h17.63v-1zm-17.13.5v-7.6h-1v7.6h1zm-.28-7.14l5.7-2.77-.44-.9-5.7 2.77.44.9zm5.72-2.78c.47-.25.75-.72.75-1.21h-1a.4.4 0 0 1-.23.33l.48.88zm.75-1.21c0-.22-.08-.51-.2-.71a1.16 1.16 0 0 0-.63-.54l-.31.95s.04.02.08.08c.04.07.06.15.06.22h1zm-.77-1.23L26.31-.35l-.44.9L32.1 3.6l.44-.9zM26.3-.36c-.44-.2-.93-.2-1.4.1l.54.84c.15-.1.28-.1.46-.03l.4-.91zm-1.37.08c-.37.21-.71.67-.71 1.15h1c0-.06.08-.2.2-.27l-.5-.88zM24.2.87v6.07h1V.87h-1zm.5 6.07h-.5v.07h1v-.07h-.5zm-.5.07v8.16h1V7h-1zm.5 7.66H13.3v1h11.4v-1zm-11.4 0A13.53 13.53 0 0 0-.5 28.08h1c0-6.9 5.7-12.48 12.8-12.41l.01-1zM-.5 28.08V46.2h1V28.1h-1zm0 18.11c0 .76.68 1.41 1.43 1.41v-1c-.22 0-.43-.23-.43-.41h-1zM.93 47.6h30.93v-1H.93v1zm30.93 0h24.75v-1H31.86v1zm24.75 0c.75 0 1.43-.65 1.43-1.41h-1c0 .18-.21.41-.43.41v1zm1.43-1.41V28.05h-1v18.14h1zm0-18.14c0-7.47-6.18-13.48-13.8-13.48v1c7.1 0 12.8 5.58 12.8 12.48h1zM26.4 2.8l3.14 1.58.45-.89-3.14-1.58-.45.89zm3.14.7L26.4 5.08l.45.89 3.14-1.59-.45-.89zm-2.42 2.02V2.35h-1v3.17h1zm10.14 10.93A13.46 13.46 0 0 0 30.5 27.1l1 .07c.3-4.17 2.72-7.8 6.25-9.85l-.5-.87zM31 26.64h-4.4v1H31v-1zm-3.89.5V16.89h-1v10.25h1zm-.5-9.75H37.5v-1H26.6v1zm-13.3 0h11.43v-1H13.31v1zm10.93-.5v10.25h1V16.89h-1zm.5 9.75H1.9v1h22.84v-1zm-22.34.54c.43-5.47 5.14-9.8 10.9-9.8v-1c-6.26 0-11.43 4.72-11.9 10.72l1 .08zm-.53 2.28h22.87v-1H1.87v1zm22.37-.5v5.12h1v-5.12h-1zm0 5.12c0 .76.69 1.41 1.44 1.41v-1c-.22 0-.44-.22-.44-.4h-1zm1.44 1.41c.75 0 1.43-.65 1.43-1.4h-1c0 .18-.21.4-.43.4v1zm1.43-1.4v-5.13h-1v5.12h1zm-.5-4.63h4.32v-1h-4.32v1zm3.82-.5v16.29h1v-16.3h-1zm.5 15.79H1.87v1h29.06v-1zm-28.56.5v-16.3h-1v16.3h1zm53.3-.5H32.8v1h22.87v-1zm-22.37.5v-17.2h-1v17.2h1zm0-17.2c0-5.88 4.9-10.66 10.94-10.66v-1c-6.56 0-11.94 5.2-11.94 11.66h1zm10.94-10.66c6.02 0 10.93 4.8 10.93 10.66h1c0-6.43-5.38-11.66-11.93-11.66v1zm10.93 10.66v17.2h1v-17.2h-1z"/>
    <path id="path78_fill" d="M2.18 0C1 0 0 .98 0 2.12V14.8c0 1.15 1 2.13 2.18 2.13h16.07c1.17 0 2.17-.98 2.17-2.13V2.12c0-1.14-1-2.12-2.17-2.12H2.18zm16.38 2.12V14.8a.3.3 0 0 1-.31.3H2.18a.3.3 0 0 1-.31-.3V2.12c0-.16.13-.3.3-.3h16.08c.2 0 .3.14.3.3z"/>
    <path id="path79_stroke" d="M2.18-.5A2.69 2.69 0 0 0-.5 2.12h1C.5 1.27 1.27.5 2.18.5v-1zM-.5 2.12V14.8h1V2.12h-1zm0 12.68a2.69 2.69 0 0 0 2.68 2.63v-1A1.7 1.7 0 0 1 .5 14.8h-1zm2.68 2.63h16.07v-1H2.18v1zm16.07 0a2.69 2.69 0 0 0 2.67-2.63h-1c0 .86-.76 1.63-1.67 1.63v1zm2.67-2.63V2.12h-1V14.8h1zm0-12.68A2.69 2.69 0 0 0 18.25-.5v1c.9 0 1.67.77 1.67 1.62h1zM18.25-.5H2.18v1h16.07v-1zm-.2 2.62V14.8h1V2.12h-1zm0 12.68c0-.12.1-.2.2-.2v1a.8.8 0 0 0 .8-.8h-1zm.2-.2H2.18v1h16.07v-1zm-16.07 0a.2.2 0 0 1 .19.2h-1c0 .46.37.8.8.8v-1zm.19.2V2.12h-1V14.8h1zm0-12.68c0 .12-.1.2-.2.2v-1a.8.8 0 0 0-.8.8h1zm-.2.2h16.08v-1H2.18v1zm16.08 0c-.01 0-.07 0-.13-.07a.2.2 0 0 1-.06-.13h1a.8.8 0 0 0-.22-.55.8.8 0 0 0-.6-.25v1z"/>
    <path id="path80_fill" d="M.56 4.75c.14.07.25.07.38.07a.9.9 0 0 0 .87-.54s1.17-2.46 5.32-2.46c.48 0 .93-.44.93-.91 0-.47-.45-.91-.93-.91C1.81 0 .15 3.37.08 3.57c-.2.4 0 .95.48 1.18z"/>
    <path id="path81_stroke" d="M1.8 4.28l-.44-.21.45.21zm-1.72-.7l.45.22.01-.03.01-.03-.47-.17zM.34 5.2c.25.1.47.12.6.12v-1H.82L.78 4.3l-.44.9zm.6.12a1.4 1.4 0 0 0 1.32-.83l-.9-.42c-.09.18-.21.25-.42.25v1zm.87-1.04l.45.22.04-.06.15-.23c.17-.21.4-.47.77-.75a6.29 6.29 0 0 1 3.91-1.13v-1a7.3 7.3 0 0 0-4.52 1.33 5.17 5.17 0 0 0-1.25 1.41l.45.22zm5.32-1.96c.75 0 1.43-.65 1.43-1.41h-1c0 .18-.21.41-.43.41v1zM8.56.91C8.56.15 7.88-.5 7.13-.5v1c.22 0 .43.23.43.41h1zM7.13-.5C1.55-.5-.27 3.05-.39 3.41l.94.33c0 .02.1-.21.32-.52.23-.32.57-.71 1.08-1.12 1-.8 2.63-1.6 5.18-1.6v-1zm-7.5 3.85c-.36.7.03 1.52.71 1.85l.44-.9c-.28-.13-.3-.4-.25-.5l-.9-.45z"/>
    <path id="path82_fill" fill-rule="evenodd" d="M5.18 1H0V0h5.18v1z"/>
    <path id="path83_fill" fill-rule="evenodd" d="M38.7 1H0V0h38.7v1z"/>
    <path id="path84_fill" fill-rule="evenodd" d="M26.61 1H0V0h26.61v1z"/>
  </defs>
</svg>
