<svg width="241" height="595" xmlns="http://www.w3.org/2000/svg" xmlns:xlink="http://www.w3.org/1999/xlink">
  <use xlink:href="#path0_stroke" transform="rotate(90 -6.5 12.5)" fill="#FD5755"/>
  <use xlink:href="#path1_fill" transform="rotate(90 -138.5 150.5)" fill="#FDA8A4"/>
  <use xlink:href="#path1_fill" transform="rotate(90 -186 198)" fill="#FDA8A4"/>
  <use xlink:href="#path1_fill" transform="rotate(90 -242.5 254.5)" fill="#FDA8A4"/>
  <use xlink:href="#path1_fill" transform="rotate(90 -52.5 64.5)" fill="#FDA8A4"/>
  <use xlink:href="#path1_fill" transform="rotate(90 -95.5 107.5)" fill="#FDA8A4"/>
  <use xlink:href="#path1_fill" transform="rotate(90 -2.5 14.5)" fill="#FDA8A4"/>
  <g transform="translate(8290 -9912)">
    <use xlink:href="#path2_fill" transform="translate(-8256 9912)" fill="#5D2FCD"/>
    <mask id="a">
      <use xlink:href="#path2_fill" fill="#fff" transform="translate(-8256 9912)"/>
    </mask>
    <g mask="url(#a)">
      <use xlink:href="#path3_stroke_2x" transform="translate(-8256 9912)" fill="#FDF9F3"/>
    </g>
  </g>
  <use xlink:href="#path4_fill" transform="translate(34 60)" fill="#5D2FCD"/>
  <g transform="translate(8290 -9912)">
    <mask id="b">
      <use xlink:href="#path5_fill" fill="#fff" transform="translate(-8241.3 10028.3)"/>
    </mask>
    <g mask="url(#b)">
      <use xlink:href="#path6_stroke_2x" transform="translate(-8241.3 10028.3)" fill="#5D2FCD"/>
    </g>
  </g>
  <g transform="translate(8290 -9912)">
    <mask id="c">
      <use xlink:href="#path7_fill" fill="#fff" transform="translate(-8255.99 10015)"/>
    </mask>
    <g mask="url(#c)">
      <use xlink:href="#path8_stroke_2x" transform="translate(-8255.99 10015)" fill="#5D2FCD"/>
    </g>
  </g>
  <g transform="translate(8290 -9912)">
    <mask id="d">
      <use xlink:href="#path9_fill" fill="#fff" transform="translate(-8223.57 10024.3)"/>
    </mask>
    <g mask="url(#d)">
      <use xlink:href="#path10_stroke_2x" transform="translate(-8223.57 10024.3)" fill="#5D2FCD"/>
    </g>
  </g>
  <g transform="translate(8290 -9912)">
    <mask id="e">
      <use xlink:href="#path11_fill" fill="#fff" transform="translate(-8256 10024.3)"/>
    </mask>
    <g mask="url(#e)">
      <use xlink:href="#path12_stroke_2x" transform="translate(-8256 10024.3)" fill="#5D2FCD"/>
    </g>
  </g>
  <g transform="translate(8290 -9912)">
    <mask id="f">
      <use xlink:href="#path13_fill" fill="#fff" transform="translate(-8249.94 10020.5)"/>
    </mask>
    <g mask="url(#f)">
      <use xlink:href="#path14_stroke_2x" transform="translate(-8249.94 10020.5)" fill="#5D2FCD"/>
    </g>
  </g>
  <use xlink:href="#path15_fill" transform="translate(34 143)" fill="#5D2FCD"/>
  <use xlink:href="#path16_fill" transform="translate(35 237)" fill="#5D2FCD"/>
  <g transform="translate(8290 -9912)">
    <use xlink:href="#path17_fill" transform="translate(-8167.05 10113.3)" fill="#5D2FCD"/>
    <use xlink:href="#path18_fill" transform="translate(-8146.93 10118.1)" fill="#5D2FCD"/>
    <use xlink:href="#path19_fill" transform="translate(-8143.93 10118.1)" fill="#5D2FCD"/>
    <use xlink:href="#path20_fill" transform="translate(-8137.95 10118.1)" fill="#5D2FCD"/>
    <use xlink:href="#path21_fill" transform="translate(-8140.92 10118.1)" fill="#5D2FCD"/>
    <use xlink:href="#path22_fill" transform="translate(-8134.94 10118.1)" fill="#5D2FCD"/>
    <use xlink:href="#path23_fill" transform="translate(-8137.95 10135.8)" fill="#5D2FCD"/>
    <use xlink:href="#path24_fill" transform="translate(-8134.94 10135.8)" fill="#5D2FCD"/>
    <use xlink:href="#path25_fill" transform="translate(-8140.92 10135.8)" fill="#5D2FCD"/>
    <use xlink:href="#path26_fill" transform="translate(-8143.93 10135.8)" fill="#5D2FCD"/>
    <use xlink:href="#path27_fill" transform="translate(-8146.93 10135.8)" fill="#5D2FCD"/>
    <use xlink:href="#path28_fill" transform="translate(-8164.18 10121.3)" fill="#5D2FCD"/>
    <use xlink:href="#path29_fill" transform="translate(-8128.2 10123.1)" fill="#5D2FCD"/>
    <use xlink:href="#path30_fill" transform="translate(-8126.99 10124.6)" fill="#5D2FCD"/>
    <use xlink:href="#path31_fill" transform="translate(-8128.2 10130.2)" fill="#5D2FCD"/>
    <use xlink:href="#path32_fill" transform="translate(-8126.68 10126.5)" fill="#5D2FCD"/>
    <use xlink:href="#path33_fill" transform="translate(-8126.96 10128.4)" fill="#5D2FCD"/>
    <use xlink:href="#path29_fill" transform="translate(-8126.65 10123.1)" fill="#5D2FCD"/>
    <use xlink:href="#path30_fill" transform="translate(-8125.44 10124.6)" fill="#5D2FCD"/>
    <use xlink:href="#path34_fill" transform="translate(-8125.4 10128.4)" fill="#5D2FCD"/>
    <use xlink:href="#path31_fill" transform="translate(-8126.65 10130.2)" fill="#5D2FCD"/>
    <use xlink:href="#path32_fill" transform="translate(-8125.12 10126.5)" fill="#5D2FCD"/>
    <g transform="translate(-8256 10091)">
      <use xlink:href="#path35_fill" fill="#5D2FCD"/>
      <use xlink:href="#path36_stroke" fill="#FFF"/>
    </g>
    <g transform="translate(-8221.3 10118.1)">
      <use xlink:href="#path37_fill" fill="#5D2FCD"/>
      <use xlink:href="#path38_stroke" fill="#FFF"/>
    </g>
    <g transform="translate(-8249.83 10109.1)">
      <use xlink:href="#path39_fill" fill="#5D2FCD"/>
      <use xlink:href="#path40_stroke" fill="#FFF"/>
    </g>
    <use xlink:href="#path41_fill" transform="translate(-8175.82 10125.5)" fill="#5D2FCD"/>
    <use xlink:href="#path42_fill" transform="translate(-8210.21 10121.9)" fill="#5D2FCD"/>
    <use xlink:href="#path42_fill" transform="translate(-8207.27 10129.2)" fill="#5D2FCD"/>
    <use xlink:href="#path43_fill" transform="translate(-8213.84 10125.5)" fill="#5D2FCD"/>
  </g>
  <use xlink:href="#path44_fill" transform="translate(39 271)" fill="#5D2FCD"/>
  <use xlink:href="#path45_fill" transform="translate(43.81 296.5)" fill="#5D2FCD"/>
  <use xlink:href="#path46_fill" transform="translate(43.81 293.6)" fill="#5D2FCD"/>
  <use xlink:href="#path47_fill" transform="translate(43.81 287.7)" fill="#5D2FCD"/>
  <use xlink:href="#path48_fill" transform="translate(43.81 290.7)" fill="#5D2FCD"/>
  <use xlink:href="#path49_fill" transform="translate(43.81 284.8)" fill="#5D2FCD"/>
  <use xlink:href="#path50_fill" transform="translate(61.69 287.7)" fill="#5D2FCD"/>
  <use xlink:href="#path51_fill" transform="translate(61.69 284.8)" fill="#5D2FCD"/>
  <use xlink:href="#path52_fill" transform="translate(61.69 290.7)" fill="#5D2FCD"/>
  <use xlink:href="#path53_fill" transform="translate(61.69 293.6)" fill="#5D2FCD"/>
  <use xlink:href="#path54_fill" transform="translate(61.69 296.5)" fill="#5D2FCD"/>
  <use xlink:href="#path55_fill" transform="translate(47.03 274.2)" fill="#5D2FCD"/>
  <use xlink:href="#path56_fill" transform="translate(48.92 278.9)" fill="#5D2FCD"/>
  <use xlink:href="#path57_fill" transform="translate(50.35 278.2)" fill="#5D2FCD"/>
  <use xlink:href="#path58_fill" transform="translate(56.05 278.9)" fill="#5D2FCD"/>
  <use xlink:href="#path59_fill" transform="translate(52.29 278.1)" fill="#5D2FCD"/>
  <use xlink:href="#path60_fill" transform="translate(54.2 278.2)" fill="#5D2FCD"/>
  <use xlink:href="#path61_fill" transform="translate(48.92 277.4)" fill="#5D2FCD"/>
  <use xlink:href="#path62_fill" transform="translate(50.35 276.7)" fill="#5D2FCD"/>
  <use xlink:href="#path63_fill" transform="translate(54.2 276.7)" fill="#5D2FCD"/>
  <use xlink:href="#path64_fill" transform="translate(56.05 277.4)" fill="#5D2FCD"/>
  <use xlink:href="#path65_fill" transform="translate(52.29 276.6)" fill="#5D2FCD"/>
  <use xlink:href="#path66_fill" transform="translate(56.05 309.8)" fill="#5D2FCD"/>
  <use xlink:href="#path67_fill" transform="translate(54.2 310.9)" fill="#5D2FCD"/>
  <use xlink:href="#path68_fill" transform="translate(52.29 311.3)" fill="#5D2FCD"/>
  <use xlink:href="#path69_fill" transform="translate(48.92 309.8)" fill="#5D2FCD"/>
  <use xlink:href="#path70_fill" transform="translate(50.35 310.9)" fill="#5D2FCD"/>
  <use xlink:href="#path71_fill" transform="translate(52.29 312.8)" fill="#5D2FCD"/>
  <use xlink:href="#path72_fill" transform="translate(56.05 311.3)" fill="#5D2FCD"/>
  <use xlink:href="#path73_fill" transform="translate(54.2 312.5)" fill="#5D2FCD"/>
  <use xlink:href="#path74_fill" transform="translate(50.35 312.5)" fill="#5D2FCD"/>
  <use xlink:href="#path75_fill" transform="translate(48.92 311.3)" fill="#5D2FCD"/>
  <use xlink:href="#path76_fill" transform="translate(40 331)" fill="#5D2FCD"/>
  <g transform="translate(8290 -9912)">
    <mask id="g">
      <use xlink:href="#path77_fill" fill="#fff" transform="translate(-8255 10279)"/>
    </mask>
    <g mask="url(#g)">
      <use xlink:href="#path78_stroke_2x" transform="translate(-8255 10279)" fill="#5D2FCD"/>
    </g>
  </g>
  <use xlink:href="#path79_fill" transform="translate(34 430)" fill="#5D2FCD"/>
  <g transform="translate(8290 -9912)">
    <use xlink:href="#path80_fill" transform="translate(-8259 10391)" fill="#5D2FCD"/>
    <mask id="h">
      <use xlink:href="#path80_fill" fill="#fff" transform="translate(-8259 10391)"/>
    </mask>
    <g mask="url(#h)">
      <use xlink:href="#path81_stroke_2x" transform="translate(-8259 10391)" fill="#FDF9F3"/>
    </g>
  </g>
  <g transform="translate(8290 -9912)">
    <use xlink:href="#path82_fill" transform="translate(-8226.51 10400.4)" fill="#5D2FCD"/>
    <mask id="i">
      <use xlink:href="#path82_fill" fill="#fff" transform="translate(-8226.51 10400.4)"/>
    </mask>
    <g mask="url(#i)">
      <use xlink:href="#path83_stroke_2x" transform="translate(-8226.51 10400.4)" fill="#FDF9F3"/>
    </g>
  </g>
  <use xlink:href="#path84_fill" transform="translate(27 551)" fill="#5D2FCD"/>
  <defs>
    <path id="path0_stroke" d="M575.35.35a.5.5 0 0 0 0-.7l-3.18-3.19a.5.5 0 0 0-.7.71L574.28 0l-2.83 2.83a.5.5 0 0 0 .71.7l3.18-3.18zM0 .5h575v-1H0v1z"/>
    <path id="path1_fill" d="M12 6A6 6 0 1 1 0 6a6 6 0 0 1 12 0z"/>
    <path id="path2_fill" d="M46.57 21l-4.4-4.41a1.47 1.47 0 0 0-2.08 0l-4.84 4.83V1.47c0-.81-.66-1.47-1.47-1.47H1.47C.66 0 0 .66 0 1.47v44.06C0 46.34.66 47 1.47 47h32.31c.81 0 1.47-.66 1.47-1.47V34.4l11.32-11.32c.57-.57.57-1.5 0-2.08zM32.3 44.05H2.94V2.94H32.3v21.42L21 35.68c-.27.27-.43.65-.43 1.04v4.4c0 .82.66 1.47 1.47 1.47h4.4c.4 0 .77-.15 1.05-.43l4.83-4.83v6.73zm-6.48-4.4H23.5v-2.33L41.12 19.7l2.33 2.33-17.62 17.63zM7.34 13.22h20.57c.8 0 1.46-.66 1.46-1.47v-4.4c0-.82-.65-1.47-1.46-1.47H7.34c-.8 0-1.47.65-1.47 1.46v4.41c0 .81.66 1.47 1.47 1.47zm1.47-4.4h17.63v1.46H8.8V8.81zm-1.47 13.2h20.57c.8 0 1.46-.66 1.46-1.47v-4.4c0-.81-.65-1.47-1.46-1.47H7.34c-.8 0-1.47.66-1.47 1.47v4.4c0 .81.66 1.47 1.47 1.47zm1.47-4.4h17.63v1.46H8.8v-1.46zm16.16 11.75v-4.41c0-.81-.66-1.47-1.47-1.47H7.34c-.8 0-1.47.66-1.47 1.47v4.4c0 .82.66 1.47 1.47 1.47H23.5c.81 0 1.47-.65 1.47-1.46zm-2.94-1.47H8.81v-1.47h13.22v1.47z"/>
    <path id="path3_stroke_2x" d="M46.57 21l-.7.7.7-.7zm-4.4-4.41l.7-.71-.7.7zm-2.08 0l-.71-.71.7.7zm-4.84 4.83h-1v2.42l1.7-1.71-.7-.7zm0 12.97l-.7-.7-.3.29v.4h1zm11.32-11.32l-.7-.7.7.7zm-14.26 21v1h1v-1h-1zm-29.37 0h-1v1h1v-1zm0-41.13v-1h-1v1h1zm29.37 0h1v-1h-1v1zm0 21.42l.7.7.3-.29v-.4h-1zM21 35.68l.7.7h.01l-.7-.7zm6.49 6.48l-.71-.7.7.7zm4.83-4.83h1V34.9l-1.7 1.71.7.7zm-6.48 2.33v1h.41l.3-.3-.71-.7zm-2.33 0h-1v1h1v-1zm0-2.33l-.7-.71-.3.3v.4h1zM41.12 19.7l.71-.7-.7-.71-.71.7.7.71zm2.33 2.33l.71.7.7-.7-.7-.7-.7.7zM8.81 8.81v-1h-1v1h1zm17.63 0h1v-1h-1v1zm0 1.47v1h1v-1h-1zm-17.63 0h-1v1h1v-1zm0 7.35v-1h-1v1h1zm17.63 0h1v-1h-1v1zm0 1.46v1h1v-1h-1zm-17.63 0h-1v1h1v-1zm13.22 8.82v1h1v-1h-1zm-13.22 0h-1v1h1v-1zm0-1.47v-1h-1v1h1zm13.22 0h1v-1h-1v1zm25.25-6.15l-4.41-4.41-1.41 1.41 4.4 4.41 1.42-1.41zm-4.41-4.41a2.47 2.47 0 0 0-3.5 0l1.42 1.41a.47.47 0 0 1 .67 0l1.41-1.41zm-3.5 0l-4.83 4.84 1.42 1.41 4.83-4.84-1.41-1.41zm-3.12 5.54V1.47h-2v19.95h2zm0-19.95C36.25.1 35.15-1 33.78-1v2c.26 0 .47.21.47.47h2zM33.78-1H1.47v2h32.31v-2zM1.47-1A2.47 2.47 0 0 0-1 1.47h2c0-.26.21-.47.47-.47v-2zM-1 1.47v44.06h2V1.47h-2zm0 44.06C-1 46.9.1 48 1.47 48v-2a.47.47 0 0 1-.47-.47h-2zM1.47 48h32.31v-2H1.47v2zm32.31 0c1.37 0 2.47-1.1 2.47-2.47h-2c0 .26-.21.47-.47.47v2zm2.47-2.47V34.4h-2v11.14h2zm-.3-10.43l11.33-11.32-1.42-1.42-11.32 11.32 1.42 1.42zm11.33-11.32c.96-.97.96-2.53 0-3.5l-1.42 1.42c.19.18.19.48 0 .66l1.42 1.42zM32.3 43.06H2.94v2H32.3v-2zm-28.37 1V2.94h-2v41.12h2zm-1-40.12H32.3v-2H2.94v2zm28.37-1v21.42h2V2.94h-2zm.3 20.71L20.29 34.97l1.41 1.42 11.32-11.32-1.41-1.42zM20.29 34.97c-.47.47-.73 1.1-.73 1.75h2c0-.13.05-.25.14-.33l-1.41-1.42zm-.73 1.75v4.4h2v-4.4h-2zm0 4.4c0 1.37 1.1 2.47 2.47 2.47v-2a.47.47 0 0 1-.47-.47h-2zm2.47 2.47h4.4v-2h-4.4v2zm4.4 0c.66 0 1.3-.26 1.75-.72l-1.41-1.41a.46.46 0 0 1-.33.13v2zm1.75-.72l4.84-4.84-1.41-1.41-4.84 4.84 1.41 1.41zm3.13-5.54v6.73h2v-6.73h-2zm-5.48 1.33H23.5v2h2.33v-2zm-1.33 1v-2.33h-2v2.33h2zm-.3-1.63l17.63-17.62-1.41-1.42-17.63 17.63 1.42 1.41zm16.22-17.62l2.33 2.33 1.41-1.42L41.83 19l-1.41 1.42zm2.33.91L25.12 38.95l1.42 1.41 17.62-17.62-1.41-1.42zm-35.4-7.1H27.9v-2H7.34v2zm20.56 0c1.36 0 2.46-1.1 2.46-2.47h-2c0 .26-.2.47-.46.47v2zm2.46-2.47v-4.4h-2v4.4h2zm0-4.4c0-1.37-1.1-2.47-2.46-2.47v2c.26 0 .46.2.46.46h2zm-2.46-2.47H7.34v2h20.57v-2zm-20.57 0a2.47 2.47 0 0 0-2.47 2.46h2c0-.25.22-.46.47-.46v-2zM4.87 7.33v4.41h2v-4.4h-2zm0 4.41a2.48 2.48 0 0 0 2.47 2.47v-2a.47.47 0 0 1-.47-.47h-2zM8.81 9.8h17.63v-2H8.8v2zm16.63-1v1.47h2V8.81h-2zm1 .47H8.8v2h17.63v-2zm-16.63 1V8.81h-2v1.47h2zM7.34 23.03h20.57v-2H7.34v2zm20.57 0c1.36 0 2.46-1.1 2.46-2.47h-2c0 .26-.2.47-.46.47v2zm2.46-2.47v-4.4h-2v4.4h2zm0-4.4c0-1.37-1.1-2.47-2.46-2.47v2c.26 0 .46.2.46.47h2zm-2.46-2.47H7.34v2h20.57v-2zm-20.57 0a2.47 2.47 0 0 0-2.47 2.47h2c0-.26.22-.47.47-.47v-2zm-2.47 2.47v4.4h2v-4.4h-2zm0 4.4a2.47 2.47 0 0 0 2.47 2.47v-2a.47.47 0 0 1-.47-.47h-2zm3.94-1.93h17.63v-2H8.8v2zm16.63-1v1.46h2v-1.46h-2zm1 .46H8.8v2h17.63v-2zm-16.63 1v-1.46h-2v1.46h2zm16.16 10.29v-4.41h-2v4.4h2zm0-4.41c0-1.36-1.1-2.47-2.47-2.47v2c.26 0 .47.21.47.47h2zM23.5 22.5H7.34v2H23.5v-2zm-16.16 0a2.47 2.47 0 0 0-2.47 2.47h2c0-.26.22-.47.47-.47v-2zm-2.47 2.47v4.4h2v-4.4h-2zm0 4.4a2.47 2.47 0 0 0 2.47 2.47v-2a.47.47 0 0 1-.47-.46h-2zm2.47 2.47H23.5v-2H7.34v2zm16.16 0c1.36 0 2.47-1.1 2.47-2.46h-2c0 .25-.21.46-.47.46v2zm-1.47-4.93H8.81v2h13.22v-2zm-12.22 1v-1.47h-2v1.47h2zm-1-.47h13.22v-2H8.81v2zm12.22-1v1.47h2v-1.47h-2z"/>
    <path id="path4_fill" d="M.67 10.93c0 .85 1.67 2.29 4.26 2.29 2.45 0 4.05-1.3 4.05-3.28 0-2.3-1.96-2.99-3.81-3.42-1.77-.41-3-.72-3-2.21 0-1.26 1.12-2.11 2.74-2.11 1.44 0 2.58.74 3.12 1.7.03.05.72-.22.72-.75 0-.75-1.44-2.01-3.85-2.01C2.66 1.14.99 2.5.99 4.34c0 2.32 1.82 2.9 3.58 3.31 1.68.4 3.2.81 3.2 2.34 0 1.35-1.06 2.16-2.86 2.16-1.72 0-2.9-.88-3.52-1.96-.04-.05-.72.22-.72.74zM11.6 2.29c.52 0 .8-.25.8-.77 0-.53-.26-.78-.76-.78-.53 0-.8.25-.8.78 0 .5.27.77.76.77zm-.58 10.22c0 .44.22.56.53.56h.12c.3 0 .52-.12.52-.56v-7.6c0-.42-.21-.55-.52-.55h-.12c-.31 0-.53.13-.53.56v7.6zm2.49 1.95c0 1.58 1.3 2.34 4.03 2.34 2.75 0 4.37-.96 4.37-2.56 0-1.37-1.3-1.94-2.52-2.25-1.56-.4-2.37-.45-2.37-1.04a.7.7 0 0 1 .12-.43l.47.01c2.02 0 3.53-1.38 3.53-3.15 0-.7-.27-1.36-.7-1.89l1.42-1.58c.04-.04-.18-.52-.67-.52-.37 0-.57.18-.82.54l-.6.95a3.8 3.8 0 0 0-2.16-.66c-2 0-3.47 1.45-3.47 3.24 0 1.31.84 2.4 2.14 2.86a1.3 1.3 0 0 0-.38.84c0 .4.16.65.38.83-1.57.3-2.77 1.17-2.77 2.47zm4.12-4.84c-1.35 0-2.3-.9-2.3-2.2 0-1.33.93-2.23 2.26-2.23 1.4 0 2.34.93 2.34 2.23 0 1.3-.93 2.2-2.3 2.2zm-2.99 4.84c0-1.08 1.48-1.7 3.12-1.78 1.36.34 2.98.55 2.98 1.6 0 1-1.2 1.56-3.16 1.56-1.93 0-2.94-.48-2.94-1.38zm8.53-1.95c0 .44.21.56.52.56h.13c.3 0 .52-.12.52-.56V7.13a3.03 3.03 0 0 1 2.82-1.82c1.46 0 2.3 1.05 2.3 2.76v4.44c0 .44.22.56.53.56h.13c.3 0 .52-.12.52-.56V8c0-2.27-1.14-3.78-3.4-3.78-1.34 0-2.33.64-2.92 1.56V5.5c0-.93-.36-1.13-.76-1.13-.21 0-.4.09-.4.13v8.02zm12.8-3.07c0 2.26 1.13 3.78 3.4 3.78a3.4 3.4 0 0 0 2.91-1.55v.27c0 .93.36 1.13.76 1.13.21 0 .4-.09.4-.12V4.92c0-.43-.22-.56-.53-.56h-.12c-.31 0-.53.13-.53.56v5.38a3 3 0 0 1-2.73 1.82c-1.53 0-2.4-1.03-2.4-2.76V4.92c0-.43-.21-.56-.52-.56h-.12c-.31 0-.53.13-.53.56v4.52zm11.04 2.14a3.58 3.58 0 0 0 3.12 1.64c2.37 0 4.12-1.82 4.12-4.52 0-2.72-1.78-4.48-4.05-4.48-1.42 0-2.43.59-3.2 1.65V5.5c0-.93-.36-1.13-.76-1.13-.22 0-.4.09-.4.13V16c0 .43.22.56.53.56h.12c.3 0 .52-.13.52-.56v-4.41zM47 9.29V7.28a3.2 3.2 0 0 1 3.07-2.04c1.73 0 3 1.46 3 3.48 0 2.07-1.21 3.47-3.03 3.47-1.62 0-3.04-1.26-3.04-2.9zm12.15 3.22c0 .44.22.56.52.56h.13c.3 0 .52-.12.52-.56V8.25c0-1.78 1.14-2.94 2.83-2.94 1.44 0 2.3 1.03 2.3 2.76v4.44c0 .44.22.56.52.56h.13c.3 0 .52-.12.52-.56V8c0-2.27-1.13-3.78-3.4-3.78-1.35 0-2.3.66-2.9 1.58V1.88c0-.94-.38-1.14-.77-1.14-.22 0-.4.1-.4.13V12.5zm9.23-3.76a4.25 4.25 0 0 0 4.43 4.47c2.32 0 3.62-1.32 3.62-1.91 0-.56-.65-.72-.68-.67-.5.81-1.26 1.53-2.94 1.53a3.16 3.16 0 0 1-3.26-3.13h6.66c.36 0 .49-.07.49-.4v-.1c0-2.61-1.58-4.32-4-4.32-2.48 0-4.32 1.92-4.32 4.53zm1.21-.72a3.13 3.13 0 0 1 3.11-2.79c1.6 0 2.65 1.1 2.76 2.8H69.6zm8.93 4.48c0 .44.22.56.52.56h.13c.3 0 .52-.12.52-.56V9.15c0-2.2.6-3.8 2.13-3.8.48 0 .79.14 1.04.36.04.04.32-.18.32-.61 0-.56-.45-.88-1.24-.88-1.15 0-1.9.6-2.27 1.78v-.5c0-.94-.36-1.14-.75-1.14-.22 0-.4.09-.4.13v8.02zm5.42-3.76a4.25 4.25 0 0 0 4.43 4.47c2.32 0 3.62-1.32 3.62-1.91 0-.56-.65-.72-.69-.67-.5.81-1.26 1.53-2.93 1.53a3.16 3.16 0 0 1-3.26-3.13h6.66c.36 0 .49-.07.49-.4v-.1c0-2.61-1.59-4.32-4-4.32-2.48 0-4.32 1.92-4.32 4.53zm1.2-.72c.26-1.64 1.5-2.79 3.12-2.79 1.6 0 2.65 1.1 2.75 2.8h-5.86zm11.42.67a4.33 4.33 0 0 0 4.43 4.52 4.3 4.3 0 0 0 4.4-4.49 4.32 4.32 0 0 0-4.4-4.51 4.3 4.3 0 0 0-4.43 4.48zm1.19 0c0-2 1.39-3.46 3.24-3.46 1.85 0 3.22 1.5 3.22 3.5s-1.39 3.45-3.22 3.45c-1.85 0-3.24-1.5-3.24-3.5zm9.5 3.81c0 .44.21.56.52.56h.12c.3 0 .52-.12.52-.56V7.13a3.03 3.03 0 0 1 2.83-1.82c1.46 0 2.3 1.05 2.3 2.76v4.44c0 .44.22.56.53.56h.12c.3 0 .52-.12.52-.56V8c0-2.27-1.13-3.78-3.4-3.78-1.33 0-2.32.64-2.91 1.56V5.5c0-.93-.36-1.13-.76-1.13-.22 0-.4.09-.4.13v8.02zm13.4-2.03c0 1.78.72 2.74 2.4 2.74 1.13 0 1.76-.58 1.76-1.07 0-.45-.36-.6-.4-.57-.3.38-.73.63-1.33.63-.95 0-1.28-.6-1.28-1.86V5.48h2.29c.43 0 .56-.17.56-.47V4.9c0-.3-.13-.47-.56-.47h-2.29v-1.5c0-.42-.2-.55-.5-.55h-.13c-.3 0-.52.13-.52.56v1.5h-.79c-.43 0-.56.15-.56.46V5c0 .31.13.48.56.48h.8v5zm5.69 2.03c0 .44.21.56.52.56h.12c.3 0 .53-.12.53-.56V8.25c0-1.78 1.13-2.94 2.82-2.94 1.44 0 2.3 1.03 2.3 2.76v4.44c0 .44.22.56.53.56h.12c.3 0 .53-.12.53-.56V8c0-2.27-1.14-3.78-3.4-3.78a3.3 3.3 0 0 0-2.9 1.58V1.88c0-.94-.38-1.14-.78-1.14-.21 0-.4.1-.4.13V12.5zm9.23-3.76a4.25 4.25 0 0 0 4.42 4.47c2.33 0 3.62-1.32 3.62-1.91 0-.56-.65-.72-.68-.67-.5.81-1.26 1.53-2.94 1.53a3.16 3.16 0 0 1-3.25-3.13h6.66c.36 0 .48-.07.48-.4v-.1c0-2.61-1.58-4.32-4-4.32-2.48 0-4.31 1.92-4.31 4.53zm1.2-.72a3.13 3.13 0 0 1 3.12-2.79c1.6 0 2.64 1.1 2.75 2.8h-5.87zm13.29 4.63c.07.3.2.45.86.45.6 0 .69-.15.8-.45l1.94-5.87 1.89 5.87c.1.3.2.45.8.45.66 0 .78-.15.86-.45l2.05-7.96c.02-.05-.29-.34-.65-.34-.27 0-.6.2-.7.83l-1.55 6.73-1.82-5.78c-.1-.34-.29-.48-.88-.48-.6 0-.77.14-.88.48l-1.84 5.78-1.56-6.73c-.13-.63-.44-.83-.7-.83-.38 0-.7.27-.69.34l2.07 7.96zm10.26-3.9a4.25 4.25 0 0 0 4.42 4.46c2.33 0 3.62-1.32 3.62-1.91 0-.56-.65-.72-.68-.67-.5.81-1.26 1.53-2.94 1.53a3.16 3.16 0 0 1-3.25-3.13h6.66c.36 0 .48-.07.48-.4v-.1c0-2.61-1.58-4.32-4-4.32-2.48 0-4.31 1.92-4.31 4.53zm1.2-.73a3.13 3.13 0 0 1 3.12-2.79c1.6 0 2.64 1.1 2.75 2.8h-5.87zm8.94 4.48c0 .44.21.56.52.56h.12c.31 0 .5-.12.5-.56v-.82c.5.8 1.6 1.53 3.14 1.53 2.38 0 4.12-1.82 4.12-4.52 0-2.72-1.78-4.48-4.05-4.48-1.42 0-2.41.59-3.18 1.62V1.88c0-.94-.38-1.14-.78-1.14-.21 0-.4.1-.4.13V12.5zm1.15-3.22V7.28a3.2 3.2 0 0 1 3.08-2.04c1.72 0 2.98 1.46 2.98 3.48 0 2.07-1.2 3.47-3.02 3.47-1.62 0-3.04-1.26-3.04-2.9zm8.45 2.18c0 .65 1.24 1.75 3.52 1.75 2.1 0 3.39-1.03 3.39-2.61 0-1.77-1.77-2.15-3.15-2.45-1.59-.34-2.4-.6-2.4-1.51 0-.85.76-1.44 2.16-1.44a2.9 2.9 0 0 1 2.52 1.26c.04.05.65-.17.65-.62 0-.64-1.08-1.63-3.17-1.63-1.98 0-3.27 1.06-3.27 2.59 0 1.73 1.67 2.1 3 2.4 1.62.33 2.52.55 2.52 1.58 0 .86-.79 1.44-2.21 1.44s-2.36-.6-2.93-1.39c-.04-.04-.63.14-.63.63zm9.48-9.18c.53 0 .8-.25.8-.77 0-.53-.26-.78-.76-.78-.52 0-.8.25-.8.78 0 .5.28.77.76.77zm-.57 10.22c0 .44.21.56.52.56h.13c.3 0 .52-.12.52-.56v-7.6c0-.42-.22-.55-.52-.55h-.13c-.3 0-.52.13-.52.56v7.6zm4.2-2.03c0 1.78.73 2.74 2.4 2.74 1.14 0 1.77-.58 1.77-1.07 0-.45-.36-.6-.4-.57-.3.38-.74.63-1.33.63-.96 0-1.28-.6-1.28-1.86V5.48h2.29c.43 0 .56-.17.56-.47V4.9c0-.3-.13-.47-.56-.47h-2.29v-1.5c0-.42-.2-.55-.5-.55h-.13c-.3 0-.52.13-.52.56v1.5h-.8c-.42 0-.55.15-.55.46V5c0 .31.13.48.56.48h.79v5zm5.03-1.73a4.25 4.25 0 0 0 4.43 4.47c2.32 0 3.61-1.32 3.61-1.91 0-.56-.64-.72-.68-.67-.5.81-1.26 1.53-2.93 1.53a3.16 3.16 0 0 1-3.26-3.13h6.66c.36 0 .48-.07.48-.4v-.1c0-2.61-1.58-4.32-4-4.32-2.48 0-4.31 1.92-4.31 4.53zm1.2-.72c.26-1.64 1.5-2.79 3.12-2.79 1.6 0 2.64 1.1 2.75 2.8h-5.87z"/>
    <path id="path5_fill" d="M8.12 1.03C8.32.53 8.9.3 9.4.51c.5.2.73.76.53 1.26a.99.99 0 0 1-1.28.52.96.96 0 0 1-.53-1.26zM6.8 0c.54 0 .98.43.98.96 0 .54-.44.97-.98.97a.97.97 0 0 1-.98-.97c0-.53.44-.96.98-.96zM4.12.54a.98.98 0 0 1 1.28.5.96.96 0 0 1-.51 1.28.98.98 0 0 1-1.29-.51.96.96 0 0 1 .52-1.27zM1.99 1.97a.99.99 0 0 1 1.38 0c.39.37.39.98 0 1.36a.99.99 0 0 1-1.38 0 .95.95 0 0 1 0-1.36zM.51 4.15a.97.97 0 0 1 1.28-.52c.5.2.74.76.53 1.25-.2.5-.78.73-1.27.53A.96.96 0 0 1 .5 4.15zM0 6.7a.98.98 0 0 1 1.96 0c0 .53-.44.96-.98.96A.97.97 0 0 1 0 6.71zm.55 2.64a.96.96 0 0 1 .51-1.26.98.98 0 0 1 1.29.5.96.96 0 0 1-.51 1.27.98.98 0 0 1-1.29-.5zM2 11.45a.95.95 0 0 1 0-1.36.99.99 0 0 1 1.38 0c.39.37.39.98 0 1.36a.99.99 0 0 1-1.38 0zm3.5.94a.99.99 0 0 1-1.28.52.96.96 0 0 1-.53-1.26c.2-.5.77-.73 1.27-.52.5.2.74.76.53 1.26zm1.31 1.03a.97.97 0 0 1-.98-.97c0-.53.44-.96.98-.96s.98.43.98.96-.44.97-.98.97zm2.68-.55a.98.98 0 0 1-1.28-.5.96.96 0 0 1 .51-1.27.98.98 0 0 1 1.29.5.96.96 0 0 1-.52 1.27zm2.13-1.42a.99.99 0 0 1-1.38 0 .95.95 0 0 1 0-1.36.99.99 0 0 1 1.38 0c.38.37.38.98 0 1.36zm1.48-2.18a.99.99 0 0 1-1.28.52.96.96 0 0 1-.53-1.26.99.99 0 0 1 1.28-.52c.5.2.73.76.53 1.26zm.51-2.56c0 .53-.44.96-.98.96a.97.97 0 0 1-.97-.96c0-.53.43-.97.97-.97s.98.44.98.97zm-.55-2.65a.96.96 0 0 1-.51 1.27.98.98 0 0 1-1.29-.5.96.96 0 0 1 .52-1.27.98.98 0 0 1 1.28.5zm-1.44-.73a.99.99 0 0 1-1.38 0 .95.95 0 0 1 0-1.37.99.99 0 0 1 1.38 0c.38.38.38 1 0 1.37z"/>
    <path id="path6_stroke_2x" d="M8.12 1.03l.92.39-.92-.39zM9.4.51l.37-.93-.37.93zm.53 1.26L9 1.38l.93.39zm-1.28.52l-.38.93.38-.93zM4.12.54l.39.93-.4-.93zm1.28.5l.92-.39-.92.4zm-1.8.77l-.91.4.91-.4zM2 1.97l.7.7-.7-.7zm1.37 0l.7-.72-.7.71zM.51 4.14l-.92-.39.92.39zm1.28-.52l-.38.92.38-.92zm.53 1.25L1.4 4.5l.92.38zm-1.27.53l.37-.93-.37.93zM.98 7.67v1-1zM.55 9.35l.92-.4-.92.4zm.51-1.26l.4.92-.4-.92zm1.29.5l.92-.4-.92.4zm-.51 1.27l.38.92-.38-.92zm.15 1.6l.7-.72-.7.71zm0-1.37l.7.71-.7-.71zm1.38 0l-.7.71.7-.71zm0 1.36l-.7-.71.7.71zm2.11.94l.92.38-.92-.38zm-1.27.52l-.38.92.38-.92zm-.53-1.26l.92.39-.92-.39zm1.27-.52l-.38.92.38-.92zm2.83 1.32h-1 1zm.42-.08l-.92.4.92-.4zm.51-1.27l-.39-.92.4.92zm1.29.5l.91-.4-.91.4zm1.61-.15l-.7-.71.7.71zm-1.38 0l.7-.71-.7.71zm0-1.36l.7.71-.7-.71zm1.38 0l.7-.71-.7.7zm1.48-.82l.92.38-.92-.38zm-1.28.52l.38-.93-.38.93zm-.53-1.26l-.92-.39.92.4zm1.28-.52l.37-.93-.37.93zm.49-3.95l.92-.4-.92.4zm-.51 1.27l-.4-.92.4.92zm-1.29-.5l-.91.4.91-.4zm.52-1.27l.39.92-.4-.92zm-.16-.23l-.7-.71.7.7zm-1.38 0l.7-.71-.7.7zm0-1.37l-.7-.7.7.7zm1.38 0l-.7.72.7-.72zm-2.57-.54l-.01.01h-.01l.75-1.85c-1-.4-2.15.06-2.57 1.06l1.84.78zm-.02.01A.03.03 0 0 1 9 1.42v-.04l1.85.77A1.96 1.96 0 0 0 9.77-.42l-.75 1.85zM9 1.38l.01-.01h.01l-.75 1.85a2 2 0 0 0 2.58-1.07L9 1.38zm.03-.02l.01.02v.04L7.2.64a1.96 1.96 0 0 0 1.07 2.58l.76-1.86zM6.8 1h-.01V.97L6.77.96h2A1.95 1.95 0 0 0 6.8-1v2zM6.78.96V.94h.01V.92h.01v2c1.08 0 1.98-.87 1.98-1.97h-2zM6.8.93h.01l.01.02v.01h-2c0 1.1.9 1.97 1.98 1.97v-2zm.02.03V1H6.8v-2C5.71-1 4.81-.13 4.81.96h2zm-2.31.5H4.5l-.02-.01 1.84-.8a2 2 0 0 0-2.6-1.03l.79 1.85zm-.03-.01a.05.05 0 0 1 0-.04.04.04 0 0 1 .02-.01l.78 1.84c1-.43 1.48-1.58 1.04-2.59l-1.84.8zm.02-.05h.01l.01.01-1.83.8c.43 1 1.6 1.45 2.59 1.03L4.5 1.4zm.02.01a.05.05 0 0 1 0 .04.04.04 0 0 1-.01.01L3.73-.37a1.96 1.96 0 0 0-1.04 2.59l1.83-.8zM2.7 2.68h-.02l1.4-1.43a1.99 1.99 0 0 0-2.8 0L2.7 2.68zm-.03 0v-.02a.05.05 0 0 1 0-.03v-.01l1.4 1.42c.79-.77.79-2.02 0-2.79l-1.4 1.43zm0-.06h.01V2.6h.01L1.3 4.05a2 2 0 0 0 2.79 0l-1.4-1.42zm.02 0h.01a.05.05 0 0 1 0 .06L1.3 1.25a1.95 1.95 0 0 0-.01 2.79l1.4-1.42zM1.44 4.53l-.01.02h-.01l.75-1.85A2 2 0 0 0-.41 3.76l1.85.77zm-.03.02l-.01-.02V4.5l1.84.77A1.96 1.96 0 0 0 2.17 2.7L1.4 4.55zM1.4 4.5v-.01h.01v-.01h.01L.67 6.33c1 .41 2.15-.05 2.57-1.06L1.4 4.5zm.02-.02l.02.02v.03l-1.85-.77A1.96 1.96 0 0 0 .67 6.33l.75-1.85zM1 6.71v.02H.99v.01H.97v-2C-.1 4.74-1 5.61-1 6.71h2zm-.02.03H.96l-.01-.01V6.7h2c0-1.1-.9-1.97-1.98-1.97v2zm-.02-.03v-.03h.01v2c1.09 0 1.99-.87 1.99-1.97h-2zm.02-.04L1 6.7v.02h-2c0 1.1.9 1.96 1.98 1.96v-2zm.49 2.29a.05.05 0 0 1 0 .03.04.04 0 0 1-.01.02L.67 7.17A1.96 1.96 0 0 0-.37 9.75l1.84-.8zM1.45 9h-.01v-.02l1.83-.8c-.44-1-1.6-1.44-2.6-1.02L1.45 9zm-.02-.02a.05.05 0 0 1 0-.03.04.04 0 0 1 .01-.02l.79 1.84c1-.42 1.47-1.58 1.04-2.58L1.43 9zm.02-.05h.01v.02l-1.83.8c.44 1 1.6 1.44 2.6 1.02l-.78-1.84zm1.24 1.8l.01.01a.05.05 0 0 1 0 .05L1.3 9.38a1.95 1.95 0 0 0-.01 2.78l1.4-1.42zm0 .06h-.01l1.4-1.42a1.99 1.99 0 0 0-2.79 0l1.4 1.42zm-.02 0v-.03a.05.05 0 0 1 0-.03l1.4 1.42c.78-.76.79-2.02 0-2.78l-1.4 1.42zm0-.06h.03l-1.41 1.42a2 2 0 0 0 2.79 0l-1.4-1.42zM4.56 12v-.01h.02l-.75 1.85a2 2 0 0 0 2.58-1.07L4.55 12zm.02-.02h.01V12l.01.02v.02l-1.85-.78a1.96 1.96 0 0 0 1.08 2.57l.75-1.85zm.02.06h-.01v.01h-.01l.75-1.85a2 2 0 0 0-2.58 1.06l1.85.78zm-.02.01h-.01l-.01-.01V12l1.85.77a1.96 1.96 0 0 0-1.08-2.57l-.75 1.85zm2.22.37h.01l.01.01v.02h-2c0 1.1.9 1.97 1.98 1.97v-2zm.02.03v.03H6.8s-.01 0 0 0v-2c-1.09 0-1.99.87-1.99 1.97h2zm-.02.04h-.01v-.02l-.01-.02h2c0-1.1-.9-1.96-1.98-1.96v2zm-.02-.04v-.02h.01v-.01h.01v2c1.08 0 1.98-.87 1.98-1.97h-2zm2.31-.5a.01.01 0 0 1 .01 0l.02.02-1.84.8c.44 1 1.6 1.44 2.6 1.02l-.79-1.84zm.03.02a.05.05 0 0 1 0 .03.04.04 0 0 1-.01.02l-.79-1.84a1.96 1.96 0 0 0-1.04 2.58l1.84-.8zm-.02.05h-.01L9.08 12l1.83-.8c-.43-1-1.6-1.44-2.59-1.02l.78 1.84zM9.08 12v-.02a.04.04 0 0 1 .01-.02l.78 1.84c1-.42 1.48-1.58 1.04-2.58l-1.83.8zm1.83-1.26h.02l-1.4 1.42c.77.76 2.01.76 2.78 0l-1.4-1.42zm.02 0v.01l.01.02v.02l-.01.01-1.4-1.42a1.95 1.95 0 0 0 0 2.78l1.4-1.42zm0 .06h-.02l1.4-1.42a1.99 1.99 0 0 0-2.78 0l1.4 1.42zm-.02 0l-.01-.01v-.02a.05.05 0 0 1 0-.03l1.41 1.42c.78-.77.78-2.02 0-2.78l-1.4 1.42zm1.25-1.92l.01-.01h.01l-.75 1.85a2 2 0 0 0 2.58-1.07l-1.85-.77zm.03-.02l.01.02v.04l-1.84-.77a1.96 1.96 0 0 0 1.07 2.57l.76-1.86zm.01.06v.01h-.01s-.01 0 0 0l.74-1.85c-1-.4-2.15.06-2.57 1.06l1.84.78zm-.02.01l-.02-.01v-.04l1.85.77a1.96 1.96 0 0 0-1.08-2.57l-.75 1.85zm.42-2.22v-.02l.01-.01h.01v2c1.08 0 1.98-.87 1.98-1.97h-2zm.02-.04h.02v.04h-2c0 1.1.9 1.96 1.98 1.96v-2zm.03.04v.02h-.01l-.01.01v-2c-1.09 0-1.98.87-1.98 1.97h2zm-.03.03l-.01-.01V6.7h2c0-1.1-.9-1.97-1.99-1.97v2zm-.49-2.28v-.04a.04.04 0 0 1 .02-.01l.78 1.84c1-.42 1.47-1.58 1.04-2.59l-1.84.8zm.02-.05h.01l.01.01-1.83.8c.43 1 1.6 1.45 2.59 1.03l-.78-1.84zm.02.01a.05.05 0 0 1 0 .04.04.04 0 0 1-.01.02l-.78-1.84a1.96 1.96 0 0 0-1.04 2.58l1.83-.8zm-.01.06h-.01l-.02-.02 1.84-.8c-.44-1-1.6-1.44-2.6-1.02l.79 1.84zM10.9 2.62a.03.03 0 0 1 0-.01h.02l-1.4 1.43c.77.76 2.01.76 2.78 0l-1.4-1.42zm.02 0l.01.03a.05.05 0 0 1-.01.03l-1.4-1.43a1.95 1.95 0 0 0 0 2.79l1.4-1.42zm0 .06h-.02l1.4-1.43a1.99 1.99 0 0 0-2.78 0l1.4 1.43zm-.02 0l-.01-.02v-.01a.05.05 0 0 1 0-.03l1.41 1.42c.78-.77.78-2.02 0-2.79l-1.4 1.43z"/>
    <path id="path7_fill" d="M10.45 8.71c.15-.38.32-.72.5-1.01.05-1.47 1.17-2.64 2.53-2.64h16.03c1.4 0 2.53 1.22 2.53 2.74v.08c.05.08.1.17.14.27.21.5.48.61.98.6h9.1c.23 0 .46-.04.7-.06.04-2.75-.9-4.9-3.3-6.38A16.14 16.14 0 0 0 31.23.08c-6.71-.1-13.43-.1-20.15 0a15.8 15.8 0 0 0-8.2 2.39C.53 3.93-.12 6.1.02 8.7h10.43z"/>
    <path id="path8_stroke_2x" d="M10.45 8.71v1h.66l.26-.62-.92-.38zm.5-1.01l.85.53.15-.23v-.27l-1-.03zm21.1.18h-1v.25l.12.23.87-.48zm.13.27l-.92.4.92-.4zm.98.6v-1h-.01v1zm9.1 0v-1 1zm.7-.06l.09 1 .9-.09v-.9l-1-.01zm-3.3-6.38l.52-.85-.52.85zM31.23.08l-.01 1 .01-1zm-20.15 0l.01 1-.01-1zm-8.2 2.39l-.53-.85.53.85zM.02 8.7l-1 .05.05.95h.95v-1zm11.35.38c.14-.35.27-.6.43-.86l-1.7-1.06c-.2.33-.4.74-.58 1.16l1.85.76zm.59-1.36c.03-1 .77-1.67 1.52-1.67v-2c-1.97 0-3.46 1.68-3.52 3.6l2 .07zm1.52-1.67h16.03v-2H13.48v2zm16.03 0c.78 0 1.53.7 1.53 1.74h2c0-2-1.5-3.74-3.53-3.74v2zm1.53 1.74v.08h2V7.8h-2zm.13.56l.09.19 1.83-.8a4.88 4.88 0 0 0-.17-.35l-1.75.96zm.09.19c.15.35.39.71.8.95.38.23.8.26 1.1.26l-.01-2a1.29 1.29 0 0 1-.14 0h.01a.28.28 0 0 1 .12.08l-.05-.1-1.83.8zm1.9 1.2h9.1v-2h-9.1v2zm9.1 0c.32 0 .59-.05.79-.07l-.18-1.99c-.28.03-.46.06-.6.06v2zm1.7-1.05c.04-3.03-1.03-5.54-3.78-7.24l-1.05 1.7c2.05 1.27 2.87 3.06 2.83 5.51l2 .03zm-3.78-7.24a17.56 17.56 0 0 0-8.93-2.38l-.03 2c2.86.03 5.48.56 7.91 2.08l1.05-1.7zM31.25-.92c-6.73-.1-13.46-.1-20.19 0l.03 2c6.71-.1 13.42-.1 20.13 0l.03-2zm-20.19 0a17.2 17.2 0 0 0-8.7 2.53l1.05 1.7a14.4 14.4 0 0 1 7.68-2.25l-.03-2zm-8.7 2.54A7.13 7.13 0 0 0-.42 4.78a9.52 9.52 0 0 0-.57 3.98l2-.1a6.7 6.7 0 0 1 .42-3.11c.37-.92.92-1.6 1.97-2.23l-1.06-1.7zM.01 9.72h10.43v-2H.02v2z"/>
    <path id="path9_fill" d="M10.44 0H.1C-.16 2.35 0 2.53 2.3 2.53h6.18c1.82 0 2.37-.7 1.97-2.53z"/>
    <path id="path10_stroke_2x" d="M10.44 0l.98-.21-.17-.79h-.8v1zM.1 0v-1h-.9l-.1.9 1 .1zm2.2 2.53v-1 1zm6.18 0v-1 1zM10.44-1H.1v2h10.35v-2zM-.9-.1c-.07.6-.11 1.12-.1 1.53.02.43.11.95.48 1.37.37.43.88.59 1.3.66.4.06.92.07 1.5.07v-2c-.55 0-.91 0-1.18-.05-.24-.04-.19-.08-.1.02.07.09.02.12.01-.15-.01-.28.02-.66.08-1.23L-.9-.11zm3.19 3.63h6.18v-2H2.28v2zm6.18 0c.96 0 1.99-.17 2.6-.96.62-.78.56-1.83.35-2.78L9.47.2c.19.88.05 1.1.03 1.13 0 .01-.17.2-1.04.2v2z"/>
    <path id="path11_fill" d="M10.43 0H.07C-.18 2.08.19 2.52 2.2 2.52h6c1.76 0 2.36-.67 2.23-2.52z"/>
    <path id="path12_stroke_2x" d="M10.43 0l1-.07-.06-.93h-.94v1zM.07 0v-1h-.9l-.1.88 1 .12zM2.2 2.52v-1 1zm6 0v1-1zM10.43-1H.07v2h10.36v-2zM-.93-.12a7.7 7.7 0 0 0-.05 1.49c.04.45.17.92.5 1.32.35.4.8.6 1.24.7.39.09.9.13 1.44.13v-2a4.1 4.1 0 0 1-.99-.08c-.19-.03-.18-.1-.16-.05.05.04-.03 0-.04-.21-.03-.26 0-.57.05-1.06L-.93-.12zM2.2 3.52h6v-2h-6v2zm6 0c.95 0 1.92-.17 2.57-.9.64-.72.73-1.7.66-2.69l-2 .14c.06.87-.08 1.14-.15 1.22-.06.06-.27.23-1.08.23v2z"/>
    <path id="path13_fill" d="M24.13 4l.36-4h-2.48l-.85 4H9.72l-.84-4H6.4l.36 4L4.3 7 0 19.05v6.67h1.05v.34c0 .26.2.46.46.46h2.57c.26 0 .47-.2.47-.46v-.34h21.79v.34c0 .26.2.46.47.46h2.56c.26 0 .47-.2.47-.46v-.34h1.04v-6.67L26.58 7l-2.46-3z"/>
    <path id="path14_stroke_2x" d="M24.13 4l-1-.09-.04.41.26.32.78-.64zm.36-4l1 .09.1-1.09h-1.1v1zm-2.48 0v-1h-.81l-.17.8.98.2zm-.85 4v1h.81l.17-.79-.98-.2zM9.72 4l-.97.21.16.8h.81V4zm-.84-4l.97-.2L9.7-1h-.81v1zM6.4 0v-1H5.3L5.4.09l1-.09zm.36 4l.77.64.26-.32-.04-.4-1 .08zM4.3 7l-.77-.64-.11.13-.06.17.94.33zM0 19.05l-.94-.33-.06.16v.17h1zm0 6.67h-1v1h1v-1zm1.05 0h1v-1h-1v1zm3.5 0v-1h-1v1h1zm21.79 0h1v-1h-1v1zm3.5 0v-1h-1v1h1zm1.04 0v1h1v-1h-1zm0-6.67h1v-.17l-.05-.16-.95.33zM26.58 7l.93-.34-.05-.16-.11-.13-.78.63zm-1.46-2.9l.37-4-2-.18-.36 4 2 .18zM24.5-1h-2.48v2h2.48v-2zm-3.46.8l-.85 4 1.96.41.85-4-1.96-.42zm.13 3.2H16.9v2h4.26V3zM16.9 3h-2.91v2h2.91V3zm-2.91 0H9.72v2H14V3zm-3.29.8l-.85-4L7.9.2l.85 4.01 1.95-.41zM8.88-1H6.4v2h2.48v-2zM5.4.09l.36 4 2-.18-.37-4-2 .18zm.59 3.28L3.54 6.36l1.55 1.27 2.44-3L6 3.38zM3.37 6.66L-.94 18.73l1.88.67L5.25 7.33l-1.88-.67zM-1 19.06v6.67h2v-6.67h-2zm1 7.67h1.05v-2H0v2zm.05-1v.34h2v-.34h-2zm0 .34c0 .82.67 1.46 1.46 1.46v-2c.29 0 .54.23.54.54h-2zm1.46 1.46h2.57v-2H1.5v2zm2.57 0c.8 0 1.47-.64 1.47-1.46h-2c0-.3.25-.54.53-.54v2zm1.47-1.46v-.34h-2v.34h2zm-1 .66h21.79v-2H4.54v2zm20.79-1v.34h2v-.34h-2zm0 .34c0 .82.67 1.46 1.47 1.46v-2c.28 0 .53.23.53.54h-2zm1.47 1.46h2.56v-2h-2.56v2zm2.56 0c.8 0 1.47-.64 1.47-1.46h-2c0-.3.25-.54.53-.54v2zm1.47-1.46v-.34h-2v.34h2zm-1 .66h1.04v-2h-1.04v2zm2.04-1v-6.67h-2v6.67h2zm-.05-7L27.5 6.65l-1.88.68 4.31 12.07 1.89-.67zM27.35 6.36L24.9 3.37l-1.55 1.27 2.45 2.98 1.55-1.26z"/>
    <path id="path15_fill" d="M4.64 12.51c0 .38.18.56.53.56h.16c.36 0 .54-.18.54-.56V2.47h3.65c.36 0 .56-.18.56-.5v-.1c0-.34-.2-.52-.56-.52H1c-.36 0-.56.18-.56.53v.09c0 .32.2.5.56.5h3.65v10.04zm4.8-3.76a4.25 4.25 0 0 0 4.42 4.47c2.33 0 3.62-1.32 3.62-1.91 0-.56-.65-.72-.68-.67-.5.81-1.26 1.53-2.94 1.53a3.16 3.16 0 0 1-3.25-3.13h6.66c.36 0 .48-.07.48-.4v-.1c0-2.61-1.58-4.32-4-4.32-2.48 0-4.31 1.92-4.31 4.53zm1.2-.72a3.13 3.13 0 0 1 3.12-2.79c1.6 0 2.64 1.1 2.75 2.8h-5.87zm9.03 4.48c0 .44.21.56.52.56h.12c.3 0 .53-.12.53-.56V1.88c0-.94-.38-1.14-.78-1.14-.21 0-.4.1-.4.13V12.5zm3.1-3.76a4.25 4.25 0 0 0 4.42 4.47c2.32 0 3.62-1.32 3.62-1.91 0-.56-.65-.72-.69-.67-.5.81-1.26 1.53-2.93 1.53a3.16 3.16 0 0 1-3.26-3.13h6.66c.36 0 .49-.07.49-.4v-.1c0-2.61-1.59-4.32-4-4.32-2.48 0-4.32 1.92-4.32 4.53zm1.2-.72a3.13 3.13 0 0 1 3.11-2.79c1.6 0 2.65 1.1 2.75 2.8h-5.86zm10.1 3.55a3.58 3.58 0 0 0 3.11 1.64c2.38 0 4.13-1.82 4.13-4.52 0-2.72-1.79-4.48-4.05-4.48a3.7 3.7 0 0 0-3.2 1.65V5.5c0-.93-.37-1.13-.76-1.13-.22 0-.4.09-.4.13V16c0 .43.22.56.52.56h.13c.3 0 .52-.13.52-.56v-4.41zm-.02-2.29V7.28a3.2 3.2 0 0 1 3.08-2.04c1.73 0 2.99 1.46 2.99 3.48 0 2.07-1.2 3.47-3.03 3.47-1.62 0-3.04-1.26-3.04-2.9zm9.1 3.22c0 .44.21.56.52.56h.13c.3 0 .52-.12.52-.56V8.25c0-1.78 1.13-2.94 2.82-2.94 1.44 0 2.3 1.03 2.3 2.76v4.44c0 .44.22.56.53.56h.13c.3 0 .52-.12.52-.56V8c0-2.27-1.14-3.78-3.4-3.78-1.35 0-2.3.66-2.9 1.58V1.88c0-.94-.38-1.14-.78-1.14-.21 0-.4.1-.4.13V12.5zm9.23-3.81a4.33 4.33 0 0 0 4.43 4.52 4.3 4.3 0 0 0 4.4-4.49 4.32 4.32 0 0 0-4.4-4.51 4.3 4.3 0 0 0-4.43 4.48zm1.19 0c0-2 1.38-3.46 3.24-3.46 1.85 0 3.22 1.5 3.22 3.5s-1.39 3.45-3.22 3.45c-1.86 0-3.24-1.5-3.24-3.5zm9.5 3.81c0 .44.2.56.52.56h.12c.3 0 .52-.12.52-.56V7.13a3.03 3.03 0 0 1 2.83-1.82c1.46 0 2.3 1.05 2.3 2.76v4.44c0 .44.22.56.53.56H70c.3 0 .52-.12.52-.56V8c0-2.27-1.13-3.78-3.4-3.78-1.33 0-2.32.64-2.91 1.56V5.5c0-.93-.36-1.13-.76-1.13-.22 0-.4.09-.4.13v8.02zm9.23-3.76a4.25 4.25 0 0 0 4.42 4.47c2.33 0 3.62-1.32 3.62-1.91 0-.56-.65-.72-.68-.67-.5.81-1.26 1.53-2.94 1.53a3.16 3.16 0 0 1-3.25-3.13h6.66c.36 0 .48-.07.48-.4v-.1c0-2.61-1.58-4.32-4-4.32-2.48 0-4.31 1.92-4.31 4.53zm1.2-.72a3.13 3.13 0 0 1 3.12-2.79c1.6 0 2.64 1.1 2.75 2.8H73.5zm11.35 3.44c0 .65 1.24 1.75 3.52 1.75 2.1 0 3.39-1.03 3.39-2.61 0-1.77-1.77-2.15-3.15-2.45-1.59-.34-2.4-.6-2.4-1.51 0-.85.76-1.44 2.16-1.44a2.9 2.9 0 0 1 2.52 1.26c.04.05.65-.17.65-.62 0-.64-1.08-1.63-3.17-1.63-1.98 0-3.27 1.06-3.27 2.59 0 1.73 1.67 2.1 3 2.4 1.62.33 2.52.55 2.52 1.58 0 .86-.79 1.44-2.21 1.44s-2.36-.6-2.93-1.39c-.04-.04-.63.14-.63.63zm8.24-2.77a4.34 4.34 0 0 0 4.41 4.52c2.5 0 3.7-1.6 3.7-2.38 0-.52-.75-.63-.78-.56a2.9 2.9 0 0 1-2.92 1.9c-1.85 0-3.22-1.48-3.22-3.48s1.38-3.44 3.22-3.44c1.64 0 2.47.83 2.92 1.89.03.07.77-.04.77-.56 0-.77-1.19-2.37-3.69-2.37a4.32 4.32 0 0 0-4.4 4.48zm9.9 3.81c0 .44.2.56.52.56h.12c.3 0 .52-.12.52-.56V9.15c0-2.2.6-3.8 2.13-3.8.48 0 .79.14 1.04.36.04.04.33-.18.33-.61 0-.56-.46-.88-1.25-.88-1.15 0-1.9.6-2.27 1.78v-.5c0-.94-.35-1.14-.75-1.14-.22 0-.4.09-.4.13v8.02zm5.41-3.76a4.25 4.25 0 0 0 4.43 4.47c2.32 0 3.62-1.32 3.62-1.91 0-.56-.65-.72-.69-.67-.5.81-1.26 1.53-2.93 1.53a3.16 3.16 0 0 1-3.26-3.13h6.66c.36 0 .49-.07.49-.4v-.1c0-2.61-1.59-4.32-4-4.32-2.48 0-4.32 1.92-4.32 4.53zm1.2-.72c.26-1.64 1.5-2.79 3.12-2.79 1.6 0 2.65 1.1 2.75 2.8h-5.86zm8.36.72a4.25 4.25 0 0 0 4.43 4.47c2.32 0 3.62-1.32 3.62-1.91 0-.56-.65-.72-.68-.67-.5.81-1.26 1.53-2.94 1.53a3.16 3.16 0 0 1-3.26-3.13h6.66c.36 0 .49-.07.49-.4v-.1c0-2.61-1.58-4.32-4-4.32-2.48 0-4.32 1.92-4.32 4.53zm1.21-.72a3.13 3.13 0 0 1 3.11-2.79c1.6 0 2.65 1.1 2.76 2.8h-5.87zm8.93 4.48c0 .44.22.56.52.56h.13c.3 0 .52-.12.52-.56V7.13a3.03 3.03 0 0 1 2.83-1.82c1.46 0 2.3 1.05 2.3 2.76v4.44c0 .44.22.56.52.56h.13c.3 0 .52-.12.52-.56V8c0-2.27-1.13-3.78-3.4-3.78-1.33 0-2.32.64-2.92 1.56V5.5c0-.93-.36-1.13-.75-1.13-.22 0-.4.09-.4.13v8.02zM138.58 2.3c.52 0 .79-.25.79-.77 0-.53-.25-.78-.76-.78-.52 0-.79.25-.79.78 0 .5.27.77.76.77zM138 12.51c0 .44.22.56.52.56h.13c.3 0 .52-.12.52-.56v-7.6c0-.42-.21-.55-.52-.55h-.13c-.3 0-.52.13-.52.56v7.6zm3.67 0c0 .44.22.56.53.56h.12c.3 0 .52-.12.52-.56V7.13a3.03 3.03 0 0 1 2.83-1.82c1.46 0 2.3 1.05 2.3 2.76v4.44c0 .44.22.56.53.56h.12c.3 0 .52-.12.52-.56V8c0-2.27-1.13-3.78-3.4-3.78-1.33 0-2.32.64-2.92 1.56V5.5c0-.93-.35-1.13-.75-1.13-.22 0-.4.09-.4.13v8.02zm8.62 1.95c0 1.58 1.3 2.34 4.03 2.34 2.76 0 4.38-.96 4.38-2.56 0-1.37-1.3-1.94-2.52-2.25-1.57-.4-2.38-.45-2.38-1.04a.7.7 0 0 1 .13-.43l.47.01c2.01 0 3.53-1.38 3.53-3.15 0-.7-.28-1.36-.7-1.89l1.42-1.58c.03-.04-.19-.52-.67-.52-.38 0-.58.18-.83.54l-.6.95a3.8 3.8 0 0 0-2.15-.66c-2 0-3.48 1.45-3.48 3.24 0 1.31.85 2.4 2.15 2.86a1.3 1.3 0 0 0-.38.84c0 .4.16.65.38.83-1.57.3-2.78 1.17-2.78 2.47zm4.13-4.84c-1.35 0-2.3-.9-2.3-2.2 0-1.33.93-2.23 2.26-2.23 1.4 0 2.34.93 2.34 2.23 0 1.3-.94 2.2-2.3 2.2zm-3 4.84c0-1.08 1.48-1.7 3.12-1.78 1.37.34 2.99.55 2.99 1.6 0 1-1.2 1.56-3.17 1.56-1.93 0-2.93-.48-2.93-1.38z"/>
    <path id="path16_fill" d="M1.39 12.51c0 .38.18.56.52.56h.14c.36 0 .54-.25.54-.56v-4.4h1.46l3.78 4.53c.27.32.52.43.76.43.5 0 .8-.48.73-.57L5.6 8.1c2.5-.03 3.87-1.27 3.87-3.38 0-2.23-1.48-3.37-4.2-3.37h-3.2a.68.68 0 0 0-.68.69V12.5zm1.2-5.45v-4.6h2.72c1.93 0 2.9.78 2.9 2.3 0 1.38-.9 2.3-2.83 2.3H2.6zm8.25 1.7a4.25 4.25 0 0 0 4.43 4.46c2.32 0 3.62-1.32 3.62-1.91 0-.56-.65-.72-.69-.67-.5.81-1.26 1.53-2.93 1.53a3.16 3.16 0 0 1-3.26-3.13h6.66c.36 0 .49-.07.49-.4v-.1c0-2.61-1.59-4.32-4-4.32-2.48 0-4.32 1.92-4.32 4.53zm1.2-.73c.26-1.64 1.5-2.79 3.12-2.79 1.6 0 2.65 1.1 2.76 2.8h-5.87zm8.37.67a4.34 4.34 0 0 0 4.4 4.52c2.5 0 3.7-1.6 3.7-2.38 0-.52-.74-.63-.78-.56a2.9 2.9 0 0 1-2.91 1.9c-1.86 0-3.23-1.48-3.23-3.48s1.39-3.44 3.23-3.44a2.9 2.9 0 0 1 2.91 1.89c.04.07.78-.04.78-.56 0-.77-1.2-2.37-3.7-2.37a4.32 4.32 0 0 0-4.4 4.48zm9.31.05a4.25 4.25 0 0 0 4.43 4.47c2.32 0 3.62-1.32 3.62-1.91 0-.56-.65-.72-.69-.67-.5.81-1.26 1.53-2.93 1.53a3.16 3.16 0 0 1-3.26-3.13h6.66c.36 0 .49-.07.49-.4v-.1c0-2.61-1.59-4.32-4-4.32-2.48 0-4.32 1.92-4.32 4.53zm1.2-.72c.26-1.64 1.5-2.79 3.12-2.79 1.6 0 2.65 1.1 2.76 2.8h-5.87zm9.6-5.74c.53 0 .8-.25.8-.77 0-.53-.25-.78-.76-.78-.52 0-.79.25-.79.78 0 .5.27.77.76.77zm-.57 10.22c0 .44.22.56.52.56h.13c.3 0 .52-.12.52-.56v-7.6c0-.42-.22-.55-.52-.55h-.13c-.3 0-.52.13-.52.56v7.6zm5.92.17c.13.3.18.43.8.43.59 0 .71-.16.84-.47l3.15-7.94c.02-.05-.16-.34-.58-.34-.36 0-.57.16-.84.86l-2.58 6.74-2.52-6.74c-.27-.7-.46-.86-.88-.86-.41 0-.6.27-.57.34l3.18 7.98zm5.5-3.93a4.25 4.25 0 0 0 4.44 4.47c2.32 0 3.61-1.32 3.61-1.91 0-.56-.64-.72-.68-.67-.5.81-1.26 1.53-2.93 1.53a3.16 3.16 0 0 1-3.26-3.13h6.66c.36 0 .48-.07.48-.4v-.1c0-2.61-1.58-4.32-4-4.32-2.48 0-4.31 1.92-4.31 4.53zm1.21-.72c.26-1.64 1.5-2.79 3.12-2.79 1.6 0 2.64 1.1 2.75 2.8h-5.87zm13.17 3.55a3.58 3.58 0 0 0 3.1 1.64c2.39 0 4.13-1.82 4.13-4.52 0-2.72-1.78-4.48-4.05-4.48-1.42 0-2.43.59-3.2 1.65V5.5c0-.93-.36-1.13-.76-1.13-.21 0-.4.09-.4.13V16c0 .43.22.56.53.56h.12c.3 0 .53-.13.53-.56v-4.41zm-.02-2.29V7.28a3.2 3.2 0 0 1 3.08-2.04c1.72 0 2.98 1.46 2.98 3.48 0 2.07-1.2 3.47-3.02 3.47-1.62 0-3.04-1.26-3.04-2.9zm9.1 3.22c0 .44.2.56.52.56h.12c.3 0 .52-.12.52-.56V9.15c0-2.2.6-3.8 2.13-3.8.48 0 .79.14 1.04.36.04.04.33-.18.33-.61 0-.56-.45-.88-1.25-.88-1.15 0-1.9.6-2.26 1.78v-.5c0-.94-.36-1.14-.76-1.14-.22 0-.4.09-.4.13v8.02zm5.41-3.81a4.33 4.33 0 0 0 4.43 4.52 4.3 4.3 0 0 0 4.4-4.49 4.32 4.32 0 0 0-4.4-4.51 4.3 4.3 0 0 0-4.43 4.48zm1.19 0c0-2 1.39-3.46 3.24-3.46 1.85 0 3.22 1.5 3.22 3.5s-1.38 3.45-3.22 3.45c-1.85 0-3.24-1.5-3.24-3.5zm8.92.03c0 2.72 1.78 4.49 4.05 4.49 1.42 0 2.43-.6 3.2-1.64v.93c0 .44.2.56.5.56h.13c.3 0 .52-.12.52-.56V1.88c0-.94-.37-1.14-.77-1.14-.22 0-.4.1-.4.13v4.86a3.6 3.6 0 0 0-3.1-1.51c-2.39 0-4.13 1.81-4.13 4.51zm1.19-.01c0-2.07 1.2-3.48 3.02-3.48 1.51 0 2.5.78 3.04 2.02v2.18c-.07 1.58-1.5 2.75-3.08 2.75-1.72 0-2.98-1.46-2.98-3.47zm9.56.72c0 2.26 1.14 3.78 3.4 3.78a3.4 3.4 0 0 0 2.92-1.55v.27c0 .93.36 1.13.75 1.13.22 0 .4-.09.4-.12V4.92c0-.43-.21-.56-.52-.56h-.13c-.3 0-.52.13-.52.56v5.38a3 3 0 0 1-2.73 1.82c-1.53 0-2.4-1.03-2.4-2.76V4.92c0-.43-.21-.56-.52-.56h-.13c-.3 0-.52.13-.52.56v4.52zm9.3-.74a4.34 4.34 0 0 0 4.41 4.52c2.5 0 3.7-1.6 3.7-2.38 0-.52-.74-.63-.78-.56a2.9 2.9 0 0 1-2.92 1.9c-1.85 0-3.22-1.48-3.22-3.48s1.39-3.44 3.22-3.44c1.64 0 2.47.83 2.92 1.89.04.07.77-.04.77-.56 0-.77-1.18-2.37-3.69-2.37a4.32 4.32 0 0 0-4.4 4.48zm10.44 1.78c0 1.78.72 2.74 2.4 2.74 1.13 0 1.76-.58 1.76-1.07 0-.45-.36-.6-.4-.57-.3.38-.74.63-1.33.63-.96 0-1.28-.6-1.28-1.86V5.48h2.29c.43 0 .55-.17.55-.47V4.9c0-.3-.12-.47-.55-.47h-2.29v-1.5c0-.42-.2-.55-.5-.55h-.13c-.3 0-.52.13-.52.56v1.5h-.8c-.43 0-.55.15-.55.46V5c0 .31.12.48.56.48h.79v5zm8.2.32c0 1.44 1.08 2.4 2.95 2.4a3.8 3.8 0 0 0 3.2-1.59v.33c0 .93.35 1.13.74 1.13.22 0 .4-.09.4-.12v-5.4c0-2.07-1.3-3.33-3.48-3.33-2.26 0-3.49 1.36-3.49 1.98 0 .63.67.7.67.68a2.94 2.94 0 0 1 2.73-1.58c1.55 0 2.42.8 2.42 2.28v.3H135c-3.96.1-5.96.93-5.96 2.92zm1.19 0c0-1.35 1.5-1.87 4.44-1.98l.5-.01v.79c0 1.53-1.3 2.63-3.07 2.63-1.17 0-1.87-.56-1.87-1.43zm8.44 1.71c0 .44.21.56.52.56h.13c.3 0 .52-.12.52-.56V7.13a3.03 3.03 0 0 1 2.82-1.82c1.46 0 2.3 1.05 2.3 2.76v4.44c0 .44.22.56.53.56h.13c.3 0 .52-.12.52-.56V8c0-2.27-1.14-3.78-3.4-3.78-1.34 0-2.33.64-2.92 1.56V5.5c0-.93-.36-1.13-.76-1.13-.21 0-.4.09-.4.13v8.02zm9.23-3.78c0 2.72 1.78 4.49 4.05 4.49 1.42 0 2.43-.6 3.2-1.64v.93c0 .44.2.56.5.56h.13c.31 0 .53-.12.53-.56V1.88c0-.94-.38-1.14-.78-1.14-.21 0-.4.1-.4.13v4.86a3.6 3.6 0 0 0-3.1-1.51c-2.38 0-4.13 1.81-4.13 4.51zm1.19-.01c0-2.07 1.2-3.48 3.02-3.48 1.51 0 2.5.78 3.04 2.02v2.18c-.07 1.58-1.5 2.75-3.07 2.75-1.73 0-3-1.46-3-3.47zm12.7 3.8c0 .43.2.55.51.55h.13c.3 0 .52-.12.52-.56V8.64l4 3.98c.34.34.54.45.75.45.49 0 .69-.56.63-.61l-4.1-4 3.55-3.52c.05-.06-.11-.58-.58-.58-.23 0-.47.13-.8.47l-3.45 3.53V1.88c0-.94-.38-1.14-.77-1.14-.22 0-.4.1-.4.13V12.5zm8.64-10.23c.52 0 .8-.25.8-.77 0-.53-.26-.78-.76-.78-.53 0-.8.25-.8.78 0 .5.27.77.76.77zm-.58 10.22c0 .44.22.56.53.56h.12c.3 0 .52-.12.52-.56v-7.6c0-.42-.21-.55-.52-.55h-.13c-.3 0-.52.13-.52.56v7.6zm4.21-2.03c0 1.78.72 2.74 2.4 2.74 1.13 0 1.76-.58 1.76-1.07 0-.45-.36-.6-.4-.57-.3.38-.73.63-1.33.63-.95 0-1.27-.6-1.27-1.86V5.48h2.28c.43 0 .56-.17.56-.47V4.9c0-.3-.13-.47-.56-.47h-2.28v-1.5c0-.42-.2-.55-.5-.55h-.13c-.31 0-.53.13-.53.56v1.5h-.79c-.43 0-.56.15-.56.46V5c0 .31.13.48.56.48h.8v5z"/>
    <path id="path17_fill" d="M33.18 27.6c1.28.13 1.8-.57 1.9-.94 1-3.14 1.55-3.17 2.42-3.2 3.63-.18 6.39-1.29 8.22-3.31a9.13 9.13 0 0 0 2.32-6.34c.03-.54.07-3.74-2.32-6.34-1.83-2.02-4.6-3.14-8.22-3.3-.9-.04-1.42-.07-2.42-3.18-.1-.4-.62-1.1-1.9-.97-.94.1-8.92.03-13.03 0-.56 0-1.42.4-1.49 1.51v.07c-.03.6-.1 1.52-.8 2.13-.55.47-1.48.64-2.72.54-2.15-.2-4.46-.58-6.33-.88-1.66-.27-2.83-.47-3.42-.47C2.94 2.92 0 4.47 0 11.89v3.94c0 7.42 2.94 8.97 5.4 8.97.58 0 1.75-.2 3.41-.47 1.87-.3 4.18-.68 6.33-.88 1.24-.1 2.17.07 2.73.54.69.58.76 1.52.8 2.13v.06a1.55 1.55 0 0 0 1.51 1.52c4.08-.13 12.06-.2 13-.1zm-13.55-1.55v-.07c-.04-.67-.1-1.95-1.14-2.8-.8-.64-1.94-.9-3.5-.77-2.17.2-4.48.57-6.38.87a32.8 32.8 0 0 1-3.29.44c-3.63 0-4.39-4.35-4.39-7.99v-3.94c0-3.65.76-8 4.4-8 .48 0 1.79.2 3.28.44 1.86.3 4.21.68 6.39.88 1.52.13 2.7-.1 3.49-.78 1-.84 1.1-2.12 1.14-2.8v-.06c.03-.5.35-.58.48-.61.49 0 11.93.13 13.14 0 .69-.07.83.24.86.27 1.04 3.2 1.76 3.81 3.32 3.88 3.35.17 5.87 1.18 7.53 2.96 2.21 2.43 2.07 5.53 2.07 5.7 0 .2.14 3.27-2.07 5.7-1.66 1.82-4.18 2.8-7.53 2.97-1.56.07-2.28.67-3.32 3.88 0 .03-.14.33-.83.27-1.2-.14-12.65 0-13.13 0-.17.17-.49.06-.52-.44z"/>
    <path id="path18_fill" d="M1.97.24c0-.14-.1-.24-.24-.24H.24C.1 0 0 .1 0 .24c0 .13.1.23.24.23h1.49c.1 0 .24-.1.24-.23z"/>
    <path id="path19_fill" d="M1.97.24c0-.14-.1-.24-.24-.24H.24C.1 0 0 .1 0 .24c0 .13.1.23.24.23h1.49c.1 0 .24-.1.24-.23z"/>
    <path id="path20_fill" d="M1.97.24c0-.14-.1-.24-.24-.24H.24C.1 0 0 .1 0 .24c0 .13.1.23.24.23h1.49c.14 0 .24-.1.24-.23z"/>
    <path id="path21_fill" d="M1.97.24c0-.14-.1-.24-.24-.24H.24C.1 0 0 .1 0 .24c0 .13.1.23.24.23h1.49c.1 0 .24-.1.24-.23z"/>
    <path id="path22_fill" d="M1.97.24c0-.14-.1-.24-.24-.24H.24C.1 0 0 .1 0 .24c0 .13.1.23.24.23h1.49c.14 0 .24-.1.24-.23z"/>
    <path id="path23_fill" d="M1.97.24c0-.14-.1-.24-.24-.24H.24C.1 0 0 .1 0 .24c0 .13.1.23.24.23h1.49c.14 0 .24-.1.24-.23z"/>
    <path id="path24_fill" d="M1.97.24c0-.14-.1-.24-.24-.24H.24C.1 0 0 .1 0 .24c0 .13.1.23.24.23h1.49c.14 0 .24-.1.24-.23z"/>
    <path id="path25_fill" d="M1.97.24c0-.14-.1-.24-.24-.24H.24C.1 0 0 .1 0 .24c0 .13.1.23.24.23h1.49c.1 0 .24-.1.24-.23z"/>
    <path id="path26_fill" d="M1.97.24c0-.14-.1-.24-.24-.24H.24C.1 0 0 .1 0 .24c0 .13.1.23.24.23h1.49c.1 0 .24-.1.24-.23z"/>
    <path id="path27_fill" d="M1.97.24c0-.14-.1-.24-.24-.24H.24C.1 0 0 .1 0 .24c0 .13.1.23.24.23h1.49c.1 0 .24-.1.24-.23z"/>
    <path id="path28_fill" d="M38.19 11.8c2.14 0 3.87-2.63 3.87-5.9 0-3.24-1.73-5.9-3.87-5.9H3.7C1.66.17 0 2.73 0 5.9c0 3.24 1.73 5.9 3.87 5.9.04 0 .1 0 .14-.03h34.04c.03.03.1.03.14.03zM.52 5.9C.52 2.93 2.04.5 3.9.5h34.28c1.86 0 3.38 2.43 3.38 5.4 0 2.87-1.41 5.23-3.17 5.4-.04 0-.07-.04-.1-.04H3.86c-.03 0-.07 0-.1.04C1.97 11.23.52 8.83.52 5.9z"/>
    <path id="path29_fill" d="M1.24.64C.9.1.48 0 .24 0 .1 0 0 .1 0 .24c0 .13.1.23.24.23.24 0 .45.24.59.44.07.1.24.14.35.07.13-.07.17-.2.06-.34z"/>
    <path id="path30_fill" d="M.73 1.16A7.02 7.02 0 0 0 .48.18C.45.04.31-.02.18 0A.25.25 0 0 0 0 .24v.07c.1.27.17.58.2.91.04.14.15.24.28.2.18-.03.28-.13.25-.26z"/>
    <path id="path31_fill" d="M1.24.37c.07-.1.04-.27-.06-.33C1.08-.03.9 0 .83.1.69.3.48.54.24.54.1.54 0 .64 0 .78 0 .9.1 1 .24 1c.28 0 .66-.1 1-.64z"/>
    <path id="path32_fill" d="M.52 1.18V.24C.52.1.38 0 .24 0S0 .1 0 .24v.87c0 .14.1.24.24.24.17.07.28-.03.28-.17z"/>
    <path id="path33_fill" d="M.2.2C.15.54.08.84 0 1.11v.07c0 .1.07.2.17.24.14.03.28-.04.31-.17C.58.95.66.6.73.27A.22.22 0 0 0 .52 0C.35 0 .24.07.2.2z"/>
    <path id="path34_fill" d="M.2.2C.15.54.08.84 0 1.11v.07c0 .1.07.2.17.24.14.03.28-.04.31-.17C.58.95.66.6.73.27A.22.22 0 0 0 .52 0C.35 0 .2.07.2.2z"/>
    <path id="path35_fill" d="M44.24 15.07H26.6v-7.6l5.7-2.76a.9.9 0 0 0 .49-.77c0-.3-.18-.68-.49-.78L26.1.1a.93.93 0 0 0-.93.07c-.24.14-.45.44-.45.71v14.3h-11.4A13.03 13.03 0 0 0 0 28.08V46.2c0 .47.45.91.93.91h55.68c.48 0 .93-.44.93-.91V28.05c0-7.18-5.94-12.98-13.3-12.98zM26.6 2.35l3.15 1.59-3.15 1.58V2.35zM37.5 16.9A12.96 12.96 0 0 0 31 27.14h-4.4V16.89h10.9zm-24.2 0h11.44v10.25H1.9c.45-5.73 5.4-10.25 11.4-10.25zM1.88 28.96h22.87v5.12c0 .48.45.91.94.91.48 0 .93-.43.93-.9v-5.13h4.32v16.29H1.87v-16.3zm53.8 16.29H32.8v-17.2c0-6.17 5.15-11.16 11.44-11.16 6.29 0 11.43 5.02 11.43 11.16v17.2z"/>
    <path id="path36_stroke" d="M26.61 15.07h-.5v.5h.5v-.5zm0-7.6l-.22-.44-.28.14v.3h.5zm5.7-2.76l.22.45h.02l-.24-.45zm0-1.55l-.22.45.03.02h.04l.15-.47zM26.1.1l.22-.44v-.01h-.02l-.2.45zm-.93.07l.24.44.02-.01h.01l-.27-.43zm-.45 15v.5h.5v-.5h-.5zm-11.4 0v.5-.5zm13.3-12.8l.23-.45-.73-.37v.81h.5zm3.15 1.58l.22.44.89-.44-.89-.45-.22.45zM26.6 5.52h-.5v.81l.73-.36-.23-.45zM37.5 16.9l.25.43 1.6-.93H37.5v.5zM31 27.14v.5h.46l.04-.47-.5-.03zm-4.39 0h-.5v.5h.5v-.5zm0-10.25v-.5h-.5v.5h.5zm-1.87 0h.5v-.5h-.5v.5zm0 10.25v.5h.5v-.5h-.5zm-22.84 0l-.5-.04-.04.54h.54v-.5zm-.03 1.82v-.5h-.5v.5h.5zm22.87 0h.5v-.5h-.5v.5zm1.87 0v-.5h-.5v.5h.5zm4.32 0h.5v-.5h-.5v.5zm0 16.29v.5h.5v-.5h-.5zm-29.06 0h-.5v.5h.5v-.5zm53.8 0v.5h.5v-.5h-.5zm-22.87 0h-.5v.5h.5v-.5zm11.44-30.68H26.6v1h17.63v-1zm-17.13.5v-7.6h-1v7.6h1zm-.28-7.14l5.7-2.77-.44-.9-5.7 2.77.44.9zm5.72-2.78c.47-.25.75-.72.75-1.21h-1a.4.4 0 0 1-.23.33l.48.88zm.75-1.21c0-.22-.08-.51-.2-.71a1.16 1.16 0 0 0-.63-.54l-.31.95s.04.02.08.08c.04.07.06.15.06.22h1zm-.77-1.23L26.31-.35l-.44.9L32.1 3.6l.44-.9zM26.3-.36c-.44-.2-.93-.2-1.4.1l.54.84c.15-.1.28-.1.46-.03l.4-.91zm-1.37.08c-.37.21-.71.67-.71 1.15h1c0-.06.08-.2.2-.27l-.5-.88zM24.2.87v6.07h1V.87h-1zm.5 6.07h-.5v.07h1v-.07h-.5zm-.5.07v8.16h1V7h-1zm.5 7.66H13.3v1h11.4v-1zm-11.4 0A13.53 13.53 0 0 0-.5 28.08h1c0-6.9 5.7-12.48 12.8-12.41l.01-1zM-.5 28.08V46.2h1V28.1h-1zm0 18.11c0 .76.68 1.41 1.43 1.41v-1c-.22 0-.43-.23-.43-.41h-1zM.93 47.6h30.93v-1H.93v1zm30.93 0h24.75v-1H31.86v1zm24.75 0c.75 0 1.43-.65 1.43-1.41h-1c0 .18-.21.41-.43.41v1zm1.43-1.41V28.05h-1v18.14h1zm0-18.14c0-7.47-6.18-13.48-13.8-13.48v1c7.1 0 12.8 5.58 12.8 12.48h1zM26.4 2.8l3.14 1.58.45-.89-3.14-1.58-.45.89zm3.14.7L26.4 5.08l.45.89 3.14-1.59-.45-.89zm-2.42 2.02V2.35h-1v3.17h1zm10.14 10.93A13.46 13.46 0 0 0 30.5 27.1l1 .07c.3-4.17 2.72-7.8 6.25-9.85l-.5-.87zM31 26.64h-4.4v1H31v-1zm-3.89.5V16.89h-1v10.25h1zm-.5-9.75H37.5v-1H26.6v1zm-13.3 0h11.43v-1H13.31v1zm10.93-.5v10.25h1V16.89h-1zm.5 9.75H1.9v1h22.84v-1zm-22.34.54c.43-5.47 5.14-9.8 10.9-9.8v-1c-6.26 0-11.43 4.72-11.9 10.72l1 .08zm-.53 2.28h22.87v-1H1.87v1zm22.37-.5v5.12h1v-5.12h-1zm0 5.12c0 .76.69 1.41 1.44 1.41v-1c-.22 0-.44-.22-.44-.4h-1zm1.44 1.41c.75 0 1.43-.65 1.43-1.4h-1c0 .18-.21.4-.43.4v1zm1.43-1.4v-5.13h-1v5.12h1zm-.5-4.63h4.32v-1h-4.32v1zm3.82-.5v16.29h1v-16.3h-1zm.5 15.79H1.87v1h29.06v-1zm-28.56.5v-16.3h-1v16.3h1zm53.3-.5H32.8v1h22.87v-1zm-22.37.5v-17.2h-1v17.2h1zm0-17.2c0-5.88 4.9-10.66 10.94-10.66v-1c-6.56 0-11.94 5.2-11.94 11.66h1zm10.94-10.66c6.02 0 10.93 4.8 10.93 10.66h1c0-6.43-5.38-11.66-11.93-11.66v1zm10.93 10.66v17.2h1v-17.2h-1z"/>
    <path id="path37_fill" d="M2.18 0C1 0 0 .98 0 2.12V14.8c0 1.15 1 2.13 2.18 2.13h16.07c1.17 0 2.17-.98 2.17-2.13V2.12c0-1.14-1-2.12-2.17-2.12H2.18zm16.38 2.12V14.8a.3.3 0 0 1-.31.3H2.18a.3.3 0 0 1-.31-.3V2.12c0-.16.13-.3.3-.3h16.08c.2 0 .3.14.3.3z"/>
    <path id="path38_stroke" d="M2.18-.5A2.69 2.69 0 0 0-.5 2.12h1C.5 1.27 1.27.5 2.18.5v-1zM-.5 2.12V14.8h1V2.12h-1zm0 12.68a2.69 2.69 0 0 0 2.68 2.63v-1A1.7 1.7 0 0 1 .5 14.8h-1zm2.68 2.63h16.07v-1H2.18v1zm16.07 0a2.69 2.69 0 0 0 2.67-2.63h-1c0 .86-.76 1.63-1.67 1.63v1zm2.67-2.63V2.12h-1V14.8h1zm0-12.68A2.69 2.69 0 0 0 18.25-.5v1c.9 0 1.67.77 1.67 1.62h1zM18.25-.5H2.18v1h16.07v-1zm-.2 2.62V14.8h1V2.12h-1zm0 12.68c0-.12.1-.2.2-.2v1a.8.8 0 0 0 .8-.8h-1zm.2-.2H2.18v1h16.07v-1zm-16.07 0a.2.2 0 0 1 .19.2h-1c0 .46.37.8.8.8v-1zm.19.2V2.12h-1V14.8h1zm0-12.68c0 .12-.1.2-.2.2v-1a.8.8 0 0 0-.8.8h1zm-.2.2h16.08v-1H2.18v1zm16.08 0c-.01 0-.07 0-.13-.07a.2.2 0 0 1-.06-.13h1a.8.8 0 0 0-.22-.55.8.8 0 0 0-.6-.25v1z"/>
    <path id="path39_fill" d="M.56 4.75c.14.07.25.07.38.07a.9.9 0 0 0 .87-.54s1.17-2.46 5.32-2.46c.48 0 .93-.44.93-.91 0-.47-.45-.91-.93-.91C1.81 0 .15 3.37.08 3.57c-.2.4 0 .95.48 1.18z"/>
    <path id="path40_stroke" d="M.56 4.75l-.22.45.22-.45zm1.25-.47l-.45-.21.45.21zm-1.73-.7l.45.22.01-.03.01-.03-.47-.17zM.34 5.2c.25.1.47.12.6.12v-1H.82L.78 4.3l-.44.9zm.6.12a1.4 1.4 0 0 0 1.32-.83l-.9-.42c-.09.18-.21.25-.42.25v1zm.87-1.04l.45.22.04-.06.15-.23c.17-.21.4-.47.77-.75a6.29 6.29 0 0 1 3.91-1.13v-1a7.3 7.3 0 0 0-4.52 1.33 5.17 5.17 0 0 0-1.25 1.42l.45.21zm5.32-1.96c.75 0 1.43-.65 1.43-1.41h-1c0 .18-.21.41-.43.41v1zM8.56.91C8.56.15 7.88-.5 7.13-.5v1c.22 0 .43.23.43.41h1zM7.13-.5C1.55-.5-.27 3.05-.39 3.41l.94.33c0 .02.1-.21.32-.52.23-.32.57-.71 1.08-1.12 1-.8 2.63-1.6 5.18-1.6v-1zm-7.5 3.85c-.36.7.03 1.52.71 1.85l.44-.9c-.28-.13-.3-.4-.25-.5l-.9-.45z"/>
    <path id="path41_fill" fill-rule="evenodd" d="M5.18 1H0V0h5.18v1z"/>
    <path id="path42_fill" fill-rule="evenodd" d="M38.7 1H0V0h38.7v1z"/>
    <path id="path43_fill" fill-rule="evenodd" d="M26.61 1H0V0h26.61v1z"/>
    <path id="path44_fill" d="M27.98 14.56c.14-1.25-.59-1.77-.96-1.86-3.17-1-3.2-1.51-3.24-2.38-.18-3.55-1.3-6.26-3.35-8.05A9.64 9.64 0 0 0 14 0a9.65 9.65 0 0 0-6.43 2.27c-2.04 1.8-3.17 4.5-3.35 8.05-.05.87-.07 1.39-3.21 2.37-.4.1-1.13.62-1 1.87.1.9.04 8.72-.01 12.74 0 .56.42 1.4 1.53 1.47h.07c.62.03 1.55.09 2.14.76.47.56.66 1.46.54 2.68-.2 2.08-.58 4.35-.9 6.17a28.89 28.89 0 0 0-.46 3.36C2.92 44.14 4.49 47 12 47h4c7.5 0 9.08-2.86 9.08-5.26 0-.57-.2-1.74-.47-3.36-.3-1.82-.7-4.1-.89-6.17-.12-1.22.06-2.12.54-2.68.59-.67 1.52-.73 2.14-.76h.07A1.54 1.54 0 0 0 28 27.29c-.05-4-.11-11.83-.02-12.73zM26.41 27.8h-.07c-.68.04-1.97.11-2.83 1.1-.66.77-.92 1.91-.78 3.41.2 2.12.6 4.4.9 6.24.25 1.46.46 2.71.46 3.2 0 3.54-4.4 4.28-8.1 4.28H12c-3.7 0-8.1-.74-8.1-4.28 0-.5.22-1.74.46-3.2.31-1.84.7-4.12.9-6.24.15-1.5-.11-2.64-.77-3.4-.87-1-2.15-1.07-2.84-1.1l-.06-.01c-.5-.03-.6-.33-.6-.49 0-.47.13-11.66 0-12.84-.07-.69.24-.82.28-.83 3.25-1.01 3.85-1.73 3.93-3.26.17-3.27 1.18-5.75 3.02-7.36A8.78 8.78 0 0 1 13.99 1h.02a8.52 8.52 0 0 1 5.77 2c1.83 1.61 2.85 4.1 3.01 7.36.08 1.53.69 2.25 3.94 3.26.04.01.34.14.27.83-.13 1.17 0 12.37 0 12.82 0 .18-.09.48-.59.5z"/>
    <path id="path45_fill" d="M.25 0A.25.25 0 0 0 0 .25V1.7c0 .14.11.25.25.25.13 0 .24-.11.24-.25V.25A.25.25 0 0 0 .25 0z"/>
    <path id="path46_fill" d="M.25 0C.1 0 0 .1 0 .24v1.47c0 .14.11.25.25.25.13 0 .24-.11.24-.25V.24A.25.25 0 0 0 .25 0z"/>
    <path id="path47_fill" d="M.25 0C.1 0 0 .1 0 .24v1.47c0 .14.11.25.25.25.13 0 .24-.11.24-.25V.24A.25.25 0 0 0 .25 0z"/>
    <path id="path48_fill" d="M.25 0A.25.25 0 0 0 0 .25V1.7c0 .14.11.25.25.25.13 0 .24-.11.24-.25V.25A.25.25 0 0 0 .25 0z"/>
    <path id="path49_fill" d="M.25 0C.1 0 0 .1 0 .24v1.47c0 .14.11.25.25.25.13 0 .24-.11.24-.25V.24A.25.25 0 0 0 .25 0z"/>
    <path id="path50_fill" d="M.25 0C.1 0 0 .1 0 .24v1.47c0 .14.11.25.25.25.13 0 .24-.11.24-.25V.24A.25.25 0 0 0 .25 0z"/>
    <path id="path51_fill" d="M.25 0C.1 0 0 .1 0 .24v1.47c0 .14.11.25.25.25.13 0 .24-.11.24-.25V.24A.25.25 0 0 0 .25 0z"/>
    <path id="path52_fill" d="M.25 0A.25.25 0 0 0 0 .25V1.7c0 .14.11.25.25.25.13 0 .24-.11.24-.25V.25A.25.25 0 0 0 .25 0z"/>
    <path id="path53_fill" d="M.25 0C.1 0 0 .1 0 .24v1.47c0 .14.11.25.25.25.13 0 .24-.11.24-.25V.24A.25.25 0 0 0 .25 0z"/>
    <path id="path54_fill" d="M.25 0A.25.25 0 0 0 0 .25V1.7c0 .14.11.25.25.25.13 0 .24-.11.24-.25V.25A.25.25 0 0 0 .25 0z"/>
    <path id="path55_fill" d="M11.94 3.8c0-2.1-2.68-3.8-5.97-3.8C2.67 0 0 1.7 0 3.8v33.64l.01.07c.16 2 2.77 3.6 5.96 3.6 3.3 0 5.97-1.7 5.97-3.79a.23.23 0 0 0-.04-.12V3.92a.24.24 0 0 0 .04-.13zM5.97 40.62c-3.02 0-5.48-1.48-5.48-3.3V3.78C.5 1.97 2.95.5 5.97.5c2.9 0 5.28 1.37 5.46 3.1a.25.25 0 0 0-.02.1v33.63c0 .04 0 .08.03.11-.1 1.77-2.51 3.2-5.47 3.2z"/>
    <path id="path56_fill" d="M.65.04C.1.4 0 .77 0 1.02c0 .13.11.24.25.24.13 0 .24-.1.24-.24C.5.78.73.58.92.45A.24.24 0 0 0 1 .1.25.25 0 0 0 .65.04z"/>
    <path id="path57_fill" d="M1.17 0C.81.06.47.14.17.24A.24.24 0 1 0 .32.7C.6.61.92.54 1.25.5a.25.25 0 0 0 .2-.28.25.25 0 0 0-.28-.2z"/>
    <path id="path58_fill" d="M.39.04a.25.25 0 0 0-.35.07.24.24 0 0 0 .07.34c.2.13.43.33.43.57 0 .13.1.24.24.24.14 0 .25-.1.25-.24C1.03.77.92.4.4.04z"/>
    <path id="path59_fill" d="M1.18.01a10.02 10.02 0 0 0-.95 0A.24.24 0 0 0 .25.5a9.66 9.66 0 0 1 .9 0h.02a.25.25 0 0 0 0-.49z"/>
    <path id="path60_fill" d="M.2.49a6.43 6.43 0 0 1 1 .22c.11 0 .21-.06.24-.17a.24.24 0 0 0-.16-.3C.98.14.64.06.28 0A.25.25 0 0 0 0 .2c-.02.15.07.27.2.3z"/>
    <path id="path61_fill" d="M.65.04C.1.4 0 .77 0 1.02c0 .13.11.24.25.24.13 0 .24-.1.24-.24C.5.78.73.58.92.45A.24.24 0 0 0 1 .1.25.25 0 0 0 .65.04z"/>
    <path id="path62_fill" d="M1.17 0C.81.06.47.14.17.24A.24.24 0 1 0 .32.7C.6.61.92.54 1.25.5a.24.24 0 1 0-.08-.5z"/>
    <path id="path63_fill" d="M.2.49a6.5 6.5 0 0 1 1 .22c.11 0 .21-.06.24-.17a.24.24 0 0 0-.16-.3 7 7 0 0 0-1-.24.24.24 0 1 0-.08.48z"/>
    <path id="path64_fill" d="M.39.04a.25.25 0 0 0-.35.07.24.24 0 0 0 .07.34c.2.13.43.33.43.57 0 .13.1.24.24.24.14 0 .25-.1.25-.24C1.03.77.92.4.4.04z"/>
    <path id="path65_fill" d="M1.18.01a10.02 10.02 0 0 0-.95 0A.24.24 0 0 0 .25.5a9.66 9.66 0 0 1 .9 0h.02a.25.25 0 0 0 0-.49z"/>
    <path id="path66_fill" d="M.78 0C.65 0 .54.1.54.25.54.48.3.69.1.82a.24.24 0 1 0 .14.45c.04 0 .1-.02.14-.05.53-.35.64-.73.64-.97A.25.25 0 0 0 .78 0z"/>
    <path id="path67_fill" d="M1.13.01a7.3 7.3 0 0 1-.92.22.24.24 0 1 0 .08.47c.36-.06.7-.14 1-.23.12-.04.2-.18.15-.31a.25.25 0 0 0-.3-.16z"/>
    <path id="path68_fill" d="M1.15 0L.71.01H.25C.1-.03 0 .1 0 .22 0 .37.1.48.23.5h.95c.13-.02.24-.13.23-.27 0-.13-.1-.25-.26-.23z"/>
    <path id="path69_fill" d="M.5.25A.25.25 0 0 0 .24 0C.1 0 0 .1 0 .25c0 .25.11.62.65.97.04.03.09.04.13.04.08 0 .16-.03.2-.1A.24.24 0 0 0 .93.82C.72.69.5.48.5.25z"/>
    <path id="path70_fill" d="M1.25.23A6.45 6.45 0 0 1 .32 0a.25.25 0 0 0-.3.16c-.05.13.02.27.15.3A6.99 6.99 0 0 0 1.21.7c.12 0 .22-.08.24-.2a.24.24 0 0 0-.2-.28z"/>
    <path id="path71_fill" d="M1.15 0L.71.01H.25C.1-.03 0 .1 0 .22 0 .37.1.48.23.5h.95c.13-.02.24-.13.23-.27 0-.13-.1-.25-.26-.23z"/>
    <path id="path72_fill" d="M.78 0C.65 0 .54.1.54.24.54.48.3.7.1.82a.24.24 0 0 0-.07.34c.05.07.13.1.2.1.05 0 .1-.01.15-.04.53-.35.64-.73.64-.98A.25.25 0 0 0 .78 0z"/>
    <path id="path73_fill" d="M1.13.01a7.3 7.3 0 0 1-.92.22.24.24 0 0 0 .04.47h.04c.36-.06.7-.14 1-.23.12-.04.2-.18.15-.31a.25.25 0 0 0-.3-.16z"/>
    <path id="path74_fill" d="M1.25.23A6.45 6.45 0 0 1 .32 0a.25.25 0 0 0-.3.16c-.05.13.02.27.15.3A6.99 6.99 0 0 0 1.21.7c.12 0 .22-.08.24-.2a.24.24 0 0 0-.2-.28z"/>
    <path id="path75_fill" d="M.5.24A.25.25 0 0 0 .24 0C.1 0 0 .1 0 .24c0 .25.11.63.65.98.04.03.09.04.13.04.08 0 .16-.03.2-.1A.24.24 0 0 0 .93.82C.72.69.5.48.5.24z"/>
    <path id="path76_fill" d="M1.2 8.41c0 3.13 1.59 4.8 4.52 4.8 2.96 0 4.58-1.7 4.58-4.85V1.84c0-.38-.15-.56-.49-.56h-.22c-.36 0-.5.18-.5.56V8.3c0 2.56-1.08 3.82-3.33 3.82-2.21 0-3.33-1.3-3.33-3.8V1.84c0-.36-.18-.56-.54-.56h-.16c-.34 0-.52.2-.52.56v6.57zm10.85 3.06c0 .65 1.25 1.75 3.53 1.75 2.09 0 3.39-1.03 3.39-2.61 0-1.77-1.77-2.15-3.15-2.45-1.59-.34-2.4-.6-2.4-1.51 0-.85.76-1.44 2.16-1.44a2.9 2.9 0 0 1 2.52 1.26c.04.05.65-.17.65-.62 0-.64-1.08-1.63-3.17-1.63-1.98 0-3.27 1.06-3.27 2.59 0 1.73 1.67 2.1 3 2.4 1.62.33 2.52.55 2.52 1.58 0 .86-.79 1.44-2.21 1.44s-2.36-.6-2.94-1.39c-.03-.04-.63.14-.63.63zm8.25-2.72a4.25 4.25 0 0 0 4.43 4.47c2.32 0 3.62-1.32 3.62-1.91 0-.56-.65-.72-.69-.67-.5.81-1.26 1.53-2.93 1.53a3.16 3.16 0 0 1-3.26-3.13h6.66c.36 0 .49-.07.49-.4v-.1c0-2.61-1.59-4.32-4-4.32-2.48 0-4.32 1.92-4.32 4.53zm1.2-.72c.26-1.64 1.5-2.79 3.12-2.79 1.6 0 2.65 1.1 2.75 2.8h-5.86zm13.17 3.55a3.58 3.58 0 0 0 3.11 1.64c2.38 0 4.12-1.82 4.12-4.52 0-2.72-1.78-4.48-4.05-4.48-1.42 0-2.43.59-3.2 1.65V5.5c0-.93-.36-1.13-.76-1.13-.21 0-.4.09-.4.13V16c0 .43.22.56.53.56h.13c.3 0 .52-.13.52-.56v-4.41zm-.02-2.29V7.28a3.2 3.2 0 0 1 3.08-2.04c1.73 0 2.99 1.46 2.99 3.48 0 2.07-1.21 3.47-3.03 3.47-1.62 0-3.04-1.26-3.04-2.9zm9.1 3.22c0 .44.21.56.52.56h.12c.3 0 .53-.12.53-.56V9.15c0-2.2.59-3.8 2.12-3.8.49 0 .8.14 1.04.36.04.04.33-.18.33-.61 0-.56-.45-.88-1.24-.88-1.16 0-1.91.6-2.27 1.78v-.5c0-.94-.36-1.14-.76-1.14-.21 0-.4.09-.4.13v8.02zm5.41-3.81a4.33 4.33 0 0 0 4.43 4.52A4.3 4.3 0 0 0 58 8.73a4.32 4.32 0 0 0-4.4-4.51 4.3 4.3 0 0 0-4.44 4.48zm1.2 0c0-2 1.38-3.46 3.23-3.46 1.86 0 3.22 1.5 3.22 3.5s-1.38 3.45-3.22 3.45c-1.85 0-3.24-1.5-3.24-3.5zm8.91.03c0 2.72 1.78 4.49 4.05 4.49 1.42 0 2.43-.6 3.2-1.64v.93c0 .44.2.56.5.56h.13c.31 0 .53-.12.53-.56V1.88c0-.94-.38-1.14-.78-1.14-.21 0-.4.1-.4.13v4.86a3.6 3.6 0 0 0-3.1-1.51c-2.38 0-4.13 1.81-4.13 4.51zm1.19-.01c0-2.07 1.2-3.48 3.02-3.48 1.51 0 2.5.78 3.04 2.02v2.18c-.07 1.58-1.5 2.75-3.07 2.75-1.73 0-3-1.46-3-3.47zm9.56.72c0 2.26 1.14 3.78 3.4 3.78a3.4 3.4 0 0 0 2.92-1.55v.27c0 .93.36 1.13.76 1.13.21 0 .4-.09.4-.12V4.92c0-.43-.22-.56-.53-.56h-.13c-.3 0-.52.13-.52.56v5.38a3 3 0 0 1-2.73 1.82c-1.53 0-2.4-1.03-2.4-2.76V4.92c0-.43-.21-.56-.52-.56h-.13c-.3 0-.52.13-.52.56v4.52zm9.3-.74a4.34 4.34 0 0 0 4.42 4.52c2.5 0 3.69-1.6 3.69-2.38 0-.52-.74-.63-.78-.56a2.89 2.89 0 0 1-2.91 1.9c-1.86 0-3.22-1.48-3.22-3.48s1.38-3.44 3.22-3.44c1.64 0 2.46.83 2.91 1.89.04.07.78-.04.78-.56 0-.77-1.2-2.37-3.7-2.37a4.32 4.32 0 0 0-4.4 4.48zm10.44 1.78c0 1.78.72 2.74 2.4 2.74 1.13 0 1.76-.58 1.76-1.07 0-.45-.36-.6-.4-.57-.3.38-.74.63-1.33.63-.95 0-1.28-.6-1.28-1.86V5.48h2.29c.43 0 .56-.17.56-.47V4.9c0-.3-.13-.47-.56-.47h-2.3v-1.5c0-.42-.2-.55-.5-.55h-.13c-.3 0-.52.13-.52.56v1.5h-.8c-.42 0-.55.15-.55.46V5c0 .31.13.48.56.48h.79v5zm8.2.32c0 1.44 1.08 2.4 2.95 2.4a3.8 3.8 0 0 0 3.2-1.59v.33c0 .93.35 1.13.75 1.13.21 0 .4-.09.4-.12v-5.4c0-2.07-1.3-3.33-3.48-3.33-2.27 0-3.5 1.36-3.5 1.98 0 .63.67.7.67.68a2.94 2.94 0 0 1 2.74-1.58c1.55 0 2.4.8 2.4 2.28v.3h-.17c-3.96.1-5.96.93-5.96 2.92zm1.19 0c0-1.35 1.51-1.87 4.44-1.98l.5-.01v.79c0 1.53-1.3 2.63-3.07 2.63-1.17 0-1.87-.56-1.87-1.43zm8.44 1.71c0 .44.22.56.52.56h.13c.3 0 .52-.12.52-.56V7.13a3.03 3.03 0 0 1 2.82-1.82c1.46 0 2.3 1.05 2.3 2.76v4.44c0 .44.23.56.53.56h.13c.3 0 .52-.12.52-.56V8c0-2.27-1.14-3.78-3.4-3.78-1.33 0-2.33.64-2.92 1.56V5.5c0-.93-.36-1.13-.75-1.13-.22 0-.4.09-.4.13v8.02zm9.23-3.78c0 2.72 1.78 4.49 4.05 4.49 1.42 0 2.43-.6 3.2-1.64v.93c0 .44.2.56.5.56h.14c.3 0 .52-.12.52-.56V1.88c0-.94-.38-1.14-.78-1.14-.21 0-.4.1-.4.13v4.86a3.6 3.6 0 0 0-3.1-1.51c-2.38 0-4.13 1.81-4.13 4.51zm1.19-.01c0-2.07 1.2-3.48 3.02-3.48 1.52 0 2.5.78 3.05 2.02v2.18c-.08 1.58-1.52 2.75-3.08 2.75-1.73 0-3-1.46-3-3.47zm12.7 3.8c0 .43.21.55.52.55h.12c.3 0 .52-.12.52-.56V8.64l4 3.98c.34.34.54.45.76.45.48 0 .68-.56.63-.61l-4.1-4 3.54-3.52c.05-.06-.11-.58-.58-.58-.23 0-.47.13-.79.47l-3.46 3.53V1.88c0-.94-.37-1.14-.77-1.14-.22 0-.4.1-.4.13V12.5zm8.64-10.23c.52 0 .8-.25.8-.77 0-.53-.26-.78-.76-.78-.52 0-.8.25-.8.78 0 .5.28.77.76.77zm-.57 10.22c0 .44.21.56.52.56h.12c.3 0 .53-.12.53-.56v-7.6c0-.42-.22-.55-.53-.55h-.12c-.3 0-.53.13-.53.56v7.6zm4.2-2.03c0 1.78.73 2.74 2.4 2.74 1.13 0 1.76-.58 1.76-1.07 0-.45-.36-.6-.4-.57-.3.38-.73.63-1.32.63-.96 0-1.28-.6-1.28-1.86V5.48h2.28c.44 0 .56-.17.56-.47V4.9c0-.3-.12-.47-.56-.47h-2.28v-1.5c0-.42-.2-.55-.5-.55h-.13c-.3 0-.52.13-.52.56v1.5h-.8c-.43 0-.55.15-.55.46V5c0 .31.12.48.55.48h.8v5z"/>
    <path id="path77_fill" d="M46.8 7.76L39.3.2a.65.65 0 0 0-.93 0 .66.66 0 0 0 0 .93l.76.76-5.17 5.2L31.9 5a.72.72 0 0 0-1.02 0 .73.73 0 0 0 0 1.02l.67.68-15.52 15.64a1.62 1.62 0 0 0-.31 1.85c.33.68.92 1.65 1.93 2.83l-1.07 1.08c-.1.1-.1.25 0 .34l.4.4L0 45.92l2.7.07 15.65-15.77.4.4c.09.1.24.1.33 0l1.07-1.08a14.09 14.09 0 0 0 2.82 1.95c.61.3 1.35.18 1.84-.31l15.52-15.63.68.67a.7.7 0 0 0 1.02 0 .73.73 0 0 0 0-1.02l-2.06-2.07 5.16-5.2.76.75c.25.26.66.26.92 0a.66.66 0 0 0 0-.93zm-14.65 3.12L19.91 23.24a.57.57 0 0 1-.81 0 .58.58 0 0 1 0-.82l12.24-12.36a.57.57 0 0 1 .81 0c.22.23.23.6 0 .82z"/>
    <path id="path78_stroke_2x" d="M46.8 7.76l.72-.7-.71.7zM39.3.2l-.71.7.7-.7zm-.93 0l-.7-.7.7.7zm0 .93l-.7.7.7-.7zm.76.76l.7.7.7-.7-.7-.7-.7.7zm-5.17 5.2l-.7.7.7.72.71-.72-.7-.7zM31.9 5l.7-.7-.7.7zm-1.02 1.02l.7-.7-.7.7zm.67.68l.71.7.7-.7-.7-.7-.7.7zM16.03 22.35l.7.7-.7-.7zm-.31 1.85l-.9.44.9-.44zm1.93 2.83l.71.7.65-.64-.6-.7-.76.64zm-1.07 1.08l-.7-.7.7.7zm0 .34l.71-.7-.7.7zm.4.4l.7.7.7-.7-.7-.71-.7.7zM0 45.92l-.71-.7-1.64 1.65 2.33.05.02-1zm2.7.07l-.03 1 .43.01.3-.3-.7-.71zm15.65-15.77l.71-.7-.7-.71-.72.71.71.7zm.4.4l-.71.7.7-.7zm.33 0l.71.7-.7-.7zm1.07-1.08l.66-.76-.71-.6-.66.66.71.7zm2.82 1.95l-.45.9.45-.9zm1.84-.31l.7.7-.7-.7zm15.52-15.63l.71-.7-.7-.72-.72.71.71.7zm1.7.67l-.71-.7.7.7zm0-1.02l-.71.7.7-.7zm-2.06-2.07l-.7-.7-.7.7.7.7.7-.7zm5.16-5.2l.71-.7-.7-.72-.72.71.71.7zm.76.75l.7-.7-.7.7zm.92 0l.7.71h.01l-.71-.7zm-14.66 2.2l-.7-.71.7.7zM19.91 23.23l-.7-.7.7.7zm-.81-.82l-.71-.7.7.7zm12.24-12.36l.7.7-.7-.7zm.81 0l-.7.7.7-.7zm15.37-3L40-.51 38.58.89l7.52 7.58 1.42-1.41zM40-.51a1.65 1.65 0 0 0-2.34 0l1.41 1.4a.35.35 0 0 1-.5 0L40-.5zm-2.34 0a1.65 1.65 0 0 0 0 2.34L39.07.42c.13.13.13.34 0 .48L37.65-.51zm0 2.34l.75.75 1.42-1.4-.76-.76-1.41 1.4zm.75-.66l-5.17 5.2 1.42 1.41 5.17-5.2-1.42-1.4zm-3.75 5.2L32.61 4.3l-1.42 1.41 2.05 2.07 1.42-1.4zM32.61 4.3a1.72 1.72 0 0 0-2.44 0l1.42 1.41a.28.28 0 0 1-.4 0l1.42-1.4zm-2.44 0a1.73 1.73 0 0 0 0 2.44l1.42-1.41c.1.1.1.27 0 .38l-1.42-1.4zm0 2.44l.67.68L32.26 6l-.67-.68-1.42 1.4zm.67-.73L15.32 21.64l1.41 1.41L32.27 7.42 30.84 6zM15.32 21.64c-.78.79-1 2-.5 3l1.8-.89a.62.62 0 0 1 .11-.7l-1.41-1.4zm-.5 3c.36.72 1.01 1.8 2.07 3.04l1.52-1.3a12.76 12.76 0 0 1-1.8-2.63l-1.79.9zm2.12 1.69l-1.07 1.08 1.42 1.4 1.07-1.07-1.42-1.41zm-1.07 1.08a1.24 1.24 0 0 0 0 1.75l1.42-1.41c.3.3.3.77 0 1.07l-1.42-1.41zm0 1.75l.4.39 1.41-1.41-.39-.4-1.42 1.42zm.4-1.02L-.72 45.23l1.42 1.4 16.97-17.08-1.42-1.41zm-16.3 18.8l2.7.06.05-2-2.7-.07-.04 2zm3.44-.24l15.65-15.76-1.42-1.41L2 45.3l1.42 1.4zm14.23-15.76l.4.4 1.41-1.42-.39-.39-1.42 1.41zm.4.4c.48.48 1.27.48 1.75 0l-1.42-1.42c.3-.3.79-.3 1.08 0l-1.41 1.41zm1.75 0l1.07-1.08-1.42-1.41-1.07 1.07 1.42 1.41zm-.29-1.03a15.55 15.55 0 0 0 3.02 2.08l.9-1.78c-.64-.32-1.5-.85-2.61-1.82l-1.31 1.52zm3.02 2.08c1.01.51 2.22.29 3-.5l-1.42-1.4a.59.59 0 0 1-.68.12l-.9 1.78zm3-.5l15.52-15.63-1.42-1.4L24.1 30.47l1.42 1.41zm14.1-15.63l.68.68 1.42-1.41-.68-.68-1.42 1.41zm.68.68c.67.68 1.77.68 2.44 0l-1.42-1.41a.28.28 0 0 1 .4 0l-1.42 1.4zm2.44 0c.67-.67.67-1.76 0-2.44l-1.42 1.41a.27.27 0 0 1 0-.38l1.42 1.4zm0-2.44l-2.06-2.07-1.42 1.41 2.06 2.07 1.42-1.4zm-2.06-.66l5.16-5.2-1.42-1.4-5.16 5.2 1.42 1.4zm3.74-5.2l.76.76 1.42-1.41-.76-.76-1.42 1.41zm.76.76c.64.65 1.7.65 2.34 0L46.1 7.99a.35.35 0 0 1 .5 0l-1.42 1.4zm2.34 0c.64-.65.64-1.7 0-2.34l-1.42 1.4a.34.34 0 0 1 0-.47l1.42 1.4zm-16.08.78L19.2 22.54l1.42 1.4L32.86 11.6l-1.42-1.41zM19.2 22.54a.43.43 0 0 1 .6 0l-1.4 1.4c.6.62 1.61.62 2.22 0l-1.42-1.4zm.6 0a.4.4 0 0 1 .01.58l-1.42-1.4a1.59 1.59 0 0 0 0 2.23l1.42-1.42zm.01.59l12.24-12.36-1.42-1.41-12.24 12.36 1.42 1.4zm12.24-12.36a.43.43 0 0 1-.6 0l1.4-1.41a1.57 1.57 0 0 0-2.22 0l1.42 1.4zm-.6 0a.42.42 0 0 1 0-.6l1.41 1.42c.61-.62.61-1.62 0-2.23l-1.42 1.4z"/>
    <path id="path79_fill" d="M.29 12.71c-.04.1.32.36.68.36.27 0 .54-.12.7-.56l1.26-3.3h5l1.29 3.3c.16.44.45.56.73.56.38 0 .74-.27.7-.36L6.4 1.7c-.13-.31-.34-.45-.92-.45-.57 0-.79.14-.92.45L.3 12.7zm3.04-4.59l2.1-5.47 2.11 5.47H3.33zm11.9 4.4c0 .43.22.55.53.55h.12c.3 0 .52-.12.52-.56V7.13a3.03 3.03 0 0 1 2.83-1.82c1.46 0 2.3 1.05 2.3 2.76v4.44c0 .44.22.56.53.56h.12c.3 0 .52-.12.52-.56V8c0-2.27-1.13-3.78-3.4-3.78-1.33 0-2.32.64-2.91 1.56V5.5c0-.93-.36-1.13-.76-1.13-.22 0-.4.09-.4.13v8.02zm9.74-3.08c0 2.26 1.13 3.78 3.4 3.78a3.4 3.4 0 0 0 2.92-1.55v.27c0 .93.36 1.13.75 1.13.22 0 .4-.09.4-.12V4.92c0-.43-.22-.56-.52-.56h-.13c-.3 0-.52.13-.52.56v5.38a3 3 0 0 1-2.74 1.82c-1.53 0-2.39-1.03-2.39-2.76V4.92c0-.43-.22-.56-.52-.56h-.13c-.3 0-.52.13-.52.56v4.52zm9.88 3.07c0 .44.22.56.52.56h.13c.3 0 .52-.12.52-.56V9.15c0-2.2.6-3.8 2.12-3.8.49 0 .8.14 1.05.36.03.04.32-.18.32-.61 0-.56-.45-.88-1.24-.88-1.15 0-1.9.6-2.27 1.78v-.5c0-.94-.36-1.14-.75-1.14-.22 0-.4.09-.4.13v8.02zm5.43-1.04c0 .65 1.25 1.75 3.53 1.75 2.1 0 3.39-1.03 3.39-2.61 0-1.77-1.77-2.15-3.15-2.45-1.59-.34-2.4-.6-2.4-1.51 0-.85.76-1.44 2.16-1.44a2.9 2.9 0 0 1 2.52 1.26c.04.05.65-.17.65-.62 0-.64-1.08-1.63-3.17-1.63-1.98 0-3.27 1.06-3.27 2.59 0 1.73 1.67 2.1 3 2.4 1.62.33 2.52.55 2.52 1.58 0 .86-.79 1.44-2.21 1.44s-2.36-.6-2.94-1.39c-.03-.04-.63.14-.63.63zm8.25-2.72a4.25 4.25 0 0 0 4.43 4.47c2.32 0 3.62-1.32 3.62-1.91 0-.56-.65-.72-.69-.67-.5.81-1.26 1.53-2.93 1.53a3.16 3.16 0 0 1-3.26-3.13h6.66c.36 0 .49-.07.49-.4v-.1c0-2.61-1.59-4.32-4-4.32-2.48 0-4.32 1.92-4.32 4.53zm1.2-.72c.26-1.64 1.5-2.79 3.12-2.79 1.6 0 2.65 1.1 2.75 2.8h-5.86zm13.3 4.63c.07.3.2.45.86.45.6 0 .68-.15.79-.45l1.94-5.87 1.9 5.87c.1.3.2.45.79.45.66 0 .79-.15.86-.45l2.05-7.96c.02-.05-.29-.34-.65-.34-.27 0-.59.2-.7.83l-1.55 6.73-1.81-5.78c-.11-.34-.3-.48-.89-.48-.6 0-.77.14-.88.48l-1.83 5.78-1.57-6.73c-.13-.63-.43-.83-.7-.83-.38 0-.7.27-.69.34l2.07 7.96zm11.5-10.37c.51 0 .78-.25.78-.77 0-.53-.25-.78-.75-.78-.52 0-.8.25-.8.78 0 .5.28.77.76.77zm-.58 10.22c0 .44.21.56.52.56h.12c.31 0 .53-.12.53-.56v-7.6c0-.42-.22-.55-.53-.55h-.12c-.3 0-.52.13-.52.56v7.6zm3.76 0c0 .44.21.56.52.56h.13c.3 0 .52-.12.52-.56V1.88c0-.94-.38-1.14-.78-1.14-.21 0-.4.1-.4.13V12.5zm3.76 0c0 .44.22.56.52.56h.13c.3 0 .52-.12.52-.56V1.88c0-.94-.38-1.14-.77-1.14-.22 0-.4.1-.4.13V12.5zm6.15-3.81a4.34 4.34 0 0 0 4.41 4.52c2.5 0 3.7-1.6 3.7-2.38 0-.52-.74-.63-.78-.56a2.9 2.9 0 0 1-2.92 1.9c-1.85 0-3.22-1.48-3.22-3.48s1.39-3.44 3.22-3.44c1.64 0 2.47.83 2.92 1.89.04.07.77-.04.77-.56 0-.77-1.18-2.37-3.69-2.37a4.32 4.32 0 0 0-4.4 4.48zm9.32 0a4.33 4.33 0 0 0 4.43 4.52 4.3 4.3 0 0 0 4.4-4.49 4.32 4.32 0 0 0-4.4-4.51 4.3 4.3 0 0 0-4.43 4.48zm1.19 0c0-2 1.38-3.46 3.24-3.46 1.85 0 3.22 1.5 3.22 3.5s-1.39 3.45-3.22 3.45c-1.86 0-3.24-1.5-3.24-3.5zm9.5 3.81c0 .44.21.56.52.56h.12c.3 0 .52-.12.52-.56V7.04a2.95 2.95 0 0 1 2.56-1.73c1.48 0 2.21.89 2.21 2.69v4.51c0 .44.22.56.53.56h.12c.3 0 .52-.12.52-.56V7.04a2.95 2.95 0 0 1 2.56-1.73c1.48 0 2.21.89 2.21 2.6v4.6c0 .44.22.56.53.56h.12c.3 0 .52-.12.52-.56V7.83c0-2.37-1.15-3.61-3.3-3.61-1.43 0-2.47.8-3.05 1.83-.47-1.2-1.5-1.83-2.84-1.83-1.16 0-2.11.63-2.7 1.49v-.22c0-.93-.36-1.13-.76-1.13-.22 0-.4.09-.4.13v8.02zm14.82-3.76a4.25 4.25 0 0 0 4.42 4.47c2.33 0 3.62-1.32 3.62-1.91 0-.56-.65-.72-.68-.67-.5.81-1.26 1.53-2.94 1.53a3.16 3.16 0 0 1-3.25-3.13h6.66c.36 0 .48-.07.48-.4v-.1c0-2.61-1.58-4.32-4-4.32-2.48 0-4.31 1.92-4.31 4.53zm1.2-.72a3.13 3.13 0 0 1 3.12-2.79c1.6 0 2.64 1.1 2.75 2.8h-5.87zm12.53 2.45c0 1.78.72 2.74 2.4 2.74 1.13 0 1.76-.58 1.76-1.07 0-.45-.36-.6-.4-.57-.3.38-.73.63-1.33.63-.95 0-1.28-.6-1.28-1.86V5.48h2.3c.42 0 .55-.17.55-.47V4.9c0-.3-.13-.47-.56-.47h-2.28v-1.5c0-.42-.2-.55-.5-.55h-.13c-.31 0-.53.13-.53.56v1.5h-.79c-.43 0-.56.15-.56.46V5c0 .31.13.48.56.48h.8v5zm5.02-1.78a4.33 4.33 0 0 0 4.43 4.52 4.3 4.3 0 0 0 4.41-4.49 4.32 4.32 0 0 0-4.41-4.51 4.3 4.3 0 0 0-4.43 4.48zm1.19 0c0-2 1.39-3.46 3.24-3.46 1.85 0 3.22 1.5 3.22 3.5s-1.38 3.45-3.22 3.45c-1.85 0-3.24-1.5-3.24-3.5zM3.4 28.12c.16.36.33.45.72.45l-1.44 3.67c-.02.05.29.3.61.3.31 0 .6-.14.83-.77l4.14-11.1c.02-.06-.27-.31-.6-.31-.37 0-.64.22-.86.85l-2.35 6.67-2.72-6.71c-.25-.63-.47-.81-.88-.81-.42 0-.6.27-.58.34l3.13 7.42zm5.54-3.42a4.33 4.33 0 0 0 4.43 4.52 4.3 4.3 0 0 0 4.41-4.49 4.32 4.32 0 0 0-4.4-4.51 4.3 4.3 0 0 0-4.44 4.48zm1.2 0c0-2 1.38-3.46 3.23-3.46 1.86 0 3.22 1.5 3.22 3.5s-1.38 3.45-3.22 3.45c-1.85 0-3.24-1.5-3.24-3.5zm9.42.74c0 2.26 1.13 3.78 3.4 3.78a3.4 3.4 0 0 0 2.91-1.55v.27c0 .93.36 1.13.76 1.13.22 0 .4-.09.4-.12v-8.03c0-.43-.22-.56-.53-.56h-.12c-.3 0-.52.13-.52.56v5.38a3 3 0 0 1-2.74 1.82c-1.53 0-2.4-1.03-2.4-2.76v-4.44c0-.43-.21-.56-.52-.56h-.12c-.3 0-.52.13-.52.56v4.52zm13.73 3.07c0 .44.21.56.52.56h.13c.3 0 .5-.12.5-.56v-7.03h1.7c.44 0 .57-.17.57-.47v-.11c0-.3-.13-.47-.56-.47h-1.73v-.74c0-1.42.42-2.05 1.39-2.05.57 0 1.11.27 1.37.52.03.04.34-.14.34-.55 0-.53-.56-1.01-1.71-1.01-1.66 0-2.52 1.08-2.52 3.04v.8h-1.26c-.43 0-.56.15-.56.46v.1c0 .31.13.48.56.48h1.26v7.03zm4.22-3.81a4.33 4.33 0 0 0 4.43 4.52 4.3 4.3 0 0 0 4.4-4.49 4.32 4.32 0 0 0-4.4-4.51 4.3 4.3 0 0 0-4.43 4.48zm1.19 0c0-2 1.38-3.46 3.24-3.46 1.85 0 3.22 1.5 3.22 3.5s-1.39 3.45-3.22 3.45c-1.86 0-3.24-1.5-3.24-3.5zm9.5 3.81c0 .44.2.56.51.56h.13c.3 0 .52-.12.52-.56v-3.36c0-2.2.6-3.8 2.13-3.8.48 0 .79.14 1.04.36.04.04.32-.18.32-.61 0-.56-.45-.88-1.24-.88-1.15 0-1.9.6-2.27 1.78v-.5c0-.94-.36-1.14-.75-1.14-.22 0-.4.09-.4.13v8.02zm8.6-1.7c0 1.43 1.07 2.39 2.95 2.39a3.8 3.8 0 0 0 3.2-1.59v.33c0 .93.34 1.13.74 1.13.21 0 .4-.09.4-.12v-5.4c0-2.07-1.3-3.33-3.48-3.33-2.27 0-3.5 1.36-3.5 1.98 0 .63.67.7.67.68a2.94 2.94 0 0 1 2.74-1.58c1.55 0 2.41.8 2.41 2.28v.3h-.18c-3.96.1-5.96.93-5.96 2.92zm1.18 0c0-1.36 1.51-1.88 4.45-1.99l.5-.01v.79c0 1.53-1.31 2.63-3.08 2.63-1.17 0-1.87-.56-1.87-1.43zm11.5 1.7c0 .44.22.56.52.56h.13c.3 0 .5-.12.5-.56v-.82c.49.8 1.59 1.53 3.13 1.53 2.38 0 4.13-1.82 4.13-4.52 0-2.72-1.79-4.48-4.05-4.48-1.43 0-2.42.59-3.2 1.62v-3.96c0-.94-.37-1.14-.76-1.14-.22 0-.4.1-.4.13V28.5zm1.15-3.22v-2.01a3.2 3.2 0 0 1 3.08-2.04c1.73 0 2.99 1.46 2.99 3.48 0 2.07-1.2 3.47-3.03 3.47-1.62 0-3.04-1.26-3.04-2.9zm9.19 3.22c0 .44.21.56.52.56h.13c.3 0 .52-.12.52-.56V17.88c0-.94-.38-1.14-.78-1.14-.21 0-.4.1-.4.13V28.5zm3.1-3.81a4.33 4.33 0 0 0 4.42 4.52 4.3 4.3 0 0 0 4.41-4.49 4.32 4.32 0 0 0-4.4-4.51 4.3 4.3 0 0 0-4.44 4.48zm1.18 0c0-2 1.39-3.46 3.24-3.46 1.86 0 3.22 1.5 3.22 3.5s-1.38 3.45-3.22 3.45c-1.85 0-3.24-1.5-3.24-3.5zm8.92 0a4.33 4.33 0 0 0 4.43 4.52 4.3 4.3 0 0 0 4.4-4.49 4.32 4.32 0 0 0-4.4-4.51 4.3 4.3 0 0 0-4.43 4.48zm1.19 0c0-2 1.38-3.46 3.24-3.46 1.85 0 3.22 1.5 3.22 3.5s-1.39 3.45-3.22 3.45c-1.86 0-3.24-1.5-3.24-3.5zm8.92.03c0 2.72 1.78 4.49 4.05 4.49 1.42 0 2.43-.6 3.2-1.64v.93c0 .44.2.56.5.56h.13c.3 0 .52-.12.52-.56V17.88c0-.94-.37-1.14-.77-1.14-.22 0-.4.1-.4.13v4.86c-.5-.8-1.6-1.51-3.11-1.51-2.38 0-4.12 1.81-4.12 4.51zm1.19-.01c0-2.07 1.2-3.48 3.02-3.48 1.51 0 2.5.78 3.04 2.02v2.18c-.07 1.58-1.51 2.75-3.08 2.75-1.72 0-2.98-1.46-2.98-3.47zm12.12.01c0 2.72 1.78 4.49 4.05 4.49 1.42 0 2.43-.6 3.2-1.64v.93c0 .44.2.56.5.56h.13c.3 0 .52-.12.52-.56V17.88c0-.94-.38-1.14-.77-1.14-.22 0-.4.1-.4.13v4.86c-.5-.8-1.6-1.51-3.11-1.51-2.38 0-4.13 1.81-4.13 4.51zm1.18-.01c0-2.07 1.2-3.48 3.03-3.48 1.5 0 2.5.78 3.04 2.02v2.18c-.07 1.58-1.51 2.75-3.08 2.75-1.73 0-2.99-1.46-2.99-3.47zm9.64 3.8c0 .43.21.55.52.55h.13c.3 0 .52-.12.52-.56v-3.36c0-2.2.6-3.8 2.12-3.8.49 0 .8.14 1.05.36.03.04.32-.18.32-.61 0-.56-.45-.88-1.24-.88-1.15 0-1.9.6-2.27 1.78v-.5c0-.94-.36-1.14-.75-1.14-.22 0-.4.09-.4.13v8.02zm5.45-1.72c0 1.44 1.08 2.4 2.95 2.4a3.8 3.8 0 0 0 3.2-1.59v.33c0 .93.35 1.13.75 1.13.21 0 .4-.09.4-.12v-5.4c0-2.07-1.3-3.33-3.48-3.33-2.27 0-3.5 1.36-3.5 1.98 0 .63.67.7.67.68a2.94 2.94 0 0 1 2.74-1.58c1.55 0 2.41.8 2.41 2.28v.3h-.18c-3.96.1-5.96.93-5.96 2.92zm1.2 0c0-1.35 1.5-1.87 4.44-1.98l.5-.01v.79c0 1.53-1.31 2.63-3.08 2.63-1.17 0-1.87-.56-1.87-1.43zm9.73 1.86c.07.3.2.45.86.45.6 0 .69-.15.8-.45l1.94-5.87 1.89 5.87c.1.3.2.45.79.45.67 0 .8-.15.86-.45l2.06-7.96c.01-.05-.3-.34-.65-.34-.27 0-.6.2-.7.83l-1.55 6.73-1.82-5.78c-.1-.34-.29-.48-.88-.48-.6 0-.78.14-.89.48l-1.83 5.78-1.57-6.73c-.12-.63-.43-.83-.7-.83-.38 0-.7.27-.68.34l2.07 7.96z"/>
    <path id="path80_fill" d="M48.69 0H29.84a8.3 8.3 0 0 0-8.31 8.34v7.38a2.88 2.88 0 0 0-2.32 2.23l-.38 2.76c-.1.8-.34 1.6-.7 2.33l-3.71 7.86a4.17 4.17 0 0 1-2.72 2.38 2.85 2.85 0 0 0-2.87-2.69H2.89A2.82 2.82 0 0 0 0 33.39V56.2A2.85 2.85 0 0 0 2.87 59H8.8a2.83 2.83 0 0 0 2.87-2.8v-.35l1.24.75A9.84 9.84 0 0 0 18 58.02h9.92a6.73 6.73 0 0 0 6.45-4.68l4.32-13.2a6.81 6.81 0 0 0-5.6-8.85 74.57 74.57 0 0 0-7.21-.6c-.07-1 .03-2 .29-2.98 1.14.57 2.4.86 3.67.87h7.82c1.47 3.57 4.36 5.64 6.62 6.8a2.6 2.6 0 0 0 3.69-1.68c.13-.5.11-1.03-.06-1.52a7.57 7.57 0 0 1-.3-3.58h1.08A8.3 8.3 0 0 0 57 20.26V8.36A8.37 8.37 0 0 0 51.87.64 8.29 8.29 0 0 0 48.7 0zM8.75 56.02H2.97V33.58h5.78v22.44zm23.98-21.75a3.78 3.78 0 0 1 3.3 3.3c.07.57.01 1.13-.16 1.67l-4.32 13.18a3.8 3.8 0 0 1-3.6 2.62h-9.92a6.88 6.88 0 0 1-3.57-1l-2.76-1.66V36.34h.12a7.11 7.11 0 0 0 5.3-4.18l3.66-7.84c.48-1.01.8-2.09.95-3.2l.34-2.44a2.96 2.96 0 0 1 1.92 1.28c.64 1.04.63 2.64 0 4.62-1 3.02-1.3 5.42-.92 7.12a2.52 2.52 0 0 0 2.46 1.97c2.4.07 4.81.27 7.2.6zm21.3-14.05a5.37 5.37 0 0 1-5.34 5.36h-2.27a1.48 1.48 0 0 0-1.43 1.1 11.14 11.14 0 0 0-.14 5.6 10.21 10.21 0 0 1-4.75-5.65 1.49 1.49 0 0 0-1.42-1.04h-8.84c-1 0-1.99-.28-2.84-.82.7-2.55.54-4.7-.49-6.36a5.73 5.73 0 0 0-2.03-1.96V8.36A5.37 5.37 0 0 1 29.82 3H48.7a5.33 5.33 0 0 1 5.34 5.36v11.86z"/>
    <path id="path81_stroke_2x" d="M29.84 0v-1 1zm-8.31 15.72l.17.99.83-.15v-.84h-1zm-2.27 2.02l-.96-.3.96.3zm-.05.21l-.99-.14 1 .14zm-.38 2.76l1 .14-1-.14zm-.7 2.33l.91.43-.9-.43zm-3.71 7.86l-.9-.43-.02.02v.02l.92.39zm-1.1 1.5l-.65-.75.66.75zm-1.62.88l-1 .06.06 1.24 1.2-.33-.26-.97zM8.83 30.6v1h.01l-.01-1zm-5.94 0l-.02 1h.02v-1zM.23 32.3l.92.4-.92-.4zM0 33.4l-1-.02v.02h1zm0 22.8h-1v.02l1-.02zM2.87 59v-1h-.01v1zm5.94 0l.01-1H8.8v1zm2.87-2.8l1 .02v-.02h-1zm0-.35l.51-.85-1.51-.91v1.76h1zm1.24.75l.52-.86-.52.86zM18 58.02v1-1zm9.92 0v-1 1zm6.45-4.68l-.95-.31.95.3zm4.32-13.2l.95.3-.95-.3zm-2.81-7.85l.53-.85-.53.85zm-2.79-1l-.12.99.12-1zm-7.21-.6l-1 .06.05.93.93.01.02-1zm.29-2.98l.44-.9-1.1-.54-.31 1.19.97.25zm3.67.87v1-1zm7.82 0l.92-.39-.26-.61h-.66v1zm6.62 6.8l-.46.89.46-.9zm3.63-3.2l-.95.31v.01l.95-.32zm-.3-3.58v-1h-.84l-.14.84.99.16zM57 20.26h-1 1zm0-11.9h-1 1zM8.75 56.02v1h1v-1h-1zm-5.78 0h-1v1h1v-1zm0-22.44v-1h-1v1h1zm5.78 0h1v-1h-1v1zm27.12 5.66l-.95-.31.95.3zm-4.32 13.18l-.95-.31.95.31zm-3.6 2.62v-1 1zm-9.92 0v-1 1zm-3.57-1l.52-.85-.52.86zm-2.76-1.66h-1v.56l.48.3.52-.86zm0-16.04v-1h-1v1h1zm.12 0v1h.08l.09-.02-.17-.98zm5.3-4.18l-.9-.42-.01.01v.01l.9.4zm3.66-7.84l-.9-.43.9.43zm.95-3.2l-.99-.14 1 .14zm.34-2.44l.19-.98-1.04-.2-.14 1.05.99.13zm1.92 1.28l.85-.52-.01-.01v-.02l-.84.55zm0 4.62l.95.32v-.01l-.95-.3zm-.92 7.12l.97-.21-.97.21zm30.96-11.48h1-1zm-7.61 5.36v1-1zm-1.43 1.1l.96.27-.96-.27zm-.14 5.6l-.48.88 1.96 1.08-.51-2.18-.97.22zm-4.75-5.65l-.96.3v.01l.01.02.95-.33zm-1.42-1.04v1-1zm-8.84 0v-1 1zM27 24.77l-.97-.27-.2.72.63.4.54-.85zm-.49-6.36l.85-.53-.85.53zm-2.03-1.96h-1v.59l.5.28.5-.87zM29.82 3V2v1zM48.7 3V2v1zm0-4H29.84v2H48.7v-2zM29.84-1a9.3 9.3 0 0 0-6.58 2.74l1.41 1.41A7.3 7.3 0 0 1 29.84 1v-2zm-6.58 2.74a9.36 9.36 0 0 0-2.73 6.6h2c0-1.95.77-3.81 2.14-5.19l-1.41-1.41zm-2.73 6.6v7.38h2V8.34h-2zm.83 6.4a4.3 4.3 0 0 0-1.91.92l1.32 1.5c.3-.28.54-.4.93-.45l-.34-1.97zm-1.91.92c-.5.45-.94 1.14-1.15 1.79l1.92.57c.1-.38.25-.6.55-.87l-1.32-1.5zm-1.15 1.79l-.08.36 1.98.28.02-.07-1.92-.57zm-.08.36l-.38 2.76 1.98.28.38-2.76-1.98-.28zm-.38 2.76c-.1.73-.29 1.38-.6 2.04l1.8.86a9.3 9.3 0 0 0 .78-2.62l-1.98-.28zm-.6 2.04l-3.73 7.86 1.81.86 3.72-7.86-1.8-.86zm-3.74 7.9c-.2.48-.44.8-.83 1.14l1.32 1.5a5.64 5.64 0 0 0 1.35-1.86l-1.84-.78zm-.83 1.14c-.38.35-.74.54-1.24.67l.53 1.93a5.5 5.5 0 0 0 2.03-1.1l-1.32-1.5zm.03 1.58a3.9 3.9 0 0 0-1.21-2.6l-1.37 1.46c.35.32.55.77.58 1.25l2-.1zm-1.21-2.6a3.83 3.83 0 0 0-2.67-1.04l.02 2c.48 0 .93.17 1.28.5l1.37-1.46zm-2.66-1.04H2.89v2h5.94v-2zm-5.92 0c-.47 0-1.03.1-1.47.26l.73 1.87c.25-.1.43-.14.7-.13l.04-2zm-1.47.26c-.44.18-.93.5-1.27.82l1.4 1.43c.19-.2.34-.29.6-.38l-.73-1.87zm-1.27.82c-.33.33-.66.8-.85 1.23l1.83.8c.1-.26.21-.4.41-.6L.17 30.67zm-.85 1.23c-.19.44-.3 1-.32 1.47l2 .03c0-.27.04-.45.15-.7l-1.83-.8zM-1 33.4v22.8h2V33.4h-2zm0 22.83a3.85 3.85 0 0 0 1.16 2.7l1.4-1.44c-.35-.34-.55-.8-.56-1.3l-2 .04zm1.16 2.7c.73.7 1.7 1.1 2.72 1.08l-.02-2c-.49 0-.96-.18-1.3-.52l-1.4 1.43zM2.86 60h5.95v-2H2.87v2zm5.93 0c1.02.01 2-.38 2.73-1.08l-1.4-1.44c-.35.34-.82.53-1.3.52l-.03 2zm2.73-1.08a3.85 3.85 0 0 0 1.16-2.7l-2-.03c0 .49-.21.95-.56 1.3l1.4 1.43zm1.16-2.72v-.35h-2v.35h2zm-1.52.51l1.25.75 1.02-1.72L12.2 55l-1.03 1.71zm1.24.74a11.2 11.2 0 0 0 5.6 1.57v-2a8.45 8.45 0 0 1-4.56-1.28l-1.04 1.71zm5.6 1.57h9.92v-2H18v2zm9.91 0c1.6 0 3.29-.56 4.58-1.48l-1.18-1.62a5.35 5.35 0 0 1-3.39 1.1v2zm4.58-1.48a8.22 8.22 0 0 0 2.83-3.9l-1.9-.61a5.39 5.39 0 0 1-2.1 2.9l1.17 1.61zm2.83-3.89l4.32-13.2-1.9-.62-4.32 13.2 1.9.62zm4.33-13.2c.33-1.06.45-2.29.32-3.4l-1.98.25c.11.89.04 1.68-.25 2.53l1.9.62zm.32-3.4a8.26 8.26 0 0 0-1.15-3.2l-1.69 1.07c.48.75.75 1.5.86 2.38l1.98-.24zm-1.15-3.2a8.23 8.23 0 0 0-2.4-2.4l-1.08 1.68a5.38 5.38 0 0 1 1.79 1.79l1.69-1.07zm-2.4-2.4a8.2 8.2 0 0 0-3.2-1.15l-.25 1.98c.88.1 1.62.37 2.37.85l1.07-1.69zm-3.2-1.15a76.02 76.02 0 0 0-7.33-.6l-.03 2c1.73.02 4.28.23 7.1.58l.25-1.98zm-6.35.33a8.1 8.1 0 0 1 .26-2.67l-1.93-.5a10.97 10.97 0 0 0-.32 3.3l2-.13zm-1.15-2.02c1.25.6 2.73.96 4.11.97v-2a6.97 6.97 0 0 1-3.22-.76l-.89 1.79zm4.12.97h7.82v-2h-7.82v2zm6.9-.62c1.61 3.81 4.76 6.11 7.08 7.3l.91-1.77c-2.19-1.12-4.81-2.96-6.15-6.3l-1.85.77zm7.08 7.3c.6.3 1.42.44 2.09.37l-.26-1.99c-.37.06-.6.02-.92-.16l-.9 1.79zm2.09.37c.66-.1 1.41-.44 1.92-.87l-1.32-1.5c-.27.25-.49.35-.86.38l.26 1.99zm1.92-.87a4.1 4.1 0 0 0 1.1-1.8l-1.93-.5c-.08.36-.2.56-.5.8l1.33 1.5zm1.1-1.8a4.1 4.1 0 0 0-.08-2.11l-1.88.65c.13.35.14.6.03.95l1.94.5zm-.07-2.1a6.17 6.17 0 0 1-.25-3.1l-1.98-.32a9.02 9.02 0 0 0 .33 4.05l1.9-.63zm-1.24-2.26h1.07v-2h-1.07v2zm1.07 0a9.3 9.3 0 0 0 6.58-2.74l-1.41-1.41a7.3 7.3 0 0 1-5.17 2.15v2zm6.58-2.74a9.36 9.36 0 0 0 2.73-6.6h-2c0 1.95-.77 3.81-2.14 5.19l1.41 1.41zm2.73-6.6V8.36h-2v11.9h2zm0-11.9c0-1.2-.25-2.47-.7-3.58l-1.85.76c.38.92.56 1.82.55 2.82h2zm-.7-3.58a9.8 9.8 0 0 0-2.02-3.04l-1.42 1.42a7.1 7.1 0 0 1 1.59 2.38l1.85-.76zm-2.02-3.04a9.76 9.76 0 0 0-3.02-2.03l-.77 1.85a6.9 6.9 0 0 1 2.37 1.6l1.42-1.42zM52.26-.28A9.74 9.74 0 0 0 48.69-1v2c1 0 1.88.17 2.8.56l.77-1.85zM8.75 55.02H2.97v2h5.78v-2zm-4.78 1V33.58h-2v22.44h2zm-1-21.44h5.78v-2H2.97v2zm4.78-1v22.44h2V33.58h-2zm24.85 1.68c.45.05.78.17 1.16.41l1.07-1.69a5.26 5.26 0 0 0-1.98-.7l-.25 1.98zm1.16.41c.38.24.63.49.86.87l1.7-1.07a5.27 5.27 0 0 0-1.5-1.49l-1.06 1.7zm.86.87c.25.38.37.71.42 1.16l1.98-.25a5.29 5.29 0 0 0-.7-1.98l-1.7 1.07zm.42 1.16c.06.45.03.8-.12 1.23l1.9.62c.2-.64.28-1.43.2-2.1l-1.98.25zm-.12 1.23L30.6 52.1l1.9.62 4.32-13.18-1.9-.62zM30.6 52.1a2.44 2.44 0 0 1-1.02 1.4l1.17 1.61a5.26 5.26 0 0 0 1.75-2.39l-1.9-.62zm-1.02 1.4c-.51.38-1 .54-1.64.53v2a5.24 5.24 0 0 0 2.81-.92l-1.17-1.61zm-1.64.53h-9.91v2h9.91v-2zm-9.92 0a5.49 5.49 0 0 1-3.04-.85l-1.03 1.71a8.33 8.33 0 0 0 4.08 1.14v-2zm-3.04-.85l-2.77-1.67-1.03 1.71 2.77 1.67 1.03-1.7zm-2.28-.81V36.34h-2v16.04h2zm-1-15.04h.12v-2h-.12v2zm.29-.02a8.56 8.56 0 0 0 3.62-1.62l-1.24-1.57a5.72 5.72 0 0 1-2.73 1.22l.35 1.97zm3.62-1.62a8.6 8.6 0 0 0 2.42-3.14l-1.83-.8a5.7 5.7 0 0 1-1.83 2.37l1.24 1.57zm2.41-3.11l3.67-7.85-1.81-.84-3.67 7.84 1.81.85zm3.67-7.84c.5-1.08.87-2.3 1.03-3.5l-1.98-.27a9.61 9.61 0 0 1-.86 2.91l1.8.86zm1.03-3.5l.34-2.43-1.98-.27-.34 2.43 1.98.28zm-.84-1.58c.3.05.48.12.72.3l1.11-1.67a4.5 4.5 0 0 0-1.45-.6l-.38 1.97zm.72.3c.25.15.4.3.55.55l1.67-1.1a4.5 4.5 0 0 0-1.1-1.12l-1.12 1.66zm.54.52c.4.65.5 1.89-.1 3.8l1.9.6c.66-2.07.78-4.03-.1-5.45l-1.7 1.05zm-.1 3.78c-1.02 3.07-1.4 5.68-.95 7.66l1.95-.45c-.32-1.43-.08-3.61.9-6.58l-1.9-.63zm-.95 7.65a4 4 0 0 0 1.24 1.99l1.25-1.57a1.2 1.2 0 0 1-.54-.85l-1.95.43zm1.24 1.99a4 4 0 0 0 2.2.76v-2c-.4.02-.64-.06-.95-.33l-1.25 1.57zm2.17.76c2.38.07 4.73.26 7.09.59l.27-1.98a67.37 67.37 0 0 0-7.3-.6l-.06 2zm27.53-14.45a4.4 4.4 0 0 1-1.27 3.09l1.41 1.4a6.37 6.37 0 0 0 1.86-4.49h-2zm-1.27 3.09a4.33 4.33 0 0 1-3.07 1.27v2c1.68 0 3.3-.67 4.48-1.86l-1.41-1.41zm-3.07 1.27h-2.27v2h2.27v-2zm-2.27 0c-.49.02-1.11.23-1.5.51l1.2 1.6c.13-.12.14-.12.3-.1v-2zm-1.5.51a3 3 0 0 0-.9 1.32l1.93.53c.03-.16.04-.17.18-.26L44.9 25.1zm-.9 1.3c-.55 1.96-.6 4.14-.15 6.12l1.95-.45a9.73 9.73 0 0 1 .13-5.1l-1.92-.56zm1.3 5.02a8.82 8.82 0 0 1-4.28-5.1l-1.89.65c.9 2.58 2.83 4.87 5.22 6.2l.96-1.75zm-4.27-5.08a3 3 0 0 0-.9-1.26l-1.19 1.61c.14.09.15.1.18.25l1.91-.6zm-.9-1.26c-.4-.27-1-.47-1.48-.48v2c.17-.01.17-.01.3.1l1.18-1.62zm-1.47-.48h-8.84v2h8.84v-2zm-8.84 0c-.86.01-1.58-.2-2.3-.67l-1.08 1.7c.98.6 2.24.96 3.38.97v-2zm-1.88.44c.75-2.71.62-5.17-.6-7.15l-1.7 1.05c.83 1.36 1.03 3.2.37 5.57l1.93.53zm-.6-7.15a7.18 7.18 0 0 0-2.38-2.3l-1 1.74c.73.4 1.25.9 1.68 1.62l1.7-1.06zm-1.88-1.43V8.36h-2v8.1h2zm0-8.09a4.4 4.4 0 0 1 1.27-3.09l-1.41-1.4a6.37 6.37 0 0 0-1.86 4.5h2zm1.27-3.09A4.33 4.33 0 0 1 29.82 4V2c-1.68 0-3.3.67-4.48 1.86l1.41 1.41zM29.82 4H48.7V2H29.82v2zM48.7 4c1.15 0 2.25.46 3.07 1.27l1.41-1.4A6.33 6.33 0 0 0 48.7 2v2zm3.07 1.27a4.37 4.37 0 0 1 1.27 3.1h2c0-1.7-.67-3.31-1.86-4.5l-1.41 1.4zm1.27 3.1v11.85h2V8.36h-2z"/>
    <path id="path82_fill" d="M10.45.44L4.67 6.23 2.54 4.11A1.48 1.48 0 0 0 0 5.17c0 .4.16.77.44 1.05l3.18 3.2a1.48 1.48 0 0 0 2.1 0l6.82-6.87A1.5 1.5 0 0 0 11.5 0c-.4 0-.77.16-1.05.44z"/>
    <path id="path83_stroke_2x" d="M10.45.44l.7.7.7-.7-.7-.7-.7.7zM4.67 6.23l-.7.71.7.7.71-.7-.7-.71zM2.54 4.11l-.71.71.7-.7zm-1.05-.43v1-1zM0 5.17h-1 1zm.44 1.05l-.71.7v.01l.7-.7zm3.18 3.2l.71-.7-.7.7zm1.05.44v1-1zm1.06-.44l.7.7-.7-.7zm6.81-6.87l-.7-.7.7.7zM11.5 0v1-1zm-1.05.44l-.7-.7-.71.7.7.7.71-.7zm-.7-.7L3.97 5.52l1.41 1.42 5.77-5.8-1.41-1.4zM5.38 5.52L3.24 3.4l-1.4 1.42 2.13 2.12 1.4-1.42zM3.25 3.4a2.48 2.48 0 0 0-1.76-.73v2a.5.5 0 0 1 .34.14L3.25 3.4zm-1.76-.73c-.66 0-1.3.26-1.76.73l1.41 1.41c.1-.1.22-.14.35-.14v-2zm-1.76.73A2.5 2.5 0 0 0-1 5.17h2a.5.5 0 0 1 .14-.35L-.27 3.41zM-1 5.17c0 .66.26 1.3.73 1.76l1.41-1.41A.5.5 0 0 1 1 5.17h-2zm.73 1.76l3.19 3.2L4.33 8.7 1.14 5.5-.27 6.92zm3.18 3.2a3 3 0 0 0 .81.54l.77-1.85c-.1-.03-.1-.03-.16-.1l-1.42 1.4zm.81.54a3 3 0 0 0 .95.19v-2c-.1 0-.1 0-.18-.04l-.77 1.85zm.95.19a3 3 0 0 0 .96-.2l-.77-1.84c-.09.04-.09.04-.19.04v2zm.96-.2a3 3 0 0 0 .8-.54l-1.41-1.4c-.07.07-.07.07-.16.1l.77 1.85zm.8-.54l6.82-6.87-1.42-1.4L5.02 8.7l1.42 1.41zm6.82-6.87c.47-.47.73-1.1.73-1.76h-2a.5.5 0 0 1-.15.35l1.42 1.41zm.73-1.76c0-.66-.26-1.3-.73-1.76l-1.42 1.41c.1.1.15.22.15.35h2zm-.73-1.76A2.48 2.48 0 0 0 11.49-1v2c.13 0 .25.05.34.14l1.42-1.4zM11.49-1c-.66 0-1.3.26-1.76.73l1.42 1.41a.48.48 0 0 1 .34-.14v-2zM9.73 1.14l1.42-1.4-1.42 1.4z"/>
    <path id="path84_fill" d="M1.39 12.51c0 .38.18.56.52.56h.16c.36 0 .54-.25.54-.56V8.46h2.3c2.92 0 4.43-1.26 4.43-3.58 0-2.25-1.56-3.53-4.28-3.53H2.07a.68.68 0 0 0-.68.69V12.5zM2.6 7.38V2.45h2.47c1.98 0 3 .85 3 2.47 0 1.6-1.02 2.46-3.06 2.46h-2.4zm8.55 5.13c0 .44.21.56.52.56h.12c.3 0 .53-.12.53-.56V9.15c0-2.2.59-3.8 2.12-3.8.49 0 .8.14 1.04.36.04.04.33-.18.33-.61 0-.56-.45-.88-1.24-.88-1.16 0-1.91.6-2.27 1.78v-.5c0-.94-.36-1.14-.76-1.14-.21 0-.4.09-.4.13v8.02zm5.41-3.81A4.33 4.33 0 0 0 21 13.22a4.3 4.3 0 0 0 4.41-4.49 4.32 4.32 0 0 0-4.4-4.51 4.3 4.3 0 0 0-4.44 4.48zm1.2 0c0-2 1.38-3.46 3.23-3.46 1.86 0 3.22 1.5 3.22 3.5s-1.38 3.45-3.22 3.45c-1.85 0-3.24-1.5-3.24-3.5zm11.56 3.98c.13.3.18.43.8.43.59 0 .71-.16.84-.47l3.15-7.94c.02-.05-.16-.34-.58-.34-.36 0-.57.16-.84.86l-2.58 6.74-2.52-6.74c-.27-.7-.46-.86-.88-.86-.41 0-.6.27-.57.34l3.18 7.98zm6.92-10.39c.53 0 .8-.25.8-.77 0-.53-.26-.78-.76-.78-.52 0-.8.25-.8.78 0 .5.28.77.76.77zm-.57 10.22c0 .44.21.56.52.56h.13c.3 0 .52-.12.52-.56v-7.6c0-.42-.22-.55-.52-.55h-.13c-.3 0-.52.13-.52.56v7.6zm3.1-3.78c0 2.72 1.78 4.49 4.04 4.49 1.43 0 2.43-.6 3.2-1.64v.93c0 .44.2.56.51.56h.13c.3 0 .52-.12.52-.56V1.88c0-.94-.38-1.14-.77-1.14-.22 0-.4.1-.4.13v4.86c-.5-.8-1.6-1.51-3.11-1.51-2.38 0-4.13 1.81-4.13 4.51zm1.18-.01c0-2.07 1.2-3.48 3.03-3.48 1.5 0 2.5.78 3.04 2.02v2.18c-.07 1.58-1.51 2.75-3.08 2.75-1.73 0-2.99-1.46-2.99-3.47zm9.06.03a4.25 4.25 0 0 0 4.43 4.47c2.32 0 3.62-1.32 3.62-1.91 0-.56-.65-.72-.69-.67-.5.81-1.26 1.53-2.93 1.53a3.16 3.16 0 0 1-3.26-3.13h6.66c.36 0 .49-.07.49-.4v-.1c0-2.61-1.59-4.32-4-4.32-2.48 0-4.32 1.92-4.32 4.53zm1.2-.72c.26-1.64 1.5-2.79 3.12-2.79 1.6 0 2.65 1.1 2.76 2.8h-5.87zm11.93 1.4c0 2.27 1.13 3.79 3.4 3.79a3.4 3.4 0 0 0 2.92-1.55v.27c0 .93.36 1.13.75 1.13.22 0 .4-.09.4-.12V4.92c0-.43-.22-.56-.52-.56h-.13c-.3 0-.52.13-.52.56v5.38a3 3 0 0 1-2.74 1.82c-1.53 0-2.4-1.03-2.4-2.76V4.92c0-.43-.2-.56-.51-.56h-.13c-.3 0-.52.13-.52.56v4.52zm9.23 2.04c0 .65 1.24 1.75 3.53 1.75 2.09 0 3.38-1.03 3.38-2.61 0-1.77-1.76-2.15-3.15-2.45-1.58-.34-2.4-.6-2.4-1.51 0-.85.76-1.44 2.17-1.44a2.9 2.9 0 0 1 2.52 1.26c.03.05.65-.17.65-.62 0-.64-1.08-1.63-3.17-1.63-1.98 0-3.28 1.06-3.28 2.59 0 1.73 1.68 2.1 3 2.4 1.63.33 2.53.55 2.53 1.58 0 .86-.8 1.44-2.22 1.44-1.42 0-2.35-.6-2.93-1.39-.04-.04-.63.14-.63.63zm13.18 1.19c.07.3.2.45.86.45.6 0 .68-.15.8-.45l1.94-5.87 1.89 5.87c.1.3.2.45.79.45.66 0 .8-.15.86-.45l2.05-7.96c.02-.05-.28-.34-.64-.34-.27 0-.6.2-.7.83l-1.55 6.73-1.82-5.78c-.1-.34-.29-.48-.88-.48-.6 0-.78.14-.89.48l-1.83 5.78-1.57-6.73c-.12-.63-.43-.83-.7-.83-.38 0-.7.27-.68.34l2.07 7.96zm11.5-10.37c.52 0 .79-.25.79-.77 0-.53-.25-.78-.76-.78-.52 0-.79.25-.79.78 0 .5.27.77.76.77zm-.58 10.22c0 .44.22.56.52.56h.13c.3 0 .52-.12.52-.56v-7.6c0-.42-.22-.55-.52-.55H96c-.3 0-.52.13-.52.56v7.6zm4.21-2.03c0 1.78.72 2.74 2.4 2.74 1.13 0 1.76-.58 1.76-1.07 0-.45-.36-.6-.4-.57-.3.38-.73.63-1.33.63-.95 0-1.28-.6-1.28-1.86V5.48h2.29c.43 0 .56-.17.56-.47V4.9c0-.3-.13-.47-.56-.47h-2.29v-1.5c0-.42-.2-.55-.5-.55h-.13c-.3 0-.52.13-.52.56v1.5h-.8c-.42 0-.55.15-.55.46V5c0 .31.13.48.56.48h.8v5zm5.68 2.03c0 .44.22.56.53.56h.12c.3 0 .52-.12.52-.56V8.25c0-1.78 1.14-2.94 2.83-2.94 1.44 0 2.3 1.03 2.3 2.76v4.44c0 .44.22.56.53.56h.12c.3 0 .52-.12.52-.56V8c0-2.27-1.13-3.78-3.4-3.78-1.35 0-2.3.66-2.9 1.58V1.88c0-.94-.37-1.14-.77-1.14-.22 0-.4.1-.4.13V12.5zM2 28.51c0 .44.21.56.52.56h.13c.3 0 .5-.12.5-.56v-7.03h1.71c.43 0 .56-.17.56-.47v-.11c0-.3-.13-.47-.56-.47H3.13v-.74c0-1.42.42-2.05 1.39-2.05.57 0 1.11.27 1.37.52.03.04.34-.14.34-.55 0-.53-.56-1.01-1.71-1.01C2.86 16.6 2 17.68 2 19.64v.8H.74c-.43 0-.56.15-.56.46v.1c0 .31.13.48.56.48H2v7.03zm4.22-3.76a4.25 4.25 0 0 0 4.43 4.47c2.32 0 3.62-1.32 3.62-1.91 0-.56-.65-.72-.69-.67-.5.81-1.26 1.53-2.93 1.53a3.16 3.16 0 0 1-3.26-3.13h6.66c.36 0 .49-.07.49-.4v-.1c0-2.61-1.59-4.32-4-4.32-2.48 0-4.32 1.92-4.32 4.53zm1.2-.72c.26-1.64 1.5-2.79 3.12-2.79 1.6 0 2.65 1.1 2.75 2.8H7.43zm8.36.72a4.25 4.25 0 0 0 4.43 4.47c2.32 0 3.62-1.32 3.62-1.91 0-.56-.65-.72-.69-.67-.5.81-1.26 1.53-2.93 1.53a3.16 3.16 0 0 1-3.26-3.13h6.66c.36 0 .49-.07.49-.4v-.1c0-2.61-1.59-4.32-4-4.32-2.48 0-4.32 1.92-4.32 4.53zm1.2-.72c.26-1.64 1.5-2.79 3.12-2.79 1.6 0 2.65 1.1 2.76 2.8h-5.87zm8.36.7c0 2.72 1.79 4.49 4.05 4.49 1.43 0 2.43-.6 3.2-1.64v.93c0 .44.2.56.51.56h.13c.3 0 .52-.12.52-.56V17.88c0-.94-.38-1.14-.77-1.14-.22 0-.4.1-.4.13v4.86c-.5-.8-1.6-1.51-3.11-1.51-2.38 0-4.13 1.81-4.13 4.51zm1.2-.01c0-2.07 1.2-3.48 3.02-3.48 1.5 0 2.5.78 3.04 2.02v2.18c-.07 1.58-1.51 2.75-3.08 2.75-1.73 0-2.99-1.46-2.99-3.47zm9.63 3.8c0 .43.21.55.52.55h.13c.3 0 .5-.12.5-.56v-.82c.49.8 1.58 1.53 3.13 1.53 2.38 0 4.12-1.82 4.12-4.52 0-2.72-1.78-4.48-4.05-4.48-1.42 0-2.4.59-3.18 1.62v-3.96c0-.94-.38-1.14-.78-1.14-.21 0-.4.1-.4.13V28.5zm1.15-3.23v-2.01a3.2 3.2 0 0 1 3.08-2.04c1.73 0 2.99 1.46 2.99 3.48 0 2.07-1.2 3.47-3.03 3.47-1.62 0-3.04-1.26-3.04-2.9zm8.56 1.51c0 1.44 1.08 2.4 2.95 2.4a3.8 3.8 0 0 0 3.2-1.59v.33c0 .93.34 1.13.74 1.13.22 0 .4-.09.4-.12v-5.4c0-2.07-1.3-3.33-3.48-3.33-2.27 0-3.49 1.36-3.49 1.98 0 .63.67.7.67.68a2.94 2.94 0 0 1 2.73-1.58c1.55 0 2.41.8 2.41 2.28v.3h-.18c-3.96.1-5.95.93-5.95 2.92zm1.18 0c0-1.35 1.52-1.87 4.45-1.98l.5-.01v.79c0 1.53-1.3 2.63-3.07 2.63-1.17 0-1.88-.56-1.88-1.43zm7.87-2.1a4.34 4.34 0 0 0 4.4 4.52c2.51 0 3.7-1.6 3.7-2.38 0-.52-.74-.63-.78-.56a2.89 2.89 0 0 1-2.91 1.9c-1.86 0-3.22-1.48-3.22-3.48s1.38-3.44 3.22-3.44c1.64 0 2.46.83 2.91 1.89.04.07.78-.04.78-.56 0-.77-1.19-2.37-3.7-2.37a4.32 4.32 0 0 0-4.4 4.48zm9.9 3.81c0 .44.2.56.51.56h.13c.3 0 .52-.12.52-.56v-3.87l4 3.98c.34.34.54.45.75.45.49 0 .69-.56.63-.61l-4.1-4 3.55-3.52c.05-.06-.11-.58-.58-.58-.23 0-.47.13-.8.47L66 24.36v-6.48c0-.94-.38-1.14-.77-1.14-.22 0-.4.1-.4.13V28.5zm13.28.17c.13.3.18.43.8.43.59 0 .71-.16.84-.47l3.15-7.94c.02-.05-.16-.34-.58-.34-.36 0-.57.16-.84.86l-2.58 6.74-2.52-6.74c-.27-.7-.47-.86-.88-.86-.41 0-.6.27-.58.34l3.19 7.98zm6.92-10.39c.53 0 .8-.25.8-.77 0-.53-.26-.78-.76-.78-.52 0-.8.25-.8.78 0 .5.28.77.76.77zm-.57 10.22c0 .44.21.56.52.56h.13c.3 0 .52-.12.52-.56v-7.6c0-.42-.22-.55-.52-.55h-.13c-.3 0-.52.13-.52.56v7.6zm3.13-1.7c0 1.43 1.08 2.39 2.95 2.39a3.8 3.8 0 0 0 3.2-1.59v.33c0 .93.35 1.13.74 1.13.22 0 .4-.09.4-.12v-5.4c0-2.07-1.3-3.33-3.47-3.33-2.27 0-3.5 1.36-3.5 1.98 0 .63.67.7.67.68a2.94 2.94 0 0 1 2.74-1.58c1.54 0 2.4.8 2.4 2.28v.3h-.17c-3.96.1-5.96.93-5.96 2.92zm1.19 0c0-1.36 1.51-1.88 4.44-1.99l.5-.01v.79c0 1.53-1.3 2.63-3.07 2.63-1.17 0-1.87-.56-1.87-1.43zm12.04-.33c0 1.78.72 2.74 2.39 2.74 1.13 0 1.76-.58 1.76-1.07 0-.45-.36-.6-.4-.57-.3.38-.73.63-1.32.63-.96 0-1.28-.6-1.28-1.86v-4.87h2.28c.44 0 .56-.17.56-.47v-.11c0-.3-.12-.47-.56-.47h-2.28v-1.5c0-.42-.2-.55-.5-.55h-.13c-.3 0-.52.13-.52.56v1.5h-.8c-.43 0-.55.15-.55.46v.1c0 .31.12.48.55.48h.8v5zm5.68 2.03c0 .44.22.56.52.56h.13c.3 0 .52-.12.52-.56v-4.26c0-1.78 1.13-2.94 2.83-2.94 1.44 0 2.3 1.03 2.3 2.76v4.44c0 .44.22.56.52.56h.13c.3 0 .52-.12.52-.56V24c0-2.27-1.14-3.78-3.4-3.78-1.35 0-2.3.66-2.9 1.58v-3.92c0-.94-.38-1.14-.78-1.14-.21 0-.4.1-.4.13V28.5zm9.23-3.76a4.25 4.25 0 0 0 4.43 4.47c2.32 0 3.62-1.32 3.62-1.91 0-.56-.65-.72-.69-.67-.5.81-1.26 1.53-2.93 1.53a3.16 3.16 0 0 1-3.26-3.13h6.66c.36 0 .49-.07.49-.4v-.1c0-2.61-1.59-4.32-4-4.32-2.48 0-4.32 1.92-4.32 4.53zm1.2-.72c.26-1.64 1.5-2.79 3.12-2.79 1.6 0 2.65 1.1 2.76 2.8h-5.87zm11.46 2.77c0 1.44 1.08 2.4 2.95 2.4a3.8 3.8 0 0 0 3.2-1.59v.33c0 .93.35 1.13.74 1.13.22 0 .4-.09.4-.12v-5.4c0-2.07-1.3-3.33-3.47-3.33-2.27 0-3.5 1.36-3.5 1.98 0 .63.67.7.67.68a2.94 2.94 0 0 1 2.74-1.58c1.54 0 2.4.8 2.4 2.28v.3h-.17c-3.96.1-5.96.93-5.96 2.92zm1.19 0c0-1.35 1.5-1.87 4.44-1.98l.5-.01v.79c0 1.53-1.3 2.63-3.07 2.63-1.17 0-1.87-.56-1.87-1.43zm9.6.78a3.58 3.58 0 0 0 3.12 1.64c2.38 0 4.12-1.82 4.12-4.52 0-2.72-1.78-4.48-4.05-4.48-1.42 0-2.43.59-3.2 1.65v-.38c0-.93-.36-1.13-.76-1.13-.21 0-.4.09-.4.13v11.5c0 .43.22.56.53.56h.13c.3 0 .52-.13.52-.56v-4.41zm-.01-2.29v-2.01a3.2 3.2 0 0 1 3.08-2.04c1.72 0 2.99 1.46 2.99 3.48 0 2.07-1.21 3.47-3.03 3.47-1.62 0-3.04-1.26-3.04-2.9zm10.27 2.29a3.58 3.58 0 0 0 3.1 1.64c2.39 0 4.13-1.82 4.13-4.52 0-2.72-1.78-4.48-4.05-4.48-1.42 0-2.43.59-3.2 1.65v-.38c0-.93-.36-1.13-.76-1.13-.22 0-.4.09-.4.13v11.5c0 .43.22.56.53.56h.12c.3 0 .53-.13.53-.56v-4.41zm-.02-2.29v-2.01a3.2 3.2 0 0 1 3.08-2.04c1.72 0 2.98 1.46 2.98 3.48 0 2.07-1.2 3.47-3.02 3.47-1.62 0-3.04-1.26-3.04-2.9z"/>
  </defs>
</svg>
